<?xml version="1.0" encoding="UTF-8" standalone="no"?>
<!-- Created with Inkscape (http://www.inkscape.org/) -->

<svg
   xmlns:dc="http://purl.org/dc/elements/1.1/"
   xmlns:cc="http://creativecommons.org/ns#"
   xmlns:rdf="http://www.w3.org/1999/02/22-rdf-syntax-ns#"
   xmlns:svg="http://www.w3.org/2000/svg"
   xmlns="http://www.w3.org/2000/svg"
   xmlns:sodipodi="http://sodipodi.sourceforge.net/DTD/sodipodi-0.dtd"
   xmlns:inkscape="http://www.inkscape.org/namespaces/inkscape"
   width="210mm"
   height="297mm"
   id="svg2"
   version="1.1"
   inkscape:version="0.48.3.1 r9886"
   sodipodi:docname="doris_reference_background.svg"
   inkscape:export-filename="/home/guillaume/Documents/Dev/INRIA-Git/doris-android/DorisAndroid/images_source/doris_reference_background.png"
   inkscape:export-xdpi="200"
   inkscape:export-ydpi="200">
  <defs
     id="defs4" />
  <sodipodi:namedview
     id="base"
     pagecolor="#ffffff"
     bordercolor="#666666"
     borderopacity="1.0"
     inkscape:pageopacity="0.0"
     inkscape:pageshadow="2"
     inkscape:zoom="1.4"
     inkscape:cx="255.19262"
     inkscape:cy="645.01256"
     inkscape:document-units="px"
     inkscape:current-layer="layer1"
     showgrid="false"
     inkscape:window-width="1366"
     inkscape:window-height="745"
     inkscape:window-x="0"
     inkscape:window-y="2"
     inkscape:window-maximized="1" />
  <metadata
     id="metadata7">
    <rdf:RDF>
      <cc:Work
         rdf:about="">
        <dc:format>image/svg+xml</dc:format>
        <dc:type
           rdf:resource="http://purl.org/dc/dcmitype/StillImage" />
        <dc:title></dc:title>
      </cc:Work>
    </rdf:RDF>
  </metadata>
  <g
     inkscape:label="Calque 1"
     inkscape:groupmode="layer"
     id="layer1">
    <path
       style="fill:#000000"
       d="m 461.28095,704.87953 c -3.17605,-0.73949 -12.91526,-4.64607 -21.64269,-8.68129 l -15.86804,-7.33675 -13.78971,0.85627 c -7.58434,0.47095 -18.67071,2.21255 -24.63637,3.87023 -32.03336,8.90107 -57.3256,11.06916 -68.77378,5.89539 -3.71194,-1.67754 -10.61009,-7.85823 -18.80087,-16.84547 -22.13966,-24.29249 -27.05006,-28.73128 -34.62468,-31.29922 -14.71323,-4.98806 -19.39512,-3.18415 -26.74435,10.30448 -1.99793,3.66693 -5.25957,7.48295 -7.24812,8.48007 -4.86774,2.44079 -19.4614,2.33771 -24.29601,-0.17164 -4.02686,-2.09009 -14.23271,-13.18961 -23.85922,-25.94841 -3.02044,-4.00325 -9.67661,-11.04039 -14.79146,-15.63808 -11.38634,-10.23505 -13.49378,-15.54971 -11.02195,-27.79587 0.91168,-4.51679 1.65761,-10.6821 1.65761,-13.7007 0,-4.64419 -0.55234,-5.62628 -3.59104,-6.3851 -1.97505,-0.49321 -8.37613,0.16247 -14.2246,1.45708 -5.84845,1.29459 -11.87939,1.90293 -13.40205,1.35181 -1.52267,-0.55111 -5.51985,-3.48548 -8.88262,-6.52079 -4.46198,-4.02749 -7.39293,-5.52094 -10.84664,-5.52679 -16.437269,-0.0279 -20.699189,-5.75548 -19.132409,-25.712 l 0.97447,-12.41189 -8.68156,-10.31037 c -4.77486,-5.67069 -9.481062,-12.7207 -10.458243,-15.66668 -2.439991,-7.356 -1.035581,-16.6294 4.455823,-29.42215 4.47654,-10.42859 4.60466,-11.28497 3.80408,-25.4278 -0.62073,-10.96574 -1.61287,-16.16552 -3.95657,-20.73642 -2.725695,-5.31592 -3.00444,-7.50541 -2.166934,-17.02094 0.970954,-11.03179 2.756254,-15.93619 13.403654,-36.82119 11.69452,-22.93889 29.867949,-45.3129 52.204899,-64.27149 8.49088,-7.20668 15.64838,-13.9863 15.90556,-15.06584 0.34802,-1.46081 -1.40734,-1.96279 -6.86371,-1.96279 -6.40591,0 -10.74023,-1.72881 -34.33692,-13.69578 -14.853079,-7.5327 -27.838389,-14.38349 -28.856249,-15.22399 -1.01786,-0.8405 -2.59721,-3.77883 -3.50965,-6.52963 -1.48839,-4.48715 -1.2729,-5.58194 2.09534,-10.6461 2.0649,-3.10455 3.76431,-7.43921 3.77649,-9.63258 0.0319,-5.76815 1.86681,-7.83481 7.38944,-8.32333 2.92299,-0.25857 4.71364,-1.13054 4.46339,-2.17351 -0.81503,-3.39671 2.84946,-11.4742 6.502509,-14.33322 2.21767,-1.73564 5.88174,-2.90039 9.12405,-2.90039 5.23441,0 5.47515,-0.22516 7.09834,-6.639 2.32321,-9.17986 9.50976,-22.91156 13.41536,-25.63337 4.73203,-3.29776 7.0203,-2.88591 19.41072,3.49357 6.14846,3.16567 11.38987,5.75576 11.6476,5.75576 0.25772,0 0.47221,-1.45693 0.47665,-3.23761 0.0144,-5.58101 2.95596,-14.10089 5.87071,-17.00099 4.53429,-4.51146 9.41464,-3.47214 17.04593,3.63012 l 6.89238,6.41457 1.76947,-8.52378 c 2.17444,-10.47454 5.1719,-12.93899 15.73739,-12.93899 l 7.63243,0 0,-7.8205 c 0,-4.30128 0.63468,-9.48147 1.41042,-11.51152 2.43998,-6.38533 14.53229,-4.66528 27.60947,3.92724 3.63642,2.38935 3.77674,2.35001 6.97682,-1.95656 4.71256,-6.34199 8.71743,-5.25743 12.9194,3.49868 3.34357,6.96735 3.38847,6.99749 9.08082,6.09182 7.53376,-1.19862 12.2073,3.12501 13.63789,12.61686 1.80255,11.95975 -0.0144,16.4619 -10.81427,26.80046 -9.65678,9.24406 -9.7933,9.48087 -10.71784,18.59282 -0.51508,5.07622 -2.46457,12.55051 -4.33226,16.60951 -3.97041,8.62885 -6.05804,18.04866 -3.99997,18.04866 0.77408,0 7.47426,-1.62131 14.8893,-3.60292 39.06469,-10.4397 86.08426,-13.31138 116.33355,-7.105 20.7988,4.26739 50.73011,14.72986 70.40365,24.60955 15.44139,7.75439 51.12633,33.00274 61.94192,43.82609 15.16341,15.17428 35.80783,40.61386 41.03473,50.56597 2.38414,4.53949 5.03488,8.25517 5.89051,8.25704 0.85561,10e-4 3.13341,-1.70314 5.06177,-3.78894 13.46859,-14.56836 24.19142,-15.63668 29.52271,-2.94135 4.27239,10.17381 1.91118,24.69876 -6.81007,41.89214 -5.88377,11.59945 -5.15012,15.35565 8.29677,42.47798 15.43195,31.12624 20.95045,38.48887 33.96104,45.31 3.5794,1.87659 8.46039,5.45745 10.84666,7.95747 6.0947,6.38523 5.98832,15.54724 -0.35394,30.48188 -3.77812,8.89669 -5.37281,16.09566 -8.28745,37.41244 -4.26483,31.1916 -7.61906,44.07053 -15.2966,58.73271 -7.39599,14.12452 -15.22028,23.40227 -30.29528,35.92299 -20.07368,16.67244 -34.4178,21.66862 -49.86033,17.36674 -8.25525,-2.29969 -12.34788,-1.17882 -15.9427,4.36634 -3.50563,5.4076 -8.46846,8.185 -16.84128,9.42508 -5.11344,0.75733 -7.93062,2.51281 -14.97557,9.33173 -4.77253,4.61938 -11.09692,9.39831 -14.0542,10.61984 -5.90072,2.43734 -16.01657,2.67515 -24.98352,0.58734 z m 20.80883,-5.51795 c 2.79295,-0.79697 8.9935,-5.33456 14.45265,-10.57648 8.23934,-7.91149 10.53637,-9.32595 16.61557,-10.23148 9.73333,-1.44981 10.27274,-1.74537 14.64706,-8.02574 5.04399,-7.24183 9.5322,-8.7528 18.79267,-6.32659 3.9771,1.04199 9.8343,1.91678 13.01598,1.94398 17.635,0.15074 51.6782,-28.23054 64.02589,-53.37737 7.21856,-14.70108 9.44679,-23.64974 14.17151,-56.91341 2.77044,-19.50481 4.68079,-27.92481 8.59961,-37.90306 2.77089,-7.05537 5.03798,-14.0496 5.03798,-15.54275 0,-3.95717 -5.10233,-9.77832 -12.19668,-13.91495 -11.71017,-6.82807 -21.214,-18.65294 -33.15204,-41.24847 -6.13813,-11.61782 -12.20675,-24.24453 -13.48586,-28.05934 -1.27912,-3.81482 -2.58447,-7.23339 -2.90081,-7.59681 -0.31633,-0.36344 -3.02734,2.1721 -6.02447,5.63449 l -5.44931,6.2953 1.8953,7.2698 c 2.88674,11.07266 2.48689,21.49225 -0.94327,24.58089 -3.89661,3.50862 -6.4877,2.10041 -11.72862,-6.3743 -2.46498,-3.98592 -5.31567,-7.24714 -6.33488,-7.24714 -1.0192,0 -3.55971,2.56589 -5.64558,5.70199 -3.23832,4.86881 -3.56658,6.28807 -2.24648,9.71285 2.93452,7.61308 -1.35463,20.55867 -6.81153,20.55867 -2.82948,0 -4.88852,-4.82607 -4.88852,-11.45797 0,-10.59089 7.12822,-21.64746 27.56289,-42.75269 16.28736,-16.82183 19.45936,-20.91717 25.3577,-32.73895 5.55786,-11.13939 6.84902,-15.24073 7.3531,-23.35695 0.69347,-11.16544 -1.36962,-16.77515 -6.43567,-17.49913 -5.55389,-0.79369 -11.45746,5.05946 -27.0586,26.82749 -19.12826,26.68938 -25.61396,34.01531 -38.96481,44.01287 -7.70086,5.76666 -12.01663,8.04136 -15.25681,8.04136 -7.10695,0 -12.98158,-3.84612 -15.94972,-10.44229 -3.47291,-7.71795 -1.44784,-13.33332 6.2399,-17.30283 9.58494,-4.9491 20.48442,-0.56238 22.54464,9.07353 l 1.0694,5.00166 9.45748,-9.51812 c 5.20162,-5.23497 14.12348,-16.06594 19.82635,-24.06885 l 10.36889,-14.55069 -3.62944,-7.12629 c -4.50797,-8.85125 -6.13871,-9.9846 -5.40818,-3.75861 0.78331,6.67591 -3.46677,9.00389 -11.86707,6.5002 -4.45605,-1.32813 -9.35363,-5.23921 -19.67225,-15.70978 -20.50178,-20.80368 -36.87559,-30.74542 -67.47189,-40.96719 -31.31408,-10.46157 -42.27702,-17.88279 -40.37741,-27.33298 1.63803,-8.14894 11.31227,-15.09633 24.34605,-17.4837 2.99161,-0.54796 5.80506,-1.58514 6.25208,-2.30482 1.0383,-1.67152 -12.01135,-7.44643 -30.42782,-13.46535 l -14.3978,-4.7055 -5.13056,4.10227 c -8.51886,6.8115 -26.59603,12.09693 -55.99036,16.37059 -8.88757,1.29217 -25.07272,4.90827 -35.96697,8.03578 -25.88625,7.43138 -36.8658,7.31737 -41.73142,-0.43334 -2.18838,-3.48598 3.60108,-14.12107 11.21889,-20.60882 3.18263,-2.71049 5.47333,-4.92815 5.09044,-4.92815 -0.38289,0 -6.19452,1.60523 -12.91475,3.56716 -6.72023,1.96194 -13.03209,3.58074 -14.02637,3.59735 -3.76062,0.0627 -1.52607,-14.43249 4.15044,-26.92345 1.52193,-3.34896 3.12374,-9.17667 3.55959,-12.95046 1.41704,-12.26928 2.10341,-13.66934 11.41148,-23.27698 10.21951,-10.54837 12.40653,-16.37439 9.47002,-25.22726 -1.62858,-4.90987 -1.98429,-5.12684 -8.03132,-4.89927 -7.34635,0.27647 -10.02964,-1.50175 -12.49271,-8.27897 -0.97846,-2.69225 -2.19462,-4.89499 -2.70256,-4.89499 -2.28727,0 -3.8095,7.19834 -3.15784,14.93284 0.45211,5.36603 -0.22239,12.53068 -1.8452,19.60023 -2.19756,9.57332 -2.93782,11.04371 -5.25618,10.44051 -3.1957,-0.83149 -3.21817,-1.39738 -0.50012,-12.59743 2.9149,-12.01122 2.71488,-19.74986 -0.61944,-23.96744 -3.69848,-4.67817 -16.72137,-11.59535 -20.75653,-11.02495 -2.91224,0.41168 -3.28257,1.3822 -3.67387,9.62789 -0.37204,7.83949 0.0883,9.9274 3.17316,14.3894 4.34881,6.29039 6.98344,12.89154 5.86432,14.6932 -1.84323,2.96739 -5.01004,0.96223 -7.5765,-4.7973 -1.49878,-3.36353 -3.80741,-7.0045 -5.13023,-8.09102 -2.93661,-2.41204 -13.97768,-3.6707 -16.61068,-1.89359 -2.48225,1.67538 -4.94655,12.64257 -3.9143,17.42031 0.64286,2.97537 0.0791,4.04742 -2.8285,5.37833 -3.33082,1.52465 -4.08051,1.15781 -9.05696,-4.4318 -2.98404,-3.35173 -7.17043,-7.22074 -9.30307,-8.59779 -3.80791,-2.4588 -3.92222,-2.43589 -6.36663,1.27597 -4.08665,6.20561 -4.08808,15.7892 -0.005,33.66753 4.46747,19.56139 4.5054,20.31152 1.02706,20.31152 -2.23707,0 -3.25566,-2.33958 -5.79488,-13.3102 -1.69439,-7.32061 -3.07623,-14.13266 -3.07072,-15.13789 0.0116,-2.13281 -17.40137,-13.56715 -24.09555,-15.82245 -3.78125,-1.27391 -4.94879,-1.12392 -6.6837,0.8586 -2.93774,3.35701 -5.19906,7.94336 -8.21062,16.65252 -2.54188,7.35091 -2.53522,7.57056 0.34844,11.50926 2.44926,3.34538 2.6011,4.23547 0.91007,5.33463 -1.11633,0.72562 -3.33129,0.91961 -4.92213,0.4311 -12.37686,-3.80072 -19.52398,-1.05637 -19.52398,7.49679 0,2.8274 1.29379,6.94854 2.87508,9.15808 2.46349,3.44223 2.57921,4.26167 0.80837,5.72396 -1.63158,1.34726 -2.92205,1.09623 -6.12908,-1.19228 -2.234289,-1.59439 -5.363969,-3.09891 -6.954809,-3.3434 -2.35111,-0.36135 -2.98141,0.48621 -3.36786,4.52873 -0.26148,2.73529 -1.7258,6.72039 -3.254,8.85576 -3.68302,5.14629 -3.51168,9.40386 0.47543,11.81458 1.78969,1.08212 13.799379,7.57227 26.688199,14.42258 22.9603,12.20323 23.63673,12.45511 33.44755,12.45511 11.91838,0 15.03447,2.12732 11.33805,7.74037 -1.2452,1.89086 -7.66748,8.20045 -14.27171,14.02129 -19.16672,16.89318 -30.39391,28.49727 -39.85432,41.19231 -8.730679,11.71578 -8.801649,11.88821 -6.655219,16.16916 1.945759,3.88072 1.921859,5.17483 -0.23161,12.54526 -2.94383,10.07542 -12.88327,28.48463 -18.35168,33.98983 -2.22232,2.23728 -4.04057,4.87515 -4.04057,5.86193 0,0.98677 1.67635,7.25031 3.72522,13.91897 4.94921,16.10867 4.28529,29.79902 -2.29767,47.37887 -5.83253,15.57578 -5.35474,20.30897 3.14285,31.13459 12.70247,16.1825 13.04437,17.0515 12.17261,30.93989 -0.69365,11.05127 -0.4506,12.84803 2.18998,16.18807 1.88384,2.38287 4.39001,3.75704 6.851919,3.75704 7.16219,0 13.78094,2.797 19.29427,8.15352 l 5.47284,5.3172 11.96417,-2.30179 c 12.61671,-2.42735 18.74439,-2.07918 21.4975,1.22141 2.55701,3.06551 3.55822,2.42061 3.93785,-2.53649 0.44799,-5.84957 7.66937,-23.80854 14.37717,-35.75476 2.88846,-5.14422 6.28553,-13.87263 7.54904,-19.39648 1.87478,-8.19625 3.01787,-10.44568 6.21542,-12.23099 7.83302,-4.37342 12.57179,2.65633 12.59021,18.677 0.0116,10.63914 -0.10962,10.99336 -8.59793,25.00062 -4.73568,7.81472 -10.03234,18.46021 -11.77035,23.65664 -3.12727,9.35012 -8.05297,16.09505 -11.75392,16.09505 -1.05229,0 -3.40177,-1.03733 -5.22103,-2.30519 -1.81927,-1.26784 -3.49193,-2.07725 -3.71701,-1.79866 -0.97128,1.20211 -3.74278,17.98466 -3.74711,22.69032 -0.004,4.53482 1.27432,6.36963 10.61119,15.22862 5.83875,5.53993 13.23699,13.63396 16.44053,17.98676 18.90045,25.6809 36.49777,31.65353 45.36677,15.39772 2.04505,-3.74833 5.77372,-8.92515 8.28594,-11.50405 4.2442,-4.35685 4.50625,-5.20498 3.70023,-11.97628 -1.11542,-9.37046 1.06637,-13.84657 6.4477,-13.228 4.60884,0.52977 8.61854,7.53323 9.18322,16.03966 0.32047,4.82784 1.07935,5.88297 6.04349,8.40274 6.7886,3.44585 8.12123,2.27197 8.15495,-7.18347 0.0399,-11.18131 4.8803,-15.27876 9.59381,-8.12124 1.66447,2.52751 2.62051,7.96652 3.09836,17.62702 0.78038,15.77612 1.00453,16.21709 16.79598,33.03973 11.06605,11.7887 17.11681,14.67373 30.86242,14.71535 9.25082,0.0281 38.78287,-4.57 40.5324,-6.31074 0.3683,-0.36644 -0.37294,-2.14724 -1.64721,-3.95737 -3.31394,-4.70749 -2.86506,-9.4308 1.28902,-13.56398 2.95526,-2.94038 4.12954,-3.30889 6.508,-2.04238 2.23118,1.18809 2.90211,3.011 2.90211,7.88503 0,3.48683 -0.65079,6.73987 -1.44622,7.22899 -4.06123,2.49735 -0.42254,2.9611 7.82605,0.99741 9.15182,-2.17868 9.24439,-2.2497 7.12603,-5.46647 -4.42125,-6.71369 0.51745,-16.62092 6.0203,-12.07695 1.72833,1.42717 2.27622,3.70762 1.92899,8.02908 l -0.48495,6.03578 11.56977,0.61155 c 10.0065,0.52893 13.57114,1.52557 26.38208,7.37619 20.38861,9.31129 29.05284,11.12191 39.26982,8.20647 z M 343.40051,684.92304 c -1.91287,-3.55624 0.41263,-13.20984 4.58746,-19.04331 6.33333,-8.84957 15.66287,-5.70323 15.66287,5.28223 0,7.15921 -2.58369,11.17165 -9.20739,14.29898 -6.5388,3.08723 -9.16172,2.95948 -11.04294,-0.5379 z m 123.03695,-0.90751 c -4.16121,-5.2635 -3.92195,-12.68681 0.55241,-17.13863 7.29376,-7.25706 15.25105,-2.97777 15.25105,8.20179 0,11.27659 -9.64271,16.72954 -15.80346,8.93684 z m -28.67798,-3.62924 c -2.55843,-2.54556 -2.22483,-10.65495 0.55198,-13.41779 3.29636,-3.27975 8.0024,-2.1753 10.61805,2.49194 1.99182,3.5541 1.99209,4.36008 0.003,7.91418 -2.43438,4.34909 -8.25236,5.91737 -11.17275,3.01167 z m -28.55269,-14.66858 c -8.71891,-4.04515 -20.36343,-14.96579 -23.22583,-21.78201 -5.41254,-12.88878 -0.57867,-29.65182 11.83304,-41.03494 16.00009,-14.67411 32.86758,-14.97049 38.94999,-0.68441 4.54107,10.66585 3.65981,43.96713 -1.48789,56.22528 -2.28031,5.43011 -9.75264,10.65278 -15.22267,10.63964 -1.98855,-0.004 -6.86955,-1.51837 -10.84664,-3.36356 z m -100.96487,-2.09176 c -4.76472,-4.94826 -5.14382,-12.32206 -0.90218,-17.54828 1.6058,-1.97854 5.14828,-6.97453 7.8722,-11.10219 9.49549,-14.38889 15.05675,-16.87781 21.00959,-9.40271 9.07385,11.39421 -5.77516,42.089 -20.36111,42.089 -2.20148,0 -5.32634,-1.65537 -7.6185,-4.03582 z m 184.42351,-6.43746 c -4.89819,-5.18764 -7.7687,-15.12183 -8.02223,-27.763 -0.2128,-10.61095 0.14246,-12.2172 4.1057,-18.56613 8.95159,-14.33981 21.8382,-20.14653 30.18433,-13.60108 5.77674,4.53042 8.14052,11.09603 8.14052,22.61107 0,13.18536 -3.3115,23.62987 -9.73493,30.70403 -9.28074,10.22098 -18.84703,12.78576 -24.67339,6.61511 z m 62.73204,-2.34259 c -3.37948,-3.71549 -2.51734,-11.41593 1.57934,-14.10644 2.82848,-1.85761 3.45232,-1.76465 6.14644,0.91591 3.55751,3.53961 3.92638,10.48818 0.72582,13.67263 -3.00589,2.99074 -5.41796,2.85315 -8.4516,-0.4821 z M 196.25083,641.63718 c -4.76501,-1.79022 -4.27284,-9.47085 1.30861,-20.42227 3.66619,-7.19342 4.94296,-12.20356 6.49841,-25.50015 2.40872,-20.59058 6.23575,-27.26642 12.86009,-22.43298 2.51019,1.83156 2.80913,3.68326 2.61657,16.20747 -0.17667,11.49099 -1.05323,16.70037 -4.67939,27.80961 -6.75492,20.69468 -11.56248,26.98396 -18.60429,24.33832 z m 402.13975,-5.32368 c -0.94451,-0.59755 -2.41553,-2.91372 -3.26894,-5.14706 -2.12068,-5.5497 0.76873,-11.553 5.84382,-12.14165 4.74504,-0.55037 7.67512,2.91076 7.67512,9.06612 0,7.4833 -5.03464,11.5221 -10.25,8.22259 z m -58.94196,-7.8233 c -2.81126,-3.99344 -2.98579,-15.98823 -0.26531,-18.23467 4.40875,-3.64052 9.58374,1.88125 9.58374,10.22591 0,4.7718 -3.32172,11.20683 -5.78488,11.20683 -0.70522,0 -2.2953,-1.43914 -3.53355,-3.19807 z m 33.3568,-0.34661 c -8.95848,-9.6177 -8.74928,-34.67316 0.32988,-39.50771 4.50552,-2.39914 12.49824,-1.88491 14.97388,0.96338 3.15407,3.62885 5.49195,11.39024 5.48264,18.20147 -0.0255,18.61872 -11.72619,30.06978 -20.7864,20.34286 z m -389.71059,-5.4441 c -2.4885,-2.47599 -2.00994,-12.62432 0.86536,-18.35109 1.87873,-3.74183 3.45793,-5.03629 6.14419,-5.03629 3.20629,0 3.66514,0.67687 4.05359,5.97958 0.7713,10.52887 -6.49135,21.95659 -11.06313,17.4078 z m 44.47522,-1.33676 c -3.05907,-5.68716 -3.23624,-20.03989 -0.31658,-25.64797 3.62231,-6.95772 9.41479,-7.70259 11.9801,-1.54054 2.68318,6.44515 1.41239,23.55015 -2.03089,27.33578 -3.51208,3.86126 -7.50934,3.80015 -9.63263,-0.14727 z m -58.19482,-2.14529 c -1.92525,-1.91554 -0.93383,-11.81577 1.41752,-14.15528 2.21141,-2.20028 2.58683,-2.16556 5.25158,0.48577 3.20398,3.18787 2.67731,8.4814 -1.23073,12.36978 -2.4593,2.44693 -3.93171,2.79883 -5.43837,1.29973 z m 438.33165,-4.43672 c -2.13123,-2.38548 -5.40417,-11.94085 -5.42159,-15.82834 -0.0144,-3.22566 5.68034,-7.55444 9.93839,-7.55444 5.34582,0 7.61021,2.81638 8.38829,10.43311 1.13365,11.09767 -7.14127,19.40116 -12.90509,12.94967 z M 447.49761,601.43668 c -2.80456,-2.79044 -3.71677,-9.01675 -1.98059,-13.5184 1.35144,-3.50406 7.40889,-2.76796 10.03474,1.21941 5.51257,8.37089 -1.39723,18.9224 -8.05415,12.29899 z M 266.7601,595.94214 c -8.11826,-8.07739 -9.07595,-23.83275 -2.81209,-46.26322 4.20992,-15.07548 9.8916,-24.92415 23.03105,-39.92223 11.45788,-13.07865 20.15325,-19.09055 27.59533,-19.07918 5.85662,0.009 12.31241,5.0373 15.97751,12.44474 2.94025,5.94248 3.45142,9.10665 3.45142,21.36497 0,13.68174 -0.26272,14.92014 -5.34202,25.18146 -6.36652,12.86175 -17.45255,26.9535 -29.36727,37.32951 -15.81457,13.77222 -25.11226,16.32826 -32.53393,8.94395 z m 104.29086,0.30404 c -7.33013,-5.10839 -10.1101,-22.29707 -4.50768,-27.87129 7.67794,-7.63928 18.80086,1.39709 18.80086,15.27401 0,7.94881 -4.6434,14.94374 -9.92002,14.94374 -0.55339,0 -2.5213,-1.05591 -4.37316,-2.34646 z m 250.37501,-20.65705 c -2.28241,-3.63633 -2.31386,-10.43835 -0.0586,-12.68221 4.50723,-4.48454 9.8343,-0.17089 9.8343,7.96348 0,7.2406 -6.28772,10.27568 -9.77567,4.71873 z m -219.97858,-7.72736 c -1.76099,-1.86507 -3.57014,-5.64942 -4.02035,-8.4097 -0.69556,-4.26471 -0.22312,-5.48468 3.14475,-8.12052 7.69271,-6.02061 13.35304,-3.37641 14.73621,6.88397 1.50536,11.16677 -6.90098,17.01714 -13.86061,9.64625 z M 525.267,565.85675 c -5.12533,-5.34547 -7.11117,-11.02835 -7.23232,-20.69678 -0.18009,-14.37335 8.80665,-23.3296 19.63906,-19.5724 8.93554,3.09926 12.96498,24.91959 6.81626,36.91142 -4.4232,8.62654 -12.7728,10.08501 -19.223,3.35776 z m -376.31786,-0.85613 c -3.51687,-2.55865 -3.69542,-13.61393 -0.30308,-18.76523 3.46692,-5.26455 7.80995,-7.30983 10.61084,-4.99701 4.67794,3.8628 -0.0591,23.23726 -6.17761,25.26651 -0.7792,0.25843 -2.63777,-0.41849 -4.13015,-1.50427 z m 443.52057,-1.77481 c -14.96005,-7.41739 -24.47492,-21.91042 -32.08298,-48.86873 -4.97364,-17.62355 -5.63956,-29.98014 -2.02424,-37.56055 4.2022,-8.81086 14.51031,-11.62133 23.22751,-6.33288 6.43324,3.90285 8.82643,8.09431 12.77519,22.37445 1.88483,6.81634 6.69891,19.3988 10.69789,27.96103 10.43084,22.33341 11.33715,37.8617 2.56655,43.97396 -4.26387,2.97149 -6.50798,2.74245 -15.15992,-1.54728 z m -241.02974,-5.24367 c -2.82229,-4.00911 -2.92795,-15.42832 -0.20281,-21.9177 2.53775,-6.04313 8.24654,-10.01528 12.47489,-8.68001 9.99602,3.15664 8.08606,27.41811 -2.53761,32.23421 -5.0652,2.29624 -7.22107,1.93381 -9.73447,-1.6365 z m -244.61936,-1.82775 c -4.44778,-6.75401 0.93696,-14.45647 6.34484,-9.07581 3.38128,3.36426 1.2818,12.66267 -2.8591,12.66267 -0.618,0 -2.18658,-1.61409 -3.48574,-3.58686 z m 14.82935,-0.25031 c -1.86508,-1.85568 -0.9376,-10.37309 1.38072,-12.67973 3.14081,-3.125 6.49655,-2.26417 9.08914,2.3316 1.9116,3.38862 1.87577,4.17172 -0.34519,7.54426 -2.34378,3.55904 -7.83679,5.08025 -10.12467,2.80387 z m 502.46353,-4.22298 c -7.87425,-9.96009 -4.50057,-24.29543 4.57977,-19.46024 8.1654,4.34799 10.7002,18.17267 3.98743,21.74714 -4.06449,2.1643 -5.31128,1.8315 -8.5672,-2.2869 z m -159.59468,-3.57834 c -22.16032,-5.18141 -44.94525,-29.86545 -50.08891,-54.26385 -3.40468,-16.14968 -1.05031,-30.52438 7.98716,-48.76569 6.27558,-12.66668 17.82621,-24.22817 25.66769,-25.69184 16.41771,-3.06448 38.62146,11.71843 45.64185,30.38763 5.36073,14.25573 8.96717,36.13255 9.23371,56.01198 0.22418,16.72043 -0.0811,19.31725 -2.87646,24.46199 -7.72533,14.21852 -21.51711,21.14438 -35.56504,17.85978 z m -79.17467,-9.9456 c -5.67875,-5.65018 -2.19622,-19.38453 4.47507,-17.64873 3.35959,0.87413 8.52701,8.29195 8.53551,12.25269 0.008,3.08124 -4.98203,8.27392 -7.94881,8.27392 -1.19312,0 -3.47092,-1.29506 -5.06177,-2.87788 z M 102.44678,523.55627 c 2.70875,-24.56739 4.33549,-29.10866 10.12915,-28.27703 4.97811,0.71458 6.05929,6.82691 3.11915,17.63394 -2.92924,10.76705 -7.56815,18.50319 -11.55317,19.26676 -2.49321,0.47774 -2.62482,-0.19176 -1.69513,-8.62367 z m 112.42901,2.59248 c -2.33905,-2.80421 -3.37973,-9.96019 -1.79455,-12.33981 1.16116,-1.74306 1.91351,-1.68511 5.10103,0.3929 3.94275,2.5704 4.73083,6.47218 2.24186,11.09945 -1.76087,3.27364 -3.32528,3.51259 -5.54834,0.84746 z m -64.80948,-0.95211 c -10.43239,-4.18215 -10.87851,-30.78679 -1.14957,-68.55541 8.48916,-32.95577 15.6669,-41.45498 25.97167,-30.75326 6.44161,6.68975 6.51108,15.36601 0.32427,40.49371 -2.80222,11.38119 -5.79436,26.13392 -6.64916,32.78383 -1.79726,13.98146 -5.86423,23.45153 -11.08849,25.81988 -2.01423,0.91313 -3.79433,1.6192 -3.95576,1.56903 -0.16142,-0.0502 -1.71526,-0.66117 -3.45296,-1.35778 z m 80.05018,-3.82713 c -1.79341,-1.78437 -0.97835,-10.80699 1.43299,-15.86291 2.61339,-5.47961 5.63486,-7.41848 7.95824,-5.10679 1.67646,1.66801 -0.97112,17.08014 -3.4581,20.13032 -1.59811,1.96002 -4.40739,2.35746 -5.93313,0.83938 z m 16.51245,-5.25069 c -3.03142,-3.01616 -1.59545,-11.30431 3.69362,-21.31875 11.99821,-22.71767 24.77411,-22.54648 15.80007,0.21173 -6.48352,16.44219 -14.95888,25.61901 -19.49369,21.10702 z m -122.47875,-8.98579 c -2.16036,-8.56425 2.78145,-23.0547 7.27717,-21.33821 4.95259,1.89092 3.71395,22.17384 -1.4751,24.15505 -3.85984,1.47369 -4.83976,0.99795 -5.80207,-2.81684 z m -43.909399,-1.2931 c -1.10017,-1.31895 -1.38205,-3.85996 -0.75823,-6.83496 1.5695,-7.48476 4.60408,-11.21073 9.13048,-11.21073 8.81315,0 9.99407,7.48224 2.37704,15.06092 -5.55778,5.5298 -8.04935,6.22163 -10.74929,2.98477 z m 276.468189,0.37275 c -2.85043,-2.83608 -2.02944,-11.80202 1.56822,-17.12644 5.77198,-8.54233 14.05096,-6.55593 14.05096,3.37131 0,10.32335 -10.11521,19.23139 -15.61918,13.75513 z m -74.52856,-4.98833 c -2.76905,-2.75511 -0.45433,-11.39128 3.6371,-13.56993 6.51326,-3.46825 9.99782,7.93809 3.75428,12.28922 -3.44775,2.40273 -5.84601,2.81829 -7.39138,1.28071 z m 242.57894,-3.01982 c -4.89109,-3.24942 -7.02635,-16.75004 -3.64378,-23.03859 2.47416,-4.59974 9.22142,-4.29477 13.0843,0.59137 3.6616,4.63153 4.06503,15.63578 0.74608,20.35039 -2.22119,3.15523 -7.08613,4.15663 -10.1866,2.09683 z m 84.19199,-3.34265 c -10.63205,-8.32105 -11.4801,-28.12632 -1.15354,-26.9393 3.16115,0.36336 4.87596,2.31178 9.25745,10.51856 6.48745,12.15141 6.87179,16.08839 1.75933,18.02236 -5.03958,1.90641 -5.47034,1.83646 -9.86324,-1.60162 z m -382.10722,-0.97417 c -5.15592,-3.43871 -1.98607,-19.04393 3.86833,-19.04393 5.95532,0 7.16116,11.65391 1.81411,17.53259 -2.61865,2.87902 -3.34294,3.07165 -5.68244,1.51134 z M 91.725591,481.22533 c -3.99279,-10.44897 -0.0603,-46.61767 7.11876,-65.47334 4.787079,-12.57318 14.725639,-26.43508 19.340719,-26.97563 3.12802,-0.36637 4.02578,0.26198 4.80868,3.36557 1.79364,7.11042 -0.56602,18.61841 -6.62264,32.29854 -3.80566,8.59584 -7.27547,19.75593 -9.39511,30.21774 -3.6792,18.15935 -5.55246,23.91252 -9.031419,27.73737 -3.12898,3.44008 -4.56019,3.17077 -6.21899,-1.17025 z m 118.846079,-3.09427 c -1.86037,-3.45866 0.44877,-7.6041 4.2357,-7.6041 3.47331,0 5.22905,3.84317 3.2119,7.03055 -2.12205,3.35316 -5.80011,3.6364 -7.4476,0.57355 z m 123.45285,-8.1302 c -1.97146,-1.43432 -2.87375,-4.34183 -3.34071,-10.76496 -0.61807,-8.50176 -0.46733,-8.97147 4.44925,-13.86329 6.00509,-5.97486 11.8848,-6.63298 19.18028,-2.14682 6.17195,3.79529 8.36555,9.76625 5.56267,15.14161 -2.38342,4.57093 -4.92739,6.77036 -12.43754,10.75302 -6.31376,3.34823 -9.7151,3.57148 -13.41395,0.88044 z m -145.84843,-1.87214 c -1.70827,-1.69966 -1.02765,-12.69499 1.26035,-20.36074 2.92074,-9.7857 11.46316,-18.97029 17.64392,-18.97029 2.42433,0 4.75172,0.89156 5.17199,1.98123 1.78884,4.63817 -5.24506,25.01395 -11.61024,33.63254 -3.3056,4.47586 -9.76709,6.40261 -12.46602,3.71726 z m -63.10075,-7.57975 c -3.25478,-6.051 -0.45355,-15.40759 5.23121,-17.47311 4.37071,-1.58807 7.63402,1.26184 8.66201,7.56468 0.71924,4.40984 0.24543,5.89914 -2.85973,8.98865 -4.41962,4.39738 -8.95934,4.77582 -11.03349,0.91978 z m 151.72078,-0.24611 c -2.25997,-4.20152 -0.44648,-12.26782 3.35346,-14.916 9.95146,-6.93519 16.601,2.10506 9.75986,13.26884 -3.50341,5.71709 -10.45451,6.59023 -13.11332,1.64716 z m -38.83979,-14.10295 c -8.42556,-8.97419 -9.73829,-26.80373 -3.34986,-45.49799 5.12954,-15.01044 14.04716,-30.32862 28.11086,-48.2872 l 11.33913,-14.47944 0.12626,-13.20561 c 0.15673,-16.39688 2.96365,-21.72231 14.45153,-27.41814 12.64977,-6.27193 20.398,-4.31336 17.09822,4.32203 -0.86787,2.27122 -2.51413,5.15873 -3.65834,6.41671 -1.8212,2.00226 -1.7444,2.58974 0.61653,4.71559 2.54566,2.29221 3.21018,2.18687 11.84903,-1.87809 11.79283,-5.54906 22.53332,-7.71464 34.83245,-7.02317 11.89209,0.66858 17.24972,3.96498 19.25703,11.84825 1.10276,4.33082 0.8317,6.33315 -1.4207,10.49454 -2.12967,3.93464 -22.61972,23.97793 -38.77377,37.92834 -1.55084,1.33928 5.32448,13.47704 11.22564,19.81785 6.69257,7.19119 11.70657,9.39986 17.09575,7.53063 11.10106,-3.85036 26.50004,0.34328 30.6615,8.35016 5.18493,9.97605 0.88968,24.68789 -9.17885,31.43892 -7.26501,4.87123 -18.5828,4.59295 -24.7971,-0.60973 -2.55545,-2.13945 -5.53399,-6.00378 -6.61895,-8.58743 -2.28905,-5.45081 -2.64882,-20.03269 -0.52649,-21.33777 2.44883,-1.50585 1.59077,-2.74148 -4.49651,-6.47523 -7.79143,-4.77901 -15.36854,-16.4049 -23.61257,-36.22983 -15.10019,-36.3123 -20.88183,-45.22471 -28.59551,-44.08002 -4.57675,0.67919 -8.69898,7.31756 -9.46418,15.24102 -0.86832,8.99128 2.0323,19.05661 11.9094,41.32631 11.92483,26.8867 16.2403,42.99587 16.96092,63.31338 0.32618,9.19635 0.10833,10.07258 -2.5039,10.07258 -2.57051,0 -2.95479,-1.31554 -3.78291,-12.95046 -0.88916,-12.49268 -4.8282,-31.92093 -6.93454,-34.20289 -1.31904,-1.429 -20.2033,21.54511 -26.9313,32.76395 -11.71875,19.5408 -22.65828,25.44914 -30.88877,16.68274 z M 127.43484,433.59416 c -0.53029,-0.5276 -0.96415,-3.66947 -0.96415,-6.9819 0,-8.37815 5.12263,-15.80132 10.90425,-15.80132 4.23097,0 4.28048,0.0927 4.23197,7.91418 -0.0612,9.86003 -3.55903,15.82833 -9.27663,15.82833 -2.16222,0 -4.36518,-0.43167 -4.89544,-0.95929 z m 34.70929,-31.65669 c -1.80223,-1.79314 -0.97366,-11.63093 1.12557,-13.36437 3.48075,-2.87422 8.5473,-1.21529 10.14461,3.32167 1.27229,3.61379 0.96226,4.52077 -2.58243,7.55443 -4.04248,3.45969 -6.89136,4.27564 -8.68775,2.48827 z m 361.54392,-9.19048 c -5.2815,-4.1335 -7.69409,-12.65842 -5.10128,-18.02541 1.08844,-2.25302 3.71752,-5.06601 5.84238,-6.25106 3.3652,-1.87682 4.3602,-1.89011 7.71604,-0.10319 8.16317,4.3468 10.8287,18.3814 4.59734,24.20601 -4.19099,3.9174 -8.20279,3.97075 -13.05448,0.17362 z m -117.01429,-8.1613 c -3.96379,-4.35789 -3.2281,-11.43221 1.69866,-16.33417 6.33079,-6.29893 14.64817,-5.02387 19.39622,2.97346 5.15931,8.69006 0.9108,14.27881 -11.77665,15.49178 -5.41471,0.51767 -7.30154,0.0861 -9.31823,-2.13107 z m -264.50093,-2.91328 c -2.19916,-5.50458 0.53154,-20.90371 6.04236,-34.07468 13.71928,-32.78929 40.91074,-61.29595 75.30093,-78.94307 10.12925,-5.19775 20.87688,-6.19293 23.47222,-2.1734 2.9394,4.55238 -0.79881,10.02084 -14.22926,20.81536 -17.81418,14.31785 -36.50651,35.5714 -58.64123,66.67618 -11.24922,15.80794 -25.56339,31.65669 -28.59149,31.65669 -0.97494,0 -2.48403,-1.78069 -3.35353,-3.95708 z m 43.24299,-8.38222 c -3.05686,-3.04147 11.90309,-32.26785 16.51677,-32.26785 4.30881,0 -3.30778,22.17813 -10.007,29.13855 -3.88642,4.03796 -5.03943,4.59223 -6.50977,3.1293 z m 257.75477,-2.58587 c -11.81328,-6.21779 -20.11449,-20.93321 -18.2517,-32.35448 2.23423,-13.69855 21.80364,-20.90745 36.50223,-13.44653 6.89764,3.50118 15.9423,13.04552 18.791,19.82908 2.97139,7.07577 2.59247,16.77296 -0.82431,21.09482 -6.94792,8.78838 -24.33714,11.13007 -36.21722,4.87711 z M 207.247,367.75434 c -2.29728,-5.01659 -0.41334,-14.74045 4.52148,-23.33752 9.09771,-15.84931 36.84323,-41.08098 42.71056,-38.84081 6.00012,2.29088 -0.23212,17.86672 -13.92742,34.80793 -5.08223,6.28675 -11.67948,14.75609 -14.66057,18.82075 -8.71466,11.88225 -15.65955,15.06698 -18.64405,8.54965 z m 168.01411,-2.53754 c -1.60717,-2.62281 -2.92458,-5.9341 -2.92754,-7.35837 -0.01,-4.52577 4.23282,-10.95475 8.76868,-13.28853 8.30073,-4.27085 12.80968,0.64986 10.96413,11.96542 -1.13724,6.97268 -5.37755,12.43837 -10.08416,12.9983 -2.99165,0.35591 -4.41995,-0.56146 -6.72111,-4.31682 z m -256.55886,-9.10629 c -2.99116,-2.97611 -0.61678,-9.5493 5.21221,-14.42937 4.8541,-4.06391 9.36088,-4.17329 11.80896,-0.28664 2.13148,3.38401 -1.18854,9.2618 -7.69602,13.62512 -5.76539,3.86574 -6.45515,3.94644 -9.32515,1.09089 z m 21.25697,-23.13313 c -1.83158,-4.74897 8.0238,-20.04816 16.12265,-25.02833 5.88848,-3.62095 7.99055,-3.66526 7.99055,-0.16846 0,3.75616 -8.04523,18.70654 -12.66157,23.52891 -4.18188,4.36854 -10.07882,5.2274 -11.45163,1.66788 z m 262.9682,-19.49235 c -1.71815,-0.63238 -4.22001,-3.43676 -5.55969,-6.23194 -2.27162,-4.73967 -2.27433,-5.41896 -0.04,-10.08065 3.87848,-8.09235 12.92706,-8.67526 20.32994,-1.30964 4.97681,4.95177 4.85411,8.52971 -0.46198,13.47068 -4.81335,4.47371 -9.60496,5.86791 -14.26819,4.15155 z m -177.14959,-2.20079 c -0.53029,-0.5276 -0.96415,-2.84375 -0.96415,-5.14698 0,-6.14755 6.97877,-12.59995 13.62784,-12.59995 5.97006,0 6.2229,0.94496 2.29995,8.59589 -4.05291,7.90434 -11.58628,12.5114 -14.96364,9.15104 z m 132.76102,-16.23822 c -4.52428,-1.82465 -6.71334,-5.2475 -6.20072,-9.69559 0.38951,-3.37982 2.01018,-4.8067 9.86649,-8.68669 6.08948,-3.00741 11.57789,-4.65453 15.58267,-4.67655 5.35681,-0.0295 6.37493,0.47031 7.62549,3.74302 4.26945,11.17292 -14.18149,24.43465 -26.87393,19.31581 z m -202.7822,-12.53426 c -0.99427,-0.39918 -1.80778,-2.60205 -1.80778,-4.89528 0,-3.25314 0.79874,-4.36896 3.63432,-5.07707 4.1191,-1.02862 7.93545,1.40389 7.93545,5.05796 0,4.6464 -4.62729,6.97585 -9.76199,4.91439 z m 44.99923,-10.22084 c -1.13549,-0.73136 -1.27349,-3.27461 -0.44777,-8.25188 1.88878,-11.38491 1.55413,-25.83571 -0.86853,-37.50548 -1.22902,-5.92008 -1.84141,-11.39673 -1.36087,-12.17035 1.71562,-2.76194 4.7836,-1.33551 6.27346,2.91682 2.21237,6.31446 10.46405,18.19672 19.65224,28.2989 4.4222,4.86209 8.04037,9.21675 8.04037,9.677 0,0.46025 -5.0437,3.36221 -11.20821,6.44879 -6.16452,3.08657 -12.44797,6.97895 -13.96324,8.6497 -3.00456,3.31286 -3.6589,3.51999 -6.11745,1.9365 z m 14.9983,-14.36738 c 3.38592,-1.38498 6.15865,-3.16831 6.16163,-3.96297 0.009,-2.29111 -10.6485,-14.95762 -12.649,-15.03397 -1.2917,-0.0494 -1.80778,3.01188 -1.80778,10.72304 0,5.93563 0.48125,10.79205 1.06947,10.79205 0.5882,0 3.83976,-1.13316 7.22568,-2.51815 z m -68.83108,-7.75026 c -3.87915,-7.0254 -4.46121,-9.04446 -2.89244,-10.03346 3.32599,-2.0968 3.95406,-1.5535 8.45116,7.31037 5.04173,9.93734 5.29878,11.5589 1.82861,11.53548 -1.59615,-0.01 -4.32454,-3.26546 -7.38733,-8.81239 z m 29.3558,0.98605 c -2.87816,-4.3705 -2.22613,-8.49899 1.45362,-9.20408 3.49518,-0.66971 6.58698,3.40868 6.58698,8.68889 0,5.23175 -4.73478,5.53512 -8.0406,0.51519 z"
       id="path3082"
       inkscape:connector-curvature="0"
       inkscape:export-xdpi="299.98999"
       inkscape:export-ydpi="299.98999" />
    <path
       style="fill:#333333;stroke:none"
       d="m 229.29083,141.68445 c -5.35057,-0.17522 -4.03269,6.97692 -4.2009,10.40157 -0.37553,5.56227 0.65368,11.09671 4.24554,15.51361 1.70664,3.75097 4.85561,7.57076 4.73215,11.78572 -1.42215,3.48777 -4.99017,0.14149 -5.84822,-1.98661 -3.1855,-5.32403 -6.14008,-12.96475 -13.57143,-12.79018 -3.99647,-0.13944 -10.50807,-1.99916 -11.76339,3.45982 -2.71676,5.74215 -1.48204,12.3287 -2.8125,18.23661 -1.95469,1.80072 -5.29404,3.10003 -7.07673,0.42572 -5.74643,-3.94465 -9.77393,-10.96747 -16.56166,-13.12661 -4.09394,0.91684 -5.39096,6.44522 -5.9375,10.08928 -1.30284,15.3092 4.56757,29.93503 5.84821,44.97768 -0.4788,2.55959 -4.36213,0.29392 -4.4866,-1.51786 -3.66687,-8.70859 -3.25959,-18.82284 -7.72322,-27.16518 -7.1899,-6.425 -15.79993,-11.61516 -24.91071,-14.82142 -5.22356,-1.22521 -7.07102,5.72146 -9.13486,9.11008 -2.44688,5.17145 -4.25151,10.61383 -5.99907,16.04617 0.93655,3.11038 4.74299,6.23282 3.77232,9.62053 -5.08321,1.11852 -10.56778,-0.94436 -15.80357,-0.71428 -7.2549,-0.95401 -10.68802,8.409 -7.90179,14.10714 0.13097,3.09098 4.55764,5.90603 3.0134,8.95089 -3.12302,3.08137 -7.09261,-1.89928 -10.267862,-2.72321 -1.985736,-1.01888 -5.861997,-2.1788 -6.09375,1.22768 -0.607944,6.21548 -4.474289,11.24127 -6.339286,16.9866 -0.04877,5.59624 6.928568,7.46412 10.665404,10.19711 13.948744,7.3476 27.579324,15.48389 42.124774,21.58861 7.13814,2.06603 15.09884,0.41028 21.98661,3.14732 3.08401,3.11544 -1.91272,6.93055 -3.86161,9.12946 -16.79294,16.7228 -35.12546,32.01213 -49.78113,50.7773 -3.01512,4.33773 -7.661284,8.47747 -8.388512,13.88788 2.406501,5.71391 2.683636,12.10424 -0.03935,17.79321 -4.780534,13.43825 -12.377416,25.71151 -21.054403,36.84965 0.41557,8.70504 4.371202,17.07804 5.558036,25.78125 3.620202,16.42811 -4.08234,32.02568 -7.745536,47.63393 -2.579613,9.71305 4.436292,17.77877 9.86509,24.92258 4.756519,5.79605 9.132801,12.5585 8.527767,20.41224 0.585427,6.74202 -0.956054,13.90783 1.160714,20.40178 4.42593,7.8512 15.097151,4.4242 21.540181,9.41965 4.19213,2.57429 7.53589,6.25313 11.20536,9.50893 10.20311,-1.59514 20.8291,-4.92176 31.13839,-2.7009 1.97533,0.5459 3.34596,3.59666 5.40178,3.16965 3.24918,-14.03082 9.09901,-27.25205 15.68934,-40.01858 4.77957,-8.70325 6.68767,-18.52615 10.33745,-27.63767 1.68739,-4.89964 9.30208,-6.78337 11.98661,-1.78572 4.49295,8.09764 3.9038,18.19173 2.2991,27.03125 -5.58512,13.27644 -14.4831,24.97186 -19.44883,38.58345 -2.61602,5.65713 -4.92557,12.84988 -11.04224,15.36744 -3.19123,-0.58404 -6.25556,-4.00122 -9.41964,-3.50446 -1.96471,7.971 -3.91863,16.36648 -3.21429,24.59821 3.34312,8.28595 11.45074,13.43211 16.95024,20.25233 11.67306,11.60344 20.47405,27.27815 36.06316,34.12267 6.59373,2.27592 14.54633,0.27135 17.99107,-6.13839 4.21688,-6.19793 8.65249,-12.25758 13.45982,-17.96875 0.53754,-5.86663 -1.11841,-12.27451 0.98214,-17.83482 2.14655,-3.8993 7.95452,-2.94826 9.73215,0.82589 4.15013,5.17024 3.44712,12.36192 6.13839,18.03572 3.08254,2.12743 6.87113,4.67849 10.73661,4.44196 2.96975,-2.95938 1.57967,-8.19119 2.63392,-12.00893 0.62533,-2.82418 1.11554,-8.90824 5.2009,-8.125 6.59603,3.98759 5.29712,13.29702 6.46725,19.9974 0.61903,8.0514 0.991,16.92307 7.21578,22.90439 7.30003,7.77422 14.03126,16.65997 23.3259,22.12053 9.43797,5.3166 20.83212,3.17835 31.11607,2.45536 9.0161,-1.43937 18.45734,-2.32456 27.05357,-5.15625 -1.40615,-5.11904 -5.84221,-11.19308 -1.38393,-16.13839 1.72686,-2.25475 5.62382,-6.05097 8.14732,-2.36607 3.01154,3.48545 1.785,9.05781 0.66964,13.125 -1.26688,1.18154 -1.37485,3.55704 0.9375,2.99107 5.07665,-0.49962 10.62239,-1.38319 15.04465,-3.83929 -0.13884,-3.3514 -3.28247,-6.40406 -2.12054,-10.08928 -0.19291,-3.71925 4.6891,-7.49394 7.43304,-3.9509 2.06055,4.12412 0.7736,9.05843 1.29464,13.41518 12.00152,0.23432 24.13047,1.65116 35.08929,6.875 12.26085,4.86378 24.6656,12.15522 38.37053,9.97768 9.56962,-1.41347 15.70573,-10.21792 23.08036,-15.55803 5.69433,-5.7102 14.11197,-5.50584 21.07143,-8.45983 5.8391,-4.05437 9.20752,-13.7594 17.70089,-12.54464 10.7415,1.25092 22.41862,5.09746 32.49156,-0.94443 12.59129,-6.22345 23.91655,-15.21121 32.99951,-25.77432 -2.69793,-0.81888 -6.80984,1.19932 -8.30357,-2.36607 -4.60407,-4.63611 -3.18148,-15.32644 4.375,-15.3125 6.57699,0.31217 7.58406,9.65024 5.08929,14.41964 -0.8184,0.81563 -0.74371,3.0006 0.60267,1.51786 15.67428,-15.28634 23.77863,-36.57424 26.98661,-57.90179 3.85524,-21.82491 5.78284,-44.20955 14.01184,-64.99738 1.15269,-4.94202 5.21939,-10.74185 0.74263,-15.24815 -6.05568,-8.12816 -16.43132,-11.46623 -22.72322,-19.46429 -14.53018,-16.78316 -24.07986,-37.32707 -33.19648,-57.44603 -1.5857,-2.52748 -1.8403,-7.03622 -4.66066,-8.40218 -3.76764,3.73776 -8.30494,7.58737 -10.42411,12.52232 1.93018,9.44063 5.00266,19.76177 1.69643,29.21875 -1.4498,3.30862 -6.66579,4.59586 -8.41518,0.64732 -3.66174,-4.27003 -6.42073,-9.58111 -10.89286,-13.10268 -3.88841,4.55159 -10.45848,10.16378 -7.65625,16.85268 0.82076,6.34464 0.92305,15.28349 -5.3125,18.81697 -4.35547,2.0648 -5.11022,-4.21345 -5.51339,-7.12054 -1.7976,-14.27626 9.06931,-25.43099 17.52232,-35.42411 13.40665,-15.40517 29.55944,-29.17111 37.35185,-48.57853 4.30903,-9.88487 7.2382,-21.74365 3.09458,-32.13575 -2.72266,-5.89186 -10.54766,-3.57365 -13.81696,0.58035 -19.14265,19.97751 -31.74867,45.8096 -53.3279,63.41211 -6.99805,5.18561 -15.33375,13.20898 -24.7971,10.11468 -7.49066,-3.13029 -14.46097,-12.75556 -9.97768,-20.80357 5.61272,-8.83417 21.43265,-10.46699 26.67411,-0.35714 1.75675,2.22947 1.32582,6.13995 3.01339,7.99107 9.45566,-7.42805 17.07206,-17.25027 24.69773,-26.5492 5.29363,-6.86932 10.43433,-13.92465 15.30227,-21.06241 -2.99994,-4.47934 -4.50055,-10.53772 -8.54911,-14.0625 -2.17878,2.77007 0.20038,9.28914 -4.66518,10.04464 -10.58261,1.88471 -17.94054,-7.53716 -25.00278,-13.71356 -14.9657,-14.84086 -31.53063,-28.62767 -51.44912,-36.23491 -17.71496,-7.91056 -37.59727,-11.763 -53.54631,-23.11123 -5.78286,-3.62389 -6.94862,-12.05218 -2.23393,-17.07423 6.32105,-8.34459 17.42396,-9.92828 26.71875,-13.30357 2.65396,-1.44545 -2.23423,-3.14377 -3.21429,-3.79464 -13.19269,-6.2733 -27.20978,-10.57488 -41.0491,-15.13393 -13.0368,11.72824 -30.79282,14.7691 -47.40831,17.98787 -22.35383,3.67017 -44.28196,9.3894 -66.31937,14.51213 -6.74773,0.74476 -14.01894,1.74885 -20.58036,-0.35714 -3.18868,-1.88687 -6.26637,-5.82318 -3.75,-9.57589 3.25835,-7.62839 9.44312,-13.29038 14.93304,-19.15179 -4.00294,-0.0729 -8.73483,1.94531 -12.92411,2.79018 -4.61829,0.80556 -9.36814,3.18448 -13.99554,2.99107 -2.35252,-4.47122 0.313,-10.06544 1.1874,-14.70202 3.59511,-10.71267 7.14618,-21.45922 8.90189,-32.66405 1.70119,-8.07824 9.14216,-13.05973 13.72768,-19.53125 5.1343,-5.52976 8.72834,-13.44165 5.42411,-20.89286 -0.82827,-5.78281 -7.6228,-4.75061 -11.85268,-5.3125 -6.99045,-0.23116 -7.36385,-8.58337 -11.69643,-12.23214 -3.20344,0.76517 -2.44208,5.74704 -2.96875,8.30357 -0.11117,11.87942 -0.54105,24.3131 -5.15625,35.37946 -2.34499,1.46968 -4.58342,-1.32744 -3.57143,-3.70535 1.13851,-10.19187 5.75334,-21.10961 1.38393,-31.09375 -5.12604,-5.99616 -13.09158,-10.81327 -21.04911,-11.47322 z m -29.82143,71.94197 c 5.05395,0.42818 5.32094,7.31389 8.17403,10.56499 6.37413,11.38384 16.36763,20.36611 23.5224,30.99751 -9.04319,5.8517 -18.92896,10.76683 -27.70089,17.14285 -3.56127,1.29111 -3.52522,-4.10437 -3.01339,-6.27232 2.15028,-16.4454 0.56451,-33.04076 -2.12054,-49.30803 -0.0201,-1.01342 -0.27626,-2.9187 1.13839,-3.125 z m -53.05803,25.9375 c 4.08103,2.24683 5.09711,7.82255 7.49328,11.60535 0.45065,2.09244 3.2448,5.06 1.99332,7.12233 -4.58469,0.438 -6.45957,-5.32952 -8.72767,-8.39286 -0.9724,-2.66159 -6.51752,-9.37151 -0.75893,-10.33482 z m 32.52232,2.67857 c 3.8204,1.47302 6.55634,7.81984 3.97321,11.25 -4.06535,2.18571 -7.82422,-3.34768 -7.83482,-7.03125 -0.13608,-2.32234 1.49564,-4.19834 3.86161,-4.21875 z m 61.85268,22.09821 c 4.26473,-0.65815 8.51561,3.54702 6.22768,7.74554 -6.32253,10.05264 -17.17025,16.31295 -25.35335,24.81301 -24.73455,22.99801 -42.63518,51.97253 -64.25066,77.59585 -3.846,3.60733 -7.00479,9.10385 -12.20403,10.58221 -5.0723,-4.24036 -3.30882,-12.16344 -2.47768,-18.01339 8.31824,-37.3322 34.50567,-68.69218 65.93266,-89.34179 9.84286,-5.9509 20.25195,-12.96791 32.12538,-13.38143 z m 138.10268,7.85715 c 6.6613,-0.65492 8.398,7.91743 5.17857,12.41071 -5.02692,8.84641 -17.52377,13.55289 -27.05357,9.30804 -5.36785,-2.93588 -5.64065,-12.54319 0.8184,-14.53313 6.50883,-3.46824 13.50798,-7.11061 21.0566,-7.18562 z m -218.79465,0.69196 c 5.41652,-0.16475 6.73421,8.45441 1.36161,9.53125 -2.88194,0.95536 -7.40844,0.17646 -6.98661,-3.75 -0.86365,-4.01369 1.52454,-6.46643 5.625,-5.78125 z m 246.42857,18.28125 c 6.4234,0.36016 14.24042,5.18464 14.0625,12.25446 -2.48701,6.71631 -11.06448,12.65631 -18.16964,9.19643 -5.17171,-3.50985 -8.80925,-11.73812 -3.66071,-17.00893 1.8001,-2.38282 4.54741,-4.53788 7.76785,-4.44196 z m -167.63392,2.67857 c 2.28987,-0.41158 5.0909,1.30752 3.45982,3.81697 -2.5864,6.36418 -6.95287,14.076 -14.66518,14.21875 -4.39304,-2.02302 -2.45813,-9.14553 0.0223,-12.0759 2.65777,-3.41553 6.74308,-5.9261 11.18304,-5.95982 z m 63.21428,0.46875 c 4.60962,-0.32569 4.59657,6.02855 2.63393,8.79464 -0.91494,2.98643 -6.38832,6.80978 -2.38839,9.59822 4.00505,3.71439 9.53217,-0.98124 13.70524,-2.13864 9.87377,-4.91311 20.91293,-6.54103 31.85274,-5.90259 8.26749,-1.01074 18.65492,2.20332 20.42416,11.25551 2.84701,7.91288 -5.07711,13.67205 -9.44196,19.01786 -9.93588,10.49402 -20.75702,20.16877 -31.40625,29.86607 5.09737,10.37986 11.19005,21.66195 22.09821,26.7634 7.38628,1.36159 14.87541,-2.45888 22.34375,-0.49108 8.47094,0.97649 17.10482,7.00595 16.98661,16.29465 1.11765,10.58768 -5.24931,22.04461 -15.24554,25.66964 -7.39858,1.86786 -16.41582,1.79211 -21.65178,-4.55357 -6.80034,-6.54778 -7.69234,-17.29526 -6.00447,-26.16072 0.65459,-1.58985 2.86576,-3.3709 0.66964,-4.88839 -6.8187,-4.55063 -13.0617,-10.03663 -17.02425,-17.37288 -11.91433,-19.79541 -17.90316,-42.77326 -31.10075,-61.80123 -2.90785,-4.8557 -10.42785,-6.36609 -13.90625,-1.27232 -7.92592,10.8535 -4.2494,25.42181 0.4275,36.85367 9.50473,25.74855 23.759,51.02888 23.03688,79.28471 -0.59567,3.11284 1.16275,7.4699 -0.94205,10.04466 -3.66796,0.87611 -2.98675,-4.84506 -3.66252,-6.98078 -1.73642,-12.99198 -2.23241,-26.64937 -7.38659,-38.80047 -2.15787,-1.36859 -4.10229,2.7195 -5.71429,3.77232 -12.21772,12.88175 -20.97304,28.59474 -32.27678,42.12054 -4.41821,4.96642 -13.17502,9.40855 -18.77232,3.68303 -9.77448,-9.42592 -9.31071,-24.72557 -6.80934,-37.12585 6.23093,-27.56549 24.79315,-49.93071 41.69773,-71.71343 0.93853,-10.47012 -1.0026,-21.75126 3.50446,-31.5625 5.16742,-7.5355 15.28351,-11.95935 24.35268,-12.25447 z m -139.6875,11.42857 c 2.61633,1.4008 0.0627,5.59511 -0.46875,7.65625 -3.76444,7.46861 -7.49436,16.06088 -14.82143,20.49107 -2.63097,1.79901 -7.67145,1.07625 -6.96428,-2.94642 2.35234,-8.36613 7.76358,-15.99565 14.28571,-21.54018 2.39603,-1.59773 4.99124,-3.55783 7.96875,-3.66072 z m 91.45089,0.24554 c 3.98569,0.9808 2.26635,6.93837 1.36161,9.62053 -6.36765,15.91569 -18.49573,28.62883 -28.67698,42.08372 -4.60935,4.65684 -8.17619,12.58042 -15.56409,12.76003 -5.63837,-1.59344 -4.40754,-9.4397 -3.49711,-13.90958 4.96143,-17.57801 18.59358,-30.91909 32.11318,-42.45202 4.28742,-3.11953 8.71885,-7.49157 14.26339,-8.10268 z m 195.5134,16.33928 c 12.93658,0.3204 23.11555,10.42368 29.44196,20.78125 4.55424,8.53458 4.71895,21.87333 -4.93303,26.83036 -13.43601,7.53548 -31.791,3.91432 -40.98215,-8.48214 -6.74945,-8.30566 -11.60339,-22.07912 -3.66071,-31.13839 5.02306,-5.44008 12.75566,-8.19153 20.13393,-7.99108 z m -318.92857,16.65179 c 4.68884,-0.21806 7.07689,5.52418 3.97321,9.0625 -3.07955,4.24192 -7.53,8.68839 -12.92411,9.50893 -5.68327,-1.86715 -3.32183,-9.5404 -0.067,-12.63393 2.41835,-2.56262 5.25381,-5.68338 9.01786,-5.9375 z m 71.38392,2.52232 c 2.3552,1.53022 0.25933,5.70593 -0.0255,7.98987 -2.99798,8.56757 -6.35133,18.322 -14.0593,23.59495 -2.88445,1.48337 -2.84725,-2.99968 -1.76339,-4.50893 3.63912,-9.48682 7.63759,-19.77562 15.08929,-26.76339 0.23972,-0.13175 0.48087,-0.28689 0.75892,-0.3125 z m 184.59822,2.09822 c 6.46478,0.55005 6.24892,9.17485 5.02232,13.8616 -1.4643,5.15945 -5.19877,11.99848 -11.31696,11.65179 -6.92143,-3.27011 -9.53839,-14.08463 -3.83929,-19.79911 2.52871,-2.95229 5.98762,-5.83615 10.13393,-5.71428 z m 30.91518,21.11607 c 7.55175,0.35493 14.06996,9.4429 11.0491,16.65178 -4.14172,4.6543 -11.64387,4.97862 -17.6116,5 -7.80354,-1.7639 -7.71653,-13.06545 -2.43304,-17.65625 2.27702,-2.38303 5.59355,-4.05317 8.99554,-3.99553 z m 111.27232,2.72321 c 8.51713,1.93822 13.32192,13.03782 10.26786,21.02679 -2.05105,4.73335 -7.9537,8.8751 -12.83483,5.20089 -8.78132,-4.32824 -11.31356,-18.78153 -2.1875,-24.17411 1.41725,-0.87231 2.9901,-2.15801 4.75447,-2.05357 z m -361.875,20.17857 c 6.06581,-0.7278 9.3577,8.46064 3.99553,11.54018 -2.26654,1.8341 -7.04806,5.59731 -8.90625,1.42857 -0.3777,-4.1333 -1.07792,-12.65113 4.91072,-12.96875 z m -48.01339,1.67411 c 5.24858,-0.35314 4.29812,6.67384 4.28571,10.06696 -1.67063,16.84223 -10.91617,31.69928 -14.46497,48.12447 -3.60314,11.30941 -3.96047,24.10212 -10.468066,34.21928 -0.945608,2.21028 -4.516108,3.73182 -5.446429,0.69197 -3.472629,-10.8946 -1.657596,-22.72411 -0.768624,-33.91856 2.289767,-19.02827 6.958552,-38.7526 19.540949,-53.71537 2.01498,-2.20215 4.10274,-5.18291 7.32143,-5.46875 z m 19.7991,22.16518 c 4.11174,-0.22851 2.55623,5.57108 2.65625,8.03571 -0.30116,5.75994 -1.83679,14.78144 -9.26339,14.62054 -3.08641,0.75187 -5.58108,-1.61089 -4.95536,-4.73214 -0.54779,-7.44967 2.16283,-18.53766 11.5625,-17.92411 z m 312.14286,7.90178 c 17.4992,-0.14458 33.05818,12.0604 40.98214,26.96429 10.60519,24.55538 10.92627,51.90899 10.80357,78.21429 -5.01168,12.67108 -16.71436,24.35927 -31.22767,23.63839 -14.72419,0.21124 -27.3,-9.61867 -37.09822,-19.62054 -16.39478,-16.74462 -25.65386,-42.16865 -18.35288,-65.24037 5.05925,-17.21601 14.10659,-35.11411 30.91985,-43.17481 1.24517,-0.53129 2.6185,-0.79735 3.97321,-0.78125 z m -283.19196,2.8125 c 8.92559,1.48218 12.94525,11.86692 11.60714,20.08929 -2.33355,20.54496 -8.28892,40.4812 -11.59699,60.87776 -1.92588,8.69179 -3.65896,20.55286 -13.87176,22.96153 -8.67784,-1.41357 -10.57105,-11.36287 -11.05536,-18.72587 -0.91568,-22.11679 4.47794,-43.99744 10.88289,-65.00865 2.78207,-6.90483 4.68188,-15.64685 11.33318,-19.72531 0.85197,-0.35579 1.7795,-0.51012 2.7009,-0.46875 z m 40.51339,7.14286 c 4.29086,-0.44064 4.62985,4.47461 3.66071,7.5 -2.74438,10.77669 -6.26666,22.62509 -14.62053,30.26786 -2.70308,2.75842 -9.70462,2.91887 -9.2634,-2.20982 -0.46806,-13.0629 3.63069,-28.9502 16.36161,-34.8884 1.23035,-0.44772 2.5497,-0.72067 3.86161,-0.66964 z m 137.43303,11.47322 c 6.59219,0.46525 14.1685,5.03665 15.2009,11.96428 -0.40673,10.17299 -10.93535,15.79637 -19.59822,18.25893 -5.01007,1.36406 -9.80223,-2.65923 -9.46428,-7.8125 -0.24515,-4.2203 -1.34462,-8.98766 -0.40549,-12.91058 3.92328,-4.13423 8.01936,-9.42938 14.26709,-9.50013 z m -212.67857,2.1875 c 5.40608,0.78362 6.7568,8.28738 5.53572,12.79017 -1.80606,3.81388 -6.79856,8.51328 -11.27232,6.1384 -6.06535,-5.18838 -2.48097,-18.25062 5.7366,-18.92857 z m 153.86161,0.60267 c 6.51397,0.23952 6.41466,8.92383 3.79464,13.19197 -1.34578,5.06988 -8.88756,9.00285 -12.54464,4.19643 -3.97505,-6.59029 0.20044,-17.58486 8.75,-17.3884 z m 320.87054,24.59822 c 6.42207,2.00285 8.36849,9.8302 11.54017,15.11161 1.42531,3.59038 5.28855,9.61837 0.80358,12.34375 -3.64266,2.28829 -8.46441,2.1026 -11.1384,-1.42858 -5.88655,-5.8639 -10.26537,-15.98417 -5.98214,-23.83928 1.09639,-1.38723 2.9477,-2.30762 4.77679,-2.1875 z m -34.19643,0.15625 c 8.92353,0.3017 15.76682,7.67461 17.92231,15.93203 5.43274,17.4835 12.97131,34.19458 19.24287,51.36708 2.44014,8.42171 5.01793,18.93665 -0.73661,26.51785 -3.33291,5.41693 -10.50692,4.55567 -15.20089,1.58482 -17.98788,-7.80141 -26.85168,-26.67324 -32.26345,-44.42827 -4.30513,-12.75777 -6.65285,-26.58232 -4.61155,-39.96905 2.41812,-6.62208 8.21707,-11.70449 15.64732,-11.00446 z m -358.77232,2.45536 c 4.47838,-0.17237 5.10992,6.37033 1.45089,8.2366 -3.76085,3.00062 -7.95715,-3.7705 -4.375,-6.45089 0.75446,-0.90014 1.69761,-1.6504 2.92411,-1.78571 z m 312.79017,1.45089 c 8.30973,1.11425 10.39322,11.06448 9.08483,18.10268 0.44198,5.71295 -6.23261,10.84641 -11.29465,7.56696 -5.52615,-4.86578 -5.71491,-13.66281 -4.375,-20.46875 0.74512,-2.98428 3.31752,-5.52233 6.58482,-5.20089 z m -296.09375,3.125 c 5.19664,1.47346 4.96667,9.00677 3.25893,13.16964 -1.31712,2.23225 -3.2405,6.41023 -6.29464,5.69197 -5.77378,-3.58946 -3.68353,-12.5037 -0.33482,-17.12054 0.83191,-0.94437 2.02196,-1.77719 3.37053,-1.74107 z m 35.06697,2.99107 c 4.13347,1.09971 1.84215,7.13166 1.42857,10 -3.03321,9.89978 -7.04602,20.58608 -15.11161,27.29911 -2.68616,2.5694 -6.89209,0.7997 -7.00893,-2.79018 -0.0817,-10.47432 5.84438,-20.22006 11.90817,-28.31659 2.39345,-2.53985 4.99336,-5.9775 8.7838,-6.19234 z m 99.6875,6.02679 c 5.87558,0.43649 7.18563,7.88787 5.20089,12.52232 -1.31276,5.40186 -6.43424,12.08335 -12.63393,10 -5.39634,-3.38403 -3.03879,-11.5706 -0.60268,-16.25 1.66928,-2.96171 4.2923,-6.09148 8.03572,-6.27232 z m -235.33482,1.45089 c 4.45305,2.31608 2.97294,8.84122 3.19196,13.05803 0.0719,4.7765 -1.76331,12.18279 -7.85714,11.38393 -3.61035,-5.2877 -1.53931,-12.63478 0.067,-18.41518 0.88777,-2.25317 2.12643,-5.1617 4.59822,-6.02678 z m 157.65625,1.58482 c 5.47765,0.90226 5.19102,9.92792 0.84821,12.32143 -1.91118,2.12294 -7.00019,3.36841 -7.45536,-0.58036 -0.63649,-4.59346 1.42276,-11.09871 6.60715,-11.74107 z m -199.821432,0.71429 c 3.68717,-0.21496 8.419248,2.21366 6.897321,6.58482 -1.626715,5.83136 -6.453461,11.0936 -12.209821,12.8125 -6.087924,-3.02526 -3.231674,-10.8025 -0.714286,-15.33482 1.281647,-2.03425 3.319413,-4.30058 6.026786,-4.0625 z m 226.071432,3.19196 c 10.08495,0.30651 16.10825,10.49719 18.37053,19.28571 0.4602,12.71948 2.57499,26.6499 -4.26339,38.16965 -9.22676,18.17863 -23.33259,33.62063 -39.64286,45.69196 -5.73833,3.97415 -14.11024,7.81452 -20.24553,2.5 -7.3348,-5.60783 -8.90236,-15.61333 -8.1724,-24.39705 0.53988,-23.09643 10.643,-45.3098 26.25727,-62.05313 7.7021,-7.82796 15.86552,-18.49258 27.69638,-19.19714 z m -202.92411,4.41964 c 5.49135,-0.28965 5.67648,6.62198 4.91071,10.53572 -1.57565,8.95467 -4.01156,19.3795 -11.42857,25.15625 -2.18537,1.84418 -3.39745,-1.29221 -2.76785,-3.125 1.21631,-10.15644 1.5012,-20.80422 5.40178,-30.35715 0.76238,-1.38736 2.26726,-2.21093 3.88393,-2.20982 z m 125.95982,4.30804 c 3.99969,0.29666 1.35263,5.97187 1.5625,8.4375 -0.90979,4.60342 -1.06143,12.41627 -6.74107,13.4375 -4.36413,-0.69514 -2.83865,-6.98189 -2.34375,-10.04464 1.24071,-4.27123 2.5331,-10.81077 7.52232,-11.83036 z m -23.05803,13.03571 c 5.44935,0.47646 8.55883,6.65302 5.84821,11.40625 -0.37062,2.56654 -3.66799,4.46377 -5.02232,1.58482 -2.40518,-3.5058 -3.41757,-9.03512 -1.36161,-12.83482 0.16689,-0.077 0.34899,-0.14355 0.53572,-0.15625 z m 173.63839,7.72322 c 4.93366,0.76655 8.24367,5.96026 9.57589,10.44643 0.38949,4.4401 -3.88319,9.66136 -8.50446,9.0625 -7.36365,-2.74338 -8.67212,-15.28255 -1.96429,-19.33036 0.28292,-0.12237 0.59465,-0.12617 0.89286,-0.17857 z m 145.13393,4.4866 c 9.34037,-0.10942 12.90429,10.78242 13.28125,18.61608 0.70903,7.56719 0.40088,15.73055 -4.77679,21.80803 -4.16679,6.42541 -13.96996,4.01924 -17.52232,-1.74107 -6.73753,-8.44566 -7.24889,-20.91304 -3.23661,-30.66964 2.16455,-4.84117 6.77647,-8.23575 12.25447,-8.0134 z m -171.42857,2.20983 c 7.17771,0.95715 8.54675,10.27041 7.90178,16.25 -1.00896,7.63765 -5.45123,17.33027 -14.59821,16.54017 -5.0376,-0.93417 -4.97267,-7.76676 -5.42411,-11.85267 -0.47906,-8.32581 2.74063,-19.43909 12.12054,-20.9375 z m 263.52678,4.04017 c 8.50936,1.686 14.10016,13.86185 8.45982,20.9375 -2.47713,2.94191 -7.10418,2.94459 -8.99553,-0.58035 -4.50544,-5.09596 -7.71762,-15.97682 -0.53572,-20.15625 0.34283,-0.12995 0.70113,-0.226 1.07143,-0.2009 z m -468.66071,9.17411 c 5.27833,0.85806 3.99158,7.91687 3.41518,11.76339 -1.16968,4.95029 -2.47113,11.61242 -7.61161,13.66072 -7.20787,-1.49118 -6.51163,-10.96639 -5.02232,-16.42857 1.54289,-3.92137 4.69844,-8.5124 9.21875,-8.99554 z m -29.97768,0.9375 c 5.53298,0.79669 8.37335,9.50569 3.125,12.72322 -2.45765,2.4652 -8.24991,3.37692 -8.90625,-1.1384 0.0735,-4.03889 0.75908,-11.04933 5.78125,-11.58482 z m -16.98661,4.15179 c 5.70881,0.9228 5.95342,10.39671 1.76339,13.05803 -4.12866,0.1667 -6.40096,-5.61339 -5.71428,-9.19643 0.39971,-1.89795 1.84722,-3.8586 3.95089,-3.8616 z m 297.67857,2.76785 c 7.32395,0.37734 8.17339,10.13188 7.16518,15.78125 -0.75676,4.75742 -6.48787,8.1919 -10.60268,5.06697 -4.27878,-3.60926 -8.68908,-10.94302 -4.91071,-16.20536 2.18053,-2.28591 5.11793,-4.21178 8.34821,-4.64286 z m 217.45536,13.03572 c 6.52387,0.70691 7.22374,10.63356 3.95089,14.97768 -1.6158,1.81247 -4.26095,2.35459 -5.7366,0.1116 -3.87691,-3.74263 -4.93738,-13.74997 1.78571,-15.08928 z m -251.49554,4.55357 c 10.1492,2.06279 13.12615,15.05673 10.5134,23.86161 -1.09595,3.86929 -4.61261,9.0344 -9.17411,7.94643 -9.60699,-4.49842 -12.94119,-17.73837 -9.21875,-27.29911 1.52356,-2.79579 4.57486,-4.87567 7.87946,-4.50893 z m -159.86607,6.07143 c 3.60902,0.6211 6.48042,3.78697 5.34247,7.61158 0.10912,12.83704 0.4389,26.05312 -4.6865,38.12476 -3.19215,7.84777 -5.03512,17.61239 -12.08454,22.85741 -3.96941,2.97482 -9.36286,-0.72179 -8.66071,-5.42411 0.99123,-10.69479 8.48634,-19.56224 9.41964,-30.35714 2.17907,-9.89469 2.14809,-20.52299 6.40625,-29.82143 0.89076,-1.49985 2.29631,-3.08474 4.26339,-2.99107 z m 235.42411,13.75 c 8.39057,0.28359 11.19509,13.12275 4.01786,17.00893 -5.50833,1.06196 -8.02688,-6.08588 -7.87947,-10.55804 -0.035,-2.4609 0.63555,-6.62791 3.86161,-6.45089 z m 132.52232,1.5625 c 8.36197,-0.19355 10.53779,9.71161 11.40625,16.27232 0.75184,9.48145 -0.97279,21.70349 -10,26.69643 -7.03568,2.95316 -12.40805,-4.75732 -14.15178,-10.625 -2.98028,-9.59979 -3.51108,-21.59789 3.08035,-29.82143 2.67327,-2.10557 6.36659,-2.51716 9.66518,-2.52232 z m -347.32143,2.85714 c 6.161,1.1049 5.68499,9.28294 5.80357,14.08482 -0.2125,6.74542 0.44091,16.90242 -7.5,19.33036 -4.44445,0.75613 -5.75339,-5.37749 -6.33928,-8.68304 -0.44085,-8.13532 -1.93168,-19.27105 6.09375,-24.21875 0.58413,-0.33267 1.2655,-0.52507 1.94196,-0.51339 z m 378.54911,1.47322 c 6.83238,-0.10169 7.79624,8.41735 7.56696,13.61607 -0.17167,5.11269 -4.0927,12.34724 -10.02232,10.7366 -5.23923,-3.87015 -6.90775,-11.43319 -7.45535,-17.72321 0.64684,-4.03718 6.17459,-6.48343 9.91071,-6.62946 z m -191.31696,0.22321 c 9.94135,-0.49161 16.78955,9.01066 16.90754,18.27706 0.74778,14.72898 1.59298,29.89398 -2.08612,44.31223 -2.36097,9.05829 -12.58605,16.7771 -21.96428,12.58928 -11.09465,-4.07467 -20.96723,-12.03576 -27.07589,-22.12053 -6.49916,-13.79968 -1.0461,-30.99813 9.97767,-40.80358 6.52785,-6.27994 14.81848,-12.0196 24.24108,-12.25446 z m 89.93303,2.96875 c 10.1626,0.32762 15.26932,11.19709 15,20.24554 1.00091,13.73682 -1.62681,29.03491 -12.69877,38.3113 -5.14434,5.77738 -16.19728,9.5687 -21.65391,2.22441 -7.13412,-10.59737 -7.38606,-24.48591 -6.3616,-36.85268 2.8407,-9.74203 10.22298,-18.24846 19.30803,-22.67857 2.00273,-0.87218 4.2202,-1.30131 6.40625,-1.25 z m -320.64732,4.70982 c 4.18856,0.44454 2.45087,6.46665 2.76786,9.30804 -0.56526,5.41945 -2.3434,12.74553 -8.16965,14.33035 -4.14725,-1.63205 -3.36546,-7.77547 -3.05803,-11.45089 1.08206,-4.52751 2.30148,-12.65827 8.45982,-12.1875 z m -17.54464,4.30804 c 5.42734,1.27489 5.72146,9.62593 1.83035,12.94643 -1.20616,2.1161 -5.12222,4.38777 -5.82589,0.60267 -0.70347,-4.43468 -0.61794,-10.87283 3.48214,-13.45982 0.17348,-0.004 0.33923,-0.0932 0.5134,-0.0893 z m 368.90625,5.53571 c 7.46845,1.806 7.23093,12.0369 4.55357,17.70089 -0.94056,1.86113 -2.97138,5.51913 -5.17857,2.7009 -4.59508,-4.59617 -3.93423,-12.15901 -2.99107,-18.10268 0.53385,-1.48215 2.01011,-2.47099 3.61607,-2.29911 z m -213.05804,12.32143 c 8.75049,0.47691 10.78864,11.58213 9.01786,18.61607 -2.62266,10.31794 -8.01963,21.71373 -18.32589,25.98214 -10.0704,3.49987 -19.36828,-10.82621 -12.61161,-18.95089 5.77643,-8.53315 11.02544,-17.98291 18.99553,-24.53125 0.86883,-0.58394 1.87751,-1.01966 2.92411,-1.11607 z m 230.73661,18.125 c 7.45855,1.70386 8.34581,16.27327 -0.24554,16.80804 -7.88288,-1.44394 -7.61915,-15.54045 0.24554,-16.80804 z m -203.61607,21.27232 c 8.17777,0.90108 8.84403,12.56708 4.77678,18.10268 -3.39163,4.4676 -9.54293,8.56676 -15.37946,7.25446 -4.42667,-3.02714 -1.66162,-9.7585 -0.53572,-13.90625 2.05378,-4.8363 5.00053,-11.40155 11.1384,-11.45089 z m 118.25893,2.47768 c 8.1047,1.22914 9.24709,12.66325 5.625,18.68304 -2.22852,5.37997 -10.45003,6.09417 -13.37054,1.0491 -6.07321,-7.08053 -1.6278,-18.98859 7.74554,-19.73214 z m -31.94197,1.91964 c 5.82811,-0.32063 10.04543,8.28964 5.49107,12.45536 -2.54327,4.24168 -11.49883,4.4823 -11.29464,-1.83036 -0.22452,-3.8313 0.29035,-11.24447 5.80357,-10.625 z"
       id="path2992"
       inkscape:connector-curvature="0"
       inkscape:export-xdpi="299.98999"
       inkscape:export-ydpi="299.98999"
       inkscape:export-filename="/home/guillaume/Documents/Dev/INRIA-Git/doris-android/DorisAndroid/images_source/path3082.png" />
  </g>
</svg>
