<?xml version="1.0" encoding="UTF-8" standalone="no"?>
<!-- Created with Inkscape (http://www.inkscape.org/) -->

<svg
   xmlns:dc="http://purl.org/dc/elements/1.1/"
   xmlns:cc="http://creativecommons.org/ns#"
   xmlns:rdf="http://www.w3.org/1999/02/22-rdf-syntax-ns#"
   xmlns:svg="http://www.w3.org/2000/svg"
   xmlns="http://www.w3.org/2000/svg"
   xmlns:sodipodi="http://sodipodi.sourceforge.net/DTD/sodipodi-0.dtd"
   xmlns:inkscape="http://www.inkscape.org/namespaces/inkscape"
   width="512"
   height="512"
   id="svg2"
   version="1.1"
   inkscape:version="0.92.5 (2060ec1f9f, 2020-04-08)"
   sodipodi:docname="doris_icon_notification.svg"
   inkscape:export-filename="D:\Users\dvojtise\git\doris-android-master\DorisAndroid\images_source\icone_haute_resolution.png"
   inkscape:export-xdpi="90"
   inkscape:export-ydpi="90">
  <defs
     id="defs4" />
  <sodipodi:namedview
     id="base"
     pagecolor="#ffffff"
     bordercolor="#666666"
     borderopacity="1.0"
     inkscape:pageopacity="0.0"
     inkscape:pageshadow="2"
     inkscape:zoom="1.4"
     inkscape:cx="136.54581"
     inkscape:cy="257.89341"
     inkscape:document-units="px"
     inkscape:current-layer="layer1"
     showgrid="false"
     inkscape:window-width="1920"
     inkscape:window-height="1023"
     inkscape:window-x="0"
     inkscape:window-y="0"
     inkscape:window-maximized="1"
     borderlayer="true"
     inkscape:pagecheckerboard="true" />
  <metadata
     id="metadata7">
    <rdf:RDF>
      <cc:Work
         rdf:about="">
        <dc:format>image/svg+xml</dc:format>
        <dc:type
           rdf:resource="http://purl.org/dc/dcmitype/StillImage" />
        <dc:title></dc:title>
      </cc:Work>
    </rdf:RDF>
  </metadata>
  <g
     inkscape:label="Calque 1"
     inkscape:groupmode="layer"
     id="layer1"
     transform="translate(0,-540.36218)">
    <path
       style="fill:#838383;fill-opacity:1"
       d="m 341.62851,1046.0126 c -2.69478,-0.6498 -10.95818,-4.0826 -18.36312,-7.6282 l -13.46351,-6.4469 -11.70012,0.7524 c -6.43506,0.4139 -15.84149,1.9442 -20.90315,3.4008 -27.17926,7.8214 -48.6389,9.7265 -58.35231,5.1803 -3.14946,-1.474 -9.00232,-6.9051 -15.95193,-14.8021 -18.78477,-21.346 -22.95108,-25.2464 -29.3779,-27.50278 -12.48369,-4.38306 -16.45613,-2.79796 -22.69171,9.05458 -1.69518,3.2222 -4.46257,6.5753 -6.14979,7.4515 -4.13012,2.1447 -16.51236,2.0541 -20.61437,-0.1509 -3.41666,-1.8365 -12.07599,-11.5898 -20.24377,-22.80095 -2.56275,-3.51766 -8.210289,-9.70121 -12.550069,-13.74121 -9.66093,-8.99356 -11.44903,-13.66357 -9.35176,-24.4243 0.77353,-3.96891 1.40643,-9.38638 1.40643,-12.03883 0,-4.08086 -0.46865,-4.94383 -3.04688,-5.6106 -1.67577,-0.43338 -7.10688,0.14276 -12.06911,1.28034 -4.96222,1.13755 -10.07928,1.6721 -11.3712,1.18784 -1.29194,-0.48426 -4.68341,-3.06271 -7.53662,-5.72984 -3.78584,-3.53896 -6.27266,-4.85126 -9.20302,-4.85641 -13.94648,-0.0245 -17.56258,-5.05734 -16.23322,-22.59319 l 0.82681,-10.90634 -7.36602,-9.05976 c -4.05132,-4.98284 -8.0443696,-11.1777 -8.8734796,-13.76634 -2.07025,-6.46374 -0.87866,-14.61229 3.7806196,-25.85331 3.7982,-9.16362 3.9069,-9.91613 3.22764,-22.34346 -0.52667,-9.63563 -1.36847,-14.20469 -3.35702,-18.22114 -2.3126696,-4.67112 -2.5491696,-6.59503 -1.83858,-14.95634 0.82383,-9.69366 2.3386,-14.00317 11.37257,-32.35486 9.92241,-20.15646 25.34198,-39.81655 44.29415,-56.47551 7.20423,-6.33253 13.27714,-12.28979 13.49534,-13.23838 0.29529,-1.28362 -1.19408,-1.72472 -5.82363,-1.72472 -5.43521,0 -9.11273,-1.5191 -29.13375,-12.03451 -12.60235,-6.619 -23.61997,-12.6388 -24.48359,-13.37735 -0.86362,-0.73855 -2.20364,-3.32047 -2.97782,-5.7376 -1.26285,-3.94287 -1.08001,-4.90486 1.77783,-9.35475 1.752,-2.72798 3.19389,-6.53685 3.20423,-8.46418 0.0271,-5.06848 1.58392,-6.88445 6.26969,-7.31372 2.48007,-0.22721 3.99937,-0.99341 3.78704,-1.90987 -0.69152,-2.98469 2.41768,-10.0824 5.51717,-12.59464 1.88162,-1.52511 4.99046,-2.54858 7.74146,-2.54858 4.44122,0 4.64549,-0.19784 6.02271,-5.8337 1.97117,-8.06636 8.06872,-20.13244 11.38249,-22.5241 4.01497,-2.89775 5.9565,-2.53585 16.46936,3.06981 5.21677,2.78168 9.66394,5.0576 9.88261,5.0576 0.21867,0 0.40066,-1.28021 0.40442,-2.8449 0.0122,-4.90404 2.50804,-12.39048 4.98111,-14.9388 3.84719,-3.96424 7.988009,-3.05097 14.462909,3.18979 l 5.84796,5.6365 1.50134,-7.48987 c 1.84494,-9.204 4.38818,-11.36952 13.35266,-11.36952 h 6.47586 v -6.87189 c 0,-3.77954 0.53851,-8.33139 1.1967,-10.11519 2.07025,-5.61081 12.33018,-4.0994 23.42573,3.45087 3.08539,2.09953 3.20444,2.06496 5.9196,-1.71924 3.99846,-5.57271 7.39647,-4.61971 10.9617,3.0743 2.83691,6.12223 2.875,6.14872 7.70477,5.3529 6.39215,-1.05323 10.3575,2.74595 11.57131,11.08646 1.5294,10.50907 -0.0122,14.46511 -9.17555,23.54962 -8.19347,8.12278 -8.3093,8.33087 -9.09374,16.33756 -0.43703,4.46049 -2.09111,11.02816 -3.67578,14.59481 -3.36877,7.58219 -5.14005,15.8594 -3.39384,15.8594 0.65678,0 6.34166,-1.42464 12.63308,-3.16589 33.14511,-9.17339 73.03968,-11.69674 98.70521,-6.24318 17.64711,3.74976 43.04284,12.94316 59.7352,21.62446 13.10151,6.81381 43.37902,28.99959 52.55569,38.51009 12.86566,13.33367 30.38177,35.68749 34.81663,44.43243 2.02286,3.98886 4.27193,7.25384 4.9979,7.25549 0.72596,8.7e-4 2.6586,-1.49656 4.29475,-3.32936 11.42766,-12.80125 20.52563,-13.73998 25.04906,-2.58457 3.62498,8.93975 1.62157,21.70286 -5.77812,36.81072 -4.99219,10.19246 -4.36972,13.49304 7.03954,37.32549 13.09349,27.3507 17.77577,33.82026 28.81483,39.814 3.037,1.64897 7.17836,4.79548 9.20303,6.99225 5.17115,5.61072 5.0809,13.6614 -0.3003,26.7845 -3.20562,7.81754 -4.55866,14.1433 -7.03163,32.8744 -3.61858,27.40812 -6.46453,38.72487 -12.97867,51.60856 -6.27526,12.41124 -12.91391,20.56363 -25.70455,31.56561 -17.03187,14.6502 -29.20239,19.0403 -42.30486,15.2603 -7.00431,-2.0208 -10.47678,-1.0359 -13.52687,3.8367 -2.97441,4.7516 -7.18521,7.1921 -14.28928,8.2819 -4.33858,0.6654 -6.72886,2.2079 -12.70628,8.1998 -4.04933,4.059 -9.41537,8.2582 -11.92452,9.3316 -5.00657,2.1417 -13.58954,2.3507 -21.1977,0.5161 z m 17.65561,-4.8487 c 2.36973,-0.7002 7.63069,-4.6874 12.2626,-9.2935 6.99081,-6.9518 8.93977,-8.1947 14.09777,-8.9904 8.25842,-1.274 8.71608,-1.5337 12.42755,-7.0523 4.27966,-6.3633 8.08776,-7.6911 15.94497,-5.5592 3.37444,0.9156 8.34408,1.6843 11.04363,1.7082 14.96272,0.1326 43.84727,-24.80629 54.32387,-46.90287 6.12472,-12.91787 8.0153,-20.78108 12.02406,-50.00994 2.35063,-17.13892 3.97151,-24.53759 7.2965,-33.3055 2.35101,-6.19957 4.27456,-12.34542 4.27456,-13.65745 0,-3.47717 -4.32916,-8.59224 -10.34849,-12.2271 -9.9357,-5.99984 -17.99938,-16.39038 -28.12842,-36.24512 -5.208,-10.20861 -10.35703,-21.30372 -11.44231,-24.65581 -1.08529,-3.35209 -2.19284,-6.35599 -2.46125,-6.67533 -0.26839,-0.31936 -2.56859,1.90863 -5.11156,4.95104 l -4.62356,5.5317 1.6081,6.38798 c 2.4493,9.72957 2.11004,18.88529 -0.80033,21.59929 -3.30615,3.08303 -5.5046,1.84563 -9.95135,-5.60112 -2.09146,-3.50244 -4.51018,-6.36807 -5.37495,-6.36807 -0.86475,0 -3.02029,2.25465 -4.79008,5.01035 -2.74761,4.27823 -3.02613,5.52534 -1.90607,8.5347 2.48985,6.68963 -1.14936,18.06495 -5.77936,18.06495 -2.40072,0 -4.14775,-4.24068 -4.14775,-10.06814 0,-9.30624 6.04807,-19.02167 23.38622,-37.56689 13.81928,-14.78138 16.51062,-18.37997 21.51517,-28.76779 4.71567,-9.78821 5.81117,-13.39206 6.23887,-20.5238 0.58839,-9.8111 -1.16208,-14.74036 -5.46046,-15.37653 -4.71229,-0.69742 -9.72128,4.44576 -22.95834,23.57338 -16.2297,23.45202 -21.7326,29.88932 -33.06036,38.67421 -6.53393,5.06718 -10.19572,7.06596 -12.94491,7.06596 -6.03001,0 -11.01444,-3.3796 -13.53282,-9.17566 -2.94665,-6.78179 -1.22844,-11.71602 5.29436,-15.20404 8.13251,-4.34879 17.38036,-0.49416 19.12839,7.97293 l 0.90735,4.39496 8.02436,-8.36359 c 4.41341,-4.59997 11.98332,-14.11717 16.82201,-21.14935 l 8.79766,-12.78572 -3.07945,-6.26188 c -3.82487,-7.77762 -5.2085,-8.7735 -4.58867,-3.3027 0.66461,5.86613 -2.94144,7.91173 -10.06882,5.71173 -3.78081,-1.16703 -7.93625,-4.6037 -16.69126,-13.80421 -17.39509,-18.28025 -31.28774,-27.01607 -57.2477,-35.99797 -26.56897,-9.1926 -35.87066,-15.71365 -34.25891,-24.01755 1.38982,-7.16049 9.59809,-13.26517 20.65683,-15.36297 2.53829,-0.48149 4.92541,-1.39286 5.30469,-2.02524 0.88096,-1.46877 -10.19125,-6.5432 -25.81702,-11.83204 l -12.21606,-4.13473 -4.35311,3.60467 c -7.22798,5.98528 -22.56586,10.6296 -47.50599,14.38487 -7.54082,1.13543 -21.27339,4.31291 -30.5168,7.06107 -21.96363,6.52997 -31.27942,6.42979 -35.40774,-0.38079 -1.85677,-3.06313 3.05539,-12.40821 9.51886,-18.10901 2.70036,-2.38172 4.64394,-4.33038 4.31907,-4.33038 -0.32487,0 -5.25585,1.41052 -10.95775,3.13447 -5.70189,1.72396 -11.0573,3.14641 -11.90091,3.16101 -3.19077,0.0551 -1.29482,-12.68187 3.52151,-23.6577 1.29131,-2.94274 2.6504,-8.06357 3.0202,-11.3796 1.20231,-10.78104 1.78467,-12.01128 9.68226,-20.45354 8.67092,-9.26887 10.52654,-14.38821 8.03501,-22.16725 -1.3818,-4.31431 -1.68361,-4.50496 -6.81432,-4.305 -6.23314,0.24294 -8.50982,-1.31958 -10.59965,-7.27475 -0.83019,-2.36568 -1.86206,-4.30123 -2.29304,-4.30123 -1.94067,0 -3.23223,6.32519 -2.67932,13.12152 0.3836,4.71513 -0.18869,11.01074 -1.56559,17.22277 -1.86456,8.41209 -2.49264,9.70413 -4.4597,9.17409 -2.71144,-0.73063 -2.73051,-1.22788 -0.42433,-11.06938 2.47319,-10.55429 2.30348,-17.35425 -0.52558,-21.06025 -3.13804,-4.11072 -14.18754,-10.18886 -17.61123,-9.68765 -2.47094,0.36175 -2.78516,1.21455 -3.11717,8.46005 -0.31565,6.88857 0.075,8.72323 2.69233,12.644 3.68982,5.52738 5.92521,11.32782 4.97568,12.91095 -1.56392,2.60745 -4.25085,0.84551 -6.42841,-4.2154 -1.27167,-2.95555 -3.23046,-6.15488 -4.35283,-7.1096 -2.49162,-2.11946 -11.85961,-3.22545 -14.09362,-1.66391 -2.10611,1.47217 -4.19699,11.10906 -3.32116,15.30727 0.54545,2.61447 0.0671,3.55648 -2.39989,4.72595 -2.82609,1.33971 -3.46218,1.01737 -7.68453,-3.89423 -2.53186,-2.94518 -6.08388,-6.34488 -7.89335,-7.5549 -3.230889,-2.16055 -3.327879,-2.14042 -5.401869,1.1212 -3.46739,5.45289 -3.46861,13.874 -0.004,29.58373 3.790509,17.18864 3.822669,17.84779 0.87143,17.84779 -1.89809,0 -2.76233,-2.0558 -4.91678,-11.69571 -1.43763,-6.43264 -2.61007,-12.4184 -2.60539,-13.3017 0.01,-1.8741 -14.7645,-11.92148 -20.44429,-13.90322 -3.20827,-1.11938 -4.19889,-0.98759 -5.67091,0.75446 -2.49257,2.94981 -4.41123,6.97985 -6.96644,14.6326 -2.1567,6.45927 -2.15105,6.65227 0.29564,10.11322 2.07812,2.93959 2.20695,3.72171 0.77217,4.68754 -0.94717,0.63761 -2.8265,0.80806 -4.17627,0.37882 -10.50136,-3.3397 -16.56546,-0.92824 -16.56546,6.58744 0,2.48445 1.09774,6.1057 2.43941,8.04723 2.09019,3.02469 2.18838,3.74474 0.68588,5.02965 -1.38435,1.18384 -2.47927,0.96326 -5.20033,-1.04765 -1.89572,-1.401 -4.55115,-2.72303 -5.90092,-2.93786 -1.99484,-0.31752 -2.52963,0.42723 -2.85752,3.97941 -0.22186,2.4035 -1.46429,5.90522 -2.76092,7.78157 -3.12492,4.52206 -2.97954,8.2632 0.40339,10.3815 1.51849,0.95087 11.70832,6.65377 22.64406,12.67315 19.48107,10.72301 20.055,10.94433 28.37916,10.94433 10.11235,0 12.75625,1.86928 9.61996,6.80149 -1.05651,1.6615 -6.5056,7.20575 -12.10908,12.32054 -16.26233,14.84407 -25.78824,25.04061 -33.81509,36.19577 -7.40769,10.29468 -7.46791,10.4462 -5.64673,14.20788 1.65091,3.41 1.63063,4.54713 -0.19651,11.02355 -2.49775,8.85329 -10.93104,25.0295 -15.5708,29.86694 -1.88557,1.9659 -3.4283,4.2838 -3.4283,5.15089 0,0.86708 1.42233,6.37086 3.16073,12.23063 4.19924,14.15472 3.63593,26.18446 -1.9495,41.63192 -4.94871,13.68647 -4.54332,17.84553 2.66661,27.35803 10.77763,14.2196 11.06772,14.98319 10.32806,27.18695 -0.58854,9.71078 -0.38232,11.2896 1.85813,14.2245 1.59837,2.09383 3.72478,3.30132 5.81362,3.30132 6.07689,0 11.69268,2.45772 16.37056,7.16451 l 4.64353,4.67224 10.15121,-2.02259 c 10.70486,-2.13292 15.904,-1.82698 18.23992,1.07326 2.16954,2.69367 3.01904,2.12699 3.34114,-2.22882 0.3801,-5.14003 6.50721,-20.92062 12.198559,-31.41779 2.45077,-4.52024 5.33306,-12.18991 6.40511,-17.04373 1.59068,-7.20206 2.56056,-9.17864 5.27358,-10.7474 6.64606,-3.84293 10.66675,2.33413 10.68238,16.41153 0.01,9.34863 -0.093,9.65989 -7.29505,21.9681 -4.01808,6.8668 -8.51213,16.22103 -9.98676,20.78714 -2.65339,8.21596 -6.832689,14.14275 -9.972829,14.14275 -0.89283,0 -2.88628,-0.9115 -4.42987,-2.02557 -1.54359,-1.11406 -2.96278,-1.82529 -3.15376,-1.58049 -0.8241,1.0563 -3.17562,15.80317 -3.1793,19.93803 -0.003,3.98476 1.08122,5.59702 9.00325,13.38142 4.95399,4.86796 11.231149,11.9802 13.949249,15.80502 16.03641,22.56589 30.96716,27.81419 38.49221,13.52999 1.73516,-3.2937 4.89882,-7.84253 7.03035,-10.10862 3.60107,-3.82838 3.82342,-4.57362 3.13953,-10.52358 -0.9464,-8.23385 0.90479,-12.16702 5.47067,-11.62348 3.91045,0.46552 7.31255,6.61947 7.79166,14.09409 0.27191,4.24223 0.9158,5.16938 5.12771,7.38351 5.75991,3.02787 6.8906,1.99639 6.91921,-6.31213 0.0339,-9.82505 4.14077,-13.42549 8.14003,-7.13616 1.41225,2.22093 2.22342,7.0002 2.62886,15.48891 0.66213,13.86266 0.85231,14.25006 14.25084,29.03216 9.38918,10.3588 14.52305,12.8939 26.18575,12.9304 7.84902,0.025 32.906,-4.0157 34.39042,-5.5452 0.31249,-0.3221 -0.31643,-1.8869 -1.3976,-3.4774 -2.81178,-4.1365 -2.43092,-8.2869 1.09368,-11.9187 2.50744,-2.5837 3.50379,-2.9076 5.52184,-1.7946 1.89307,1.0439 2.46234,2.6458 2.46234,6.9286 0,3.0638 -0.55219,5.9223 -1.22708,6.3521 -3.44583,2.1944 -0.35851,2.602 6.64016,0.8764 7.76502,-1.9144 7.84356,-1.9768 6.0462,-4.8034 -3.75129,-5.8994 0.43904,-14.6048 5.10803,-10.612 1.46643,1.254 1.9313,3.2578 1.63668,7.0551 l -0.41146,5.3037 9.81657,0.5374 c 8.49019,0.4647 11.51467,1.3405 22.38433,6.4815 17.29907,8.1818 24.65039,9.7728 33.31916,7.2109 z m -117.67331,-12.6871 c -1.62301,-3.1249 0.3501,-11.6075 3.89231,-16.7334 5.37362,-7.7763 13.28943,-5.0115 13.28943,4.6415 0,6.2908 -2.19217,9.8166 -7.81217,12.5646 -5.54796,2.7127 -7.77342,2.6005 -9.36957,-0.4727 z m 104.39282,-0.7974 c -3.53064,-4.6251 -3.32764,-11.1479 0.46871,-15.0597 6.18851,-6.377 12.94002,-2.6166 12.94002,7.2068 0,9.9088 -8.18153,14.7004 -13.40873,7.8529 z m -24.33232,-3.1891 c -2.17074,-2.2367 -1.88769,-9.3625 0.46834,-11.7902 2.79685,-2.882 6.78977,-1.9114 9.00906,2.1897 1.69,3.123 1.69023,3.8312 0.003,6.9542 -2.06548,3.8216 -7.00185,5.1995 -9.47971,2.6463 z m -24.22602,-12.8893 c -7.39771,-3.5545 -17.27771,-13.15052 -19.70637,-19.13995 -4.59235,-11.3254 -0.49098,-26.05512 10.03995,-36.05749 13.57556,-12.89417 27.88707,-13.15461 33.0478,-0.60139 3.85295,9.3721 3.10523,38.63401 -1.26243,49.40523 -1.93476,4.7716 -8.27479,9.3608 -12.91594,9.3492 -1.68722,0 -5.82858,-1.3342 -9.20301,-2.9556 z m -85.6654,-1.838 c -4.04271,-4.3482 -4.36436,-10.82748 -0.76547,-15.4198 1.36247,-1.73855 4.36815,-6.12853 6.67931,-9.75551 8.05661,-12.64355 12.77515,-14.83057 17.82595,-8.26219 7.69886,10.01212 -4.90004,36.9837 -17.27574,36.9837 -1.86788,0 -4.51922,-1.4545 -6.46405,-3.5462 z m 156.47732,-5.6567 c -4.15595,-4.55838 -6.59148,-13.28758 -6.8066,-24.3954 -0.18055,-9.32387 0.12087,-10.73529 3.48355,-16.3141 7.59514,-12.60042 18.52901,-17.70281 25.61042,-11.9513 4.90138,3.98089 6.90697,9.7501 6.90697,19.86839 0,11.58601 -2.8097,20.76362 -8.25977,26.97971 -7.87441,8.9813 -15.99109,11.235 -20.93457,5.8127 z m 53.22609,-2.0585 c -2.86738,-3.26474 -2.13588,-10.03114 1.34002,-12.39529 2.39987,-1.63228 2.92918,-1.5506 5.21505,0.80481 3.01843,3.11026 3.33141,9.216 0.61584,12.01418 -2.55041,2.628 -4.59697,2.507 -7.17091,-0.4237 z M 116.75911,990.44134 c -4.04295,-1.57307 -3.62536,-8.32206 1.11032,-17.9451 3.11064,-6.32087 4.19394,-10.7233 5.51368,-22.40703 2.04372,-18.093 5.29083,-23.95907 10.91137,-19.71192 2.12981,1.6094 2.38345,3.2365 2.22007,14.24154 -0.14989,10.09716 -0.89363,14.67466 -3.9703,24.43637 -5.73133,18.18446 -9.81039,23.71086 -15.78514,21.38614 z m 341.20244,-4.67793 c -0.80139,-0.52507 -2.04951,-2.5603 -2.77359,-4.52274 -1.79933,-4.87653 0.65224,-10.15164 4.95829,-10.66889 4.02601,-0.48362 6.51209,2.55769 6.51209,7.96642 0,6.57559 -4.27173,10.12449 -8.69679,7.22521 z m -50.01033,-6.87435 c -2.38527,-3.50905 -2.53335,-14.0489 -0.22511,-16.02285 3.74069,-3.19894 8.13149,1.65306 8.13149,8.98553 0,4.19299 -2.81837,9.84746 -4.90828,9.84746 -0.59836,0 -1.94749,-1.26457 -2.9981,-2.81014 z m 28.30216,-0.30457 c -7.60098,-8.4511 -7.42349,-30.46738 0.27988,-34.71552 3.82279,-2.10813 10.60436,-1.65627 12.70485,0.84653 2.67613,3.18867 4.65974,10.00863 4.65185,15.99368 -0.0216,16.3603 -9.9493,26.42238 -17.63658,17.87531 z m -330.6567,-4.78375 c -2.11141,-2.17565 -1.70537,-11.09302 0.73423,-16.12514 1.59404,-3.28796 2.93394,-4.4254 5.21314,-4.4254 2.72043,0 3.10975,0.59477 3.43934,5.25427 0.65442,9.25174 -5.50769,19.29331 -9.3867,15.29627 z m 37.73577,-1.17461 c -2.59552,-4.99732 -2.74584,-17.60909 -0.26861,-22.53692 3.07341,-6.11377 7.98815,-6.76829 10.16472,-1.35368 2.27659,5.66337 1.19837,20.69357 -1.72314,24.02001 -2.97988,3.3929 -6.37143,3.3392 -8.17297,-0.12941 z m -49.376409,-1.88507 c -1.6335,-1.68319 -0.79231,-10.38255 1.20272,-12.43828 1.87632,-1.93339 2.19484,-1.90288 4.4558,0.42685 2.718469,2.80119 2.271609,7.45263 -1.04423,10.86935 -2.08664,2.15012 -3.33593,2.45934 -4.61429,1.14208 z M 465.86612,966.8425 c -1.80828,-2.09612 -4.58526,-10.49244 -4.60004,-13.90839 -0.0123,-2.8344 4.81958,-6.63811 8.4324,-6.63811 4.53575,0 6.45701,2.47477 7.11719,9.1676 0.96186,9.75155 -6.05913,17.04785 -10.94955,11.3789 z M 329.9338,955.11707 c -2.37958,-2.45197 -3.15356,-7.92304 -1.68047,-11.87866 1.14665,-3.07902 6.2862,-2.4322 8.51415,1.07151 4.67723,7.35552 -1.18551,16.62715 -6.83368,10.80715 z M 176.58392,950.289 c -6.88807,-7.09761 -7.70064,-20.94189 -2.38596,-40.65159 3.57198,-13.24687 8.3927,-21.90091 19.54109,-35.07975 9.72164,-11.49225 17.09938,-16.77492 23.41373,-16.76493 4.96916,0.008 10.44669,4.42629 13.5564,10.93522 2.49471,5.22167 2.92842,8.00204 2.92842,18.77345 0,12.02218 -0.22291,13.11036 -4.53253,22.12701 -5.40179,11.30165 -14.80792,23.6841 -24.91717,32.80153 -13.41814,12.10167 -21.30693,14.34767 -27.60398,7.85906 z m 88.48739,0.26716 c -6.21937,-4.48875 -8.57809,-19.59248 -3.82462,-24.49056 6.51448,-6.71265 15.95192,1.22762 15.95192,13.4213 0,6.98464 -3.93977,13.1311 -8.41681,13.1311 -0.46954,0 -2.13925,-0.92783 -3.71049,-2.06184 z m 212.43501,-18.15139 c -1.93655,-3.19525 -1.96324,-9.1722 -0.0497,-11.14389 3.82424,-3.94057 8.34408,-0.15016 8.34408,6.99753 0,6.36233 -5.33492,9.02926 -8.29434,4.14636 z m -186.64464,-6.79005 c -1.49413,-1.63885 -3.02914,-4.96416 -3.41113,-7.38963 -0.59016,-3.74741 -0.18931,-4.8194 2.66822,-7.13551 6.52701,-5.29033 11.32961,-2.96686 12.50319,6.04895 1.27725,9.81227 -5.85526,14.953 -11.76028,8.47619 z m 105.0569,-1.76182 c -4.34868,-4.69708 -6.03359,-9.69063 -6.13638,-18.18631 -0.15281,-12.62989 7.47215,-20.49977 16.66309,-17.1983 7.58152,2.72332 11.00037,21.89689 5.78338,32.43414 -3.75294,7.58016 -10.83731,8.86172 -16.31009,2.95047 z M 76.625181,923.10062 c -2.98395,-2.24829 -3.13545,-11.96259 -0.25716,-16.48905 2.94157,-4.62597 6.62649,-6.42316 9.00295,-4.39089 3.96908,3.39425 -0.0502,20.41864 -5.2415,22.20175 -0.66112,0.22708 -2.23806,-0.36773 -3.50429,-1.32181 z m 376.312709,-1.55953 c -12.69312,-6.51768 -20.76617,-19.25274 -27.22137,-42.94106 -4.21997,-15.48586 -4.78498,-26.34362 -1.71749,-33.00454 3.56542,-7.74213 12.31152,-10.2117 19.70777,-5.56472 5.45839,3.42944 7.48894,7.11249 10.83934,19.66048 1.59921,5.98953 5.6838,17.04577 9.07681,24.56942 8.85022,19.62442 9.61919,33.26916 2.17763,38.64001 -3.61776,2.61107 -5.52181,2.4098 -12.86269,-1.35959 z m -204.50586,-4.60762 c -2.39463,-3.52282 -2.48427,-13.5569 -0.17208,-19.25914 2.1532,-5.31011 6.99691,-8.80044 10.58454,-7.62714 8.48129,2.77374 6.86075,24.09236 -2.15308,28.32427 -4.29766,2.01772 -6.12684,1.69925 -8.25938,-1.43799 z M 40.880501,915.32742 c -3.7738,-5.93477 0.79498,-12.70294 5.38339,-7.97494 2.8689,2.95618 1.08756,11.12672 -2.42586,11.12672 -0.52435,0 -1.85524,-1.4183 -2.95753,-3.15178 z m 12.58222,-0.21995 c -1.58246,-1.63059 -0.79553,-9.11486 1.17149,-11.14171 2.66488,-2.74594 5.51211,-1.98953 7.71184,2.04879 1.62193,2.97758 1.59153,3.6657 -0.29288,6.62915 -1.98862,3.12734 -6.64926,4.46403 -8.59045,2.46377 z M 479.7866,911.39673 c -6.68105,-8.75196 -3.81859,-21.34845 3.88578,-17.09976 6.92807,3.82059 9.07877,15.96837 3.38321,19.10926 -3.44859,1.90178 -4.50646,1.60935 -7.26899,-2.0095 z m -135.41088,-3.1443 c -18.80231,-4.55292 -38.13457,-26.24284 -42.4988,-47.68177 -2.88875,-14.19075 -0.89115,-26.82184 6.77685,-42.85052 5.32463,-11.13024 15.12495,-21.28934 21.77819,-22.57547 13.9299,-2.69277 32.76905,10.29701 38.72562,26.70167 4.54841,12.52655 7.60835,31.74976 7.8345,49.21786 0.19021,14.69227 -0.0688,16.9741 -2.44058,21.4948 -6.55469,12.49385 -18.25657,18.57962 -30.17578,15.69343 z m -67.17711,-8.73922 c -4.81824,-4.96482 -1.86343,-17.03323 3.79695,-15.50798 2.8505,0.7681 7.23489,7.28615 7.2421,10.76647 0.007,2.70749 -4.22709,7.27031 -6.74431,7.27031 -1.01232,0 -2.94496,-1.13798 -4.29474,-2.5288 z M 37.169441,886.68338 c 2.29829,-21.58743 3.67853,-25.57785 8.59426,-24.84709 4.22376,0.6279 5.14111,5.99882 2.64649,15.49497 -2.48536,9.46104 -6.42132,16.2588 -9.80248,16.92976 -2.11541,0.41978 -2.22708,-0.1685 -1.43827,-7.57764 z m 95.392349,2.27801 c -1.98462,-2.46406 -2.86759,-8.75204 -1.52263,-10.84302 0.98521,-1.53163 1.62355,-1.4807 4.32806,0.34525 3.3453,2.25862 4.01396,5.68712 1.90214,9.75311 -1.49403,2.87655 -2.82138,3.08652 -4.70757,0.74466 z m -54.988729,-0.83662 c -8.85154,-3.67487 -9.23006,-27.05242 -0.97537,-60.23979 7.20277,-28.95831 13.29285,-36.42659 22.03611,-27.02296 5.465499,5.8783 5.524439,13.50215 0.27513,35.58192 -2.37759,10.00067 -4.91632,22.96393 -5.64159,28.80722 -1.52492,12.28554 -4.97561,20.60691 -9.40822,22.68799 -1.70901,0.80237 -3.21937,1.42279 -3.35634,1.37871 -0.13696,-0.0441 -1.45534,-0.58098 -2.92972,-1.19309 z m 67.919959,-3.36291 c -1.52165,-1.56793 -0.8301,-9.49613 1.21585,-13.93877 2.21737,-4.81494 4.78099,-6.51864 6.7523,-4.48735 1.42242,1.46568 -0.82396,15.00836 -2.93409,17.68856 -1.35594,1.72228 -3.73952,2.07151 -5.03406,0.73756 z m 14.01028,-4.61379 c -2.57207,-2.65031 -1.35369,-9.93312 3.13391,-18.73283 10.18008,-19.96207 21.02002,-19.81164 13.40584,0.18604 -5.50105,14.4478 -12.69212,22.51148 -16.53975,18.54679 z M 55.584081,872.25224 c -1.833,-7.52543 2.35997,-20.25822 6.17444,-18.74993 4.20211,1.66154 3.15117,19.48419 -1.25157,21.22509 -3.27495,1.29493 -4.10638,0.8769 -4.92287,-2.47516 z m -37.25569,-1.13625 c -0.93346,-1.15896 -1.17263,-3.39176 -0.64333,-6.0059 1.33167,-6.57687 3.90641,-9.85089 7.74691,-9.85089 7.47767,0 8.47964,6.57466 2.01684,13.23407 -4.71559,4.85904 -6.82961,5.46696 -9.12042,2.62272 z m 234.574219,0.32753 c -2.4185,-2.49207 -1.72191,-10.37045 1.33058,-15.04904 4.89734,-7.50616 11.92179,-5.7607 11.92179,2.96238 0,9.07116 -8.58243,16.89867 -13.25237,12.08666 z m -63.23505,-4.38326 c -2.34945,-2.42092 -0.38548,-10.00954 3.08596,-11.92392 5.5263,-3.04756 8.48283,6.97521 3.18538,10.79856 -2.9253,2.11129 -4.96014,2.47644 -6.27134,1.12536 z m 205.8203,-2.65352 c -4.14992,-2.85527 -5.96162,-14.7183 -3.09163,-20.24406 2.09925,-4.0418 7.82408,-3.77383 11.10161,0.51964 3.10675,4.06974 3.44904,13.7392 0.63302,17.88193 -1.88461,2.77251 -6.01235,3.65245 -8.643,1.84249 z m 71.43415,-2.93719 c -9.02094,-7.31173 -9.74049,-24.71466 -0.97874,-23.67162 2.68213,0.31928 4.1371,2.03136 7.85464,9.24268 5.5044,10.67747 5.8305,14.1369 1.49274,15.83629 -4.27592,1.67516 -4.6414,1.6137 -8.36864,-1.40735 z m -324.20548,-0.856 c -4.37463,-3.02161 -1.68512,-16.73395 3.28215,-16.73395 5.05289,0 6.07601,10.24032 1.53921,15.40593 -2.22183,2.5298 -2.83637,2.69906 -4.82136,1.32802 z M 28.072871,849.48708 c -3.38776,-9.18153 -0.0512,-40.96304 6.04003,-57.53157 4.06168,-11.04808 12.49422,-23.22857 16.40997,-23.70355 2.65402,-0.32192 3.41574,0.23021 4.08001,2.95734 1.52184,6.24794 -0.48025,16.36004 -5.6191,28.3808 -3.22897,7.55318 -6.17299,17.35957 -7.97144,26.5524 -3.12168,15.95665 -4.71108,21.01198 -7.66286,24.37288 -2.65484,3.02281 -3.86918,2.78617 -5.27661,-1.0283 z m 100.836999,-2.71894 c -1.57846,-3.03914 0.38078,-6.68173 3.59386,-6.68173 2.94699,0 4.43668,3.377 2.72519,6.17775 -1.80049,2.94643 -4.9212,3.19532 -6.31905,0.50398 z m 104.74572,-7.14402 c -1.67273,-1.26034 -2.43828,-3.81518 -2.83449,-9.4592 -0.52441,-7.47051 -0.39651,-7.88325 3.77504,-12.1817 5.09513,-5.25012 10.08387,-5.82842 16.27384,-1.88641 5.2367,3.33492 7.09791,8.58162 4.71975,13.30496 -2.02226,4.01648 -4.18073,5.94913 -10.55284,9.4487 -5.35703,2.9421 -8.24295,3.13826 -11.3813,0.77365 z m -123.74763,-1.64506 c -1.44941,-1.49349 -0.87192,-11.15511 1.06937,-17.89102 2.47815,-8.59872 9.72612,-16.66924 14.97029,-16.66924 2.05696,0 4.03167,0.78342 4.38826,1.74091 1.51777,4.07557 -4.45026,21.97981 -9.8509,29.55299 -2.8047,3.93295 -8.28707,5.62599 -10.57702,3.26636 z m -53.538919,-6.66034 c -2.76158,-5.31703 -0.38482,-13.53868 4.43851,-15.35366 3.7084,-1.39544 6.47722,1.10878 7.34943,6.6471 0.61025,3.87494 0.20824,5.18359 -2.42639,7.89835 -3.7499,3.86398 -7.6017,4.19652 -9.36155,0.80821 z m 128.730119,-0.21626 c -1.91751,-3.69189 -0.37883,-10.77976 2.8453,-13.10672 8.44349,-6.09396 14.08541,1.84972 8.28092,11.65936 -2.97253,5.02362 -8.87031,5.79085 -11.12622,1.44736 z m -32.95429,-12.39229 c -7.14881,-7.88565 -8.26262,-23.5525 -2.84225,-39.97919 4.35225,-13.18971 11.91856,-26.64983 23.85115,-42.43007 l 9.62088,-12.72312 0.10712,-11.6038 c 0.13298,-14.40797 2.51456,-19.08744 12.26165,-24.09238 10.73292,-5.51115 17.30705,-3.79016 14.50729,3.79778 -0.73636,1.99572 -2.13316,4.53299 -3.10398,5.63837 -1.54523,1.7594 -1.48007,2.27562 0.5231,4.1436 2.15991,2.01417 2.72373,1.92162 10.05352,-1.65027 10.00583,-4.87597 19.11878,-6.77888 29.55419,-6.17128 10.09005,0.58749 14.63583,3.48404 16.33896,10.41109 0.93566,3.80549 0.70567,5.56495 -1.20542,9.22157 -1.80695,3.45738 -19.19209,21.06946 -32.89827,33.32772 -1.31584,1.17683 4.51764,11.8423 9.52459,17.41398 5.67842,6.31893 9.93263,8.25968 14.50518,6.61719 9.41889,-3.38332 22.48442,0.30163 26.01528,7.33731 4.39925,8.76597 0.75487,21.6933 -7.78795,27.62544 -6.16413,4.28036 -15.7669,4.03583 -21.03953,-0.53577 -2.16822,-1.87994 -4.69541,-5.27553 -5.61597,-7.54579 -1.94218,-4.78964 -2.24743,-17.60277 -0.4467,-18.74954 2.07775,-1.32321 1.34971,-2.40895 -3.81515,-5.68981 -6.61077,-4.19932 -13.0397,-14.41502 -20.03449,-31.83523 -12.81202,-31.9077 -17.71755,-39.73906 -24.26236,-38.73321 -3.88322,0.5968 -7.38079,6.42996 -8.03004,13.39231 -0.73674,7.90066 1.72433,16.74509 10.10474,36.31353 10.11783,23.6254 13.77936,37.78056 14.39078,55.63361 0.27675,8.08085 0.0919,8.85079 -2.12447,8.85079 -2.181,0 -2.50705,-1.15596 -3.20969,-11.3796 -0.75441,-10.97734 -4.09656,-28.04898 -5.88372,-30.05415 -1.11917,-1.25566 -17.14184,18.93174 -22.85033,28.78975 -9.94298,17.17056 -19.22481,22.36222 -26.20811,14.65917 z m -93.773869,-11.0767 c -0.44994,-0.4636 -0.81805,-3.22438 -0.81805,-6.13502 0,-7.3619 4.34638,-13.88465 9.2519,-13.88465 3.58984,0 3.63184,0.0815 3.59069,6.95421 -0.0519,8.66403 -3.01973,13.90839 -7.87092,13.90839 -1.83458,0 -3.70371,-0.37931 -4.15362,-0.84293 z m 29.44969,-27.81681 c -1.52913,-1.57564 -0.82611,-10.22012 0.95501,-11.7433 2.9533,-2.52558 7.25211,-1.06788 8.60738,2.91876 1.07949,3.17545 0.81644,3.97241 -2.19111,6.63809 -3.42992,3.04004 -5.8471,3.75702 -7.37128,2.18645 z m 306.758199,-8.07569 c -4.48118,-3.63212 -6.52818,-11.12299 -4.32827,-15.83897 0.92351,-1.97974 3.1542,-4.45152 4.95707,-5.49282 2.85527,-1.64917 3.69949,-1.66085 6.54681,-0.0907 6.92618,3.81954 9.1878,16.15177 3.90069,21.26987 -3.55592,3.44223 -6.9598,3.48911 -11.0763,0.15256 z m -99.2828,-7.17136 c -3.36315,-3.82929 -2.73893,-10.04551 1.44126,-14.35287 5.37147,-5.53488 12.42849,-4.41448 16.45706,2.61278 4.37751,7.63598 0.77278,12.54683 -9.99211,13.61267 -4.5942,0.45488 -6.19511,0.0757 -7.90621,-1.87258 z m -224.420389,-2.5599 c -1.86592,-4.83689 0.45099,-18.36814 5.12674,-29.9415 11.64037,-28.81202 34.711429,-53.86089 63.890379,-69.36746 8.59434,-4.56727 17.71336,-5.44173 19.91542,-1.90976 2.49398,4.00018 -0.67777,8.80533 -12.07307,18.2905 -15.11475,12.58113 -30.97458,31.25666 -49.755159,58.58851 -9.5446,13.89047 -21.68971,27.81681 -24.25895,27.81681 -0.8272,0 -2.10762,-1.5647 -2.84536,-3.4771 z m 36.690259,-7.36547 c -2.59365,-2.67255 10.09938,-28.35384 14.01394,-28.35384 3.65589,0 -2.80654,19.48797 -8.49061,25.60411 -3.2975,3.54817 -4.27579,4.0352 -5.52333,2.74973 z m 218.6965,-2.27222 c -10.02318,-5.46359 -17.06649,-18.39405 -15.48597,-28.42996 1.89567,-12.03694 18.49967,-18.37141 30.97095,-11.81549 5.85242,3.07649 13.52652,11.46313 15.94354,17.42386 2.52114,6.2175 2.19963,14.73844 -0.69939,18.53606 -5.89508,7.72237 -20.64927,9.78002 -30.72913,4.28553 z m -200.17345,-2.59216 c -1.94918,-4.40809 -0.35071,-12.95246 3.83632,-20.50673 7.71912,-13.92682 31.26028,-36.09794 36.23851,-34.1295 5.09091,2.013 -0.19694,15.69953 -11.81696,30.5858 -4.3121,5.52419 -9.90965,12.96622 -12.43901,16.53784 -7.3941,10.44096 -13.28662,13.23939 -15.81886,7.51259 z m 142.55447,-2.22974 c -1.36362,-2.30467 -2.48141,-5.2143 -2.48391,-6.46581 -0.009,-3.9768 3.59141,-9.62596 7.43993,-11.67666 7.0429,-3.75281 10.86859,0.57103 9.3027,10.51404 -0.9649,6.1269 -4.56267,10.92962 -8.55608,11.42164 -2.53831,0.31273 -3.75018,-0.49336 -5.70264,-3.79321 z M 50.961681,739.54841 c -2.5379,-2.61512 -0.52332,-8.39099 4.42239,-12.67912 4.11854,-3.57097 7.9424,-3.66708 10.01952,-0.25188 1.80849,2.97355 -1.00844,8.13837 -6.52983,11.97243 -4.89174,3.39684 -5.47698,3.46774 -7.91208,0.95857 z m 18.03584,-20.32713 c -1.55403,-4.17293 6.80794,-17.61637 13.67955,-21.99246 4.99618,-3.18173 6.77972,-3.22067 6.77972,-0.14803 0,3.30055 -6.82612,16.43749 -10.74293,20.67492 -3.54819,3.83864 -8.55155,4.59333 -9.71634,1.46557 z M 292.11745,702.0933 c -1.4578,-0.55567 -3.58055,-3.01988 -4.71722,-5.47602 -1.9274,-4.16476 -1.92969,-4.76165 -0.034,-8.85789 3.29077,-7.11076 10.96819,-7.62296 17.2493,-1.15078 4.22266,4.35113 4.11855,7.49507 -0.39198,11.83672 -4.08397,3.93106 -8.14949,5.15615 -12.10609,3.64797 z m -150.30564,-1.93384 c -0.44994,-0.4636 -0.81805,-2.4988 -0.81805,-4.52266 0,-5.40187 5.92126,-11.0716 11.56278,-11.0716 5.06539,0 5.27993,0.83033 1.95143,7.55322 -3.43876,6.94557 -9.83058,10.9938 -12.69616,8.04104 z M 254.4552,685.89091 c -3.83871,-1.60333 -5.69606,-4.611 -5.26111,-8.51954 0.33048,-2.96986 1.70557,-4.22366 8.37139,-7.63302 5.16673,-2.64262 9.82346,-4.08994 13.22138,-4.1093 4.54508,-0.0259 5.40893,0.41327 6.46998,3.28901 3.62249,9.81767 -12.03252,21.47077 -22.80164,16.97285 z M 82.401131,674.87702 c -0.84361,-0.35076 -1.53385,-2.28643 -1.53385,-4.3015 0,-2.85853 0.67771,-3.83901 3.08361,-4.46123 3.49492,-0.90385 6.73297,1.2336 6.73297,4.44445 0,4.0828 -3.92611,6.12969 -8.28273,4.31828 z m 38.180369,-8.98108 c -0.96343,-0.64264 -1.08052,-2.8774 -0.37992,-7.25094 1.60257,-10.00395 1.31863,-22.7019 -0.73692,-32.95615 -1.04278,-5.20199 -1.56237,-10.01433 -1.15465,-10.69411 1.45564,-2.42693 4.05873,-1.17352 5.32282,2.56302 1.87713,5.54853 8.87841,15.98949 16.67429,24.8663 3.75209,4.27233 6.82199,8.09878 6.82199,8.5032 0,0.40442 -4.27941,2.95439 -9.5098,5.66657 -5.23039,2.71218 -10.5617,6.13242 -11.84735,7.60051 -2.54927,2.91102 -3.10446,3.09302 -5.19046,1.7016 z m 12.72557,-12.62465 c 2.87284,-1.21698 5.22541,-2.78399 5.22794,-3.48226 0.008,-2.01321 -9.0349,-13.1433 -10.73227,-13.21039 -1.09596,-0.0434 -1.53384,2.64655 -1.53384,9.42236 0,5.21565 0.40833,9.48301 0.90741,9.48301 0.49908,0 3.25792,-0.99572 6.13076,-2.21272 z m -58.400919,-6.81016 c -3.29133,-6.17324 -3.78519,-7.94739 -2.45414,-8.81643 2.82199,-1.84246 3.35489,-1.36506 7.17053,6.42364 4.27774,8.73196 4.49584,10.15683 1.55152,10.13626 -1.35428,-0.009 -3.66923,-2.86937 -6.26791,-7.74347 z m 24.90743,0.86644 c -2.44202,-3.84037 -1.88879,-7.46808 1.233349,-8.08764 2.96555,-0.58848 5.58884,2.99521 5.58884,7.63494 0,4.59715 -4.01731,4.86373 -6.822189,0.4527 z"
       id="path3082"
       inkscape:connector-curvature="0" />
  </g>
</svg>
