<?xml version="1.0" encoding="UTF-8" standalone="no"?>
<!-- Created with Inkscape (http://www.inkscape.org/) -->

<svg
   xmlns:dc="http://purl.org/dc/elements/1.1/"
   xmlns:cc="http://creativecommons.org/ns#"
   xmlns:rdf="http://www.w3.org/1999/02/22-rdf-syntax-ns#"
   xmlns:svg="http://www.w3.org/2000/svg"
   xmlns="http://www.w3.org/2000/svg"
   xmlns:sodipodi="http://sodipodi.sourceforge.net/DTD/sodipodi-0.dtd"
   xmlns:inkscape="http://www.inkscape.org/namespaces/inkscape"
   width="210mm"
   height="297mm"
   id="svg2"
   version="1.1"
   inkscape:version="0.48.3.1 r9886"
   sodipodi:docname="doris_reference.svg"
   inkscape:export-filename="/home/guillaume/Documents/Dev/INRIA-Git/doris-android/DorisAndroid/images_source/doris_reference_background.png"
   inkscape:export-xdpi="200"
   inkscape:export-ydpi="200">
  <defs
     id="defs4" />
  <sodipodi:namedview
     id="base"
     pagecolor="#ffffff"
     bordercolor="#666666"
     borderopacity="1.0"
     inkscape:pageopacity="0.0"
     inkscape:pageshadow="2"
     inkscape:zoom="1.4"
     inkscape:cx="204.46612"
     inkscape:cy="635.64163"
     inkscape:document-units="px"
     inkscape:current-layer="layer1"
     showgrid="false"
     inkscape:window-width="1047"
     inkscape:window-height="703"
     inkscape:window-x="215"
     inkscape:window-y="28"
     inkscape:window-maximized="0" />
  <metadata
     id="metadata7">
    <rdf:RDF>
      <cc:Work
         rdf:about="">
        <dc:format>image/svg+xml</dc:format>
        <dc:type
           rdf:resource="http://purl.org/dc/dcmitype/StillImage" />
        <dc:title></dc:title>
      </cc:Work>
    </rdf:RDF>
  </metadata>
  <g
     inkscape:label="Calque 1"
     inkscape:groupmode="layer"
     id="layer1">
    <path
       style="fill:#000000"
       d="m 461.28095,704.87953 c -3.17605,-0.73949 -12.91526,-4.64607 -21.64269,-8.68129 l -15.86804,-7.33675 -13.78971,0.85627 c -7.58434,0.47095 -18.67071,2.21255 -24.63637,3.87023 -32.03336,8.90107 -57.3256,11.06916 -68.77378,5.89539 -3.71194,-1.67754 -10.61009,-7.85823 -18.80087,-16.84547 -22.13966,-24.29249 -27.05006,-28.73128 -34.62468,-31.29922 -14.71323,-4.98806 -19.39512,-3.18415 -26.74435,10.30448 -1.99793,3.66693 -5.25957,7.48295 -7.24812,8.48007 -4.86774,2.44079 -19.4614,2.33771 -24.29601,-0.17164 -4.02686,-2.09009 -14.23271,-13.18961 -23.85922,-25.94841 -3.02044,-4.00325 -9.67661,-11.04039 -14.79146,-15.63808 -11.38634,-10.23505 -13.49378,-15.54971 -11.02195,-27.79587 0.91168,-4.51679 1.65761,-10.6821 1.65761,-13.7007 0,-4.64419 -0.55234,-5.62628 -3.59104,-6.3851 -1.97505,-0.49321 -8.37613,0.16247 -14.2246,1.45708 -5.84845,1.29459 -11.87939,1.90293 -13.40205,1.35181 -1.52267,-0.55111 -5.51985,-3.48548 -8.88262,-6.52079 -4.46198,-4.02749 -7.39293,-5.52094 -10.84664,-5.52679 -16.437269,-0.0279 -20.699189,-5.75548 -19.132409,-25.712 l 0.97447,-12.41189 -8.68156,-10.31037 c -4.77486,-5.67069 -9.481062,-12.7207 -10.458243,-15.66668 -2.439991,-7.356 -1.035581,-16.6294 4.455823,-29.42215 4.47654,-10.42859 4.60466,-11.28497 3.80408,-25.4278 -0.62073,-10.96574 -1.61287,-16.16552 -3.95657,-20.73642 -2.725695,-5.31592 -3.00444,-7.50541 -2.166934,-17.02094 0.970954,-11.03179 2.756254,-15.93619 13.403654,-36.82119 11.69452,-22.93889 29.867949,-45.3129 52.204899,-64.27149 8.49088,-7.20668 15.64838,-13.9863 15.90556,-15.06584 0.34802,-1.46081 -1.40734,-1.96279 -6.86371,-1.96279 -6.40591,0 -10.74023,-1.72881 -34.33692,-13.69578 -14.853079,-7.5327 -27.838389,-14.38349 -28.856249,-15.22399 -1.01786,-0.8405 -2.59721,-3.77883 -3.50965,-6.52963 -1.48839,-4.48715 -1.2729,-5.58194 2.09534,-10.6461 2.0649,-3.10455 3.76431,-7.43921 3.77649,-9.63258 0.0319,-5.76815 1.86681,-7.83481 7.38944,-8.32333 2.92299,-0.25857 4.71364,-1.13054 4.46339,-2.17351 -0.81503,-3.39671 2.84946,-11.4742 6.502509,-14.33322 2.21767,-1.73564 5.88174,-2.90039 9.12405,-2.90039 5.23441,0 5.47515,-0.22516 7.09834,-6.639 2.32321,-9.17986 9.50976,-22.91156 13.41536,-25.63337 4.73203,-3.29776 7.0203,-2.88591 19.41072,3.49357 6.14846,3.16567 11.38987,5.75576 11.6476,5.75576 0.25772,0 0.47221,-1.45693 0.47665,-3.23761 0.0144,-5.58101 2.95596,-14.10089 5.87071,-17.00099 4.53429,-4.51146 9.41464,-3.47214 17.04593,3.63012 l 6.89238,6.41457 1.76947,-8.52378 c 2.17444,-10.47454 5.1719,-12.93899 15.73739,-12.93899 l 7.63243,0 0,-7.8205 c 0,-4.30128 0.63468,-9.48147 1.41042,-11.51152 2.43998,-6.38533 14.53229,-4.66528 27.60947,3.92724 3.63642,2.38935 3.77674,2.35001 6.97682,-1.95656 4.71256,-6.34199 8.71743,-5.25743 12.9194,3.49868 3.34357,6.96735 3.38847,6.99749 9.08082,6.09182 7.53376,-1.19862 12.2073,3.12501 13.63789,12.61686 1.80255,11.95975 -0.0144,16.4619 -10.81427,26.80046 -9.65678,9.24406 -9.7933,9.48087 -10.71784,18.59282 -0.51508,5.07622 -2.46457,12.55051 -4.33226,16.60951 -3.97041,8.62885 -6.05804,18.04866 -3.99997,18.04866 0.77408,0 7.47426,-1.62131 14.8893,-3.60292 39.06469,-10.4397 86.08426,-13.31138 116.33355,-7.105 20.7988,4.26739 50.73011,14.72986 70.40365,24.60955 15.44139,7.75439 51.12633,33.00274 61.94192,43.82609 15.16341,15.17428 35.80783,40.61386 41.03473,50.56597 2.38414,4.53949 5.03488,8.25517 5.89051,8.25704 0.85561,10e-4 3.13341,-1.70314 5.06177,-3.78894 13.46859,-14.56836 24.19142,-15.63668 29.52271,-2.94135 4.27239,10.17381 1.91118,24.69876 -6.81007,41.89214 -5.88377,11.59945 -5.15012,15.35565 8.29677,42.47798 15.43195,31.12624 20.95045,38.48887 33.96104,45.31 3.5794,1.87659 8.46039,5.45745 10.84666,7.95747 6.0947,6.38523 5.98832,15.54724 -0.35394,30.48188 -3.77812,8.89669 -5.37281,16.09566 -8.28745,37.41244 -4.26483,31.1916 -7.61906,44.07053 -15.2966,58.73271 -7.39599,14.12452 -15.22028,23.40227 -30.29528,35.92299 -20.07368,16.67244 -34.4178,21.66862 -49.86033,17.36674 -8.25525,-2.29969 -12.34788,-1.17882 -15.9427,4.36634 -3.50563,5.4076 -8.46846,8.185 -16.84128,9.42508 -5.11344,0.75733 -7.93062,2.51281 -14.97557,9.33173 -4.77253,4.61938 -11.09692,9.39831 -14.0542,10.61984 -5.90072,2.43734 -16.01657,2.67515 -24.98352,0.58734 z m 20.80883,-5.51795 c 2.79295,-0.79697 8.9935,-5.33456 14.45265,-10.57648 8.23934,-7.91149 10.53637,-9.32595 16.61557,-10.23148 9.73333,-1.44981 10.27274,-1.74537 14.64706,-8.02574 5.04399,-7.24183 9.5322,-8.7528 18.79267,-6.32659 3.9771,1.04199 9.8343,1.91678 13.01598,1.94398 17.635,0.15074 51.6782,-28.23054 64.02589,-53.37737 7.21856,-14.70108 9.44679,-23.64974 14.17151,-56.91341 2.77044,-19.50481 4.68079,-27.92481 8.59961,-37.90306 2.77089,-7.05537 5.03798,-14.0496 5.03798,-15.54275 0,-3.95717 -5.10233,-9.77832 -12.19668,-13.91495 -11.71017,-6.82807 -21.214,-18.65294 -33.15204,-41.24847 -6.13813,-11.61782 -12.20675,-24.24453 -13.48586,-28.05934 -1.27912,-3.81482 -2.58447,-7.23339 -2.90081,-7.59681 -0.31633,-0.36344 -3.02734,2.1721 -6.02447,5.63449 l -5.44931,6.2953 1.8953,7.2698 c 2.88674,11.07266 2.48689,21.49225 -0.94327,24.58089 -3.89661,3.50862 -6.4877,2.10041 -11.72862,-6.3743 -2.46498,-3.98592 -5.31567,-7.24714 -6.33488,-7.24714 -1.0192,0 -3.55971,2.56589 -5.64558,5.70199 -3.23832,4.86881 -3.56658,6.28807 -2.24648,9.71285 2.93452,7.61308 -1.35463,20.55867 -6.81153,20.55867 -2.82948,0 -4.88852,-4.82607 -4.88852,-11.45797 0,-10.59089 7.12822,-21.64746 27.56289,-42.75269 16.28736,-16.82183 19.45936,-20.91717 25.3577,-32.73895 5.55786,-11.13939 6.84902,-15.24073 7.3531,-23.35695 0.69347,-11.16544 -1.36962,-16.77515 -6.43567,-17.49913 -5.55389,-0.79369 -11.45746,5.05946 -27.0586,26.82749 -19.12826,26.68938 -25.61396,34.01531 -38.96481,44.01287 -7.70086,5.76666 -12.01663,8.04136 -15.25681,8.04136 -7.10695,0 -12.98158,-3.84612 -15.94972,-10.44229 -3.47291,-7.71795 -1.44784,-13.33332 6.2399,-17.30283 9.58494,-4.9491 20.48442,-0.56238 22.54464,9.07353 l 1.0694,5.00166 9.45748,-9.51812 c 5.20162,-5.23497 14.12348,-16.06594 19.82635,-24.06885 l 10.36889,-14.55069 -3.62944,-7.12629 c -4.50797,-8.85125 -6.13871,-9.9846 -5.40818,-3.75861 0.78331,6.67591 -3.46677,9.00389 -11.86707,6.5002 -4.45605,-1.32813 -9.35363,-5.23921 -19.67225,-15.70978 -20.50178,-20.80368 -36.87559,-30.74542 -67.47189,-40.96719 -31.31408,-10.46157 -42.27702,-17.88279 -40.37741,-27.33298 1.63803,-8.14894 11.31227,-15.09633 24.34605,-17.4837 2.99161,-0.54796 5.80506,-1.58514 6.25208,-2.30482 1.0383,-1.67152 -12.01135,-7.44643 -30.42782,-13.46535 l -14.3978,-4.7055 -5.13056,4.10227 c -8.51886,6.8115 -26.59603,12.09693 -55.99036,16.37059 -8.88757,1.29217 -25.07272,4.90827 -35.96697,8.03578 -25.88625,7.43138 -36.8658,7.31737 -41.73142,-0.43334 -2.18838,-3.48598 3.60108,-14.12107 11.21889,-20.60882 3.18263,-2.71049 5.47333,-4.92815 5.09044,-4.92815 -0.38289,0 -6.19452,1.60523 -12.91475,3.56716 -6.72023,1.96194 -13.03209,3.58074 -14.02637,3.59735 -3.76062,0.0627 -1.52607,-14.43249 4.15044,-26.92345 1.52193,-3.34896 3.12374,-9.17667 3.55959,-12.95046 1.41704,-12.26928 2.10341,-13.66934 11.41148,-23.27698 10.21951,-10.54837 12.40653,-16.37439 9.47002,-25.22726 -1.62858,-4.90987 -1.98429,-5.12684 -8.03132,-4.89927 -7.34635,0.27647 -10.02964,-1.50175 -12.49271,-8.27897 -0.97846,-2.69225 -2.19462,-4.89499 -2.70256,-4.89499 -2.28727,0 -3.8095,7.19834 -3.15784,14.93284 0.45211,5.36603 -0.22239,12.53068 -1.8452,19.60023 -2.19756,9.57332 -2.93782,11.04371 -5.25618,10.44051 -3.1957,-0.83149 -3.21817,-1.39738 -0.50012,-12.59743 2.9149,-12.01122 2.71488,-19.74986 -0.61944,-23.96744 -3.69848,-4.67817 -16.72137,-11.59535 -20.75653,-11.02495 -2.91224,0.41168 -3.28257,1.3822 -3.67387,9.62789 -0.37204,7.83949 0.0883,9.9274 3.17316,14.3894 4.34881,6.29039 6.98344,12.89154 5.86432,14.6932 -1.84323,2.96739 -5.01004,0.96223 -7.5765,-4.7973 -1.49878,-3.36353 -3.80741,-7.0045 -5.13023,-8.09102 -2.93661,-2.41204 -13.97768,-3.6707 -16.61068,-1.89359 -2.48225,1.67538 -4.94655,12.64257 -3.9143,17.42031 0.64286,2.97537 0.0791,4.04742 -2.8285,5.37833 -3.33082,1.52465 -4.08051,1.15781 -9.05696,-4.4318 -2.98404,-3.35173 -7.17043,-7.22074 -9.30307,-8.59779 -3.80791,-2.4588 -3.92222,-2.43589 -6.36663,1.27597 -4.08665,6.20561 -4.08808,15.7892 -0.005,33.66753 4.46747,19.56139 4.5054,20.31152 1.02706,20.31152 -2.23707,0 -3.25566,-2.33958 -5.79488,-13.3102 -1.69439,-7.32061 -3.07623,-14.13266 -3.07072,-15.13789 0.0116,-2.13281 -17.40137,-13.56715 -24.09555,-15.82245 -3.78125,-1.27391 -4.94879,-1.12392 -6.6837,0.8586 -2.93774,3.35701 -5.19906,7.94336 -8.21062,16.65252 -2.54188,7.35091 -2.53522,7.57056 0.34844,11.50926 2.44926,3.34538 2.6011,4.23547 0.91007,5.33463 -1.11633,0.72562 -3.33129,0.91961 -4.92213,0.4311 -12.37686,-3.80072 -19.52398,-1.05637 -19.52398,7.49679 0,2.8274 1.29379,6.94854 2.87508,9.15808 2.46349,3.44223 2.57921,4.26167 0.80837,5.72396 -1.63158,1.34726 -2.92205,1.09623 -6.12908,-1.19228 -2.234289,-1.59439 -5.363969,-3.09891 -6.954809,-3.3434 -2.35111,-0.36135 -2.98141,0.48621 -3.36786,4.52873 -0.26148,2.73529 -1.7258,6.72039 -3.254,8.85576 -3.68302,5.14629 -3.51168,9.40386 0.47543,11.81458 1.78969,1.08212 13.799379,7.57227 26.688199,14.42258 22.9603,12.20323 23.63673,12.45511 33.44755,12.45511 11.91838,0 15.03447,2.12732 11.33805,7.74037 -1.2452,1.89086 -7.66748,8.20045 -14.27171,14.02129 -19.16672,16.89318 -30.39391,28.49727 -39.85432,41.19231 -8.730679,11.71578 -8.801649,11.88821 -6.655219,16.16916 1.945759,3.88072 1.921859,5.17483 -0.23161,12.54526 -2.94383,10.07542 -12.88327,28.48463 -18.35168,33.98983 -2.22232,2.23728 -4.04057,4.87515 -4.04057,5.86193 0,0.98677 1.67635,7.25031 3.72522,13.91897 4.94921,16.10867 4.28529,29.79902 -2.29767,47.37887 -5.83253,15.57578 -5.35474,20.30897 3.14285,31.13459 12.70247,16.1825 13.04437,17.0515 12.17261,30.93989 -0.69365,11.05127 -0.4506,12.84803 2.18998,16.18807 1.88384,2.38287 4.39001,3.75704 6.851919,3.75704 7.16219,0 13.78094,2.797 19.29427,8.15352 l 5.47284,5.3172 11.96417,-2.30179 c 12.61671,-2.42735 18.74439,-2.07918 21.4975,1.22141 2.55701,3.06551 3.55822,2.42061 3.93785,-2.53649 0.44799,-5.84957 7.66937,-23.80854 14.37717,-35.75476 2.88846,-5.14422 6.28553,-13.87263 7.54904,-19.39648 1.87478,-8.19625 3.01787,-10.44568 6.21542,-12.23099 7.83302,-4.37342 12.57179,2.65633 12.59021,18.677 0.0116,10.63914 -0.10962,10.99336 -8.59793,25.00062 -4.73568,7.81472 -10.03234,18.46021 -11.77035,23.65664 -3.12727,9.35012 -8.05297,16.09505 -11.75392,16.09505 -1.05229,0 -3.40177,-1.03733 -5.22103,-2.30519 -1.81927,-1.26784 -3.49193,-2.07725 -3.71701,-1.79866 -0.97128,1.20211 -3.74278,17.98466 -3.74711,22.69032 -0.004,4.53482 1.27432,6.36963 10.61119,15.22862 5.83875,5.53993 13.23699,13.63396 16.44053,17.98676 18.90045,25.6809 36.49777,31.65353 45.36677,15.39772 2.04505,-3.74833 5.77372,-8.92515 8.28594,-11.50405 4.2442,-4.35685 4.50625,-5.20498 3.70023,-11.97628 -1.11542,-9.37046 1.06637,-13.84657 6.4477,-13.228 4.60884,0.52977 8.61854,7.53323 9.18322,16.03966 0.32047,4.82784 1.07935,5.88297 6.04349,8.40274 6.7886,3.44585 8.12123,2.27197 8.15495,-7.18347 0.0399,-11.18131 4.8803,-15.27876 9.59381,-8.12124 1.66447,2.52751 2.62051,7.96652 3.09836,17.62702 0.78038,15.77612 1.00453,16.21709 16.79598,33.03973 11.06605,11.7887 17.11681,14.67373 30.86242,14.71535 9.25082,0.0281 38.78287,-4.57 40.5324,-6.31074 0.3683,-0.36644 -0.37294,-2.14724 -1.64721,-3.95737 -3.31394,-4.70749 -2.86506,-9.4308 1.28902,-13.56398 2.95526,-2.94038 4.12954,-3.30889 6.508,-2.04238 2.23118,1.18809 2.90211,3.011 2.90211,7.88503 0,3.48683 -0.65079,6.73987 -1.44622,7.22899 -4.06123,2.49735 -0.42254,2.9611 7.82605,0.99741 9.15182,-2.17868 9.24439,-2.2497 7.12603,-5.46647 -4.42125,-6.71369 0.51745,-16.62092 6.0203,-12.07695 1.72833,1.42717 2.27622,3.70762 1.92899,8.02908 l -0.48495,6.03578 11.56977,0.61155 c 10.0065,0.52893 13.57114,1.52557 26.38208,7.37619 20.38861,9.31129 29.05284,11.12191 39.26982,8.20647 z M 343.40051,684.92304 c -1.91287,-3.55624 0.41263,-13.20984 4.58746,-19.04331 6.33333,-8.84957 15.66287,-5.70323 15.66287,5.28223 0,7.15921 -2.58369,11.17165 -9.20739,14.29898 -6.5388,3.08723 -9.16172,2.95948 -11.04294,-0.5379 z m 123.03695,-0.90751 c -4.16121,-5.2635 -3.92195,-12.68681 0.55241,-17.13863 7.29376,-7.25706 15.25105,-2.97777 15.25105,8.20179 0,11.27659 -9.64271,16.72954 -15.80346,8.93684 z m -28.67798,-3.62924 c -2.55843,-2.54556 -2.22483,-10.65495 0.55198,-13.41779 3.29636,-3.27975 8.0024,-2.1753 10.61805,2.49194 1.99182,3.5541 1.99209,4.36008 0.003,7.91418 -2.43438,4.34909 -8.25236,5.91737 -11.17275,3.01167 z m -28.55269,-14.66858 c -8.71891,-4.04515 -20.36343,-14.96579 -23.22583,-21.78201 -5.41254,-12.88878 -0.57867,-29.65182 11.83304,-41.03494 16.00009,-14.67411 32.86758,-14.97049 38.94999,-0.68441 4.54107,10.66585 3.65981,43.96713 -1.48789,56.22528 -2.28031,5.43011 -9.75264,10.65278 -15.22267,10.63964 -1.98855,-0.004 -6.86955,-1.51837 -10.84664,-3.36356 z m -100.96487,-2.09176 c -4.76472,-4.94826 -5.14382,-12.32206 -0.90218,-17.54828 1.6058,-1.97854 5.14828,-6.97453 7.8722,-11.10219 9.49549,-14.38889 15.05675,-16.87781 21.00959,-9.40271 9.07385,11.39421 -5.77516,42.089 -20.36111,42.089 -2.20148,0 -5.32634,-1.65537 -7.6185,-4.03582 z m 184.42351,-6.43746 c -4.89819,-5.18764 -7.7687,-15.12183 -8.02223,-27.763 -0.2128,-10.61095 0.14246,-12.2172 4.1057,-18.56613 8.95159,-14.33981 21.8382,-20.14653 30.18433,-13.60108 5.77674,4.53042 8.14052,11.09603 8.14052,22.61107 0,13.18536 -3.3115,23.62987 -9.73493,30.70403 -9.28074,10.22098 -18.84703,12.78576 -24.67339,6.61511 z m 62.73204,-2.34259 c -3.37948,-3.71549 -2.51734,-11.41593 1.57934,-14.10644 2.82848,-1.85761 3.45232,-1.76465 6.14644,0.91591 3.55751,3.53961 3.92638,10.48818 0.72582,13.67263 -3.00589,2.99074 -5.41796,2.85315 -8.4516,-0.4821 z M 196.25083,641.63718 c -4.76501,-1.79022 -4.27284,-9.47085 1.30861,-20.42227 3.66619,-7.19342 4.94296,-12.20356 6.49841,-25.50015 2.40872,-20.59058 6.23575,-27.26642 12.86009,-22.43298 2.51019,1.83156 2.80913,3.68326 2.61657,16.20747 -0.17667,11.49099 -1.05323,16.70037 -4.67939,27.80961 -6.75492,20.69468 -11.56248,26.98396 -18.60429,24.33832 z m 402.13975,-5.32368 c -0.94451,-0.59755 -2.41553,-2.91372 -3.26894,-5.14706 -2.12068,-5.5497 0.76873,-11.553 5.84382,-12.14165 4.74504,-0.55037 7.67512,2.91076 7.67512,9.06612 0,7.4833 -5.03464,11.5221 -10.25,8.22259 z m -58.94196,-7.8233 c -2.81126,-3.99344 -2.98579,-15.98823 -0.26531,-18.23467 4.40875,-3.64052 9.58374,1.88125 9.58374,10.22591 0,4.7718 -3.32172,11.20683 -5.78488,11.20683 -0.70522,0 -2.2953,-1.43914 -3.53355,-3.19807 z m 33.3568,-0.34661 c -8.95848,-9.6177 -8.74928,-34.67316 0.32988,-39.50771 4.50552,-2.39914 12.49824,-1.88491 14.97388,0.96338 3.15407,3.62885 5.49195,11.39024 5.48264,18.20147 -0.0255,18.61872 -11.72619,30.06978 -20.7864,20.34286 z m -389.71059,-5.4441 c -2.4885,-2.47599 -2.00994,-12.62432 0.86536,-18.35109 1.87873,-3.74183 3.45793,-5.03629 6.14419,-5.03629 3.20629,0 3.66514,0.67687 4.05359,5.97958 0.7713,10.52887 -6.49135,21.95659 -11.06313,17.4078 z m 44.47522,-1.33676 c -3.05907,-5.68716 -3.23624,-20.03989 -0.31658,-25.64797 3.62231,-6.95772 9.41479,-7.70259 11.9801,-1.54054 2.68318,6.44515 1.41239,23.55015 -2.03089,27.33578 -3.51208,3.86126 -7.50934,3.80015 -9.63263,-0.14727 z m -58.19482,-2.14529 c -1.92525,-1.91554 -0.93383,-11.81577 1.41752,-14.15528 2.21141,-2.20028 2.58683,-2.16556 5.25158,0.48577 3.20398,3.18787 2.67731,8.4814 -1.23073,12.36978 -2.4593,2.44693 -3.93171,2.79883 -5.43837,1.29973 z m 438.33165,-4.43672 c -2.13123,-2.38548 -5.40417,-11.94085 -5.42159,-15.82834 -0.0144,-3.22566 5.68034,-7.55444 9.93839,-7.55444 5.34582,0 7.61021,2.81638 8.38829,10.43311 1.13365,11.09767 -7.14127,19.40116 -12.90509,12.94967 z M 447.49761,601.43668 c -2.80456,-2.79044 -3.71677,-9.01675 -1.98059,-13.5184 1.35144,-3.50406 7.40889,-2.76796 10.03474,1.21941 5.51257,8.37089 -1.39723,18.9224 -8.05415,12.29899 z M 266.7601,595.94214 c -8.11826,-8.07739 -9.07595,-23.83275 -2.81209,-46.26322 4.20992,-15.07548 9.8916,-24.92415 23.03105,-39.92223 11.45788,-13.07865 20.15325,-19.09055 27.59533,-19.07918 5.85662,0.009 12.31241,5.0373 15.97751,12.44474 2.94025,5.94248 3.45142,9.10665 3.45142,21.36497 0,13.68174 -0.26272,14.92014 -5.34202,25.18146 -6.36652,12.86175 -17.45255,26.9535 -29.36727,37.32951 -15.81457,13.77222 -25.11226,16.32826 -32.53393,8.94395 z m 104.29086,0.30404 c -7.33013,-5.10839 -10.1101,-22.29707 -4.50768,-27.87129 7.67794,-7.63928 18.80086,1.39709 18.80086,15.27401 0,7.94881 -4.6434,14.94374 -9.92002,14.94374 -0.55339,0 -2.5213,-1.05591 -4.37316,-2.34646 z m 250.37501,-20.65705 c -2.28241,-3.63633 -2.31386,-10.43835 -0.0586,-12.68221 4.50723,-4.48454 9.8343,-0.17089 9.8343,7.96348 0,7.2406 -6.28772,10.27568 -9.77567,4.71873 z m -219.97858,-7.72736 c -1.76099,-1.86507 -3.57014,-5.64942 -4.02035,-8.4097 -0.69556,-4.26471 -0.22312,-5.48468 3.14475,-8.12052 7.69271,-6.02061 13.35304,-3.37641 14.73621,6.88397 1.50536,11.16677 -6.90098,17.01714 -13.86061,9.64625 z M 525.267,565.85675 c -5.12533,-5.34547 -7.11117,-11.02835 -7.23232,-20.69678 -0.18009,-14.37335 8.80665,-23.3296 19.63906,-19.5724 8.93554,3.09926 12.96498,24.91959 6.81626,36.91142 -4.4232,8.62654 -12.7728,10.08501 -19.223,3.35776 z m -376.31786,-0.85613 c -3.51687,-2.55865 -3.69542,-13.61393 -0.30308,-18.76523 3.46692,-5.26455 7.80995,-7.30983 10.61084,-4.99701 4.67794,3.8628 -0.0591,23.23726 -6.17761,25.26651 -0.7792,0.25843 -2.63777,-0.41849 -4.13015,-1.50427 z m 443.52057,-1.77481 c -14.96005,-7.41739 -24.47492,-21.91042 -32.08298,-48.86873 -4.97364,-17.62355 -5.63956,-29.98014 -2.02424,-37.56055 4.2022,-8.81086 14.51031,-11.62133 23.22751,-6.33288 6.43324,3.90285 8.82643,8.09431 12.77519,22.37445 1.88483,6.81634 6.69891,19.3988 10.69789,27.96103 10.43084,22.33341 11.33715,37.8617 2.56655,43.97396 -4.26387,2.97149 -6.50798,2.74245 -15.15992,-1.54728 z m -241.02974,-5.24367 c -2.82229,-4.00911 -2.92795,-15.42832 -0.20281,-21.9177 2.53775,-6.04313 8.24654,-10.01528 12.47489,-8.68001 9.99602,3.15664 8.08606,27.41811 -2.53761,32.23421 -5.0652,2.29624 -7.22107,1.93381 -9.73447,-1.6365 z m -244.61936,-1.82775 c -4.44778,-6.75401 0.93696,-14.45647 6.34484,-9.07581 3.38128,3.36426 1.2818,12.66267 -2.8591,12.66267 -0.618,0 -2.18658,-1.61409 -3.48574,-3.58686 z m 14.82935,-0.25031 c -1.86508,-1.85568 -0.9376,-10.37309 1.38072,-12.67973 3.14081,-3.125 6.49655,-2.26417 9.08914,2.3316 1.9116,3.38862 1.87577,4.17172 -0.34519,7.54426 -2.34378,3.55904 -7.83679,5.08025 -10.12467,2.80387 z m 502.46353,-4.22298 c -7.87425,-9.96009 -4.50057,-24.29543 4.57977,-19.46024 8.1654,4.34799 10.7002,18.17267 3.98743,21.74714 -4.06449,2.1643 -5.31128,1.8315 -8.5672,-2.2869 z m -159.59468,-3.57834 c -22.16032,-5.18141 -44.94525,-29.86545 -50.08891,-54.26385 -3.40468,-16.14968 -1.05031,-30.52438 7.98716,-48.76569 6.27558,-12.66668 17.82621,-24.22817 25.66769,-25.69184 16.41771,-3.06448 38.62146,11.71843 45.64185,30.38763 5.36073,14.25573 8.96717,36.13255 9.23371,56.01198 0.22418,16.72043 -0.0811,19.31725 -2.87646,24.46199 -7.72533,14.21852 -21.51711,21.14438 -35.56504,17.85978 z m -79.17467,-9.9456 c -5.67875,-5.65018 -2.19622,-19.38453 4.47507,-17.64873 3.35959,0.87413 8.52701,8.29195 8.53551,12.25269 0.008,3.08124 -4.98203,8.27392 -7.94881,8.27392 -1.19312,0 -3.47092,-1.29506 -5.06177,-2.87788 z M 102.44678,523.55627 c 2.70875,-24.56739 4.33549,-29.10866 10.12915,-28.27703 4.97811,0.71458 6.05929,6.82691 3.11915,17.63394 -2.92924,10.76705 -7.56815,18.50319 -11.55317,19.26676 -2.49321,0.47774 -2.62482,-0.19176 -1.69513,-8.62367 z m 112.42901,2.59248 c -2.33905,-2.80421 -3.37973,-9.96019 -1.79455,-12.33981 1.16116,-1.74306 1.91351,-1.68511 5.10103,0.3929 3.94275,2.5704 4.73083,6.47218 2.24186,11.09945 -1.76087,3.27364 -3.32528,3.51259 -5.54834,0.84746 z m -64.80948,-0.95211 c -10.43239,-4.18215 -10.87851,-30.78679 -1.14957,-68.55541 8.48916,-32.95577 15.6669,-41.45498 25.97167,-30.75326 6.44161,6.68975 6.51108,15.36601 0.32427,40.49371 -2.80222,11.38119 -5.79436,26.13392 -6.64916,32.78383 -1.79726,13.98146 -5.86423,23.45153 -11.08849,25.81988 -2.01423,0.91313 -3.79433,1.6192 -3.95576,1.56903 -0.16142,-0.0502 -1.71526,-0.66117 -3.45296,-1.35778 z m 80.05018,-3.82713 c -1.79341,-1.78437 -0.97835,-10.80699 1.43299,-15.86291 2.61339,-5.47961 5.63486,-7.41848 7.95824,-5.10679 1.67646,1.66801 -0.97112,17.08014 -3.4581,20.13032 -1.59811,1.96002 -4.40739,2.35746 -5.93313,0.83938 z m 16.51245,-5.25069 c -3.03142,-3.01616 -1.59545,-11.30431 3.69362,-21.31875 11.99821,-22.71767 24.77411,-22.54648 15.80007,0.21173 -6.48352,16.44219 -14.95888,25.61901 -19.49369,21.10702 z m -122.47875,-8.98579 c -2.16036,-8.56425 2.78145,-23.0547 7.27717,-21.33821 4.95259,1.89092 3.71395,22.17384 -1.4751,24.15505 -3.85984,1.47369 -4.83976,0.99795 -5.80207,-2.81684 z m -43.909399,-1.2931 c -1.10017,-1.31895 -1.38205,-3.85996 -0.75823,-6.83496 1.5695,-7.48476 4.60408,-11.21073 9.13048,-11.21073 8.81315,0 9.99407,7.48224 2.37704,15.06092 -5.55778,5.5298 -8.04935,6.22163 -10.74929,2.98477 z m 276.468189,0.37275 c -2.85043,-2.83608 -2.02944,-11.80202 1.56822,-17.12644 5.77198,-8.54233 14.05096,-6.55593 14.05096,3.37131 0,10.32335 -10.11521,19.23139 -15.61918,13.75513 z m -74.52856,-4.98833 c -2.76905,-2.75511 -0.45433,-11.39128 3.6371,-13.56993 6.51326,-3.46825 9.99782,7.93809 3.75428,12.28922 -3.44775,2.40273 -5.84601,2.81829 -7.39138,1.28071 z m 242.57894,-3.01982 c -4.89109,-3.24942 -7.02635,-16.75004 -3.64378,-23.03859 2.47416,-4.59974 9.22142,-4.29477 13.0843,0.59137 3.6616,4.63153 4.06503,15.63578 0.74608,20.35039 -2.22119,3.15523 -7.08613,4.15663 -10.1866,2.09683 z m 84.19199,-3.34265 c -10.63205,-8.32105 -11.4801,-28.12632 -1.15354,-26.9393 3.16115,0.36336 4.87596,2.31178 9.25745,10.51856 6.48745,12.15141 6.87179,16.08839 1.75933,18.02236 -5.03958,1.90641 -5.47034,1.83646 -9.86324,-1.60162 z m -382.10722,-0.97417 c -5.15592,-3.43871 -1.98607,-19.04393 3.86833,-19.04393 5.95532,0 7.16116,11.65391 1.81411,17.53259 -2.61865,2.87902 -3.34294,3.07165 -5.68244,1.51134 z M 91.725591,481.22533 c -3.99279,-10.44897 -0.0603,-46.61767 7.11876,-65.47334 4.787079,-12.57318 14.725639,-26.43508 19.340719,-26.97563 3.12802,-0.36637 4.02578,0.26198 4.80868,3.36557 1.79364,7.11042 -0.56602,18.61841 -6.62264,32.29854 -3.80566,8.59584 -7.27547,19.75593 -9.39511,30.21774 -3.6792,18.15935 -5.55246,23.91252 -9.031419,27.73737 -3.12898,3.44008 -4.56019,3.17077 -6.21899,-1.17025 z m 118.846079,-3.09427 c -1.86037,-3.45866 0.44877,-7.6041 4.2357,-7.6041 3.47331,0 5.22905,3.84317 3.2119,7.03055 -2.12205,3.35316 -5.80011,3.6364 -7.4476,0.57355 z m 123.45285,-8.1302 c -1.97146,-1.43432 -2.87375,-4.34183 -3.34071,-10.76496 -0.61807,-8.50176 -0.46733,-8.97147 4.44925,-13.86329 6.00509,-5.97486 11.8848,-6.63298 19.18028,-2.14682 6.17195,3.79529 8.36555,9.76625 5.56267,15.14161 -2.38342,4.57093 -4.92739,6.77036 -12.43754,10.75302 -6.31376,3.34823 -9.7151,3.57148 -13.41395,0.88044 z m -145.84843,-1.87214 c -1.70827,-1.69966 -1.02765,-12.69499 1.26035,-20.36074 2.92074,-9.7857 11.46316,-18.97029 17.64392,-18.97029 2.42433,0 4.75172,0.89156 5.17199,1.98123 1.78884,4.63817 -5.24506,25.01395 -11.61024,33.63254 -3.3056,4.47586 -9.76709,6.40261 -12.46602,3.71726 z m -63.10075,-7.57975 c -3.25478,-6.051 -0.45355,-15.40759 5.23121,-17.47311 4.37071,-1.58807 7.63402,1.26184 8.66201,7.56468 0.71924,4.40984 0.24543,5.89914 -2.85973,8.98865 -4.41962,4.39738 -8.95934,4.77582 -11.03349,0.91978 z m 151.72078,-0.24611 c -2.25997,-4.20152 -0.44648,-12.26782 3.35346,-14.916 9.95146,-6.93519 16.601,2.10506 9.75986,13.26884 -3.50341,5.71709 -10.45451,6.59023 -13.11332,1.64716 z m -38.83979,-14.10295 c -8.42556,-8.97419 -9.73829,-26.80373 -3.34986,-45.49799 5.12954,-15.01044 14.04716,-30.32862 28.11086,-48.2872 l 11.33913,-14.47944 0.12626,-13.20561 c 0.15673,-16.39688 2.96365,-21.72231 14.45153,-27.41814 12.64977,-6.27193 20.398,-4.31336 17.09822,4.32203 -0.86787,2.27122 -2.51413,5.15873 -3.65834,6.41671 -1.8212,2.00226 -1.7444,2.58974 0.61653,4.71559 2.54566,2.29221 3.21018,2.18687 11.84903,-1.87809 11.79283,-5.54906 22.53332,-7.71464 34.83245,-7.02317 11.89209,0.66858 17.24972,3.96498 19.25703,11.84825 1.10276,4.33082 0.8317,6.33315 -1.4207,10.49454 -2.12967,3.93464 -22.61972,23.97793 -38.77377,37.92834 -1.55084,1.33928 5.32448,13.47704 11.22564,19.81785 6.69257,7.19119 11.70657,9.39986 17.09575,7.53063 11.10106,-3.85036 26.50004,0.34328 30.6615,8.35016 5.18493,9.97605 0.88968,24.68789 -9.17885,31.43892 -7.26501,4.87123 -18.5828,4.59295 -24.7971,-0.60973 -2.55545,-2.13945 -5.53399,-6.00378 -6.61895,-8.58743 -2.28905,-5.45081 -2.64882,-20.03269 -0.52649,-21.33777 2.44883,-1.50585 1.59077,-2.74148 -4.49651,-6.47523 -7.79143,-4.77901 -15.36854,-16.4049 -23.61257,-36.22983 -15.10019,-36.3123 -20.88183,-45.22471 -28.59551,-44.08002 -4.57675,0.67919 -8.69898,7.31756 -9.46418,15.24102 -0.86832,8.99128 2.0323,19.05661 11.9094,41.32631 11.92483,26.8867 16.2403,42.99587 16.96092,63.31338 0.32618,9.19635 0.10833,10.07258 -2.5039,10.07258 -2.57051,0 -2.95479,-1.31554 -3.78291,-12.95046 -0.88916,-12.49268 -4.8282,-31.92093 -6.93454,-34.20289 -1.31904,-1.429 -20.2033,21.54511 -26.9313,32.76395 -11.71875,19.5408 -22.65828,25.44914 -30.88877,16.68274 z M 127.43484,433.59416 c -0.53029,-0.5276 -0.96415,-3.66947 -0.96415,-6.9819 0,-8.37815 5.12263,-15.80132 10.90425,-15.80132 4.23097,0 4.28048,0.0927 4.23197,7.91418 -0.0612,9.86003 -3.55903,15.82833 -9.27663,15.82833 -2.16222,0 -4.36518,-0.43167 -4.89544,-0.95929 z m 34.70929,-31.65669 c -1.80223,-1.79314 -0.97366,-11.63093 1.12557,-13.36437 3.48075,-2.87422 8.5473,-1.21529 10.14461,3.32167 1.27229,3.61379 0.96226,4.52077 -2.58243,7.55443 -4.04248,3.45969 -6.89136,4.27564 -8.68775,2.48827 z m 361.54392,-9.19048 c -5.2815,-4.1335 -7.69409,-12.65842 -5.10128,-18.02541 1.08844,-2.25302 3.71752,-5.06601 5.84238,-6.25106 3.3652,-1.87682 4.3602,-1.89011 7.71604,-0.10319 8.16317,4.3468 10.8287,18.3814 4.59734,24.20601 -4.19099,3.9174 -8.20279,3.97075 -13.05448,0.17362 z m -117.01429,-8.1613 c -3.96379,-4.35789 -3.2281,-11.43221 1.69866,-16.33417 6.33079,-6.29893 14.64817,-5.02387 19.39622,2.97346 5.15931,8.69006 0.9108,14.27881 -11.77665,15.49178 -5.41471,0.51767 -7.30154,0.0861 -9.31823,-2.13107 z m -264.50093,-2.91328 c -2.19916,-5.50458 0.53154,-20.90371 6.04236,-34.07468 13.71928,-32.78929 40.91074,-61.29595 75.30093,-78.94307 10.12925,-5.19775 20.87688,-6.19293 23.47222,-2.1734 2.9394,4.55238 -0.79881,10.02084 -14.22926,20.81536 -17.81418,14.31785 -36.50651,35.5714 -58.64123,66.67618 -11.24922,15.80794 -25.56339,31.65669 -28.59149,31.65669 -0.97494,0 -2.48403,-1.78069 -3.35353,-3.95708 z m 43.24299,-8.38222 c -3.05686,-3.04147 11.90309,-32.26785 16.51677,-32.26785 4.30881,0 -3.30778,22.17813 -10.007,29.13855 -3.88642,4.03796 -5.03943,4.59223 -6.50977,3.1293 z m 257.75477,-2.58587 c -11.81328,-6.21779 -20.11449,-20.93321 -18.2517,-32.35448 2.23423,-13.69855 21.80364,-20.90745 36.50223,-13.44653 6.89764,3.50118 15.9423,13.04552 18.791,19.82908 2.97139,7.07577 2.59247,16.77296 -0.82431,21.09482 -6.94792,8.78838 -24.33714,11.13007 -36.21722,4.87711 z M 207.247,367.75434 c -2.29728,-5.01659 -0.41334,-14.74045 4.52148,-23.33752 9.09771,-15.84931 36.84323,-41.08098 42.71056,-38.84081 6.00012,2.29088 -0.23212,17.86672 -13.92742,34.80793 -5.08223,6.28675 -11.67948,14.75609 -14.66057,18.82075 -8.71466,11.88225 -15.65955,15.06698 -18.64405,8.54965 z m 168.01411,-2.53754 c -1.60717,-2.62281 -2.92458,-5.9341 -2.92754,-7.35837 -0.01,-4.52577 4.23282,-10.95475 8.76868,-13.28853 8.30073,-4.27085 12.80968,0.64986 10.96413,11.96542 -1.13724,6.97268 -5.37755,12.43837 -10.08416,12.9983 -2.99165,0.35591 -4.41995,-0.56146 -6.72111,-4.31682 z m -256.55886,-9.10629 c -2.99116,-2.97611 -0.61678,-9.5493 5.21221,-14.42937 4.8541,-4.06391 9.36088,-4.17329 11.80896,-0.28664 2.13148,3.38401 -1.18854,9.2618 -7.69602,13.62512 -5.76539,3.86574 -6.45515,3.94644 -9.32515,1.09089 z m 21.25697,-23.13313 c -1.83158,-4.74897 8.0238,-20.04816 16.12265,-25.02833 5.88848,-3.62095 7.99055,-3.66526 7.99055,-0.16846 0,3.75616 -8.04523,18.70654 -12.66157,23.52891 -4.18188,4.36854 -10.07882,5.2274 -11.45163,1.66788 z m 262.9682,-19.49235 c -1.71815,-0.63238 -4.22001,-3.43676 -5.55969,-6.23194 -2.27162,-4.73967 -2.27433,-5.41896 -0.04,-10.08065 3.87848,-8.09235 12.92706,-8.67526 20.32994,-1.30964 4.97681,4.95177 4.85411,8.52971 -0.46198,13.47068 -4.81335,4.47371 -9.60496,5.86791 -14.26819,4.15155 z m -177.14959,-2.20079 c -0.53029,-0.5276 -0.96415,-2.84375 -0.96415,-5.14698 0,-6.14755 6.97877,-12.59995 13.62784,-12.59995 5.97006,0 6.2229,0.94496 2.29995,8.59589 -4.05291,7.90434 -11.58628,12.5114 -14.96364,9.15104 z m 132.76102,-16.23822 c -4.52428,-1.82465 -6.71334,-5.2475 -6.20072,-9.69559 0.38951,-3.37982 2.01018,-4.8067 9.86649,-8.68669 6.08948,-3.00741 11.57789,-4.65453 15.58267,-4.67655 5.35681,-0.0295 6.37493,0.47031 7.62549,3.74302 4.26945,11.17292 -14.18149,24.43465 -26.87393,19.31581 z m -202.7822,-12.53426 c -0.99427,-0.39918 -1.80778,-2.60205 -1.80778,-4.89528 0,-3.25314 0.79874,-4.36896 3.63432,-5.07707 4.1191,-1.02862 7.93545,1.40389 7.93545,5.05796 0,4.6464 -4.62729,6.97585 -9.76199,4.91439 z m 44.99923,-10.22084 c -1.13549,-0.73136 -1.27349,-3.27461 -0.44777,-8.25188 1.88878,-11.38491 1.55413,-25.83571 -0.86853,-37.50548 -1.22902,-5.92008 -1.84141,-11.39673 -1.36087,-12.17035 1.71562,-2.76194 4.7836,-1.33551 6.27346,2.91682 2.21237,6.31446 10.46405,18.19672 19.65224,28.2989 4.4222,4.86209 8.04037,9.21675 8.04037,9.677 0,0.46025 -5.0437,3.36221 -11.20821,6.44879 -6.16452,3.08657 -12.44797,6.97895 -13.96324,8.6497 -3.00456,3.31286 -3.6589,3.51999 -6.11745,1.9365 z m 14.9983,-14.36738 c 3.38592,-1.38498 6.15865,-3.16831 6.16163,-3.96297 0.009,-2.29111 -10.6485,-14.95762 -12.649,-15.03397 -1.2917,-0.0494 -1.80778,3.01188 -1.80778,10.72304 0,5.93563 0.48125,10.79205 1.06947,10.79205 0.5882,0 3.83976,-1.13316 7.22568,-2.51815 z m -68.83108,-7.75026 c -3.87915,-7.0254 -4.46121,-9.04446 -2.89244,-10.03346 3.32599,-2.0968 3.95406,-1.5535 8.45116,7.31037 5.04173,9.93734 5.29878,11.5589 1.82861,11.53548 -1.59615,-0.01 -4.32454,-3.26546 -7.38733,-8.81239 z m 29.3558,0.98605 c -2.87816,-4.3705 -2.22613,-8.49899 1.45362,-9.20408 3.49518,-0.66971 6.58698,3.40868 6.58698,8.68889 0,5.23175 -4.73478,5.53512 -8.0406,0.51519 z"
       id="path3082"
       inkscape:connector-curvature="0" />
  </g>
</svg>
