<?xml version="1.0" encoding="UTF-8" standalone="no"?>
<!-- Created with Inkscape (http://www.inkscape.org/) -->

<svg
   xmlns:dc="http://purl.org/dc/elements/1.1/"
   xmlns:cc="http://creativecommons.org/ns#"
   xmlns:rdf="http://www.w3.org/1999/02/22-rdf-syntax-ns#"
   xmlns:svg="http://www.w3.org/2000/svg"
   xmlns="http://www.w3.org/2000/svg"
   xmlns:sodipodi="http://sodipodi.sourceforge.net/DTD/sodipodi-0.dtd"
   xmlns:inkscape="http://www.inkscape.org/namespaces/inkscape"
   width="512"
   height="512"
   id="svg2"
   version="1.1"
   inkscape:version="0.92.3 (2405546, 2018-03-11)"
   sodipodi:docname="doris_icon_transparent.svg"
   inkscape:export-filename="/home/dvojtise/git/doris-android/DorisAndroid/src/main/res/drawable-hdpi/app_background_transparent_filigramme_doris.png"
   inkscape:export-xdpi="60.75"
   inkscape:export-ydpi="60.75">
  <defs
     id="defs4" />
  <sodipodi:namedview
     id="base"
     pagecolor="#ffffff"
     bordercolor="#666666"
     borderopacity="1.0"
     inkscape:pageopacity="0.0"
     inkscape:pageshadow="2"
     inkscape:zoom="1.4"
     inkscape:cx="170.42173"
     inkscape:cy="257.99916"
     inkscape:document-units="px"
     inkscape:current-layer="layer1"
     showgrid="false"
     inkscape:window-width="1265"
     inkscape:window-height="969"
     inkscape:window-x="351"
     inkscape:window-y="100"
     inkscape:window-maximized="0"
     borderlayer="true" />
  <metadata
     id="metadata7">
    <rdf:RDF>
      <cc:Work
         rdf:about="">
        <dc:format>image/svg+xml</dc:format>
        <dc:type
           rdf:resource="http://purl.org/dc/dcmitype/StillImage" />
        <dc:title />
      </cc:Work>
    </rdf:RDF>
  </metadata>
  <g
     inkscape:label="Calque 1"
     inkscape:groupmode="layer"
     id="layer1"
     transform="translate(0,-540.36218)">
    <path
       style="fill:#000000;fill-opacity:0.10759494"
       d="m 340.88731,1047.1943 c -2.69478,-0.6498 -10.95818,-4.0826 -18.36312,-7.6282 l -13.46351,-6.4469 -11.70012,0.7524 c -6.43506,0.4139 -15.84149,1.9442 -20.90315,3.4008 -27.17926,7.8214 -48.6389,9.7265 -58.35231,5.1803 -3.14946,-1.474 -9.00232,-6.9051 -15.95193,-14.8021 -18.78477,-21.3459 -22.95108,-25.2463 -29.3779,-27.5027 -12.48369,-4.38306 -16.45613,-2.79796 -22.69171,9.0545 -1.69518,3.2222 -4.46257,6.5753 -6.14979,7.4515 -4.13012,2.1447 -16.51236,2.0541 -20.61437,-0.1509 -3.41666,-1.8365 -12.07599,-11.5897 -20.24377,-22.80087 -2.56275,-3.51766 -8.210287,-9.70121 -12.550067,-13.74121 -9.660938,-8.99356 -11.449033,-13.66357 -9.351766,-24.4243 0.773531,-3.96891 1.406428,-9.38638 1.406428,-12.03883 0,-4.08086 -0.468642,-4.94383 -3.04688,-5.6106 -1.675766,-0.43338 -7.106873,0.14276 -12.069108,1.28034 -4.962219,1.13755 -10.079274,1.6721 -11.371202,1.18784 -1.291936,-0.48426 -4.683411,-3.06271 -7.536613,-5.72984 -3.785844,-3.53896 -6.272658,-4.85126 -9.203019,-4.85641 -13.946485,-0.0245 -17.562585,-5.05734 -16.233223,-22.59319 l 0.826806,-10.90634 -7.36602,-9.05976 c -4.051313,-4.98284 -8.0443716,-11.1777 -8.8734777,-13.76634 -2.0702526,-6.46374 -0.8786567,-14.61229 3.7806197,-25.85331 3.798199,-9.16362 3.906905,-9.91613 3.227638,-22.34346 -0.526668,-9.63563 -1.368467,-14.20469 -3.357021,-18.22114 -2.3126624,-4.67112 -2.5491684,-6.59503 -1.838572,-14.95634 0.823822,-9.69366 2.338591,-14.00317 11.372563,-32.35486 9.922417,-20.15646 25.341978,-39.81655 44.29415,-56.47551 7.204233,-6.33253 13.277139,-12.28979 13.495347,-13.23838 0.295284,-1.28362 -1.194081,-1.72472 -5.823633,-1.72472 -5.435206,0 -9.112734,-1.5191 -29.133755,-12.03451 -12.602351,-6.619 -23.619962,-12.6388 -24.483583,-13.37735 -0.863621,-0.73855 -2.203648,-3.32047 -2.977823,-5.7376 -1.262851,-3.94287 -1.080014,-4.90486 1.777828,-9.35475 1.751999,-2.72798 3.193893,-6.53685 3.204228,-8.46418 0.02706,-5.06848 1.583927,-6.88445 6.269698,-7.31372 2.480061,-0.22721 3.999369,-0.99341 3.78704,-1.90987 -0.691526,-2.98469 2.417673,-10.0824 5.517166,-12.59464 1.88162,-1.52511 4.990464,-2.54858 7.741459,-2.54858 4.441225,0 4.645486,-0.19784 6.022709,-5.8337 1.971167,-8.06636 8.06872,-20.13244 11.382495,-22.5241 4.014972,-2.89775 5.956495,-2.53585 16.469361,3.06981 5.216767,2.78168 9.663932,5.0576 9.882608,5.0576 0.218666,0 0.400655,-1.28021 0.404421,-2.8449 0.01222,-4.90404 2.508036,-12.39048 4.981106,-14.9388 3.847194,-3.96424 7.988012,-3.05097 14.462912,3.18979 l 5.84796,5.6365 1.50134,-7.48987 c 1.84494,-9.204 4.38818,-11.36952 13.35266,-11.36952 l 6.47586,0 0,-6.87189 c 0,-3.77954 0.53851,-8.33139 1.1967,-10.11519 2.07025,-5.61081 12.33018,-4.0994 23.42573,3.45087 3.08539,2.09953 3.20444,2.06496 5.9196,-1.71924 3.99846,-5.57271 7.39647,-4.61971 10.9617,3.0743 2.83691,6.12223 2.875,6.14872 7.70477,5.3529 6.39215,-1.05323 10.3575,2.74595 11.57131,11.08646 1.5294,10.50907 -0.0122,14.46511 -9.17555,23.54962 -8.19347,8.12278 -8.3093,8.33087 -9.09374,16.33756 -0.43703,4.46049 -2.09111,11.02816 -3.67578,14.59481 -3.36877,7.58219 -5.14005,15.8594 -3.39384,15.8594 0.65678,0 6.34166,-1.42464 12.63308,-3.16589 33.14511,-9.17339 73.03968,-11.69674 98.70521,-6.24318 17.64711,3.74976 43.04284,12.94316 59.7352,21.62446 13.10151,6.81381 43.37902,28.99959 52.55569,38.51009 12.86566,13.33367 30.38177,35.68749 34.81663,44.43243 2.02286,3.98886 4.27193,7.25384 4.9979,7.25549 0.72596,8.7e-4 2.6586,-1.49656 4.29475,-3.32936 11.42766,-12.80125 20.52563,-13.73998 25.04906,-2.58457 3.62498,8.93975 1.62157,21.70286 -5.77812,36.81072 -4.99219,10.19246 -4.36972,13.49304 7.03954,37.32549 13.09349,27.3507 17.77577,33.82026 28.81483,39.814 3.037,1.64897 7.17836,4.79548 9.20303,6.99225 5.17115,5.61072 5.0809,13.6614 -0.3003,26.7845 -3.20562,7.81754 -4.55866,14.1433 -7.03163,32.8744 -3.61858,27.40812 -6.46453,38.72487 -12.97867,51.60856 -6.27526,12.41124 -12.91391,20.56363 -25.70455,31.56563 -17.03187,14.6501 -29.20239,19.0402 -42.30486,15.2602 -7.00431,-2.0208 -10.47678,-1.0359 -13.52687,3.8367 -2.97441,4.7516 -7.18521,7.1921 -14.28928,8.2819 -4.33858,0.6654 -6.72886,2.2079 -12.70628,8.1998 -4.04933,4.059 -9.41537,8.2582 -11.92452,9.3316 -5.00657,2.1417 -13.58954,2.3507 -21.1977,0.5161 z m 17.65561,-4.8487 c 2.36973,-0.7002 7.63069,-4.6874 12.2626,-9.2935 6.99081,-6.9518 8.93977,-8.1947 14.09777,-8.9904 8.25842,-1.274 8.71608,-1.5337 12.42755,-7.0523 4.27966,-6.3633 8.08776,-7.6911 15.94497,-5.5592 3.37444,0.9156 8.34408,1.6843 11.04363,1.7082 14.96272,0.1326 43.84727,-24.80621 54.32387,-46.90279 6.12472,-12.91787 8.0153,-20.78108 12.02406,-50.00994 2.35063,-17.13892 3.97151,-24.53759 7.2965,-33.3055 2.35101,-6.19957 4.27456,-12.34542 4.27456,-13.65745 0,-3.47717 -4.32916,-8.59224 -10.34849,-12.2271 -9.9357,-5.99984 -17.99938,-16.39038 -28.12842,-36.24512 -5.208,-10.20861 -10.35703,-21.30372 -11.44231,-24.65581 -1.08529,-3.35209 -2.19284,-6.35599 -2.46125,-6.67533 -0.26839,-0.31936 -2.56859,1.90863 -5.11156,4.95104 l -4.62356,5.5317 1.6081,6.38798 c 2.4493,9.72957 2.11004,18.88529 -0.80033,21.59929 -3.30615,3.08303 -5.5046,1.84563 -9.95135,-5.60112 -2.09146,-3.50244 -4.51018,-6.36807 -5.37495,-6.36807 -0.86475,0 -3.02029,2.25465 -4.79008,5.01035 -2.74761,4.27823 -3.02613,5.52534 -1.90607,8.5347 2.48985,6.68963 -1.14936,18.06495 -5.77936,18.06495 -2.40072,0 -4.14775,-4.24068 -4.14775,-10.06814 0,-9.30624 6.04807,-19.02167 23.38622,-37.56689 13.81928,-14.78138 16.51062,-18.37997 21.51517,-28.76779 4.71567,-9.78821 5.81117,-13.39206 6.23887,-20.5238 0.58839,-9.8111 -1.16208,-14.74036 -5.46046,-15.37653 -4.71229,-0.69742 -9.72128,4.44576 -22.95834,23.57338 -16.2297,23.45202 -21.7326,29.88932 -33.06036,38.67421 -6.53393,5.06718 -10.19572,7.06596 -12.94491,7.06596 -6.03001,0 -11.01444,-3.3796 -13.53282,-9.17566 -2.94665,-6.78179 -1.22844,-11.71602 5.29436,-15.20404 8.13251,-4.34879 17.38036,-0.49416 19.12839,7.97293 l 0.90735,4.39496 8.02436,-8.36359 c 4.41341,-4.59997 11.98332,-14.11717 16.82201,-21.14935 l 8.79766,-12.78572 -3.07945,-6.26188 c -3.82487,-7.77762 -5.2085,-8.7735 -4.58867,-3.3027 0.66461,5.86613 -2.94144,7.91173 -10.06882,5.71173 -3.78081,-1.16703 -7.93625,-4.6037 -16.69126,-13.80421 -17.39509,-18.28025 -31.28774,-27.01607 -57.2477,-35.99797 -26.56897,-9.1926 -35.87066,-15.71365 -34.25891,-24.01755 1.38982,-7.16049 9.59809,-13.26517 20.65683,-15.36297 2.53829,-0.48149 4.92541,-1.39286 5.30469,-2.02524 0.88096,-1.46877 -10.19125,-6.5432 -25.81702,-11.83204 l -12.21606,-4.13473 -4.35311,3.60467 c -7.22798,5.98528 -22.56586,10.6296 -47.50599,14.38487 -7.54082,1.13543 -21.27339,4.31291 -30.5168,7.06107 -21.96363,6.52997 -31.27942,6.42979 -35.40774,-0.38079 -1.85677,-3.06313 3.05539,-12.40821 9.51886,-18.10901 2.70036,-2.38172 4.64394,-4.33038 4.31907,-4.33038 -0.32487,0 -5.25585,1.41052 -10.95775,3.13447 -5.70189,1.72396 -11.0573,3.14641 -11.90091,3.16101 -3.19077,0.0551 -1.29482,-12.68187 3.52151,-23.6577 1.29131,-2.94274 2.6504,-8.06357 3.0202,-11.3796 1.20231,-10.78104 1.78467,-12.01128 9.68226,-20.45354 8.67092,-9.26887 10.52654,-14.38821 8.03501,-22.16725 -1.3818,-4.31431 -1.68361,-4.50496 -6.81432,-4.305 -6.23314,0.24294 -8.50982,-1.31958 -10.59965,-7.27475 -0.83019,-2.36568 -1.86206,-4.30123 -2.29304,-4.30123 -1.94067,0 -3.23223,6.32519 -2.67932,13.12152 0.3836,4.71513 -0.18869,11.01074 -1.56559,17.22277 -1.86456,8.41209 -2.49264,9.70413 -4.4597,9.17409 -2.71144,-0.73063 -2.73051,-1.22788 -0.42433,-11.06938 2.47319,-10.55429 2.30348,-17.35425 -0.52558,-21.06025 -3.13804,-4.11072 -14.18754,-10.18886 -17.61123,-9.68765 -2.47094,0.36175 -2.78516,1.21455 -3.11717,8.46005 -0.31565,6.88857 0.075,8.72323 2.69233,12.644 3.68982,5.52738 5.92521,11.32782 4.97568,12.91095 -1.56392,2.60745 -4.25085,0.84551 -6.42841,-4.2154 -1.27167,-2.95555 -3.23046,-6.15488 -4.35283,-7.1096 -2.49162,-2.11946 -11.85961,-3.22545 -14.09362,-1.66391 -2.10611,1.47217 -4.19699,11.10906 -3.32116,15.30727 0.54545,2.61447 0.0671,3.55648 -2.39989,4.72595 -2.82609,1.33971 -3.46218,1.01737 -7.68453,-3.89423 -2.53186,-2.94518 -6.08388,-6.34488 -7.89335,-7.5549 -3.230886,-2.16055 -3.327878,-2.14042 -5.401875,1.1212 -3.46739,5.45289 -3.468608,13.874 -0.0044,29.58373 3.790509,17.18864 3.822679,17.84779 0.871429,17.84779 -1.898082,0 -2.762325,-2.0558 -4.916773,-11.69571 -1.437634,-6.43264 -2.610075,-12.4184 -2.605397,-13.3017 0.0099,-1.8741 -14.764497,-11.92148 -20.44429,-13.90322 -3.208268,-1.11938 -4.198887,-0.98759 -5.670902,0.75446 -2.492576,2.94981 -4.411232,6.97985 -6.966442,14.6326 -2.156702,6.45927 -2.151051,6.65227 0.29564,10.11322 2.078117,2.93959 2.206948,3.72171 0.772164,4.68754 -0.947169,0.63761 -2.82649,0.80806 -4.176266,0.37882 -10.501361,-3.3397 -16.565459,-0.92824 -16.565459,6.58744 0,2.48445 1.097738,6.1057 2.439411,8.04723 2.090191,3.02469 2.188376,3.74474 0.685876,5.02965 -1.384342,1.18384 -2.479264,0.96326 -5.200324,-1.04765 -1.895721,-1.401 -4.551153,-2.72303 -5.900928,-2.93786 -1.99484,-0.31752 -2.529629,0.42723 -2.857519,3.97941 -0.221857,2.4035 -1.464285,5.90522 -2.760912,7.78157 -3.124923,4.52206 -2.979546,8.2632 0.403386,10.3815 1.518493,0.95087 11.708322,6.65377 22.644064,12.67315 19.481064,10.72301 20.054993,10.94433 28.379153,10.94433 10.112356,0 12.756257,1.86928 9.619965,6.80149 -1.056511,1.6615 -6.505606,7.20575 -12.109079,12.32054 -16.262336,14.84407 -25.788239,25.04061 -33.815088,36.19577 -7.407696,10.29468 -7.467912,10.4462 -5.646736,14.20788 1.650913,3.41 1.630635,4.54713 -0.196513,11.02355 -2.497744,8.85329 -10.931033,25.0295 -15.570801,29.86694 -1.885566,1.9659 -3.428292,4.2838 -3.428292,5.15089 0,0.86708 1.422329,6.37086 3.160728,12.23063 4.199243,14.15472 3.635929,26.18446 -1.949498,41.63192 -4.948711,13.68647 -4.543322,17.84553 2.666606,27.35803 10.77763,14.2196 11.067721,14.98319 10.328061,27.18695 -0.588539,9.71078 -0.382319,11.2896 1.858127,14.2245 1.598376,2.09383 3.72478,3.30132 5.813628,3.30132 6.076885,0 11.692678,2.45772 16.370558,7.16451 l 4.643526,4.67224 10.151207,-2.02259 c 10.704866,-2.13292 15.904003,-1.82698 18.239926,1.07326 2.16954,2.69367 3.019033,2.12699 3.341138,-2.22882 0.380104,-5.14003 6.50721,-20.92062 12.198565,-31.41779 2.45076,-4.52024 5.33306,-12.18991 6.40511,-17.04373 1.59068,-7.20206 2.56056,-9.17864 5.27358,-10.7474 6.64606,-3.84293 10.66675,2.33413 10.68238,16.41153 0.01,9.34863 -0.093,9.65989 -7.29506,21.9681 -4.01807,6.8668 -8.51212,16.22103 -9.98676,20.78714 -2.65338,8.21596 -6.832687,14.14275 -9.97282,14.14275 -0.892835,0 -2.886285,-0.9115 -4.42987,-2.02557 -1.543595,-1.11406 -2.962789,-1.82529 -3.153762,-1.58049 -0.8241,1.0563 -3.175627,15.80317 -3.179301,19.93803 -0.0034,3.98476 1.081219,5.59702 9.003251,13.38142 4.953987,4.86796 11.231152,11.9802 13.949252,15.80502 16.03641,22.56581 30.96716,27.81411 38.49221,13.53001 1.73516,-3.2937 4.89882,-7.84255 7.03035,-10.10864 3.60107,-3.82838 3.82342,-4.57362 3.13953,-10.52358 -0.9464,-8.23385 0.90479,-12.16702 5.47066,-11.62348 3.91045,0.46552 7.31256,6.61947 7.79166,14.09409 0.27191,4.24223 0.9158,5.16938 5.12771,7.38351 5.75991,3.02787 6.8906,1.99639 6.91921,-6.31213 0.0339,-9.82505 4.14077,-13.42549 8.14003,-7.13616 1.41225,2.22093 2.22342,7.0002 2.62886,15.48891 0.66213,13.86258 0.85231,14.24998 14.25084,29.03208 9.38918,10.3588 14.52305,12.8939 26.18575,12.9304 7.84902,0.025 32.906,-4.0157 34.39042,-5.5452 0.31249,-0.3221 -0.31643,-1.8869 -1.3976,-3.4774 -2.81177,-4.1365 -2.43092,-8.2869 1.09369,-11.9187 2.50744,-2.5837 3.50378,-2.9076 5.52183,-1.7946 1.89307,1.0439 2.46234,2.6458 2.46234,6.9286 0,3.0638 -0.55218,5.9223 -1.22707,6.3521 -3.44583,2.1944 -0.35851,2.602 6.64015,0.8764 7.76502,-1.9144 7.84356,-1.9768 6.0462,-4.8034 -3.75129,-5.8994 0.43904,-14.6048 5.10803,-10.612 1.46643,1.254 1.9313,3.2578 1.63668,7.0551 l -0.41146,5.3037 9.81657,0.5374 c 8.49019,0.4647 11.51467,1.3405 22.38433,6.4815 17.29907,8.1818 24.65039,9.7728 33.31916,7.2109 z m -117.67331,-12.6871 c -1.62301,-3.1249 0.3501,-11.6075 3.89231,-16.7334 5.37362,-7.7762 13.28943,-5.0114 13.28943,4.6415 0,6.2908 -2.19217,9.8166 -7.81217,12.5646 -5.54796,2.7127 -7.77342,2.6005 -9.36957,-0.4727 z m 104.39282,-0.7974 c -3.53064,-4.6251 -3.32764,-11.1479 0.46871,-15.0597 6.18851,-6.3769 12.94002,-2.6166 12.94002,7.2068 0,9.9088 -8.18153,14.7004 -13.40873,7.8529 z m -24.33232,-3.1891 c -2.17074,-2.2367 -1.88769,-9.3625 0.46834,-11.7902 2.79685,-2.882 6.78977,-1.9114 9.00906,2.1897 1.69,3.123 1.69023,3.8312 0.003,6.9542 -2.06548,3.8216 -7.00185,5.1995 -9.47971,2.6463 z m -24.22602,-12.8893 c -7.39771,-3.5545 -17.27771,-13.15044 -19.70637,-19.13987 -4.59235,-11.3254 -0.49098,-26.05512 10.03995,-36.05749 13.57556,-12.89417 27.88707,-13.15461 33.0478,-0.60139 3.85295,9.3721 3.10523,38.63401 -1.26243,49.40525 -1.93476,4.7715 -8.27479,9.3607 -12.91594,9.3491 -1.68722,0 -5.82858,-1.3342 -9.20301,-2.9556 z m -85.6654,-1.838 c -4.04271,-4.3481 -4.36436,-10.8274 -0.76547,-15.41972 1.36247,-1.73855 4.36815,-6.12853 6.67931,-9.75551 8.05661,-12.64355 12.77515,-14.83057 17.82595,-8.26219 7.69886,10.01212 -4.90004,36.98362 -17.27574,36.98362 -1.86788,0 -4.51922,-1.4545 -6.46405,-3.5462 z m 156.47732,-5.6566 c -4.15595,-4.5584 -6.59148,-13.2876 -6.8066,-24.39542 -0.18055,-9.32387 0.12087,-10.73529 3.48355,-16.3141 7.59514,-12.60042 18.52901,-17.70281 25.61042,-11.9513 4.90138,3.98089 6.90697,9.7501 6.90697,19.86839 0,11.58601 -2.8097,20.76362 -8.25977,26.97971 -7.87441,8.98122 -15.99109,11.23492 -20.93457,5.81272 z m 53.22609,-2.0585 c -2.86738,-3.26476 -2.13588,-10.03116 1.34002,-12.39531 2.39987,-1.63228 2.92918,-1.5506 5.21505,0.80481 3.01843,3.11026 3.33141,9.216 0.61584,12.0142 -2.55041,2.628 -4.59697,2.507 -7.17091,-0.4237 z M 116.01791,991.62312 c -4.04295,-1.57307 -3.62536,-8.32206 1.11032,-17.9451 3.11064,-6.32087 4.19394,-10.7233 5.51368,-22.40703 2.04372,-18.093 5.29083,-23.95907 10.91137,-19.71192 2.12981,1.6094 2.38345,3.2365 2.22007,14.24154 -0.14989,10.09716 -0.89363,14.67466 -3.9703,24.43637 -5.73133,18.18446 -9.81039,23.71086 -15.78514,21.38614 z m 341.20244,-4.67793 c -0.80139,-0.52507 -2.04951,-2.5603 -2.77359,-4.52274 -1.79933,-4.87653 0.65224,-10.15164 4.95829,-10.66889 4.02601,-0.48362 6.51209,2.55769 6.51209,7.96642 0,6.57559 -4.27173,10.12449 -8.69679,7.22521 z m -50.01033,-6.87435 c -2.38527,-3.50905 -2.53335,-14.0489 -0.22511,-16.02285 3.74069,-3.19894 8.13149,1.65306 8.13149,8.98553 0,4.19299 -2.81837,9.84746 -4.90828,9.84746 -0.59836,0 -1.94749,-1.26457 -2.9981,-2.81014 z m 28.30216,-0.30457 c -7.60098,-8.4511 -7.42349,-30.46738 0.27988,-34.71552 3.82279,-2.10813 10.60436,-1.65627 12.70485,0.84653 2.67613,3.18867 4.65974,10.00863 4.65185,15.99368 -0.0216,16.3603 -9.9493,26.42238 -17.63658,17.87531 z m -330.6567,-4.78375 c -2.11141,-2.17565 -1.70537,-11.09302 0.73423,-16.12514 1.59404,-3.28796 2.93394,-4.4254 5.21314,-4.4254 2.72043,0 3.10975,0.59477 3.43934,5.25427 0.65442,9.25174 -5.50769,19.29331 -9.3867,15.29627 z m 37.73577,-1.17461 c -2.59552,-4.99732 -2.74584,-17.60909 -0.26861,-22.53692 3.07341,-6.11377 7.98815,-6.76829 10.16472,-1.35368 2.27659,5.66337 1.19837,20.69357 -1.72314,24.02001 -2.97988,3.3929 -6.37143,3.3392 -8.17297,-0.12941 z m -49.376406,-1.88507 c -1.633507,-1.68319 -0.79232,-10.38255 1.202718,-12.43828 1.876315,-1.93339 2.19484,-1.90288 4.455795,0.42685 2.718473,2.80119 2.271613,7.45263 -1.044228,10.86935 -2.086637,2.15012 -3.335927,2.45934 -4.614285,1.14208 z m 371.910076,-3.89856 c -1.80828,-2.09612 -4.58526,-10.49244 -4.60004,-13.90839 -0.0123,-2.8344 4.81958,-6.63811 8.4324,-6.63811 4.53575,0 6.45701,2.47477 7.11719,9.1676 0.96186,9.75155 -6.05913,17.04785 -10.94955,11.3789 z M 329.1926,956.29885 c -2.37958,-2.45197 -3.15356,-7.92304 -1.68047,-11.87866 1.14665,-3.07902 6.2862,-2.4322 8.51415,1.07151 4.67723,7.35552 -1.18551,16.62715 -6.83368,10.80715 z m -153.34988,-4.82807 c -6.88807,-7.09761 -7.70064,-20.94189 -2.38596,-40.65159 3.57198,-13.24687 8.3927,-21.90091 19.54109,-35.07975 9.72164,-11.49225 17.09938,-16.77492 23.41373,-16.76493 4.96916,0.008 10.44669,4.42629 13.5564,10.93522 2.49471,5.22167 2.92842,8.00204 2.92842,18.77345 0,12.02218 -0.22291,13.11036 -4.53253,22.12701 -5.40179,11.30165 -14.80792,23.6841 -24.91717,32.80153 -13.41814,12.10167 -21.30693,14.34767 -27.60398,7.85906 z m 88.48739,0.26716 c -6.21937,-4.48875 -8.57809,-19.59248 -3.82462,-24.49056 6.51448,-6.71265 15.95192,1.22762 15.95192,13.4213 0,6.98464 -3.93977,13.1311 -8.41681,13.1311 -0.46954,0 -2.13925,-0.92783 -3.71049,-2.06184 z m 212.43501,-18.15139 c -1.93655,-3.19525 -1.96324,-9.1722 -0.0497,-11.14389 3.82424,-3.94057 8.34408,-0.15016 8.34408,6.99753 0,6.36233 -5.33492,9.02926 -8.29434,4.14636 z M 290.12048,926.7965 c -1.49413,-1.63885 -3.02914,-4.96416 -3.41113,-7.38963 -0.59016,-3.74741 -0.18931,-4.8194 2.66822,-7.13551 6.52701,-5.29033 11.32961,-2.96686 12.50319,6.04895 1.27725,9.81227 -5.85526,14.953 -11.76028,8.47619 z m 105.0569,-1.76182 c -4.34868,-4.69708 -6.03359,-9.69063 -6.13638,-18.18631 -0.15281,-12.62989 7.47215,-20.49977 16.66309,-17.1983 7.58152,2.72332 11.00037,21.89689 5.78338,32.43414 -3.75294,7.58016 -10.83731,8.86172 -16.31009,2.95047 z M 75.883976,924.2824 c -2.983949,-2.24829 -3.135443,-11.96259 -0.257152,-16.48905 2.941567,-4.62597 6.626487,-6.42316 9.00295,-4.39089 3.96908,3.39425 -0.05015,20.41864 -5.2415,22.20175 -0.661126,0.22708 -2.238062,-0.36773 -3.504298,-1.32181 z m 376.312714,-1.55953 c -12.69312,-6.51768 -20.76617,-19.25274 -27.22137,-42.94106 -4.21997,-15.48586 -4.78498,-26.34362 -1.71749,-33.00454 3.56542,-7.74213 12.31152,-10.2117 19.70777,-5.56472 5.45839,3.42944 7.48894,7.11249 10.83934,19.66048 1.59921,5.98953 5.6838,17.04577 9.07681,24.56942 8.85022,19.62442 9.61919,33.26916 2.17763,38.64001 -3.61776,2.61107 -5.52181,2.4098 -12.86269,-1.35959 z m -204.50586,-4.60762 c -2.39463,-3.52282 -2.48427,-13.5569 -0.17208,-19.25914 2.1532,-5.31011 6.99691,-8.80044 10.58454,-7.62714 8.48129,2.77374 6.86075,24.09236 -2.15308,28.32427 -4.29766,2.01772 -6.12684,1.69925 -8.25938,-1.43799 z M 40.139296,916.5092 c -3.773796,-5.93477 0.79498,-12.70294 5.383389,-7.97494 2.868906,2.95618 1.087566,11.12672 -2.425852,11.12672 -0.524354,0 -1.855242,-1.4183 -2.957537,-3.15178 z m 12.582219,-0.21995 c -1.58246,-1.63059 -0.795523,-9.11486 1.171496,-11.14171 2.664874,-2.74594 5.51211,-1.98953 7.711837,2.04879 1.621931,2.97758 1.59153,3.6657 -0.292882,6.62915 -1.98862,3.12734 -6.64926,4.46403 -8.590451,2.46377 z M 479.0454,912.57851 c -6.68105,-8.75196 -3.81859,-21.34845 3.88578,-17.09976 6.92807,3.82059 9.07877,15.96837 3.38321,19.10926 -3.44859,1.90178 -4.50646,1.60935 -7.26899,-2.0095 z m -135.41088,-3.1443 c -18.80231,-4.55292 -38.13457,-26.24284 -42.4988,-47.68177 -2.88875,-14.19075 -0.89115,-26.82184 6.77685,-42.85052 5.32463,-11.13024 15.12495,-21.28934 21.77819,-22.57547 13.9299,-2.69277 32.76905,10.29701 38.72562,26.70167 4.54841,12.52655 7.60835,31.74976 7.8345,49.21786 0.19021,14.69227 -0.0688,16.9741 -2.44058,21.4948 -6.55469,12.49385 -18.25657,18.57962 -30.17578,15.69343 z m -67.17711,-8.73922 c -4.81824,-4.96482 -1.86343,-17.03323 3.79695,-15.50798 2.8505,0.7681 7.23489,7.28615 7.2421,10.76647 0.007,2.70749 -4.22709,7.27031 -6.74431,7.27031 -1.01232,0 -2.94496,-1.13798 -4.29474,-2.5288 z M 36.428244,887.86516 c 2.298286,-21.58743 3.678522,-25.57785 8.594253,-24.84709 4.223764,0.6279 5.141109,5.99882 2.646497,15.49497 -2.485365,9.46104 -6.421328,16.2588 -9.802487,16.92976 -2.115408,0.41978 -2.227074,-0.1685 -1.438263,-7.57764 z m 95.392346,2.27801 c -1.98462,-2.46406 -2.86759,-8.75204 -1.52263,-10.84302 0.98521,-1.53163 1.62355,-1.4807 4.32806,0.34525 3.3453,2.25862 4.01396,5.68712 1.90214,9.75311 -1.49403,2.87655 -2.82138,3.08652 -4.70757,0.74466 z m -54.988731,-0.83662 c -8.851542,-3.67487 -9.23006,-27.05242 -0.975373,-60.23979 7.202776,-28.95831 13.292853,-36.42659 22.03611,-27.02296 5.465504,5.8783 5.524444,13.50215 0.275132,35.58192 -2.377587,10.00067 -4.916322,22.96393 -5.641592,28.80722 -1.524916,12.28554 -4.975607,20.60691 -9.40822,22.68799 -1.709008,0.80237 -3.219365,1.42279 -3.356333,1.37871 -0.13696,-0.0441 -1.455343,-0.58098 -2.929724,-1.19309 z m 67.919961,-3.36291 c -1.52165,-1.56793 -0.8301,-9.49613 1.21585,-13.93877 2.21737,-4.81494 4.78099,-6.51864 6.7523,-4.48735 1.42242,1.46568 -0.82396,15.00836 -2.93409,17.68856 -1.35594,1.72228 -3.73952,2.07151 -5.03406,0.73756 z m 14.01028,-4.61379 c -2.57207,-2.65031 -1.35369,-9.93312 3.13391,-18.73283 10.18008,-19.96207 21.02002,-19.81164 13.40584,0.18604 -5.50105,14.4478 -12.69212,22.51148 -16.53975,18.54679 z M 54.842878,873.43402 c -1.832994,-7.52543 2.359969,-20.25822 6.174441,-18.74993 4.202111,1.66154 3.151166,19.48419 -1.251574,21.22509 -3.274948,1.29493 -4.106378,0.8769 -4.922867,-2.47516 z m -37.255689,-1.13625 c -0.933459,-1.15896 -1.172625,-3.39176 -0.643333,-6.0059 1.331669,-6.57687 3.906411,-9.85089 7.746913,-9.85089 7.47767,0 8.479642,6.57466 2.016841,13.23407 -4.715595,4.85904 -6.829611,5.46696 -9.120421,2.62272 z m 234.574221,0.32753 c -2.4185,-2.49207 -1.72191,-10.37045 1.33058,-15.04904 4.89734,-7.50616 11.92179,-5.7607 11.92179,2.96238 0,9.07116 -8.58243,16.89867 -13.25237,12.08666 z m -63.23505,-4.38326 c -2.34945,-2.42092 -0.38548,-10.00954 3.08596,-11.92392 5.5263,-3.04756 8.48283,6.97521 3.18538,10.79856 -2.9253,2.11129 -4.96014,2.47644 -6.27134,1.12536 z m 205.8203,-2.65352 c -4.14992,-2.85527 -5.96162,-14.7183 -3.09163,-20.24406 2.09925,-4.0418 7.82408,-3.77383 11.10161,0.51964 3.10675,4.06974 3.44904,13.7392 0.63302,17.88193 -1.88461,2.77251 -6.01235,3.65245 -8.643,1.84249 z m 71.43415,-2.93719 c -9.02094,-7.31173 -9.74049,-24.71466 -0.97874,-23.67162 2.68213,0.31928 4.1371,2.03136 7.85464,9.24268 5.5044,10.67747 5.8305,14.1369 1.49274,15.83629 -4.27592,1.67516 -4.6414,1.6137 -8.36864,-1.40735 z m -324.20548,-0.856 c -4.37463,-3.02161 -1.68512,-16.73395 3.28215,-16.73395 5.05289,0 6.07601,10.24032 1.53921,15.40593 -2.22183,2.5298 -2.83637,2.69906 -4.82136,1.32802 z M 27.331667,850.66886 c -3.387753,-9.18153 -0.05116,-40.96304 6.040034,-57.53157 4.06168,-11.04808 12.494223,-23.22857 16.409968,-23.70355 2.654023,-0.32192 3.415743,0.23021 4.080007,2.95734 1.521846,6.24794 -0.480248,16.36004 -5.619093,28.3808 -3.228978,7.55318 -6.172998,17.35957 -7.971443,26.5524 -3.121681,15.95665 -4.711081,21.01198 -7.662864,24.37288 -2.654838,3.02281 -3.869172,2.78617 -5.276609,-1.0283 z m 100.837003,-2.71894 c -1.57846,-3.03914 0.38078,-6.68173 3.59386,-6.68173 2.94699,0 4.43668,3.377 2.72519,6.17775 -1.80049,2.94643 -4.9212,3.19532 -6.31905,0.50398 z m 104.74572,-7.14402 c -1.67273,-1.26034 -2.43828,-3.81518 -2.83449,-9.4592 -0.52441,-7.47051 -0.39651,-7.88325 3.77504,-12.1817 5.09513,-5.25012 10.08387,-5.82842 16.27384,-1.88641 5.2367,3.33492 7.09791,8.58162 4.71975,13.30496 -2.02226,4.01648 -4.18073,5.94913 -10.55284,9.4487 -5.35703,2.9421 -8.24295,3.13826 -11.3813,0.77365 z m -123.74763,-1.64506 c -1.44941,-1.49349 -0.87192,-11.15511 1.06937,-17.89102 2.47815,-8.59872 9.72612,-16.66924 14.97029,-16.66924 2.05696,0 4.03167,0.78342 4.38826,1.74091 1.51777,4.07557 -4.45026,21.97981 -9.8509,29.55299 -2.8047,3.93295 -8.28707,5.62599 -10.57702,3.26636 z M 55.627838,832.5005 c -2.761575,-5.31703 -0.384822,-13.53868 4.438511,-15.35366 3.708404,-1.39544 6.477216,1.10878 7.349432,6.6471 0.610252,3.87494 0.208239,5.18359 -2.426388,7.89835 -3.749903,3.86398 -7.601707,4.19652 -9.361555,0.80821 z m 128.730122,-0.21626 c -1.91751,-3.69189 -0.37883,-10.77976 2.8453,-13.10672 8.44349,-6.09396 14.08541,1.84972 8.28092,11.65936 -2.97253,5.02362 -8.87031,5.79085 -11.12622,1.44736 z m -32.95429,-12.39229 c -7.14881,-7.88565 -8.26262,-23.5525 -2.84225,-39.97919 4.35225,-13.18971 11.91856,-26.64983 23.85115,-42.43007 l 9.62088,-12.72312 0.10712,-11.6038 c 0.13298,-14.40797 2.51456,-19.08744 12.26165,-24.09238 10.73292,-5.51115 17.30705,-3.79016 14.50729,3.79778 -0.73636,1.99572 -2.13316,4.53299 -3.10398,5.63837 -1.54523,1.7594 -1.48007,2.27562 0.5231,4.1436 2.15991,2.01417 2.72373,1.92162 10.05352,-1.65027 10.00583,-4.87597 19.11878,-6.77888 29.55419,-6.17128 10.09005,0.58749 14.63583,3.48404 16.33896,10.41109 0.93566,3.80549 0.70567,5.56495 -1.20542,9.22157 -1.80695,3.45738 -19.19209,21.06946 -32.89827,33.32772 -1.31584,1.17683 4.51764,11.8423 9.52459,17.41398 5.67842,6.31893 9.93263,8.25968 14.50518,6.61719 9.41889,-3.38332 22.48442,0.30163 26.01528,7.33731 4.39925,8.76597 0.75487,21.6933 -7.78795,27.62544 -6.16413,4.28036 -15.7669,4.03583 -21.03953,-0.53577 -2.16822,-1.87994 -4.69541,-5.27553 -5.61597,-7.54579 -1.94218,-4.78964 -2.24743,-17.60277 -0.4467,-18.74954 2.07775,-1.32321 1.34971,-2.40895 -3.81515,-5.68981 -6.61077,-4.19932 -13.0397,-14.41502 -20.03449,-31.83523 -12.81202,-31.9077 -17.71755,-39.73906 -24.26236,-38.73321 -3.88322,0.5968 -7.38079,6.42996 -8.03004,13.39231 -0.73674,7.90066 1.72433,16.74509 10.10474,36.31353 10.11783,23.6254 13.77936,37.78056 14.39078,55.63361 0.27675,8.08085 0.0919,8.85079 -2.12447,8.85079 -2.181,0 -2.50705,-1.15596 -3.20969,-11.3796 -0.75441,-10.97734 -4.09656,-28.04898 -5.88372,-30.05415 -1.11917,-1.25566 -17.14184,18.93174 -22.85033,28.78975 -9.94298,17.17056 -19.22481,22.36222 -26.20811,14.65917 z m -93.773874,-11.0767 c -0.449933,-0.4636 -0.818049,-3.22438 -0.818049,-6.13502 0,-7.3619 4.346384,-13.88465 9.251899,-13.88465 3.58984,0 3.631848,0.0815 3.590689,6.95421 -0.05193,8.66403 -3.019721,13.90839 -7.870918,13.90839 -1.834573,0 -3.703712,-0.37931 -4.153621,-0.84293 z m 29.449698,-27.81681 c -1.529133,-1.57564 -0.826118,-10.22012 0.95501,-11.7433 2.953299,-2.52558 7.252104,-1.06788 8.607372,2.91876 1.079492,3.17545 0.816445,3.97241 -2.191106,6.63809 -3.429919,3.04004 -5.847098,3.75702 -7.371276,2.18645 z m 306.758196,-8.07569 c -4.48118,-3.63212 -6.52818,-11.12299 -4.32827,-15.83897 0.92351,-1.97974 3.1542,-4.45152 4.95707,-5.49282 2.85527,-1.64917 3.69949,-1.66085 6.54681,-0.0907 6.92618,3.81954 9.1878,16.15177 3.90069,21.26987 -3.55592,3.44223 -6.9598,3.48911 -11.0763,0.15256 z m -99.2828,-7.17136 c -3.36315,-3.82929 -2.73893,-10.04551 1.44126,-14.35287 5.37147,-5.53488 12.42849,-4.41448 16.45706,2.61278 4.37751,7.63598 0.77278,12.54683 -9.99211,13.61267 -4.5942,0.45488 -6.19511,0.0757 -7.90621,-1.87258 z m -224.420391,-2.5599 c -1.865915,-4.83689 0.450995,-18.36814 5.126745,-29.9415 11.640361,-28.81202 34.711426,-53.86089 63.890376,-69.36746 8.59434,-4.56727 17.71336,-5.44173 19.91542,-1.90976 2.49398,4.00018 -0.67777,8.80533 -12.07307,18.2905 -15.11475,12.58113 -30.97458,31.25666 -49.755161,58.58851 -9.5446,13.89047 -21.689705,27.81681 -24.258949,27.81681 -0.827205,0 -2.107619,-1.5647 -2.845361,-3.4771 z m 36.690261,-7.36547 c -2.59365,-2.67255 10.09938,-28.35384 14.01394,-28.35384 3.65589,0 -2.80654,19.48797 -8.49061,25.60411 -3.2975,3.54817 -4.27579,4.0352 -5.52333,2.74973 z m 218.6965,-2.27222 c -10.02318,-5.46359 -17.06649,-18.39405 -15.48597,-28.42996 1.89567,-12.03694 18.49967,-18.37141 30.97095,-11.81549 5.85242,3.07649 13.52652,11.46313 15.94354,17.42386 2.52114,6.2175 2.19963,14.73844 -0.69939,18.53606 -5.89508,7.72237 -20.64927,9.78002 -30.72913,4.28553 z m -200.17345,-2.59216 c -1.94918,-4.40809 -0.35071,-12.95246 3.83632,-20.50673 7.71912,-13.92682 31.26028,-36.09794 36.23851,-34.1295 5.09091,2.013 -0.19694,15.69953 -11.81696,30.5858 -4.3121,5.52419 -9.90965,12.96622 -12.43901,16.53784 -7.3941,10.44096 -13.28662,13.23939 -15.81886,7.51259 z m 142.55447,-2.22974 c -1.36362,-2.30467 -2.48141,-5.2143 -2.48391,-6.46581 -0.009,-3.9768 3.59141,-9.62596 7.43993,-11.67666 7.0429,-3.75281 10.86859,0.57103 9.3027,10.51404 -0.9649,6.1269 -4.56267,10.92962 -8.55608,11.42164 -2.53831,0.31273 -3.75018,-0.49336 -5.70264,-3.79321 z M 50.220479,740.73019 c -2.537901,-2.61512 -0.523318,-8.39099 4.42239,-12.67912 4.118545,-3.57097 7.942401,-3.66708 10.019516,-0.25188 1.808492,2.97355 -1.008436,8.13837 -6.529821,11.97243 -4.891745,3.39684 -5.476983,3.46774 -7.912085,0.95857 z m 18.035845,-20.32713 c -1.554036,-4.17293 6.807931,-17.61637 13.679541,-21.99246 4.996183,-3.18173 6.77972,-3.22067 6.77972,-0.14803 0,3.30055 -6.826114,16.43749 -10.742928,20.67492 -3.548188,3.83864 -8.551549,4.59333 -9.716333,1.46557 z M 291.37625,703.27508 c -1.4578,-0.55567 -3.58055,-3.01988 -4.71722,-5.47602 -1.9274,-4.16476 -1.92969,-4.76165 -0.034,-8.85789 3.29077,-7.11076 10.96819,-7.62296 17.2493,-1.15078 4.22266,4.35113 4.11855,7.49507 -0.39198,11.83672 -4.08397,3.93106 -8.14949,5.15615 -12.10609,3.64797 z m -150.30564,-1.93384 c -0.44994,-0.4636 -0.81805,-2.4988 -0.81805,-4.52266 0,-5.40187 5.92126,-11.0716 11.56278,-11.0716 5.06539,0 5.27993,0.83033 1.95143,7.55322 -3.43876,6.94557 -9.83058,10.9938 -12.69616,8.04104 z M 253.714,687.07269 c -3.83871,-1.60333 -5.69606,-4.611 -5.26111,-8.51954 0.33048,-2.96986 1.70557,-4.22366 8.37139,-7.63302 5.16673,-2.64262 9.82346,-4.08994 13.22138,-4.1093 4.54508,-0.0259 5.40893,0.41327 6.46998,3.28901 3.62249,9.81767 -12.03252,21.47077 -22.80164,16.97285 z M 81.659927,676.0588 c -0.843606,-0.35076 -1.533843,-2.28643 -1.533843,-4.3015 0,-2.85853 0.677705,-3.83901 3.083602,-4.46123 3.494921,-0.90385 6.732971,1.2336 6.732971,4.44445 0,4.0828 -3.926105,6.12969 -8.28273,4.31828 z m 38.180373,-8.98108 c -0.96343,-0.64264 -1.08052,-2.8774 -0.37992,-7.25094 1.60257,-10.00395 1.31863,-22.7019 -0.73692,-32.95615 -1.04278,-5.20199 -1.56237,-10.01433 -1.15465,-10.69411 1.45564,-2.42693 4.05873,-1.17352 5.32282,2.56302 1.87713,5.54853 8.87841,15.98949 16.67429,24.8663 3.75209,4.27233 6.82199,8.09878 6.82199,8.5032 0,0.40442 -4.27941,2.95439 -9.5098,5.66657 -5.23039,2.71218 -10.5617,6.13242 -11.84735,7.60051 -2.54927,2.91102 -3.10446,3.09302 -5.19046,1.7016 z m 12.72557,-12.62465 c 2.87284,-1.21698 5.22541,-2.78399 5.22794,-3.48226 0.008,-2.01321 -9.0349,-13.1433 -10.73227,-13.21039 -1.09596,-0.0434 -1.53384,2.64655 -1.53384,9.42236 0,5.21565 0.40833,9.48301 0.90741,9.48301 0.49908,0 3.25792,-0.99572 6.13076,-2.21272 z m -58.400922,-6.81016 c -3.291332,-6.17324 -3.785191,-7.94739 -2.454141,-8.81643 2.821994,-1.84246 3.354891,-1.36506 7.170533,6.42364 4.277744,8.73196 4.495842,10.15683 1.551516,10.13626 -1.354281,-0.009 -3.669231,-2.86937 -6.267908,-7.74347 z m 24.907434,0.86644 c -2.442025,-3.84037 -1.888796,-7.46808 1.233348,-8.08764 2.96555,-0.58848 5.58884,2.99521 5.58884,7.63494 0,4.59715 -4.01731,4.86373 -6.822188,0.4527 z"
       id="path3082"
       inkscape:connector-curvature="0" />
    <path
       style="fill:#ffffff;fill-opacity:0.13607594;stroke-width:30;stroke-linecap:round;stroke-linejoin:round;stroke-miterlimit:4;stroke-dasharray:none"
       d="m 346.44447,502.27172 c -4.53209,-1.14769 -11.67441,-3.78628 -18.57143,-6.86087 -14.46182,-6.44687 -19.13454,-7.65024 -29.82767,-7.68157 l -4.82767,-0.0142 0.45506,-3.87183 c 0.73548,-6.25776 -0.82786,-9.6996 -4.40571,-9.6996 -3.7024,0 -5.44699,7.09593 -2.93445,11.93558 l 1.19029,2.29271 -3.7535,1.13551 c -4.70419,1.42313 -11.34901,2.21295 -9.86189,1.17223 1.12221,-0.78535 1.94655,-8.80803 1.20757,-11.75236 -0.48059,-1.9148 -3.56249,-3.59904 -5.47498,-2.99204 -2.02494,0.6427 -5.09605,5.19297 -5.49069,8.13522 -0.25216,1.88002 0.091,3.56725 1.14615,5.63553 0.82833,1.62367 1.50606,3.25973 1.50606,3.63569 0,1.13489 -14.28956,3.8376 -26.91626,5.09091 -9.05447,0.89872 -15.75004,0.18255 -20.79107,-2.22387 -5.67978,-2.71133 -21.49679,-19.82045 -24.17828,-26.15342 -0.53623,-1.26642 -1.30644,-6.40928 -1.71157,-11.42857 -0.99219,-12.29224 -1.78433,-15.84333 -4.06528,-18.22413 -4.07006,-4.24822 -6.52931,-1.53749 -7.42654,8.18595 -0.33153,3.59291 -0.89751,6.82728 -1.25772,7.18749 -1.11931,1.11931 -4.99492,-0.21736 -7.49429,-2.58471 -1.99007,-1.88494 -2.4762,-2.97324 -2.91633,-6.52868 -1.25144,-10.10929 -7.00562,-15.84154 -11.91353,-11.86814 -1.57814,1.27765 -1.69084,1.86945 -1.75759,9.22823 l -0.0713,7.86302 -3.53418,4.52178 c -1.9438,2.48698 -4.91953,6.6866 -6.61274,9.33249 -3.68278,5.75486 -6.46853,7.68929 -11.07324,7.68929 -7.331,0 -14.61912,-5.74064 -26.89767,-21.18653 -2.76036,-3.4724 -8.483504,-10.0099 -12.718097,-14.52775 -10.455886,-11.15532 -10.35095,-10.96886 -9.740936,-17.30865 0.512679,-5.32815 2.263714,-15.54513 2.747036,-16.02845 0.14885,-0.14885 1.936721,0.59377 3.973036,1.65025 l 3.702407,1.92087 1.934207,-1.43269 c 2.933297,-2.17271 4.562427,-4.9606 8.973297,-15.35571 2.22107,-5.23437 6.59973,-14.17101 9.73037,-19.85919 6.37338,-11.58001 6.79085,-13.16511 6.27604,-23.82943 -0.51424,-10.65268 -2.53084,-14.757 -7.25064,-14.757 -4.81693,0 -6.5527,2.30465 -9.41446,12.5 -0.99245,3.53571 -3.27566,9.64285 -5.07379,13.57142 -9.045881,19.76345 -11.730967,26.86064 -13.449596,35.54982 l -0.3913,1.97838 -2.648664,-1.79981 c -3.412286,-2.31871 -8.848208,-2.39864 -20.026751,-0.29447 l -8.06685,1.51844 -4.43315,-4.25315 c -4.663518,-4.47416 -10.491952,-7.33193 -14.995658,-7.35259 -3.163846,-0.0145 -5.526866,-1.35629 -7.472092,-4.24282 -1.555518,-2.30822 -1.64323,-3.06023 -1.548643,-13.27729 0.118976,-12.85141 -0.123863,-13.60282 -7.723357,-23.89793 -9.515247,-12.89041 -9.853123,-15.01836 -4.914748,-30.9531 5.529751,-17.84296 5.744945,-26.32913 1.107892,-43.68976 -1.154261,-4.32143 -2.09857,-8.5 -2.098465,-9.28572 1.05e-4,-0.78571 1.928001,-4 4.284214,-7.14285 4.46434,-5.95481 10.930505,-18.34301 13.421869,-25.71429 2.422108,-7.16636 2.614056,-9.37669 1.180531,-13.59406 l -1.295986,-3.81272 2.747429,-4.15375 c 7.990514,-12.08061 18.507469,-23.87289 35.901996,-40.2556 5.64889,-5.3203 11.391824,-11.09003 12.762076,-12.8216 4.472114,-5.65141 2.406972,-8.53408 -6.14735,-8.58091 -10.133153,-0.0555 -14.743842,-2.02757 -45.343119,-19.39437 -11.39768,-6.46882 -11.699242,-6.97489 -8.339087,-13.99426 1.269369,-2.65171 2.552824,-6.26773 2.852123,-8.03559 0.512485,-3.027081 0.672457,-3.208674 2.746764,-3.11801 1.211422,0.05293 3.439651,0.936871 4.95162,1.96429 3.118682,2.1192 5.391614,2.37686 6.730968,0.76304 0.763085,-0.919466 0.567906,-1.835466 -1.162539,-5.45598 -4.296721,-8.989779 -2.121891,-14.867621 5.501087,-14.867621 1.964842,0 4.9939,0.357927 6.73124,0.795395 3.917096,0.986336 6.759515,0.376442 6.759515,-1.45038 0,-0.738129 -0.768266,-2.694608 -1.707257,-4.347731 -1.445852,-2.545468 -1.602823,-3.404225 -1.025196,-5.608624 1.267694,-4.8379 4.418559,-12.586695 6.259407,-15.393504 2.681962,-4.089289 3.608063,-4.465021 7.418518,-3.009795 4.270477,1.63091 18.090992,10.785689 19.084163,12.641445 0.428157,0.800014 1.407315,4.730904 2.175907,8.735311 1.634315,8.514801 3.343286,14.772475 4.378008,16.03074 0.403821,0.491071 1.498442,0.892857 2.432478,0.892857 1.454679,0 1.698257,-0.347822 1.698257,-2.42505 0,-1.333779 -1.125,-8.05023 -2.5,-14.925444 -3.098093,-15.490933 -3.350507,-23.517338 -0.892857,-28.391013 2.531507,-5.020132 3.723457,-4.716196 11.127503,2.837389 6.65316,6.787542 8.25887,7.558243 11.30374,5.425529 1.27022,-0.889698 1.55623,-2.007554 1.87319,-7.321428 0.71005,-11.903643 2.10453,-13.637884 9.95012,-12.37439 5.56643,0.896448 7.28206,2.087451 9.58153,6.65154 2.90461,5.765205 4.46847,7.665724 6.30782,7.665724 3.54203,0 2.90623,-4.052712 -2.06719,-13.17657 -3.19276,-5.857202 -3.25528,-6.097578 -3.25528,-12.516049 0,-9.886383 1.16325,-10.913203 8.49617,-7.499682 5.34678,2.48896 10.60471,6.492064 12.03331,9.161512 1.67914,3.137608 1.47359,11.966469 -0.4759,20.44069 -1.77741,7.726185 -1.56141,10.01867 0.94399,10.01867 0.92655,0 2.03523,-0.422431 2.46373,-0.938736 1.63347,-1.968216 3.03912,-10.580558 3.63566,-22.275549 0.34066,-6.678572 1.01064,-13.107143 1.48884,-14.285715 l 0.86945,-2.142857 2.04018,4.285715 c 2.82304,5.930252 4.7926,7.497543 9.43725,7.509753 6.97896,0.01834 8.18467,1.183292 8.86972,8.569849 0.49415,5.328143 -1.10949,8.540615 -8.71095,17.450152 -3.33223,3.905651 -6.56403,8.16629 -7.18178,9.468088 -0.61774,1.301798 -1.59447,5.338408 -2.1705,8.970245 -0.57603,3.631838 -2.52287,10.91717 -4.3263,16.189627 -3.70697,10.837564 -5.03053,20.359397 -2.94145,21.161047 0.89422,0.34315 16.55595,-3.51822 21.13392,-5.21052 0.64921,-0.23998 -0.94817,1.83387 -3.54971,4.60855 -4.98306,5.3147 -8.48421,11.54764 -8.48421,15.10405 0,1.47864 0.6453,2.66657 2.12472,3.91142 5.50739,4.63417 11.35202,4.36995 34.36013,-1.55335 9.20119,-2.36878 22.03301,-5.30275 28.51515,-6.5199 33.4997,-6.2903 41.71489,-8.88613 50.75017,-16.036 l 3.00674,-2.379326 9.01441,3.150706 c 18.8114,6.57495 28.84994,11.09084 27.50262,12.37221 -0.34709,0.3301 -3.04179,1.30951 -5.98822,2.17648 -10.28629,3.02667 -16.95357,7.8753 -18.6597,13.56988 -2.80459,9.36089 5.07443,15.4012 34.01684,26.07844 15.76647,5.81646 24.16498,9.72116 32.31977,15.02638 8.57998,5.58185 11.69752,8.21555 24.46595,20.66885 6.08928,5.939 12.29686,11.54094 13.79462,12.44875 1.76062,1.06715 4.29265,1.77655 7.16333,2.00698 5.37247,0.43125 6.34304,-0.38644 6.8885,-5.80354 l 0.36783,-3.65311 3.1973,6.19805 3.19729,6.19803 -3.55443,5.22642 c -6.55022,9.63137 -15.80995,21.59907 -22.51267,29.09638 l -6.64536,7.43317 -1.01854,-3.4931 c -0.5602,-1.92121 -1.6783,-4.41966 -2.48468,-5.55212 -1.84209,-2.58698 -6.43724,-4.71353 -10.2294,-4.734 -3.51677,-0.019 -10.01565,3.11913 -11.92962,5.76044 -4.70445,6.49221 0.65275,18.06978 9.41276,20.34209 5.83477,1.51351 9.91847,-0.32958 20.80357,-9.38925 7.98806,-6.64846 13.91228,-13.74922 28.27927,-33.89545 13.53933,-18.98564 18.94313,-24.98156 22.50003,-24.96544 3.14063,0.0142 3.91668,0.56805 5.24249,3.74116 1.31463,3.14637 1.46943,12.66153 0.28532,17.53875 -1.26684,5.21802 -7.14934,17.9639 -10.80747,23.41709 -1.82077,2.7142 -8.50463,10.72064 -14.85303,17.79207 -19.69357,21.93649 -23.58471,28.05007 -24.10052,37.86564 -0.32106,6.10936 0.88958,10.68035 3.0481,11.50865 1.75194,0.67229 4.68157,-1.71977 6.13761,-5.01139 1.56592,-3.54004 1.84667,-6.9107 1.10706,-13.29147 -0.51296,-4.4254 -0.43435,-4.79849 1.67849,-7.96555 3.21005,-4.81171 4.03843,-5.36589 5.73115,-3.834 0.76257,0.69011 2.68874,3.25353 4.28039,5.69649 1.59164,2.44295 3.70256,4.87451 4.69092,5.40346 2.44901,1.31068 5.38856,0.20264 6.71545,-2.5313 1.43578,-2.95832 1.14072,-13.55077 -0.57366,-20.59412 l -1.36568,-5.61075 4.28941,-4.98378 c 2.35918,-2.74107 4.51989,-4.71625 4.80159,-4.38926 0.28169,0.32699 1.09339,2.20166 1.80377,4.16595 2.07767,5.745 11.31783,25.07688 15.87562,33.21429 8.52003,15.21154 14.41465,22.36669 23.95468,29.07724 6.1229,4.30691 9.54472,8.00462 10.20988,11.03307 0.30463,1.38699 -0.55473,4.89414 -2.81274,11.47914 -4.31042,12.57044 -5.63058,18.45344 -8.61938,38.41055 -1.38261,9.23214 -3.01679,19.35714 -3.6315,22.5 -2.81429,14.3888 -8.39528,27.66256 -16.06653,38.21249 l -3.89408,5.35536 -0.18837,-3.2125 c -0.2748,-4.68644 -0.75057,-6.29429 -2.3298,-7.87353 -1.70035,-1.70034 -5.4594,-1.85387 -7.65955,-0.31282 -3.38365,2.37 -3.44322,9.23381 -0.11683,13.46262 1.10029,1.3988 2.12983,1.87383 4.09639,1.89008 l 2.62673,0.0217 -5.35714,5.15965 c -9.9726,9.60495 -21.45992,17.0187 -29.13387,18.80257 -3.35025,0.77879 -5.02862,0.70017 -12.90108,-0.60434 -5.52842,-0.9161 -9.881,-1.29288 -11.18599,-0.96833 -1.20641,0.30003 -3.3798,1.94922 -4.99335,3.78898 -6.6919,7.63007 -6.99352,7.85992 -11.45309,8.7276 -7.51211,1.46159 -9.73078,2.67644 -17.11834,9.37327 -9.54304,8.65078 -12.07706,10.10463 -18.08916,10.37841 -2.62239,0.11942 -5.41084,0.0544 -6.19655,-0.14463 l 0,-10e-6 z m -97.7658,-11.41254 c 6.64137,-2.74141 9.55151,-6.75853 9.55151,-13.18478 0,-8.09565 -4.25837,-11.85695 -10.03935,-8.86749 -5.80348,3.00109 -10.38655,17.74299 -6.76142,21.74872 1.57689,1.74245 3.56199,1.82557 7.24926,0.30355 l 0,0 z m 105.83071,0.023 c 2.94047,-2.05958 4.61794,-6.48055 4.30769,-11.3529 -0.50762,-7.97192 -5.36415,-11.69131 -10.84376,-8.30473 -3.19798,1.97646 -4.66721,4.3087 -5.21027,8.27075 -1.13804,8.30293 6.11333,15.33239 11.74634,11.38688 l 0,0 z m -26.9701,-4.9649 c 2.25725,-1.16723 4.26233,-4.35367 4.26233,-6.77358 0,-2.09607 -1.89301,-5.53032 -3.53186,-6.4074 -2.25614,-1.20745 -5.5816,-0.86062 -7.07039,0.73741 -2.74291,2.94416 -2.65712,10.52123 0.14131,12.48133 1.90239,1.33249 3.56853,1.32235 6.19861,-0.0377 l 0,-5e-5 z m -16.60207,-11.70017 c 3.40506,-1.74116 6.14159,-4.29915 7.58474,-7.08989 4.52422,-8.74887 5.81794,-38.54433 2.15273,-49.57922 -2.37159,-7.1402 -8.74902,-11.2303 -16.00853,-10.2669 -7.77071,1.03123 -18.19693,8.42927 -23.81161,16.89578 -6.30831,9.51245 -7.73362,21.71393 -3.56314,30.50255 1.63651,3.44871 9.2855,11.5007 14.0277,14.76677 4.70291,3.23902 11.517,6.0867 14.61811,6.10908 1.29244,0.009 3.54244,-0.59285 5,-1.33817 l 0,0 z m -87.41264,-1.785 c 6.61211,-3.87581 12.53717,-14.51874 13.6733,-24.56076 0.59618,-5.26954 -0.49472,-9.25517 -3.32576,-12.15084 -3.02241,-3.09139 -6.09236,-3.10631 -9.57726,-0.0465 -2.73593,2.40219 -14.94005,19.44028 -16.0886,22.46122 -1.7837,4.69147 -0.2646,10.06712 3.87096,13.69819 3.32191,2.91667 7.15126,3.11696 11.44736,0.59872 l 0,-3e-5 z M 380.0159,466.4598 c 7.80268,-3.94445 13.12989,-11.48031 15.7756,-22.3161 1.31395,-5.38137 1.28315,-18.107 -0.0547,-22.61206 -4.14807,-13.96809 -16.04251,-15.68953 -26.95635,-3.90129 -5.77031,6.23264 -7.98947,11.16302 -8.30066,18.44187 -0.13772,3.2214 0.11945,8.63627 0.57147,12.03305 2.19083,16.46306 9.22991,23.27569 18.96465,18.35453 l 0,0 z m 47.75284,-2.63914 c 2.84611,-2.63768 2.84874,-8.60436 0.006,-12.35553 -3.56823,-4.70761 -8.16141,-1.79175 -8.69005,5.51667 -0.2871,3.96904 -0.16502,4.3893 1.86446,6.41879 2.62944,2.62943 4.32359,2.73378 6.82013,0.42007 l -2.5e-4,0 z M 123.05513,449.67941 c 2.79937,-2.89076 5.69248,-9.21918 9.00676,-19.70142 3.19437,-10.10302 4.21425,-17.59589 3.90775,-28.70961 -0.22574,-8.18503 -0.33864,-8.7628 -1.97024,-10.08253 -1.08307,-0.87605 -2.54987,-1.31962 -3.9196,-1.18533 -3.74284,0.36697 -5.11997,4.03003 -7.63875,20.31855 -1.63175,10.55227 -2.75389,15.55281 -4.38462,19.53891 -3.95263,9.66168 -4.7793,12.45164 -4.80293,16.2095 -0.0191,3.03895 0.26365,3.9105 1.56419,4.82143 2.64704,1.85407 5.70561,1.40497 8.23744,-1.2095 l 0,0 z M 413.73306,439.1437 c 2.15405,-4.12268 2.03171,-11.03025 -0.24972,-14.09945 -1.75125,-2.35595 -5.21746,-2.97707 -6.94928,-1.24525 -1.57263,1.57263 -1.78303,10.75853 -0.33373,14.57048 1.98832,5.22968 5.04087,5.54343 7.53273,0.77422 l 0,0 z m 31.76614,2.30111 c 2.93843,-1.93793 4.62521,-4.46787 6.32749,-9.49038 2.75644,-8.13275 1.30796,-20.93759 -3.00899,-26.6 -2.49705,-3.2753 -11.72119,-2.72442 -15.01537,0.89675 -5.46823,6.01102 -5.4994,22.56965 -0.0587,31.16956 3.23968,5.12083 7.75101,6.66511 11.75555,4.02407 l 3e-5,0 z m -295.92392,-6.32303 c 2.48934,-1.74361 3.6484,-5.29643 4.13258,-12.66744 0.56179,-8.55232 -0.10948,-13.00738 -2.28814,-15.18604 -2.41842,-2.41842 -4.77014,-2.16785 -7.36229,0.78445 -2.76966,3.15446 -3.67541,6.46533 -3.6804,13.45322 -0.009,11.95171 3.71174,17.4587 9.19825,13.61581 z m -39.36084,-1.1664 c 2.36783,-2.52045 3.82525,-6.75695 4.24816,-12.34879 0.34849,-4.6079 0.22945,-5.28674 -1.1731,-6.68929 -4.49736,-4.49736 -10.64925,4.87292 -9.9099,15.0943 0.18968,2.62238 0.69774,4.49283 1.32884,4.8922 1.75196,1.1087 3.9251,0.73437 5.506,-0.94842 l 0,0 z m -12.117214,-3.4694 c 2.900394,-2.9666 3.598424,-6.9513 1.768621,-10.09623 -1.95425,-3.3588 -4.725886,-3.5319 -6.352071,-0.3967 -1.615315,3.11425 -1.802693,11.05659 -0.283593,12.02041 1.725814,1.09497 2.55865,0.83359 4.867043,-1.52748 z m 373.749014,-1.36617 c 4.25178,-2.27548 5.89503,-14.44569 2.61063,-19.33477 -1.35356,-2.01486 -2.13525,-2.46403 -4.60271,-2.64474 -5.86818,-0.42977 -9.9364,3.34333 -9.29913,8.62453 0.50288,4.16755 3.20585,11.00932 5.0155,12.69527 1.65081,1.53796 4.14481,1.80013 6.27571,0.65971 z M 337.04193,414.67329 c 2.71502,-5.55667 -0.78416,-12.67245 -6.23167,-12.67245 -3.35923,0 -4.24656,1.73446 -3.87473,7.57391 0.36684,5.76114 2.37702,8.32358 6.27235,7.9956 2.11793,-0.17832 2.7326,-0.64277 3.83405,-2.89706 l 0,0 z m -148.73976,-0.63185 c 4.81358,-1.61881 11.96826,-7.13794 20.07364,-15.48483 9.01997,-9.28873 15.35419,-18.08236 20.20681,-28.0526 4.19638,-8.62193 4.87766,-12.3811 4.51501,-24.91313 -0.27112,-9.36945 -0.48484,-10.77757 -2.20361,-14.51878 -2.68259,-5.83912 -4.54444,-8.22212 -8.26994,-10.58476 -6.61999,-4.19827 -13.4617,-2.03792 -22.87238,7.22221 -9.99942,9.83947 -18.90816,22.1926 -22.87283,31.71617 -5.3281,12.79867 -8.16512,29.57263 -6.65,39.31827 1.93385,12.43901 8.93991,18.36901 18.0733,15.29745 z m 84.3773,-2.57631 c 8.20733,-8.67023 2.61684,-28.41742 -7.66357,-27.06987 -5.86982,0.76942 -8.48725,6.80207 -6.8094,15.69433 1.05545,5.59371 3.23243,9.58354 6.39019,11.71156 3.24769,2.18862 5.79309,2.0828 8.08278,-0.33602 l 0,0 z m 209.44728,-15.62228 c 4.57165,-1.7543 4.00063,-13.49015 -0.74415,-15.2941 -5.89004,-2.2394 -8.8439,9.54487 -3.53679,14.10985 2.02902,1.74529 2.48802,1.87227 4.28094,1.18425 z M 300.1487,387.37213 c 3.05993,-3.47487 2.68048,-13.06795 -0.65744,-16.621 -1.93723,-2.0621 -5.63273,-2.11229 -8.85587,-0.12028 -4.95391,3.06168 -5.6907,6.38576 -2.79435,12.60678 3.00104,6.44589 8.61236,8.33089 12.30766,4.1345 l 0,0 z m 108.80495,-1.64097 c 3.49005,-3.49006 4.99082,-8.47798 4.99082,-16.58746 0,-9.59675 -2.85827,-17.42721 -7.17634,-19.66017 -2.2803,-1.1792 -6.864,-1.38363 -9.40047,-0.41926 -2.89976,1.10249 -6.06936,5.03042 -7.3534,9.11271 -0.92798,2.9503 -1.15778,5.56035 -0.92296,10.48325 0.3846,8.0632 2.26608,12.80507 6.70383,16.89565 2.79697,2.57815 3.49482,2.87353 6.78884,2.87353 3.29491,0 3.94813,-0.27671 6.36968,-2.69825 l 0,0 z M 81.689051,383.90637 c 3.678239,-3.91531 6.014803,-16.34854 3.814653,-20.29839 -1.236521,-2.21988 -4.431018,-2.10363 -7.244373,0.26366 -3.637618,3.06085 -4.608555,5.63314 -4.642065,12.29819 -0.02844,5.65592 0.07061,6.0412 1.974177,7.67857 2.514988,2.1633 4.105546,2.17843 6.097608,0.058 l 0,-3e-5 z M 466.10272,382.8678 c 3.41896,-3.41897 4.5684,-7.43031 4.03493,-14.08125 -0.55915,-6.97096 -1.92622,-11.60546 -7.56515,-25.6465 -2.69711,-6.71585 -6.36899,-16.77313 -8.15973,-22.34951 -4.82694,-15.03111 -6.75186,-18.15021 -12.9683,-21.01368 -8.62738,-3.97401 -17.28327,0.56535 -19.70461,10.33357 -2.38905,9.63797 2.35447,32.89675 10.12298,49.63578 5.38204,11.59684 11.77161,18.64965 21.19694,23.3972 6.61629,3.33264 9.49552,3.2718 13.04294,-0.27561 l 0,0 z m -210.01684,-3.36621 c 7.70002,-3.98184 10.6244,-21.22844 4.618,-27.23484 -3.41475,-3.41475 -9.83256,-1.06394 -12.80902,4.69189 -1.60794,3.10943 -2.62729,10.45127 -2.09916,15.11927 0.8383,7.40963 4.79598,10.26484 10.29018,7.42368 z M 44.974631,378.90505 c 0.774484,-0.56631 1.521604,-2.37751 1.841519,-4.46428 0.640909,-4.18059 -0.579154,-7.19587 -3.175287,-7.84746 -5.501114,-1.38069 -7.129236,6.5892 -2.381447,11.65753 1.758885,1.87764 1.987127,1.91783 3.715215,0.65421 l 0,0 z m 15.416774,-3.95555 c 2.822741,-2.82273 3.306072,-5.23085 1.626936,-8.10592 -4.208617,-7.20615 -10.21673,-4.19467 -10.21673,5.12099 0,3.95058 0.889545,5.03627 4.126374,5.03627 1.703801,0 3.014442,-0.60236 4.46342,-2.05134 l 0,0 z m 427.179435,-1.46515 c 1.79114,-1.79114 2.08569,-2.62873 2.07223,-5.89285 -0.0292,-7.08466 -4.60267,-13.4478 -9.66551,-13.4478 -3.23755,0 -4.71012,2.2696 -4.75559,7.32953 -0.0601,6.68977 4.34782,14.09904 8.38783,14.09904 1.11792,0 2.71494,-0.84181 3.96104,-2.08792 l 0,0 z m -126.96368,-6.13997 c 5.08168,-2.51273 10.98707,-8.68029 13.80386,-14.41669 l 2.03345,-4.14114 -0.10461,-14.28571 c -0.17946,-24.50821 -3.77448,-44.74522 -10.15118,-57.14286 -3.73187,-7.25553 -11.1595,-14.3965 -19.03199,-18.29748 -5.36754,-2.65972 -6.84849,-3.07093 -12.04119,-3.34348 -4.68404,-0.24585 -6.432,-0.0491 -8.36741,0.94153 -9.92198,5.07888 -19.60091,19.12385 -24.71588,35.8649 -1.68379,5.51098 -1.91941,7.50687 -1.96211,16.62025 -0.0528,11.27119 0.70767,15.14923 4.76228,24.28571 6.02147,13.56852 17.62072,26.31698 29.38347,32.29467 6.92007,3.5167 9.50798,4.14127 16.15719,3.89943 4.97044,-0.18078 6.82629,-0.59407 10.23412,-2.27913 l 0,0 z m -75.23522,-7.23713 c 2.45039,-2.79083 2.75192,-5.5455 0.98898,-9.03474 -2.49977,-4.94758 -5.65504,-7.29157 -8.4069,-6.24531 -4.33946,1.64985 -5.50018,11.49737 -1.82182,15.45625 3.40891,3.6689 5.9055,3.6213 9.23974,-0.1762 l 0,0 z M 40.738754,353.60798 c 4.279777,-4.2264 8.21376,-15.61414 8.194777,-23.7215 -0.01197,-5.10936 -0.283455,-5.83407 -2.652977,-7.08171 -3.839102,-2.02143 -6.431452,0.73431 -7.97889,8.48178 -1.243755,6.22705 -2.928077,22.02745 -2.474207,23.21021 0.635645,1.65647 2.714947,1.28019 4.911297,-0.88878 z m 96.364496,-5.24815 c 0.61981,-1.54905 1.12693,-3.48497 1.12693,-4.30202 0,-2.17888 -4.58063,-6.50113 -6.58791,-6.21631 -1.43012,0.20293 -1.65289,0.69653 -1.84609,4.09066 -0.24533,4.31018 0.78195,7.48817 2.90016,8.97182 1.96879,1.37898 3.09804,0.72706 4.40691,-2.54415 l 0,0 z m -55.066774,1.23813 c 5.585914,-2.33394 8.195943,-8.26255 11.175557,-25.38496 1.134643,-6.52026 3.515793,-18.61972 5.291443,-26.8877 3.920974,-18.25727 4.460684,-22.93284 3.297034,-28.56251 -0.73744,-3.56771 -1.43241,-4.81462 -4.266449,-7.65481 -3.848728,-3.85708 -6.592414,-4.40363 -9.983742,-1.9888 -6.80457,4.84529 -16.607263,41.17431 -17.64199,65.38166 -0.622743,14.56903 1.696566,22.66506 7.176324,25.05045 2.748811,1.19659 2.211821,1.19152 4.951823,0.0466 l 0,3e-5 z m 66.445204,-3.39323 c 2.44055,-1.112 4.3599,-7.33969 4.37757,-14.20389 0.0131,-5.07274 -0.0747,-5.36967 -1.65226,-5.59311 -0.91632,-0.12978 -2.27566,0.31572 -3.02074,0.99001 -3.66267,3.31467 -5.86224,17.15971 -2.99178,18.8316 1.55843,0.90771 1.23568,0.91012 3.28721,-0.0246 l 0,3e-5 z m 18.07293,-7.41788 c 3.60249,-3.75977 8.83735,-14.2655 10.52249,-21.11736 1.34444,-5.46656 1.43003,-7.38796 0.41367,-9.28704 -3.76115,-7.02776 -18.81928,13.22543 -19.81016,26.64465 -0.41036,5.55737 0.32419,6.97374 3.61662,6.97374 1.64865,0 2.92612,-0.78096 5.25738,-3.21399 z m -106.14959,-3.2317 c 3.173336,-1.69832 4.791137,-17.11051 2.132354,-20.31415 -4.221919,-5.0871 -10.381589,8.90638 -7.927599,18.00984 0.688674,2.55474 1.104329,3.03571 2.623469,3.03571 0.992827,0 2.420127,-0.32912 3.171776,-0.7314 z m -34.939007,-4.78182 c 4.222978,-3.9501 5.621313,-6.36248 5.621313,-9.69774 0,-3.3886 -2.140411,-5.16509 -6.11867,-5.07835 -3.734554,0.0814 -5.109755,1.09996 -6.881914,5.09703 -1.888616,4.25974 -2.019459,9.62491 -0.281568,11.5456 2.038793,2.25323 3.685352,1.85206 7.660839,-1.86654 l 0,0 z m 234.905837,1.22836 c 5.08069,-3.61777 6.96679,-14.52876 3.16813,-18.32742 -4.75503,-4.75503 -11.98968,2.07884 -12.93668,12.22002 -0.3981,4.26314 -0.30367,4.66951 1.50556,6.47874 2.21639,2.21638 4.79138,2.10066 8.26299,-0.37134 l 0,0 z m -65.64015,-4.48916 c 5.79566,-3.89513 3.61514,-14.29297 -2.50908,-11.96454 -3.62019,1.37639 -6.08915,9.96838 -3.58427,12.47326 1.548,1.548 3.24375,1.40643 6.09335,-0.50872 z m 207.02794,-2.2757 c 2.54672,-1.31696 3.6134,-4.30257 3.6134,-10.11384 0,-5.43961 -1.59287,-9.77611 -4.29865,-11.70279 -1.97468,-1.4061 -5.22489,-1.83146 -7.45506,-0.97566 -4.66786,1.79123 -4.67837,17.47487 -0.0149,22.13841 1.97305,1.97305 5.11672,2.22511 8.15514,0.65388 l 3e-5,0 z m 73.36761,-1.45077 c 2.556,-1.06796 2.56425,-1.08576 2.2363,-4.82143 -0.21662,-2.46742 -1.38307,-5.90053 -3.41133,-10.04026 -3.91193,-7.98432 -6.17722,-10.49496 -9.46934,-10.49496 -3.69652,0 -5.08533,1.98474 -5.40972,7.73104 -0.33688,5.96753 1.8573,11.44622 6.31777,15.77495 3.34925,3.25035 5.43675,3.64713 9.73632,1.85066 z m -329.29197,-2.11764 c 3.25916,-2.28281 5.0874,-10.97126 3.09282,-14.69817 -1.28481,-2.40068 -3.41254,-3.08424 -5.44833,-1.75033 -3.85641,2.52681 -5.26153,11.89981 -2.3406,15.61316 1.69201,2.15105 2.58968,2.31073 4.69611,0.83534 z M 32.886525,311.56165 c 2.240938,-2.41802 4.099001,-7.46443 6.018698,-16.34652 3.062561,-14.16992 5.920424,-24.45395 9.329276,-33.57143 5.162656,-13.8083 5.953438,-17.0327 6.013587,-24.5203 0.04718,-5.87344 -0.115787,-6.78727 -1.375046,-7.71042 -0.834874,-0.61203 -2.170694,-0.87827 -3.214286,-0.64061 -4.635335,1.05561 -13.970987,15.29129 -17.57517,26.7999 -5.736823,18.31839 -8.090195,46.80653 -4.620517,55.93248 0.945559,2.487 3.149879,2.51013 5.423458,0.0569 l 0,-3e-5 z M 133.71986,308.3049 c 1.91907,-1.80287 2.17317,-4.96774 0.53073,-6.61018 -1.42274,-1.42274 -3.12599,-1.42622 -5.14719,-0.0105 -1.92617,1.34914 -2.13884,4.95208 -0.40537,6.86754 1.55685,1.72029 3.00361,1.64918 5.02183,-0.24683 l 0,-3e-5 z m 110.60209,-8.28634 c 12.2519,-6.29904 15.4859,-15.89612 7.46405,-22.15002 -6.07079,-4.73284 -11.44443,-4.91276 -16.75518,-0.56101 -4.89438,4.01058 -5.64122,5.94558 -5.16023,13.36973 0.53373,8.23818 1.69169,10.35509 6.21674,11.36497 2.15917,0.48187 4.46197,-0.084 8.23462,-2.02367 l 0,0 z m -125.33886,-3.63347 c 2.62196,-2.72024 3.98444,-5.10216 6.28668,-10.99054 2.76896,-7.08207 5.06909,-15.12465 5.09271,-17.80697 0.0278,-3.15557 -5.1344,-4.52995 -9.13205,-2.43133 -2.40423,1.26213 -6.56797,5.65482 -8.61232,9.08588 -3.46341,5.81269 -5.83646,22.45304 -3.53078,24.75871 0.47142,0.47143 2.13766,0.85714 3.70274,0.85714 2.46878,0 3.28887,-0.45989 6.19302,-3.47289 l 0,0 z m -54.897695,-3.77031 c 3.256985,-2.31918 4.432854,-5.72138 3.426822,-9.91499 -1.025592,-4.27515 -2.957024,-6.41324 -5.793376,-6.41324 -6.262941,0 -10.149245,12.1291 -5.489047,17.13123 1.752053,1.88061 4.478165,1.60195 7.855601,-0.803 l 0,0 z m 129.306365,0.84085 c 2.649,-2.08371 5.07569,-8.23108 4.61248,-11.68454 -0.49704,-3.70571 -1.98769,-5.09493 -5.46699,-5.09493 -5.23949,0 -9.20653,4.75784 -9.27276,11.12121 -0.0474,4.55496 1.95251,7.06061 5.63549,7.06061 1.61052,0 3.43188,-0.56863 4.49178,-1.40235 l 0,0 z m -30.36491,-11.52925 c 4.03154,-1.95163 9.7196,-8.41496 15.6497,-17.78268 6.6805,-10.55313 19.58386,-27.14286 21.1115,-27.14286 1.5858,0 4.45565,13.47624 5.98793,28.1182 1.31756,12.59009 1.36197,12.73704 3.76552,12.45904 l 1.90297,-0.2201 -0.0761,-10.35714 c -0.11954,-16.25821 -2.909,-27.33486 -13.48969,-53.56608 -10.07994,-24.98978 -11.89473,-32.93791 -9.32641,-40.84636 2.37121,-7.3015 6.13956,-10.28671 10.28152,-8.14482 4.32084,2.23439 7.8551,8.54734 17.64542,31.5185 10.85485,25.46889 14.86632,32.14184 23.15744,38.52171 4.16435,3.2044 4.20376,3.26856 3.19509,5.20216 -1.21337,2.32599 -1.33106,8.99576 -0.26089,14.78487 1.86717,10.10046 9.88095,16.26299 19.65469,15.11428 8.51006,-1.00019 14.3838,-6.43157 17.11479,-15.82586 2.34037,-8.05057 0.27305,-16.05194 -5.1032,-19.75152 -5.72535,-3.93981 -12.1117,-4.75781 -23.32639,-2.98778 -3.90245,0.61593 -5.65574,-0.0506 -9.70118,-3.68775 -4.42594,-3.97931 -7.96361,-8.71341 -10.83304,-14.49679 l -2.16873,-4.3711 16.34143,-16.26745 c 18.71456,-18.62982 19.60087,-19.9586 18.02117,-27.01745 -1.88504,-8.42325 -6.31969,-10.69595 -20.76873,-10.64367 -10.9208,0.0395 -13.70801,0.67081 -25.59503,5.79722 -7.00803,3.02228 -7.46793,3.1259 -9.10715,2.05185 -2.19254,-1.43661 -2.1713,-1.76011 0.41647,-6.3454 4.6367,-8.21579 1.83428,-12.3252 -6.86073,-10.06044 -5.26128,1.37039 -9.10018,3.41852 -12.80044,6.8293 -4.43137,4.08469 -5.37373,7.37321 -5.8559,20.43514 l -0.40183,10.88543 -6.80276,9.11457 c -18.71154,25.07039 -27.49203,42.85563 -29.48016,59.71327 -1.63871,13.89488 1.65872,24.58478 8.98753,29.13653 2.77593,1.72405 4.90323,1.68338 8.72524,-0.16682 l 0,0 z M 66.193357,267.97631 c 2.409059,-2.18017 3.542512,-6.66335 3.318479,-13.12568 l -0.210225,-6.06408 -2.937788,-0.21485 c -6.046585,-0.44222 -9.794565,5.46447 -9.418233,14.84282 0.199431,4.96988 0.328215,5.34564 1.998879,5.83216 2.417315,0.70393 5.703715,0.128 7.248888,-1.27037 l 0,0 z M 91.14369,241.28655 c 0.359593,0 1.940443,-1.1624 3.513007,-2.58311 3.123,-2.82145 3.550029,-4.72334 1.814193,-8.08009 -1.202679,-2.32572 -2.371521,-2.90822 -5.835571,-2.90822 -2.152508,0 -2.613993,0.32539 -3.513015,2.47705 -1.504793,3.60149 -1.378057,10.10859 0.215022,11.03967 0.6875,0.40181 1.678071,0.5785 2.201278,0.39263 0.5232,-0.18585 1.245486,-0.33793 1.605086,-0.33793 l 0,0 z m 312.80078,-7.78821 c 3.01367,-2.09591 4.41856,-5.60444 4.05251,-10.12064 -0.59987,-7.4011 -5.26188,-13.51972 -10.30118,-13.51972 -2.10752,0 -3.11502,0.57127 -5.62217,3.18788 -3.60543,3.76284 -4.36385,6.66539 -3.1087,11.89739 1.4861,6.19478 7.30986,11.21464 11.76525,10.14119 0.78572,-0.1893 2.23215,-0.90305 3.21429,-1.5861 z m -94.08068,-7.85244 c 3.74718,-1.81397 5.19866,-4.4835 4.49044,-8.25865 -0.70696,-3.7684 -4.59084,-8.41872 -8.03607,-9.62188 -2.6242,-0.91643 -3.26352,-0.89157 -6.23263,0.24234 -7.7849,2.97309 -10.64971,13.73949 -4.87384,18.31666 1.67657,1.32862 2.60621,1.4968 6.69176,1.21058 2.8035,-0.1964 6.06033,-0.96927 7.96034,-1.88905 l 0,0 z M 78.713829,222.17941 c 5.781711,-5.99312 13.081861,-15.26418 23.481781,-29.82143 16.20887,-22.68831 27.78362,-36.2454 41.95827,-49.1442 10.59571,-9.642 14.01909,-13.24313 15.22112,-16.01143 1.39021,-3.20165 1.25981,-4.29039 -0.75521,-6.3054 -3.77522,-3.77523 -13.53628,-1.56058 -25.8947,5.87516 -14.88194,8.95408 -33.013379,25.34825 -42.121764,38.08587 -11.89458,16.63397 -19.074018,33.16131 -20.944727,48.21555 -0.78123,6.28681 -0.517413,8.89701 1.173027,11.60588 1.604957,2.57189 3.599526,1.93927 7.882203,-2.5 l 0,0 z m 33.460081,-8.86083 c 6.40122,-7.08539 12.61339,-26.31774 8.50079,-26.31774 -4.00607,0 -16.47362,24.94154 -14.25887,28.52508 0.9462,1.531 3.14076,0.68972 5.75808,-2.20734 z m 235.43282,1.73221 c 2.52983,-0.81704 4.95565,-2.32969 7.15928,-4.46429 2.98492,-2.89138 3.38644,-3.6633 3.84507,-7.3921 1.10137,-8.95467 -1.23648,-15.22914 -8.66313,-23.25061 -7.46377,-8.06157 -15.53571,-11.1684 -24.31115,-9.35718 -11.2054,2.31277 -16.55871,8.83866 -15.81196,19.2754 0.78396,10.95684 9.05232,21.61754 19.72261,25.42906 3.81863,1.36405 13.49022,1.23536 18.05928,-0.24028 l 0,0 z m -211.92616,-4.92828 c 5.1697,-5.02075 24.7275,-31.94056 28.05204,-38.61148 4.8154,-9.66243 5.03707,-15.93876 0.56294,-15.93876 -4.08859,0 -19.07085,12.83263 -28.35387,24.28571 -2.70658,3.33929 -6.19195,8.64286 -7.74528,11.78572 -7.80732,15.79668 -2.71087,28.3801 7.48417,18.47881 l 0,0 z m 140.91366,1.18939 c 3.19936,-1.95075 5.35053,-6.53768 5.76341,-12.28928 0.4278,-5.95935 -0.10138,-8.11952 -2.34993,-9.59283 -5.14621,-3.37193 -14.63467,4.54701 -14.63467,12.21391 0,2.77301 2.0816,7.43874 4.31535,9.67249 1.77381,1.77381 3.99189,1.77244 6.90584,-0.004 l 0,0 z M 55.451181,201.60329 c 2.992438,-1.54745 7.670825,-5.89277 8.896672,-8.2633 3.465862,-6.70224 -2.636725,-11.30661 -8.777654,-6.62269 -6.358755,4.85005 -8.5415,11.53005 -4.743688,14.51741 2.24956,1.76951 1.960176,1.74644 4.62467,0.36858 l 0,0 z m 23.211668,-23.50257 c 3.699086,-4.19591 9.53422,-15.49571 10.065905,-19.49274 0.396457,-2.98043 0.365193,-3.03571 -1.716814,-3.03571 -3.061471,0 -9.355722,4.78726 -12.821209,9.75151 -5.327155,7.63105 -7.297502,12.75037 -5.907247,15.34808 0.689465,1.28828 1.268912,1.44663 4.12443,1.12713 2.84898,-0.31877 3.740055,-0.84563 6.254935,-3.69827 l 0,0 z M 298.23018,163.03358 c 4.81616,-1.37331 9.78802,-7.7113 8.88173,-11.32221 -0.59064,-2.35331 -4.95817,-6.77916 -7.90479,-8.01033 -6.98461,-2.91836 -14.0713,1.84589 -14.10874,9.48501 -0.0167,3.41653 3.72811,8.99105 6.72999,10.01816 2.44571,0.83682 2.91233,0.82437 6.40181,-0.17063 z m -149.80696,-2.99703 c 3.10483,-2.37682 7.66411,-9.76947 7.66411,-12.42699 0,-1.54449 -0.4107,-2.01399 -2.08309,-2.38131 -3.08766,-0.67816 -7.53207,0.79128 -10.30601,3.40745 -3.47601,3.27829 -4.4657,7.49003 -2.9308,12.47228 0.50157,1.6281 4.94102,1.0068 7.65579,-1.07143 z m 117.33316,-13.51228 c 9.00346,-3.06779 14.73477,-14.53446 9.59125,-19.18928 -2.37947,-2.15339 -9.83761,-1.13651 -17.29483,2.35806 -7.63217,3.57655 -9.82262,5.60508 -9.82262,9.09651 0,7.57262 7.84325,11.03402 17.5262,7.73471 l 0,0 z M 89.32219,134.61185 c 3.536893,-5.04962 -3.874721,-11.25687 -8.234864,-6.89672 -1.456282,1.45627 -1.675775,3.2424 -0.789807,6.42707 0.840351,3.0207 7.01285,3.34192 9.024671,0.46965 l 0,0 z M 126.62208,124.57 c 2.25946,-1.72982 7.32239,-4.97259 11.25096,-7.20616 3.92857,-2.23357 7.54961,-4.45078 8.04674,-4.92713 1.0063,-0.96421 0.99142,-0.98637 -8.49724,-12.65927 -6.19504,-7.621093 -11.60443,-15.728321 -14.13072,-21.178158 -1.64824,-3.555643 -3.50365,-5.061332 -5.05524,-4.102393 -0.9243,0.571249 -0.9165,5.946913 0.0166,11.432522 1.67485,9.846508 2.04396,18.634869 1.23983,29.520269 -0.69044,9.34642 -0.65909,11.04359 0.21419,11.5962 1.74421,1.10375 2.67417,0.77078 6.9149,-2.47588 l 1e-5,0 z m -45.236031,-9.4313 c 1.822077,-0.69919 1.329427,-3.18867 -1.974068,-9.97542 -3.610574,-7.417611 -4.710751,-8.617711 -6.850425,-7.47259 -2.165906,1.159157 -1.846547,3.86627 1.091325,9.25083 2.086353,3.82389 5.6721,8.63075 6.438233,8.63075 0.0908,0 0.673518,-0.1951 1.294935,-0.43357 l 0,0 z m 24.267711,-4.982 c 1.59947,-4.16814 -1.02753,-10.298717 -4.41308,-10.298717 -2.561269,0 -3.724783,1.174907 -3.724783,3.761247 0,2.1803 0.927257,4.38216 2.702493,6.41732 1.3671,1.56728 4.85051,1.64428 5.43537,0.12015 l 0,0 z"
       id="path2985"
       inkscape:connector-curvature="0"
       transform="translate(0,540.36218)" />
  </g>
</svg>
