<?xml version="1.0" encoding="UTF-8" standalone="no"?>
<!-- Generator: Adobe Illustrator 19.0.0, SVG Export Plug-In . SVG Version: 6.00 Build 0)  -->

<svg
   version="1.1"
   id="Layer_1"
   x="0px"
   y="0px"
   viewBox="0 0 381.174 381.174"
   style="enable-background:new 0 0 381.174 381.174;"
   xml:space="preserve"
   sodipodi:docname="gear-grey.svg"
   inkscape:version="1.1.2 (0a00cf5339, 2022-02-04)"
   xmlns:inkscape="http://www.inkscape.org/namespaces/inkscape"
   xmlns:sodipodi="http://sodipodi.sourceforge.net/DTD/sodipodi-0.dtd"
   xmlns="http://www.w3.org/2000/svg"
   xmlns:svg="http://www.w3.org/2000/svg"><defs
   id="defs49">
	

		
		
		
		
		
	</defs><sodipodi:namedview
   id="namedview47"
   pagecolor="#ffffff"
   bordercolor="#666666"
   borderopacity="1.0"
   inkscape:pageshadow="2"
   inkscape:pageopacity="0.0"
   inkscape:pagecheckerboard="0"
   showgrid="false"
   inkscape:zoom="0.42237927"
   inkscape:cx="465.2217"
   inkscape:cy="246.22421"
   inkscape:window-width="2560"
   inkscape:window-height="1367"
   inkscape:window-x="0"
   inkscape:window-y="0"
   inkscape:window-maximized="1"
   inkscape:current-layer="Layer_1" />
<path
   d="M 210.40376,80.091962 C 147.8812,69.405219 88.541338,111.42947 77.852709,173.94262 67.165962,236.46515 109.19021,295.8069 171.70336,306.49365 234.22589,317.18039 293.56764,275.15616 304.2544,212.643 314.94114,150.12046 272.91689,90.778709 210.40376,80.091962 Z m 29.27657,121.516108 c -4.58677,26.85615 -30.08589,44.90578 -56.94204,40.31903 -26.85614,-4.58676 -44.90579,-30.08588 -40.31904,-56.94202 4.58677,-26.85615 30.08589,-44.9058 56.94204,-40.31903 26.85614,4.58675 44.9152,30.08399 40.31904,56.94202 z"
   id="path2"
   style="stroke-width:1.88212;fill:#8f8f8f;fill-opacity:1" /><path
   d="m 279.21827,335.70059 c 18.05906,-11.1874 33.91979,-25.72876 46.66935,-42.9785 l 17.41349,12.85496 c 12.29596,-16.65122 21.7104,-35.09612 27.97412,-54.84157 l -20.65074,-6.56299 c 2.33196,-7.33279 4.36466,-14.83121 5.69532,-22.63641 2.33196,-13.64545 2.74604,-27.14599 1.80121,-40.35855 l 21.61441,-1.55089 c -1.485,-20.62253 -6.32209,-40.75192 -14.39644,-59.85179 l -19.9186,8.42253 c -8.31714,-19.6777 -20.31385,-37.563594 -35.2881,-52.73169 l 15.3902,-15.19634 C 310.95291,45.515314 294.1944,33.354858 275.72127,24.113589 l -9.6271,19.254213 C 251.6789,36.159235 236.00828,30.879854 219.30812,28.026542 l 3.61369,-21.1608122 c -20.46819,-3.498884 -41.16788,-3.632516 -61.50996,-0.41407 l 3.3916,21.3546722 c -21.32644,3.382192 -41.52359,10.80344 -59.65982,21.644521 L 94.061631,30.919379 C 76.301832,41.53837 60.506977,54.884569 47.093022,70.583434 L 63.571089,84.64296 C 49.965155,100.58274 39.267116,119.19892 32.329576,139.87037 L 11.77481,132.97988 c -3.0942255,9.22245 -5.4920615,18.79122 -7.1408095,28.43713 -1.821904,10.64911 -2.7366202,21.4902 -2.7272096,32.21459 L 23.562604,193.609 c 0.01883,21.77816 4.287497,42.82415 12.151046,62.28163 l -20.082351,8.11388 c 7.737446,19.14693 18.491949,36.82016 31.964252,52.50961 l 16.314322,-13.99178 c 13.750858,16.02636 30.586531,29.47796 49.754157,39.45138 l -9.964,19.12811 c 17.36456,9.03988 36.03154,15.30362 55.48714,18.62747 0.99188,0.17315 1.97623,0.32748 2.96813,0.48182 l 3.30502,-21.33586 c 21.74991,3.36338 43.20058,2.47689 63.44668,-2.22656 l 4.85778,20.94061 c 20.11059,-4.66392 39.24057,-12.567 56.84604,-23.48337 z M 168.92909,322.76845 C 97.426881,310.54965 49.359108,242.67056 61.587321,171.16646 73.806124,99.664257 141.68522,51.605895 213.18931,63.824697 284.69152,76.043505 332.75929,143.9226 320.53107,215.42668 c -12.2301,71.5022 -80.09978,119.56057 -151.60198,107.34177 z"
   id="path8"
   style="stroke-width:1.88212;fill-opacity:1;fill:#969696" />
<g
   id="g16"
   transform="matrix(1.8821322,0,0,1.8821322,-9.9393494,-62.172763)">
</g>
<g
   id="g18"
   transform="matrix(1.8821322,0,0,1.8821322,-9.9393494,-62.172763)">
</g>
<g
   id="g20"
   transform="matrix(1.8821322,0,0,1.8821322,-9.9393494,-62.172763)">
</g>
<g
   id="g22"
   transform="matrix(1.8821322,0,0,1.8821322,-9.9393494,-62.172763)">
</g>
<g
   id="g24"
   transform="matrix(1.8821322,0,0,1.8821322,-9.9393494,-62.172763)">
</g>
<g
   id="g26"
   transform="matrix(1.8821322,0,0,1.8821322,-9.9393494,-62.172763)">
</g>
<g
   id="g28"
   transform="matrix(1.8821322,0,0,1.8821322,-9.9393494,-62.172763)">
</g>
<g
   id="g30"
   transform="matrix(1.8821322,0,0,1.8821322,-9.9393494,-62.172763)">
</g>
<g
   id="g32"
   transform="matrix(1.8821322,0,0,1.8821322,-9.9393494,-62.172763)">
</g>
<g
   id="g34"
   transform="matrix(1.8821322,0,0,1.8821322,-9.9393494,-62.172763)">
</g>
<g
   id="g36"
   transform="matrix(1.8821322,0,0,1.8821322,-9.9393494,-62.172763)">
</g>
<g
   id="g38"
   transform="matrix(1.8821322,0,0,1.8821322,-9.9393494,-62.172763)">
</g>
<g
   id="g40"
   transform="matrix(1.8821322,0,0,1.8821322,-9.9393494,-62.172763)">
</g>
<g
   id="g42"
   transform="matrix(1.8821322,0,0,1.8821322,-9.9393494,-62.172763)">
</g>
<g
   id="g44"
   transform="matrix(1.8821322,0,0,1.8821322,-9.9393494,-62.172763)">
</g>
</svg>
