<?xml version="1.0" encoding="UTF-8" standalone="no"?>
<!-- Created with Inkscape (http://www.inkscape.org/) -->

<svg
   xmlns:dc="http://purl.org/dc/elements/1.1/"
   xmlns:cc="http://creativecommons.org/ns#"
   xmlns:rdf="http://www.w3.org/1999/02/22-rdf-syntax-ns#"
   xmlns:svg="http://www.w3.org/2000/svg"
   xmlns="http://www.w3.org/2000/svg"
   xmlns:sodipodi="http://sodipodi.sourceforge.net/DTD/sodipodi-0.dtd"
   xmlns:inkscape="http://www.inkscape.org/namespaces/inkscape"
   width="744"
   height="744"
   id="svg2"
   version="1.1"
   inkscape:version="0.48.4 r9939"
   sodipodi:docname="ic_action_arbre_phylogenetique.svg"
   inkscape:export-filename="/media/Doc_3/Dev/INRIA-Git/doris-android/DorisAndroid/images_source/ic_action_arbre_phylogenetique.png"
   inkscape:export-xdpi="50"
   inkscape:export-ydpi="50">
  <defs
     id="defs4" />
  <sodipodi:namedview
     id="base"
     pagecolor="#ffffff"
     bordercolor="#666666"
     borderopacity="1.0"
     inkscape:pageopacity="0.0"
     inkscape:pageshadow="2"
     inkscape:zoom="0.69999999"
     inkscape:cx="144.44339"
     inkscape:cy="407.15504"
     inkscape:document-units="px"
     inkscape:current-layer="layer1"
     showgrid="false"
     inkscape:window-width="1366"
     inkscape:window-height="745"
     inkscape:window-x="0"
     inkscape:window-y="0"
     inkscape:window-maximized="1"
     width="744px" />
  <metadata
     id="metadata7">
    <rdf:RDF>
      <cc:Work
         rdf:about="">
        <dc:format>image/svg+xml</dc:format>
        <dc:type
           rdf:resource="http://purl.org/dc/dcmitype/StillImage" />
        <dc:title></dc:title>
      </cc:Work>
    </rdf:RDF>
  </metadata>
  <g
     inkscape:label="Calque Normal"
     inkscape:groupmode="layer"
     id="layer1"
     transform="translate(0,-308.36218)"
     style="display:none">
    <path
       style="fill:#808080;fill-opacity:1"
       d="m 110.50235,959.71822 c -1.57143,-0.6469 -4.14285,-2.605 -5.71428,-4.3515 -2.81416,-3.1276 -2.8629,-5.4618 -3.23961,-155.15389 -0.42282,-168.01655 -0.82931,-160.13468 8.46007,-164.04056 3.71364,-1.56147 14.40253,-1.78972 54.81961,-1.1706 l 50.20648,0.76906 0.94465,-31.28292 c 0.51956,-17.2056 0.94622,-39.79063 0.94815,-50.18894 0.003,-18.8788 0.01,-18.91276 4.18025,-23.57143 l 4.17674,-4.6654 45.82326,0.5051 45.82325,0.5051 0.009,-28.36224 c 0.0118,-44.33991 -0.37485,-43.77192 30.49401,-44.79082 l 21.64027,-0.71428 0.71429,-21.04291 c 0.70167,-20.67143 0.78421,-21.11276 4.67515,-25 l 3.96088,-3.95709 99.8737,0 99.8737,0 4.37971,4.19584 c 5.98611,5.7348 6.0659,13.15732 0.21187,19.71019 l -4.16784,4.6654 -90.14113,0.39836 -90.14113,0.39837 0.3804,38.17306 0.3804,38.17306 102.62424,0.71429 102.62425,0.71428 3.44718,4.00824 c 4.67582,5.43683 4.67557,13.69007 -5.5e-4,19.12639 l -3.44773,4.00823 -112.94837,0 -112.94838,0 -3.96102,-3.95611 c -3.93299,-3.92809 -3.9661,-4.12031 -4.67533,-27.14285 l -0.71429,-23.18675 -10.3778,-0.42015 c -7.5355,-0.30507 -10.53714,0.0862 -10.9596,1.42857 -0.31998,1.0168 -0.8902,22.90229 -1.26714,48.63443 l -0.68534,46.78572 114.64605,0 c 78.06699,0 116.05139,0.4899 119.05067,1.53546 12.04483,4.19885 12.1739,23.8612 0.17866,27.21671 -1.89346,0.52966 -58.58828,1.02711 -125.98853,1.10543 -133.52111,0.15516 -129.41568,0.39543 -134.843,-7.89163 -2.28064,-3.48236 -2.55448,-6.55293 -2.16368,-24.26141 l 0.44743,-20.27445 -14.73315,-0.95164 c -8.10323,-0.52341 -24.05457,-0.74876 -35.44743,-0.50077 l -20.71428,0.45087 -0.36866,83.21429 -0.36866,83.21428 9.29723,0 9.29723,0 0.003,-28.92857 c 0.003,-31.66196 1.11641,-36.94943 8.56921,-40.67336 4.88459,-2.44067 326.60005,-2.66361 331.94117,-0.23003 1.92732,0.87815 4.6526,3.72909 6.05622,6.33543 3.33961,6.20129 1.54011,14.1181 -4.17316,18.35963 -4.02827,2.99062 -4.20986,2.99449 -158.35876,3.37626 l -154.32587,0.3822 0.50163,46.99934 c 0.2759,25.84964 0.84149,47.33894 1.25689,47.754 0.41538,0.41506 8.77253,0.86716 18.57143,1.00466 l 17.81617,0.25 0.71428,-18.59753 c 0.80189,-20.8785 1.89952,-23.40877 11.28559,-26.01604 7.19974,-1.99996 235.42876,-1.95865 241.00124,0.0436 12.21839,4.39023 12.53404,23.88126 0.44153,27.26398 -1.89346,0.52966 -52.78193,1.02712 -113.0855,1.10543 l -109.6435,0.14246 0,37.85714 0,37.85711 122.5,0 c 113.76433,10e-4 122.85644,0.1804 127.49836,2.5 9.32123,4.6581 11.02251,16.2134 3.43643,23.3408 l -3.66433,3.4427 -134.83875,0.3786 -134.83874,0.3785 -4.68934,-4.1867 -4.68934,-4.1867 -0.44616,-25.7304 -0.44616,-25.73043 -29.16713,-0.46141 -29.16713,-0.46142 -3.95814,-3.95715 c -3.94943,-3.94845 -3.95914,-4.00738 -4.41358,-26.78572 l -0.45545,-22.8292 -19.87917,0 -19.87915,0 -4.6654,-4.1664 -4.66539,-4.1664 -0.44111,-39.40503 -0.44112,-39.40503 -28.98228,0 c -15.94025,0 -34.86674,-0.41768 -42.05887,-0.9282 l -13.07661,-0.92821 0,133.78536 0,133.78534 224.33159,0 c 248.979,0 232.3188,-0.6609 236.5151,9.3823 2.68348,6.4225 1.60698,12.0137 -3.17864,16.5097 l -3.6123,3.3937 -235.95645,0.2732 c -129.77605,0.1503 -237.24217,-0.256 -238.8136,-0.9028 z"
       id="path3032"
       inkscape:connector-curvature="0" />
  </g>
  <g
     inkscape:groupmode="layer"
     id="layer2"
     inkscape:label="CalqueLight"
     style="display:inline">
    <path
       style="fill:#404040;fill-opacity:1"
       d="m 111.06198,651.2884 c -1.57143,-0.6469 -4.14285,-2.605 -5.71428,-4.3515 -2.81416,-3.1276 -2.8629,-5.4618 -3.23961,-155.15389 -0.42282,-168.01655 -0.82931,-160.13468 8.46007,-164.04056 3.71364,-1.56147 14.40253,-1.78972 54.81961,-1.1706 l 50.20648,0.76906 0.94465,-31.28292 c 0.51956,-17.2056 0.94622,-39.79063 0.94815,-50.18894 0.003,-18.8788 0.01,-18.91276 4.18025,-23.57143 l 4.17674,-4.6654 45.82326,0.5051 45.82325,0.5051 0.009,-28.36224 c 0.0118,-44.33991 -0.37485,-43.77192 30.49401,-44.79082 l 21.64027,-0.71428 0.71429,-21.04291 c 0.70167,-20.67143 0.78421,-21.11276 4.67515,-25.000003 l 3.96088,-3.95709 99.8737,0 99.8737,0 4.37971,4.19584 c 5.98611,5.734803 6.0659,13.157323 0.21187,19.710193 l -4.16784,4.6654 -90.14113,0.39836 -90.14113,0.39837 0.3804,38.17306 0.3804,38.17306 102.62424,0.71429 102.62425,0.71428 3.44718,4.00824 c 4.67582,5.43683 4.67557,13.69007 -5.5e-4,19.12639 l -3.44773,4.00823 -112.94837,0 -112.94838,0 -3.96102,-3.95611 c -3.93299,-3.92809 -3.9661,-4.12031 -4.67533,-27.14285 l -0.71429,-23.18675 -10.3778,-0.42015 c -7.5355,-0.30507 -10.53714,0.0862 -10.9596,1.42857 -0.31998,1.0168 -0.8902,22.90229 -1.26714,48.63443 l -0.68534,46.78572 114.64605,0 c 78.06699,0 116.05139,0.4899 119.05067,1.53546 12.04483,4.19885 12.1739,23.8612 0.17866,27.21671 -1.89346,0.52966 -58.58828,1.02711 -125.98853,1.10543 -133.52111,0.15516 -129.41568,0.39543 -134.843,-7.89163 -2.28064,-3.48236 -2.55448,-6.55293 -2.16368,-24.26141 l 0.44743,-20.27445 -14.73315,-0.95164 c -8.10323,-0.52341 -24.05457,-0.74876 -35.44743,-0.50077 l -20.71428,0.45087 -0.36866,83.21429 -0.36866,83.21428 9.29723,0 9.29723,0 0.003,-28.92857 c 0.003,-31.66196 1.11641,-36.94943 8.56921,-40.67336 4.88459,-2.44067 326.60005,-2.66361 331.94117,-0.23003 1.92732,0.87815 4.6526,3.72909 6.05622,6.33543 3.33961,6.20129 1.54011,14.1181 -4.17316,18.35963 -4.02827,2.99062 -4.20986,2.99449 -158.35876,3.37626 l -154.32587,0.3822 0.50163,46.99934 c 0.2759,25.84964 0.84149,47.33894 1.25689,47.754 0.41538,0.41506 8.77253,0.86716 18.57143,1.00466 l 17.81617,0.25 0.71428,-18.59753 c 0.80189,-20.8785 1.89952,-23.40877 11.28559,-26.01604 7.19974,-1.99996 235.42876,-1.95865 241.00124,0.0436 12.21839,4.39023 12.53404,23.88126 0.44153,27.26398 -1.89346,0.52966 -52.78193,1.02712 -113.0855,1.10543 l -109.6435,0.14246 0,37.85714 0,37.85711 122.5,0 c 113.76433,10e-4 122.85644,0.1804 127.49836,2.5 9.32123,4.6581 11.02251,16.2134 3.43643,23.3408 l -3.66433,3.4427 -134.83875,0.3786 -134.83874,0.3785 -4.68934,-4.1867 -4.68934,-4.1867 -0.44616,-25.7304 -0.44616,-25.73043 -29.16713,-0.46141 -29.16713,-0.46142 -3.95814,-3.95715 c -3.94943,-3.94845 -3.95914,-4.00738 -4.41358,-26.78572 l -0.45545,-22.8292 -19.87917,0 -19.87915,0 -4.6654,-4.1664 -4.66539,-4.1664 -0.44111,-39.40503 -0.44112,-39.40503 -28.98228,0 c -15.94025,0 -34.86674,-0.41768 -42.05887,-0.9282 l -13.07661,-0.92821 0,133.78536 0,133.78534 224.33159,0 c 248.979,0 232.3188,-0.6609 236.5151,9.3823 2.68348,6.4225 1.60698,12.0137 -3.17864,16.5097 l -3.6123,3.3937 -235.95645,0.2732 c -129.77605,0.1503 -237.24217,-0.256 -238.8136,-0.9028 z"
       id="path3032-6"
       inkscape:connector-curvature="0"
       inkscape:export-filename="/home/guillaume/Dev/INRIA-Git/doris-android/DorisAndroid/images_source/ic_action_arbre_phylogenetique_light.png"
       inkscape:export-xdpi="50"
       inkscape:export-ydpi="50" />
  </g>
</svg>
