<?xml version="1.0" encoding="UTF-8" standalone="no"?>
<!-- Created with Inkscape (http://www.inkscape.org/) -->

<svg
   xmlns:dc="http://purl.org/dc/elements/1.1/"
   xmlns:cc="http://creativecommons.org/ns#"
   xmlns:rdf="http://www.w3.org/1999/02/22-rdf-syntax-ns#"
   xmlns:svg="http://www.w3.org/2000/svg"
   xmlns="http://www.w3.org/2000/svg"
   xmlns:sodipodi="http://sodipodi.sourceforge.net/DTD/sodipodi-0.dtd"
   xmlns:inkscape="http://www.inkscape.org/namespaces/inkscape"
   width="256"
   height="256"
   id="svg2"
   version="1.1"
   inkscape:version="0.91 r13725"
   sodipodi:docname="logo_doris_vect.svg"
   inkscape:export-filename="/home/guillaume/Bureau/logo_doris_grand.png"
   inkscape:export-xdpi="200"
   inkscape:export-ydpi="200">
  <sodipodi:namedview
     id="base"
     pagecolor="#ffffff"
     bordercolor="#666666"
     borderopacity="1.0"
     inkscape:pageopacity="0.0"
     inkscape:pageshadow="2"
     inkscape:zoom="1.7314053"
     inkscape:cx="2.7244085"
     inkscape:cy="179.93446"
     inkscape:document-units="px"
     inkscape:current-layer="layer1"
     showgrid="false"
     inkscape:window-width="1920"
     inkscape:window-height="1057"
     inkscape:window-x="0"
     inkscape:window-y="0"
     inkscape:window-maximized="1"
     width="49px"
     fit-margin-top="10"
     fit-margin-left="10"
     fit-margin-bottom="10"
     fit-margin-right="10" />
  <defs
     id="defs4" />
  <metadata
     id="metadata7">
    <rdf:RDF>
      <cc:Work
         rdf:about="">
        <dc:format>image/svg+xml</dc:format>
        <dc:type
           rdf:resource="http://purl.org/dc/dcmitype/StillImage" />
        <dc:title />
      </cc:Work>
    </rdf:RDF>
  </metadata>
  <g
     id="layer1"
     inkscape:groupmode="layer"
     inkscape:label="Calque 1"
     transform="translate(-2.4747523,-796.43695)"
     style="display:inline">
    <path
       style="fill:#000000;fill-opacity:1;stroke:#000000;stroke-width:1px;stroke-linecap:butt;stroke-linejoin:miter;stroke-opacity:1"
       d="m 152.32144,961.82646 c -2.82624,-6.25082 -5.00001,-20.17858 2.49999,-28.57143 7.5,-8.39286 18.17518,-3.78034 22.85715,-0.71428 4.68196,3.06605 6.86847,12.15093 7.67857,18.74999 0.8101,6.59906 2.13647,17.62844 -1.25001,22.32143 -3.38648,4.69299 -10.10661,7.22206 -16.7857,5.00001 -6.67909,-2.22205 -12.17377,-10.5349 -15,-16.78572 z"
       id="path3293"
       inkscape:connector-curvature="0"
       sodipodi:nodetypes="zzzzzzz" />
    <path
       style="fill:#000000;fill-opacity:1;stroke:#000000;stroke-width:0.76876533px;stroke-linecap:butt;stroke-linejoin:miter;stroke-opacity:1"
       d="m 93.258467,971.82329 c 1.98778,-4.94889 6.2718,-16.51025 14.787723,-16.72104 8.51593,-0.21079 10.41173,7.92721 11.30313,13.22391 0.89139,5.2967 -3.25786,11.95056 -6.19813,16.04504 -2.94026,4.09449 -8.70512,13.49787 -13.04904,14.07559 -4.343913,0.57772 -7.580593,-1.68333 -9.811463,-6.67498 -2.23087,-4.99164 0.98,-14.99963 2.96778,-19.94852 z"
       id="path3293-1"
       inkscape:connector-curvature="0"
       sodipodi:nodetypes="zzzzzzz" />
    <path
       style="fill:none;stroke:#000000;stroke-width:3;stroke-linecap:round;stroke-linejoin:round;stroke-miterlimit:4;stroke-opacity:1;stroke-dasharray:none"
       d="m 87.438717,859.96678 c 0,0 2.2933,-7.65645 3.85987,-9.78707 1.56656,-2.13062 2.23561,-9.5838 1.89403,-11.97698 -0.34157,-2.39319 -0.76746,-9.2412 -1.76777,-13.14186 -1.0003,-3.90067 -4.01234,-11.01498 -6.764038,-10.47661 -2.75171,0.53837 0.0669,20.64952 -1.17603,22.23324 -0.8641,-2.07809 -1.07856,-9.49428 -3.6222,-13.52066 -2.54359,-4.02639 -3.24766,-7.4488 -4.99256,-7.10697 -1.7449,0.34183 -3.42671,-0.45398 -4.03318,3.44142 -0.60648,3.89541 5.34049,19.22886 4.66452,20.7725 -2.06493,-0.85548 -5.72225,-9.73764 -7.52538,-12.02403 -1.80314,-2.28639 -5.73522,-5.96672 -8.18892,-4.50608 -2.45369,1.46066 7.52575,12.83384 8.07381,17.99585 -3.49256,-3.04549 -11.64181,-12.57037 -13.84999,-10.96938 -2.20818,1.60099 2.58799,13.33896 6.67326,19.31042 4.08527,5.97146 14.78376,12.74206 14.78376,12.74206"
       id="path4120"
       inkscape:connector-curvature="0"
       sodipodi:nodetypes="czzzzczzzczzczzc" />
    <path
       style="fill:none;stroke:#000000;stroke-width:3;stroke-linecap:butt;stroke-linejoin:miter;stroke-miterlimit:4;stroke-opacity:1;stroke-dasharray:none"
       d="m 46.910391,879.914 c 0,0 -23.968632,21.29015 -28.696112,34.59103 -4.72748,13.30089 -4.52959,39.26092 -3.92856,45.35714 0.60103,6.09622 4.96769,8.10629 6.42857,12.85715 1.46087,4.75086 -1.43303,5.92626 0.71429,10.35714 2.14731,4.43088 9.77968,6.1555 12.49999,7.85715 2.72031,1.70164 6.11482,0.78109 11.07143,3.57142 4.95661,2.79034 3.1016,10.12267 6.07143,14.99997 2.96984,4.8774 7.48998,10.8127 11.78571,13.5714 4.29573,2.7588 8.52392,4.3936 12.14286,3.5715 8.6356,-5.9309 6.18957,-8.3332 12.499998,-8.5715 6.31043,-0.2382 15.455353,15.4254 23.571433,18.2143 8.11608,2.789 13.08661,2.6038 20.35714,1.7857 7.27053,-0.8181 9.18133,-2.1646 16.42858,-2.1428 7.24725,0.022 17.21627,5.1531 24.99999,5 7.78373,-0.1531 8.69694,-3.1186 13.57144,-8.5714 4.8745,-5.4529 5.29736,-5.5739 11.07142,-6.4286 5.77406,-0.8548 11.69922,1.8421 18.57143,-1.0714 6.87221,-2.9136 11.96947,-8.1073 16.78572,-16.4286 4.81625,-8.3213 4.75686,-19.94162 6.78571,-28.21428 2.02885,-8.27266 5.81367,-14.61953 5.35714,-19.64286 -0.45653,-5.02332 -5.58945,-5.29541 -8.21428,-8.21428 -2.62483,-2.91888 -7.8947,-8.62966 -10.71429,-13.57143 -2.81959,-4.94178 -6.16072,-18.92857 -6.16072,-18.92857"
       id="path4140"
       inkscape:connector-curvature="0"
       sodipodi:nodetypes="czzzzzzzzczzzzzzzzzzzzzc" />
    <path
       style="fill:none;stroke:#000000;stroke-width:3;stroke-linecap:round;stroke-linejoin:miter;stroke-miterlimit:4;stroke-opacity:1;stroke-dasharray:none"
       d="m 213.66071,906.02289 c 0,0 -13.66123,-20.43669 -21.33928,-27.94643 -7.67805,-7.50973 -14.90599,-10.90954 -23.92857,-14.82142 -9.02258,-3.91189 -17.84179,-7.99384 -28.03572,-10.00001 -10.19393,-2.00617 -22.91081,-1.26972 -31.60714,0.17857 -8.69633,1.4483 -20.449053,3.51541 -20.449053,3.51541"
       id="path4142"
       inkscape:connector-curvature="0"
       sodipodi:nodetypes="czzzzc" />
    <path
       style="fill:#000000;fill-opacity:1;stroke:#000000;stroke-width:0.61851674px;stroke-linecap:butt;stroke-linejoin:miter;stroke-opacity:1"
       d="m 208.91547,972.68675 c -2.15656,-5.04312 -5.0516,-21.73417 -1.22422,-25.16879 3.82738,-3.43463 10.42107,2.31528 12.55726,5.35739 2.13618,3.0421 1.12949,8.18568 2.6685,12.09179 1.539,3.9061 5.73313,10.71529 5.43353,14.59056 -0.29961,3.87527 -1.22901,6.12836 -5.35175,6.2483 -4.12273,0.11994 -11.92676,-8.07614 -14.08332,-13.11925 z"
       id="path3293-2"
       inkscape:connector-curvature="0"
       sodipodi:nodetypes="zzzzzzz"
       inkscape:transform-center-x="8.75" />
    <path
       style="fill:#000000;fill-opacity:1;stroke:#000000;stroke-width:0.43848523px;stroke-linecap:butt;stroke-linejoin:miter;stroke-opacity:1"
       d="m 177.36207,1010.2374 c 0.0805,-4.637 2.87269,-9.2477 7.07758,-11.11854 4.20493,-1.87081 10.08537,0.45606 10.26148,1.51204 0.17611,1.0559 0.43003,4.8578 2.92884,4.7875 2.51632,-0.071 4.55636,-3.8418 4.74458,1.6429 0.18823,5.4846 -3.82342,2.905 -6.84904,4.2452 -2.4854,1.1009 -2.65182,4.5627 -3.79424,7.0462 -1.14242,2.4835 -4.38176,4.3347 -7.82844,4.2503 -3.44668,-0.084 -6.62123,-7.7286 -6.54076,-12.3656 z"
       id="path3293-2-2"
       inkscape:connector-curvature="0"
       sodipodi:nodetypes="zzzszszzz"
       inkscape:transform-center-x="6.9700714"
       inkscape:transform-center-y="-0.74515377" />
    <path
       style="fill:#000000;fill-opacity:1;stroke:#000000;stroke-width:0.58192527px;stroke-linecap:butt;stroke-linejoin:miter;stroke-opacity:1"
       d="m 138.41949,1012.2981 c 0.11819,-5.5625 3.50339,-12.87923 8.24856,-15.12344 4.74517,-2.24421 12.35153,0.47619 13.58295,2.11672 1.23142,1.64052 2.88286,6.93212 2.32659,10.67312 -0.55627,3.7411 -2.64535,7.7112 -5.25842,10.6401 -2.61306,2.929 -6.02168,5.9142 -10.01072,4.7415 -3.98904,-1.1727 -9.00711,-7.4855 -8.88896,-13.048 z"
       id="path3293-2-2-7"
       inkscape:connector-curvature="0"
       sodipodi:nodetypes="zzzzzzz"
       inkscape:transform-center-x="10.233571"
       inkscape:transform-center-y="-0.89388033" />
    <path
       style="fill:#000000;fill-opacity:1;stroke:#000000;stroke-width:0.29852319px;stroke-linecap:butt;stroke-linejoin:miter;stroke-opacity:1"
       d="m 191.87487,982.16725 c -0.70832,-3.00357 -0.7657,-9.0177 1.81002,-10.43326 2.57575,-1.41556 5.70373,-3.04073 6.6771,-1.44276 0.97338,1.59797 1.94393,3.38966 1.78635,5.63673 -0.15758,2.24708 -0.49504,5.73416 -1.58524,7.58163 -1.0902,1.84747 -2.0653,3.53245 -4.17658,3.46856 -2.11128,-0.0639 -3.80332,-1.80734 -4.51165,-4.8109 z"
       id="path3293-2-2-2"
       inkscape:connector-curvature="0"
       sodipodi:nodetypes="zzzzzzz"
       inkscape:transform-center-x="4.2695507"
       inkscape:transform-center-y="-0.56382676" />
    <path
       style="fill:#000000;fill-opacity:1;stroke:#000000;stroke-width:0.29852319px;stroke-linecap:butt;stroke-linejoin:miter;stroke-opacity:1"
       d="m 208.75924,1004.8702 c -0.70832,-3.0035 1.00206,-6.99736 2.82017,-8.918 1.81811,-1.92064 3.68341,-3.04073 6.6771,-1.44276 2.99369,1.59797 0.60245,5.82676 1.53381,8.16216 0.93136,2.3353 2.0703,3.817 4.1028,6.466 2.0312,2.6473 6.47382,3.7274 3.40333,6.1663 -3.07048,2.439 -10.90413,-4.0437 -13.01541,-4.1076 -2.11128,-0.064 -4.81347,-3.3225 -5.5218,-6.3261 z"
       id="path3293-2-2-2-1"
       inkscape:connector-curvature="0"
       sodipodi:nodetypes="zzzzszzz"
       inkscape:transform-center-x="4.2695507"
       inkscape:transform-center-y="-0.56382676" />
    <path
       sodipodi:type="arc"
       style="fill:#000000;fill-opacity:1;stroke:#000000;stroke-width:3;stroke-miterlimit:4;stroke-opacity:1;stroke-dasharray:none"
       id="path4234"
       sodipodi:cx="448.76025"
       sodipodi:cy="390.586"
       sodipodi:rx="2.2728431"
       sodipodi:ry="2.6516504"
       d="m 451.0331,390.586 a 2.2728431,2.6516504 0 0 1 -2.27285,2.65165 2.2728431,2.6516504 0 0 1 -2.27284,-2.65165 2.2728431,2.6516504 0 0 1 2.27284,-2.65165 2.2728431,2.6516504 0 0 1 2.27285,2.65165 z"
       transform="translate(-220.92349,610.04332)" />
    <path
       sodipodi:type="arc"
       style="fill:#ff0000;fill-opacity:1;stroke:#000000;stroke-width:3;stroke-miterlimit:4;stroke-opacity:1;stroke-dasharray:none"
       id="path4236"
       sodipodi:cx="468.5845"
       sodipodi:cy="331.49207"
       sodipodi:rx="1.1364216"
       sodipodi:ry="3.661803"
       d="m 469.72092,331.49207 a 1.1364216,3.661803 0 0 1 -1.13642,3.6618 1.1364216,3.661803 0 0 1 -1.13642,-3.6618 1.1364216,3.661803 0 0 1 1.13642,-3.66181 1.1364216,3.661803 0 0 1 1.13642,3.66181 z"
       transform="matrix(1.5483636,-0.04194549,0.22755533,1.2486847,-573.26149,556.98403)" />
    <path
       sodipodi:type="arc"
       style="fill:#ff0000;fill-opacity:1;stroke:#000000;stroke-width:3;stroke-miterlimit:4;stroke-opacity:1;stroke-dasharray:none"
       id="path4236-8"
       sodipodi:cx="468.5845"
       sodipodi:cy="331.49207"
       sodipodi:rx="1.1364216"
       sodipodi:ry="3.661803"
       d="m 469.72092,331.49207 a 1.1364216,3.661803 0 0 1 -1.13642,3.6618 1.1364216,3.661803 0 0 1 -1.13642,-3.6618 1.1364216,3.661803 0 0 1 1.13642,-3.66181 1.1364216,3.661803 0 0 1 1.13642,3.66181 z"
       transform="matrix(1.3184133,-0.7362458,0.78101596,0.94110861,-642.15959,1010.0403)"
       inkscape:transform-center-y="1.767767" />
    <path
       sodipodi:type="arc"
       style="fill:#ff0000;fill-opacity:1;stroke:#000000;stroke-width:3;stroke-miterlimit:4;stroke-opacity:1;stroke-dasharray:none"
       id="path4236-8-6"
       sodipodi:cx="468.5845"
       sodipodi:cy="331.49207"
       sodipodi:rx="1.1364216"
       sodipodi:ry="3.661803"
       d="m 469.72092,331.49207 a 1.1364216,3.661803 0 0 1 -1.13642,3.6618 1.1364216,3.661803 0 0 1 -1.13642,-3.6618 1.1364216,3.661803 0 0 1 1.13642,-3.66181 1.1364216,3.661803 0 0 1 1.13642,3.66181 z"
       transform="matrix(1.7291335,0.28123888,-0.06860361,0.99324695,-614.14489,568.17071)"
       inkscape:transform-center-y="1.0610187"
       inkscape:transform-center-x="1.4028019" />
    <path
       style="fill:#000000;fill-opacity:1;stroke:#000000;stroke-width:0.36625311px;stroke-linecap:butt;stroke-linejoin:miter;stroke-opacity:1"
       d="m 109.68982,1014.1022 c 0.97496,-2.2901 3.58126,-7.3877 7.75815,-7.4852 4.17688,-0.097 5.10675,3.9209 4.28126,6.877 -0.82549,2.9562 -2.60807,6.2879 -4.05021,8.1826 -1.44214,1.8948 -2.50192,5.7412 -5.39013,5.756 -2.88821,0.015 -3.97066,-2.2942 -5.06486,-4.6041 -1.09419,-2.3099 1.49082,-6.4361 2.46579,-8.7263 z"
       id="path3293-1-7"
       inkscape:connector-curvature="0"
       sodipodi:nodetypes="zzzzzzz" />
    <path
       style="fill:#000000;fill-opacity:1;stroke:#000000;stroke-width:0.36625311px;stroke-linecap:butt;stroke-linejoin:miter;stroke-opacity:1"
       d="m 134.52761,1028.1692 c 2.77124,0.1749 6.66365,1.7071 6.74308,4.9159 0.0794,3.2088 -8.72832,4.2288 -10.70299,4.7764 -1.97468,0.5477 0.65517,-3.0867 -1.79697,-4.2049 -2.45215,-1.1181 -5.32517,-0.5189 -5.44736,-3.4046 -0.12218,-2.8856 -0.12787,-6.8311 3.40247,-6.7478 3.53034,0.083 5.03053,4.4902 7.80177,4.665 z"
       id="path3293-1-7-5"
       inkscape:connector-curvature="0"
       sodipodi:nodetypes="zzzzzzz" />
    <path
       sodipodi:type="arc"
       style="fill:#ff0000;fill-opacity:1;stroke:#000000;stroke-width:3;stroke-miterlimit:4;stroke-opacity:1;stroke-dasharray:none"
       id="path4236-8-6-7"
       sodipodi:cx="468.5845"
       sodipodi:cy="331.49207"
       sodipodi:rx="1.1364216"
       sodipodi:ry="3.661803"
       d="m 469.72092,331.49207 a 1.1364216,3.661803 0 0 1 -1.13642,3.6618 1.1364216,3.661803 0 0 1 -1.13642,-3.6618 1.1364216,3.661803 0 0 1 1.13642,-3.66181 1.1364216,3.661803 0 0 1 1.13642,3.66181 z"
       transform="matrix(1.9390662,-0.50686055,0.38243957,1.0939708,-900.83119,866.11751)"
       inkscape:transform-center-y="1.7895336"
       inkscape:transform-center-x="0.98349849" />
    <path
       sodipodi:type="arc"
       style="fill:#ff0000;fill-opacity:1;stroke:#000000;stroke-width:3;stroke-miterlimit:4;stroke-opacity:1;stroke-dasharray:none"
       id="path4236-8-6-7-0"
       sodipodi:cx="468.5845"
       sodipodi:cy="331.49207"
       sodipodi:rx="1.1364216"
       sodipodi:ry="3.661803"
       d="m 469.72092,331.49207 a 1.1364216,3.661803 0 0 1 -1.13642,3.6618 1.1364216,3.661803 0 0 1 -1.13642,-3.6618 1.1364216,3.661803 0 0 1 1.13642,-3.66181 1.1364216,3.661803 0 0 1 1.13642,3.66181 z"
       transform="matrix(1.6784889,0.67633409,-0.17168628,1.5407143,-600.25006,149.41526)"
       inkscape:transform-center-y="1.4633211"
       inkscape:transform-center-x="1.4965548" />
    <path
       sodipodi:type="arc"
       style="fill:#000000;fill-opacity:1;stroke:#000000;stroke-width:3;stroke-miterlimit:4;stroke-opacity:1;stroke-dasharray:none"
       id="path4234-3"
       sodipodi:cx="448.76025"
       sodipodi:cy="390.586"
       sodipodi:rx="2.2728431"
       sodipodi:ry="2.6516504"
       d="m 451.0331,390.586 a 2.2728431,2.6516504 0 0 1 -2.27285,2.65165 2.2728431,2.6516504 0 0 1 -2.27284,-2.65165 2.2728431,2.6516504 0 0 1 2.27284,-2.65165 2.2728431,2.6516504 0 0 1 2.27285,2.65165 z"
       transform="matrix(1.1852865,0,0,1.4445313,-336.77638,389.94862)" />
    <path
       style="fill:#000000;fill-opacity:1;stroke:#000000;stroke-width:0.36625311px;stroke-linecap:butt;stroke-linejoin:miter;stroke-opacity:1"
       d="m 210.87115,938.07089 c -1.72245,-1.79679 -4.48607,-1.34603 -3.86829,-2.72996 0.61778,-1.38393 7.02558,-8.8202 8.53996,-7.96708 1.51439,0.85313 -0.37778,4.36763 0.35187,7.94112 0.72964,3.57349 1.81563,4.00605 0.6938,6.66753 -1.12184,2.66147 -3.3067,2.44346 -4.69556,0.6079 -1.38887,-1.83556 0.70066,-2.72272 -1.02178,-4.51951 z"
       id="path3293-1-7-5-4"
       inkscape:connector-curvature="0"
       sodipodi:nodetypes="zzzzzzz" />
    <path
       sodipodi:type="arc"
       style="fill:#ff0000;fill-opacity:1;stroke:#000000;stroke-width:3;stroke-miterlimit:4;stroke-opacity:1;stroke-dasharray:none"
       id="path4236-8-6-8"
       sodipodi:cx="468.5845"
       sodipodi:cy="331.49207"
       sodipodi:rx="1.1364216"
       sodipodi:ry="3.661803"
       d="m 469.72092,331.49207 a 1.1364216,3.661803 0 0 1 -1.13642,3.6618 1.1364216,3.661803 0 0 1 -1.13642,-3.6618 1.1364216,3.661803 0 0 1 1.13642,-3.66181 1.1364216,3.661803 0 0 1 1.13642,3.66181 z"
       transform="matrix(1.0952853,0.22060764,-0.04345559,0.77911654,-337.79598,665.9435)"
       inkscape:transform-center-y="0.83228078"
       inkscape:transform-center-x="0.88857489" />
    <path
       sodipodi:type="arc"
       style="fill:#000000;fill-opacity:1;stroke:#000000;stroke-width:3;stroke-miterlimit:4;stroke-opacity:1;stroke-dasharray:none"
       id="path4236-8-6-1"
       sodipodi:cx="468.5845"
       sodipodi:cy="331.49207"
       sodipodi:rx="1.5540977"
       sodipodi:ry="3.661803"
       d="m 470.1386,331.49207 a 1.5540977,3.661803 0 0 1 -1.5541,3.6618 1.5540977,3.661803 0 0 1 -1.55409,-3.6618 1.5540977,3.661803 0 0 1 1.55409,-3.66181 1.5540977,3.661803 0 0 1 1.5541,3.66181 z"
       transform="matrix(3.4812234,0.1591843,-0.13811802,0.56218869,-1441.7978,770.91655)"
       inkscape:transform-center-y="0.600548"
       inkscape:transform-center-x="2.8241771" />
    <path
       sodipodi:type="arc"
       style="fill:#000000;fill-opacity:1;stroke:#000000;stroke-width:3;stroke-miterlimit:4;stroke-opacity:1;stroke-dasharray:none"
       id="path4234-8"
       sodipodi:cx="448.76025"
       sodipodi:cy="390.586"
       sodipodi:rx="2.2728431"
       sodipodi:ry="2.6516504"
       d="m 451.0331,390.586 a 2.2728431,2.6516504 0 0 1 -2.27285,2.65165 2.2728431,2.6516504 0 0 1 -2.27284,-2.65165 2.2728431,2.6516504 0 0 1 2.27284,-2.65165 2.2728431,2.6516504 0 0 1 2.27285,2.65165 z"
       transform="matrix(0.75321312,0,0,0.90751601,-130.18898,663.2126)" />
    <path
       sodipodi:type="arc"
       style="fill:#000000;fill-opacity:1;stroke:#000000;stroke-width:3;stroke-miterlimit:4;stroke-opacity:1;stroke-dasharray:none"
       id="path4234-8-5"
       sodipodi:cx="448.76025"
       sodipodi:cy="390.586"
       sodipodi:rx="2.2728431"
       sodipodi:ry="2.6516504"
       d="m 451.0331,390.586 a 2.2728431,2.6516504 0 0 1 -2.27285,2.65165 2.2728431,2.6516504 0 0 1 -2.27284,-2.65165 2.2728431,2.6516504 0 0 1 2.27284,-2.65165 2.2728431,2.6516504 0 0 1 2.27285,2.65165 z"
       transform="matrix(0.51130695,0,0,0.90751601,-65.301811,642.75701)" />
    <path
       style="fill:#000000;fill-opacity:1;stroke:#000000;stroke-width:0.21464419px;stroke-linecap:butt;stroke-linejoin:miter;stroke-opacity:1"
       d="m 144.37377,987.28628 c -1.32018,-1.74424 -1.78943,-4.70876 -0.95052,-6.653 0.83891,-1.94425 3.55976,-3.48037 4.71703,-2.65304 1.15727,0.82735 2.36268,1.77537 2.82609,3.19628 0.46341,1.42093 1.11171,3.64161 0.76015,4.9719 -0.35153,1.33029 -0.65752,2.54033 -2.28409,2.85687 -1.6266,0.31652 -3.74846,0.0252 -5.06866,-1.71901 z"
       id="path3293-2-2-2-9"
       inkscape:connector-curvature="0"
       sodipodi:nodetypes="zzzzzzz"
       inkscape:transform-center-x="3.6235026"
       inkscape:transform-center-y="0.22827874" />
    <path
       style="fill:#000000;fill-opacity:1;stroke:#000000;stroke-width:0.17629795px;stroke-linecap:butt;stroke-linejoin:miter;stroke-opacity:1"
       d="m 138.31369,975.63565 c -0.98585,-1.57572 -1.33627,-4.25383 -0.70981,-6.01024 0.62647,-1.75641 2.6583,-3.14412 3.5225,-2.39672 0.86421,0.74742 1.76436,1.60385 2.11042,2.88749 0.34606,1.28364 0.83018,3.28978 0.56765,4.49155 -0.26251,1.20176 -0.49101,2.2949 -1.70567,2.58085 -1.21468,0.28594 -2.79921,0.0228 -3.78509,-1.55293 z"
       id="path3293-2-2-2-9-1"
       inkscape:connector-curvature="0"
       sodipodi:nodetypes="zzzzzzz"
       inkscape:transform-center-x="2.7058927"
       inkscape:transform-center-y="0.20622241" />
    <path
       style="fill:#000000;fill-opacity:1;stroke:#000000;stroke-width:0.22451051px;stroke-linecap:butt;stroke-linejoin:miter;stroke-opacity:1"
       d="m 125.9302,959.57299 c 0.39975,-2.5341 2.21907,-5.59623 4.14884,-6.80007 1.92977,-1.20387 4.77648,-0.71125 4.92802,0.8633 0.15153,1.57458 0.24766,3.29415 -0.47115,4.92916 -0.71881,1.63502 -1.891,4.13701 -3.0685,5.11675 -1.17748,0.97976 -2.23968,1.88063 -3.51098,1.03135 -1.27132,-0.84928 -2.42597,-2.60636 -2.02623,-5.14049 z"
       id="path3293-2-2-2-9-1-3"
       inkscape:connector-curvature="0"
       sodipodi:nodetypes="zzzzzzz"
       inkscape:transform-center-x="2.6486586"
       inkscape:transform-center-y="-1.9100119" />
    <path
       style="fill:#000000;fill-opacity:1;stroke:#000000;stroke-width:0.22451051px;stroke-linecap:butt;stroke-linejoin:miter;stroke-opacity:1"
       d="m 120.47704,937.87125 c 2.48191,-0.64931 6.39527,-0.58843 7.51398,0.31834 1.11872,0.90676 2.43956,4.34364 1.56279,5.61857 -0.87677,1.27493 -2.79253,1.2945 -4.57857,1.29117 -1.78605,-0.003 -3.91676,0.17794 -5.28627,-0.50821 -1.36952,-0.68615 -2.62057,-0.16188 -2.73075,-1.91952 -0.11019,-1.75763 1.03689,-4.15102 3.51882,-4.80035 z"
       id="path3293-2-2-2-9-1-3-1"
       inkscape:connector-curvature="0"
       sodipodi:nodetypes="zzzzzzz"
       inkscape:transform-center-x="-0.88707795"
       inkscape:transform-center-y="-3.3713748" />
    <path
       style="fill:#000000;fill-opacity:1;stroke:#000000;stroke-width:0.42810559px;stroke-linecap:butt;stroke-linejoin:miter;stroke-opacity:1"
       d="m 123.95551,914.9659 c 3.78007,-1.55012 9.99284,1.2469 13.08567,3.28537 3.09283,2.03848 3.84183,7.33929 2.38021,11.39314 -1.46163,4.05385 -5.3896,4.85818 -8.10982,4.85023 -2.72025,-0.007 -3.44004,-0.83789 -5.52587,-2.47596 -2.08585,-1.63808 -5.00142,-4.67962 -5.16923,-8.8757 -0.16782,-4.19606 -0.44106,-6.62691 3.33904,-8.17708 z"
       id="path3293-2-2-2-9-1-3-1-7"
       inkscape:connector-curvature="0"
       sodipodi:nodetypes="zzzzzzz"
       inkscape:transform-center-x="-1.3510641"
       inkscape:transform-center-y="-8.0485809" />
    <path
       style="fill:#000000;fill-opacity:1;stroke:#000000;stroke-width:0.49998391px;stroke-linecap:butt;stroke-linejoin:miter;stroke-opacity:1"
       d="m 158.17088,889.55663 c 4.46949,-1.7882 11.81533,1.43842 15.47224,3.78998 3.65691,2.35158 4.54251,8.46656 2.81431,13.14306 -1.7282,4.6765 -6.37255,5.60437 -9.58889,5.5952 -3.21637,-0.008 -4.06744,-0.96659 -6.53368,-2.85627 -2.46628,-1.88967 -5.91358,-5.39837 -6.112,-10.23894 -0.19842,-4.84055 -0.5215,-7.64477 3.94802,-9.43303 z"
       id="path3293-2-2-2-9-1-3-1-7-7"
       inkscape:connector-curvature="0"
       sodipodi:nodetypes="zzzzzzz"
       inkscape:transform-center-x="-1.5974737"
       inkscape:transform-center-y="-9.2847869" />
    <path
       style="fill:#000000;fill-opacity:1;stroke:#000000;stroke-width:0.20440485px;stroke-linecap:butt;stroke-linejoin:miter;stroke-opacity:1"
       d="m 149.1243,906.32978 c 1.89735,-0.70404 3.5005,-0.57009 5.0529,0.35576 1.5524,0.92585 2.55968,4.72237 1.82604,6.56358 -0.73364,1.8412 -4.09417,1.70144 -5.45954,1.69783 -1.36538,-0.003 -3.2419,-0.002 -4.28885,-0.74575 -1.04696,-0.74399 -0.61633,-3.51438 -0.32175,-4.91511 0.29458,-1.40072 1.29385,-2.25224 3.1912,-2.95631 z"
       id="path3293-2-2-2-9-1-3-1-7-7-7"
       inkscape:connector-curvature="0"
       sodipodi:nodetypes="zzzzzzz"
       inkscape:transform-center-x="-0.67815145"
       inkscape:transform-center-y="-3.6555616" />
    <path
       style="fill:#000000;fill-opacity:1;stroke:#000000;stroke-width:0.20440485px;stroke-linecap:butt;stroke-linejoin:miter;stroke-opacity:1"
       d="m 134.74963,899.44152 c 1.77108,-1.58792 4.38439,-2.33786 6.18933,-0.78066 1.80493,1.55719 1.92833,4.34356 1.19469,6.18477 -0.73364,1.8412 -1.06371,3.34294 -2.55535,3.8444 -1.49164,0.50147 -3.99952,0.75562 -5.04647,0.0119 -1.04696,-0.74399 -3.26798,-2.88304 -3.22593,-4.91511 0.042,-2.03208 1.67265,-2.75735 3.44373,-4.34527 z"
       id="path3293-2-2-2-9-1-3-1-7-7-7-6"
       inkscape:connector-curvature="0"
       sodipodi:nodetypes="zzzzzzz"
       inkscape:transform-center-x="-0.67815145"
       inkscape:transform-center-y="-3.6555616" />
    <path
       style="fill:#000000;fill-opacity:1;stroke:#000000;stroke-width:0.41155124px;stroke-linecap:butt;stroke-linejoin:miter;stroke-opacity:1"
       d="m 159.6811,865.88063 c 1.17815,-1.55029 0.72301,-4.12004 3.57151,-4.02292 2.84849,0.0971 16.36598,7.49797 18.34046,8.98991 1.97448,1.49193 4.68856,7.06816 3.82446,8.65242 -0.8641,1.58426 -5.88837,6.4239 -9.7291,6.62155 -3.84073,0.19765 -7.46926,-2.06985 -9.32997,-2.95684 -1.86071,-0.88699 -3.71992,-3.82046 -5.01845,-4.33436 -1.29853,-0.5139 -3.18054,-0.57557 -5.44479,-1.02942 -2.16693,-0.43435 -3.39553,-3.32019 -3.44513,-4.14011 -0.0496,-0.81992 1.11946,-3.88303 2.84689,-5.25153 1.72742,-1.36849 3.20597,-0.9784 4.38412,-2.5287 z"
       id="path3293-2-2-2-9-1-3-1-7-7-9"
       inkscape:connector-curvature="0"
       sodipodi:nodetypes="zszzzzzszsz"
       inkscape:transform-center-x="-1.5974737"
       inkscape:transform-center-y="-6.2908271" />
    <path
       style="fill:#000000;fill-opacity:1;stroke:#000000;stroke-width:0.18421488px;stroke-linecap:butt;stroke-linejoin:miter;stroke-opacity:1"
       d="m 145.51047,878.69344 c 1.79414,-1.27315 4.44147,-1.87443 6.26991,-0.62591 1.82843,1.2485 1.95344,3.48253 1.21025,4.95875 -0.7432,1.47622 -1.07756,2.68027 -2.58862,3.08232 -1.51106,0.40207 -4.0516,0.60584 -5.11218,0.01 -1.06059,-0.5965 -3.31052,-2.31153 -3.26793,-3.94078 0.0426,-1.62926 1.69443,-2.21076 3.48857,-3.4839 z"
       id="path3293-2-2-2-9-1-3-1-7-7-7-6-3"
       inkscape:connector-curvature="0"
       sodipodi:nodetypes="zzzzzzz"
       inkscape:transform-center-x="-0.68698007"
       inkscape:transform-center-y="-2.9308755" />
    <path
       style="fill:#000000;fill-opacity:1;stroke:#000000;stroke-width:0.24488053px;stroke-linecap:butt;stroke-linejoin:miter;stroke-opacity:1"
       d="m 129.45417,870.81677 c 2.57979,-1.56463 6.38639,-2.30356 9.01551,-0.76921 2.62909,1.53434 2.80884,4.27982 1.74022,6.094 -1.06865,1.81419 -1.54944,3.29389 -3.72218,3.78798 -2.17276,0.49413 -5.8258,0.74455 -7.35082,0.0123 -1.52501,-0.73306 -4.76019,-2.84073 -4.69895,-4.84298 0.0612,-2.00227 2.43642,-2.71689 5.01622,-4.2815 z"
       id="path3293-2-2-2-9-1-3-1-7-7-7-6-3-8"
       inkscape:connector-curvature="0"
       sodipodi:nodetypes="zzzzzzz"
       inkscape:transform-center-x="-0.98780692"
       inkscape:transform-center-y="-3.6018672" />
    <path
       style="fill:#000000;fill-opacity:1;stroke:#000000;stroke-width:0.22184499px;stroke-linecap:butt;stroke-linejoin:miter;stroke-opacity:1"
       d="m 186.685,920.14963 c 4.12896,0.17985 4.12332,1.45022 4.68924,2.62861 0.56592,1.17839 4.90913,0.0504 5.05512,2.90177 0.14598,2.85136 -5.58024,5.74206 -7.81988,6.11725 -2.23965,0.3752 -4.07125,-0.75961 -5.30447,-1.50336 -1.23324,-0.74399 -0.85226,-4.52453 -0.88408,-6.68288 -0.0318,-2.15834 0.1351,-3.64123 4.26407,-3.46139 z"
       id="path3293-2-2-2-9-1-3-1-7-7-7-1"
       inkscape:connector-curvature="0"
       sodipodi:nodetypes="zzzzzzz"
       inkscape:transform-center-x="-0.79880995"
       inkscape:transform-center-y="-3.6555616" />
    <path
       sodipodi:type="arc"
       style="fill:#000000;fill-opacity:1;stroke:#000000;stroke-width:3;stroke-miterlimit:4;stroke-opacity:1;stroke-dasharray:none"
       id="path4234-3-3"
       sodipodi:cx="448.76025"
       sodipodi:cy="390.586"
       sodipodi:rx="2.2728431"
       sodipodi:ry="2.6516504"
       d="m 451.0331,390.586 a 2.2728431,2.6516504 0 0 1 -2.27285,2.65165 2.2728431,2.6516504 0 0 1 -2.27284,-2.65165 2.2728431,2.6516504 0 0 1 2.27284,-2.65165 2.2728431,2.6516504 0 0 1 2.27285,2.65165 z"
       transform="matrix(1.1852865,0,0,1.4445313,-337.40773,349.66877)" />
    <path
       style="fill:#000000;fill-opacity:1;stroke:#000000;stroke-width:0.27783445px;stroke-linecap:butt;stroke-linejoin:miter;stroke-opacity:1"
       d="m 194.76761,883.42972 c 1.1668,-0.57266 2.19815,0.99389 3.83352,1.96084 1.63537,0.96688 7.25614,9.79937 7.95046,11.34078 0.69432,1.54143 -0.44845,7.07879 -1.44212,7.77228 -0.99365,0.69349 -4.41308,0.78957 -6.71943,-0.31325 -2.30636,-1.1028 -3.72855,-3.64548 -4.54289,-4.7807 -0.81432,-1.13526 -0.99678,-3.52148 -1.59749,-4.24943 -0.60071,-0.72798 -1.68197,-1.36532 -2.86579,-2.36425 -1.13292,-0.95599 -0.96138,-3.11217 -0.73757,-3.62938 0.22378,-0.51721 -0.67363,-3.02801 0.75824,-3.3145 1.43185,-0.28649 2.42852,-0.83955 3.59532,-1.41216 z"
       id="path3293-2-2-2-9-1-3-1-7-7-9-0"
       inkscape:connector-curvature="0"
       sodipodi:nodetypes="cszzzzzszszc"
       inkscape:transform-center-x="-2.3798818"
       inkscape:transform-center-y="-3.1324995" />
    <path
       style="fill:#000000;fill-opacity:1;stroke:#000000;stroke-width:0.47507772px;stroke-linecap:butt;stroke-linejoin:miter;stroke-opacity:1"
       d="m 94.720647,858.04304 c 1.44305,-1.69735 4.29715,-1.9363 8.856023,-3.11554 4.55924,-1.17927 28.1268,-1.4971 31.68365,-1.23102 3.55685,0.26608 13.4679,0.53517 11.01877,3.63542 -2.44913,3.10025 -7.58094,5.45574 -13.63689,7.29566 -6.05595,1.83991 -12.96549,3.73193 -16.17294,3.87589 -3.20745,0.14397 -7.4872,-0.25903 -9.69632,-0.0786 -2.20913,0.1804 -5.47329,1.97157 -9.202253,2.62248 -3.56869,0.62292 -5.56913,-0.77887 -5.87627,-1.38064 -0.30714,-0.60176 -1.31994,-4.45583 1.04766,-6.25656 2.36758,-1.80071 0.53553,-3.6697 1.97857,-5.36706 z"
       id="path3293-2-2-2-9-1-3-1-7-7-9-9"
       inkscape:connector-curvature="0"
       sodipodi:nodetypes="zszzzzzszsz"
       inkscape:transform-center-x="-1.4032077"
       inkscape:transform-center-y="-5.0918632" />
    <path
       style="fill:#000000;fill-opacity:1;stroke:#000000;stroke-width:0.3342213px;stroke-linecap:butt;stroke-linejoin:miter;stroke-opacity:1"
       d="m 96.147197,926.11181 c -2.31109,5.54873 -5.61275,8.6009 -7.19208,10.58933 -1.57933,1.98843 -5.105088,4.66266 -7.580258,2.80033 -2.47517,-1.86232 -2.21226,-13.92604 -0.68557,-18.40399 1.52669,-4.47795 3.87869,-9.23578 5.10827,-11.21179 1.22958,-1.976 1.909178,-4.83415 2.714858,-6.23384 0.80569,-1.39967 5.26394,-3.94163 6.44834,-6.46928 1.1335,-2.41901 3.16153,5.89804 3.59131,6.00209 0.42976,0.10405 6.600373,9.71948 5.523923,13.45282 -1.07645,3.73333 -5.617713,3.92561 -7.928793,9.47433 z"
       id="path3293-2-2-2-9-1-3-1-7-7-9-9-1"
       inkscape:connector-curvature="0"
       sodipodi:nodetypes="zzzzzzszzz"
       inkscape:transform-center-x="-3.7030252"
       inkscape:transform-center-y="3.1696229" />
    <path
       style="fill:#000000;fill-opacity:1;stroke:#000000;stroke-width:0.30171013px;stroke-linecap:butt;stroke-linejoin:miter;stroke-opacity:1"
       d="m 114.55442,886.05184 c 1.66917,-0.0446 7.00228,-4.11261 10.78328,-2.93543 3.781,1.17722 6.39204,2.66103 5.52829,5.96768 -0.86375,3.30665 -3.82226,6.26275 -5.48994,8.52807 -1.66769,2.26532 -11.29337,9.08474 -12.14906,7.59485 -0.85568,-1.4899 -5.77782,-14.84267 -5.7756,-17.48006 0.002,-2.6374 5.43387,-1.63048 7.10303,-1.67511 z"
       id="path3293-2-2-2-9-1-3-1-7-7-7-6-3-8-1"
       inkscape:connector-curvature="0"
       sodipodi:nodetypes="zzzzzzz"
       inkscape:transform-center-x="-0.98780692"
       inkscape:transform-center-y="-5.4676252" />
    <path
       style="fill:#000000;fill-opacity:1;stroke:#000000;stroke-width:0.18421488px;stroke-linecap:butt;stroke-linejoin:miter;stroke-opacity:1"
       d="m 101.82135,878.3146 c 0.89707,-0.63657 2.86311,-0.5486 4.69155,0.69992 1.82843,1.2485 2.64792,2.40924 1.90473,3.88546 -0.7432,1.47622 -2.34025,2.42773 -2.58862,3.08232 -0.24837,0.65459 -3.92533,-1.8564 -4.98591,-2.45224 -1.060593,-0.5965 -3.436793,0.15071 -3.394203,-1.47854 0.0426,-1.62926 0.74741,-0.69553 2.54155,-1.96867 0,0 0.933833,-1.13167 1.830903,-1.76825 z"
       id="path3293-2-2-2-9-1-3-1-7-7-7-6-3-2"
       inkscape:connector-curvature="0"
       sodipodi:nodetypes="zzzszzzz"
       inkscape:transform-center-x="-0.68698007"
       inkscape:transform-center-y="-2.9308755" />
    <path
       style="fill:#000000;fill-opacity:1;stroke:#000000;stroke-width:0.18421488px;stroke-linecap:butt;stroke-linejoin:miter;stroke-opacity:1"
       d="m 63.624959,935.00941 c 2.41517,-1.56466 4.94655,-3.89473 6.77499,-2.64621 1.82844,1.2485 2.07972,6.13418 1.33653,7.6104 -0.7432,1.47622 -1.07757,2.68027 -2.58863,3.08232 -1.51106,0.40207 -4.93548,4.14137 -5.99606,3.54553 -1.06059,-0.5965 -3.56306,-2.4378 -3.52047,-4.06705 0.52365,-3.82684 1.57848,-5.96032 3.99364,-7.52499 z"
       id="path3293-2-2-2-9-1-3-1-7-7-7-6-3-2-3"
       inkscape:connector-curvature="0"
       sodipodi:nodetypes="zzzzzcz"
       inkscape:transform-center-x="-0.68698007"
       inkscape:transform-center-y="-2.9308755" />
    <path
       style="fill:#000000;fill-opacity:1;stroke:#000000;stroke-width:0.17629795px;stroke-linecap:butt;stroke-linejoin:miter;stroke-opacity:1"
       d="m 95.319277,942.88973 c 0.28276,-1.83707 1.76674,-4.09381 3.38835,-5.01456 1.621633,-0.92074 4.066563,-0.64434 4.232743,0.48607 0.16616,1.13043 0.28834,2.36689 -0.28808,3.5649 -0.57642,1.198 -1.52024,3.03327 -2.50401,3.77176 -0.983743,0.7385 -1.870793,1.41696 -2.977303,0.84008 -1.10653,-0.5769 -2.13444,-1.81115 -1.8517,-3.64825 z"
       id="path3293-2-2-2-9-1-6"
       inkscape:connector-curvature="0"
       sodipodi:nodetypes="zzzzzzz"
       inkscape:transform-center-x="2.3205555"
       inkscape:transform-center-y="-1.3109363" />
    <path
       style="fill:#000000;fill-opacity:1;stroke:#000000;stroke-width:0.34280953px;stroke-linecap:butt;stroke-linejoin:miter;stroke-opacity:1"
       d="m 79.280869,961.83425 c 0.56486,-3.47705 3.52938,-7.74841 6.76884,-9.49113 3.239498,-1.74269 8.123688,-1.21955 8.455668,0.92 0.33193,2.13958 0.57601,4.47984 -0.57549,6.74733 -1.15151,2.26747 -3.03696,5.74112 -5.00222,7.13887 -1.965198,1.39777 -3.737238,2.6819 -5.947698,1.59003 -2.21049,-1.09191 -4.26393,-3.42799 -3.6991,-6.9051 z"
       id="path3293-2-2-2-9-1-6-8"
       inkscape:connector-curvature="0"
       sodipodi:nodetypes="zzzzzzz"
       inkscape:transform-center-x="4.6357309"
       inkscape:transform-center-y="-2.4812262" />
    <path
       style="fill:#000000;fill-opacity:1;stroke:#000000;stroke-width:0.42455471px;stroke-linecap:butt;stroke-linejoin:miter;stroke-opacity:1"
       d="m 79.194689,883.96865 c 5.10718,-2.78929 9.783358,-2.95982 9.288098,2.06131 -0.49524,5.02111 -5.339588,12.00089 -9.579428,16.08693 -4.23987,4.08605 -7.35612,7.59192 -10.15697,7.87101 -2.8009,0.27919 -6.4528,-0.71 -6.45293,-3.22603 0.001,-2.51807 1.0109,-9.24864 4.71209,-14.25371 3.70114,-5.00515 7.0809,-5.74875 12.18806,-8.53801 z"
       id="path3293-2-2-2-9-1-3-1-7-7-7-6-3-8-3"
       inkscape:connector-curvature="0"
       sodipodi:nodetypes="zzzzzzz"
       inkscape:transform-center-x="-8.119705"
       inkscape:transform-center-y="-7.9767274" />
    <path
       style="fill:#000000;fill-opacity:1;stroke:#000000;stroke-width:0.54554385px;stroke-linecap:butt;stroke-linejoin:miter;stroke-opacity:1"
       d="m 76.164719,862.15588 c 2.5536,-0.35441 7.14278,4.29159 6.47628,6.66466 -0.38725,1.37878 -5.35893,8.02035 -5.82377,8.81055 -0.46483,0.79019 -8.66369,8.38876 -11.13604,11.57658 -2.47235,3.18782 -3.95491,8.32574 -7.14958,11.77077 -3.19467,3.44503 -11.51591,12.9692 -13.66433,12.63426 -2.14854,-0.33475 -3.79107,-3.50357 -1.63669,-8.58367 2.15692,-5.0839 9.49271,-17.84458 16.3018,-26.76306 2.31637,-6.41743 14.07872,-15.75569 16.63233,-16.11009 z"
       id="path3293-2-2-2-9-1-3-1-7-7-7-6-3-8-3-9"
       inkscape:connector-curvature="0"
       sodipodi:nodetypes="zszzzzzcz"
       inkscape:transform-center-x="-12.626314"
       inkscape:transform-center-y="-13.112902" />
    <path
       sodipodi:type="arc"
       style="fill:#000000;fill-opacity:1;stroke:#000000;stroke-width:3;stroke-miterlimit:4;stroke-opacity:1;stroke-dasharray:none"
       id="path4234-8-5-0"
       sodipodi:cx="448.76025"
       sodipodi:cy="390.586"
       sodipodi:rx="2.2728431"
       sodipodi:ry="2.6516504"
       d="m 451.0331,390.586 a 2.2728431,2.6516504 0 0 1 -2.27285,2.65165 2.2728431,2.6516504 0 0 1 -2.27284,-2.65165 2.2728431,2.6516504 0 0 1 2.27284,-2.65165 2.2728431,2.6516504 0 0 1 2.27285,2.65165 z"
       transform="matrix(0.51130695,0,0,1.3592646,-151.37258,421.92509)" />
    <path
       sodipodi:type="arc"
       style="fill:#000000;fill-opacity:1;stroke:#000000;stroke-width:3;stroke-miterlimit:4;stroke-opacity:1;stroke-dasharray:none"
       id="path4234-8-5-0-0"
       sodipodi:cx="448.76025"
       sodipodi:cy="390.586"
       sodipodi:rx="2.2728431"
       sodipodi:ry="2.6516504"
       d="m 451.0331,390.586 a 2.2728431,2.6516504 0 0 1 -2.27285,2.65165 2.2728431,2.6516504 0 0 1 -2.27284,-2.65165 2.2728431,2.6516504 0 0 1 2.27284,-2.65165 2.2728431,2.6516504 0 0 1 2.27285,2.65165 z"
       transform="matrix(0.98666948,0,0,1.2264955,-390.0062,440.10704)" />
    <path
       style="fill:#000000;fill-opacity:1;stroke:#000000;stroke-width:0.2112675px;stroke-linecap:butt;stroke-linejoin:miter;stroke-opacity:1"
       d="m 20.224749,909.2545 c 1.92184,-2.58621 3.93616,-6.43758 5.39112,-4.3739 1.45497,2.06363 1.27611,7.36123 0.68472,9.80127 -0.59139,2.44003 -1.23631,5.69287 -2.81748,7.62013 -1.58118,1.92726 -1.7519,4.00815 -4.51876,3.71381 -2.76687,-0.29435 -1.95138,-1.63032 -1.9175,-4.32329 0.41669,-6.32537 1.25607,-9.85179 3.1779,-12.43802 z"
       id="path3293-2-2-2-9-1-3-1-7-7-7-6-3-2-3-3"
       inkscape:connector-curvature="0"
       sodipodi:nodetypes="zzzzzcz"
       inkscape:transform-center-x="-0.54665539"
       inkscape:transform-center-y="-4.8444275" />
    <path
       style="fill:#000000;fill-opacity:1;stroke:#000000;stroke-width:0.33652285px;stroke-linecap:butt;stroke-linejoin:miter;stroke-opacity:1"
       d="m 48.155509,937.90208 c 2.49468,-5.05509 3.21537,-9.93146 6.99805,-9.55952 3.78267,0.37194 3.04545,17.92403 2.40404,20.04176 -0.6414,2.11773 -2.5939,12.0955 -3.53102,14.64202 -0.93712,2.54653 -1.24984,7.07851 -6.74955,6.50152 -5.49971,-0.57699 -2.38623,-4.54568 -4.20379,-6.1642 -1.81755,-1.61851 -5.9145,0.5021 -6.01082,-4.69007 -0.0963,-5.19218 3.8742,-3.30028 5.24072,-4.53373 1.36651,-1.23344 1.45472,-3.99667 1.60099,-5.81561 0.14624,-1.81895 1.75675,-5.36704 4.25142,-10.42217 z"
       id="path3293-2-2-2-9-1-3-1-7-7-7-6-3-2-3-3-5"
       inkscape:connector-curvature="0"
       sodipodi:nodetypes="czzzzzzzzzc"
       inkscape:transform-center-x="-0.70959815"
       inkscape:transform-center-y="-9.4690796" />
    <path
       style="fill:#000000;fill-opacity:1;stroke:#000000;stroke-width:0.45999372px;stroke-linecap:butt;stroke-linejoin:miter;stroke-opacity:1"
       d="m 51.900149,984.25612 c 3.11453,-8.07301 8.4584,-17.36039 11.99565,-20.58654 3.53725,-3.22608 6.39039,-0.63305 4.92817,4.52306 -1.46228,5.15615 -3.14123,10.76293 -5.69582,15.81035 -2.55458,5.04734 -6.5492,12.74598 -8.96315,15.50911 -2.41392,2.7632 -4.60927,5.311 -5.22743,2.1135 -0.61815,-3.19755 -0.15197,-9.29633 2.96258,-17.36948 z"
       id="path3293-2-2-2-9-1-6-8-4"
       inkscape:connector-curvature="0"
       sodipodi:nodetypes="zzzzzzz"
       inkscape:transform-center-x="0.50461063"
       inkscape:transform-center-y="-7.0573208" />
    <path
       style="fill:#000000;fill-opacity:1;stroke:#000000;stroke-width:0.17629795px;stroke-linecap:butt;stroke-linejoin:miter;stroke-opacity:1"
       d="m 44.960429,981.80314 c -0.0645,-1.85759 0.97294,-4.35133 2.39459,-5.55812 1.42165,-1.20679 3.87526,-1.39082 4.24917,-0.31118 0.3739,1.07968 0.72434,2.27171 0.38125,3.55614 -0.34309,1.28444 -0.92839,3.26343 -1.75731,4.1723 -0.82891,0.90888 -1.57399,1.74075 -2.76862,1.38017 -1.19464,-0.36061 -2.43455,-1.3817 -2.49908,-3.23931 z"
       id="path3293-2-2-2-9-1-1"
       inkscape:connector-curvature="0"
       sodipodi:nodetypes="zzzzzzz"
       inkscape:transform-center-x="2.5728794"
       inkscape:transform-center-y="-0.92865209" />
    <path
       style="fill:#000000;fill-opacity:1;stroke:#000000;stroke-width:0.19961396px;stroke-linecap:butt;stroke-linejoin:miter;stroke-opacity:1"
       d="m 29.492359,977.64826 c 1.65343,-1.3393 4.84706,-2.30726 7.1894,-2.09665 2.34235,0.21063 4.63777,1.89443 3.96832,2.92126 -0.66952,1.02685 -1.46273,2.11449 -2.94192,2.75428 -1.47921,0.63979 -3.8074,1.58368 -5.36199,1.60358 -1.55459,0.0199 -2.96568,0.0482 -3.66906,-1.08468 -0.70334,-1.13287 -0.83816,-2.75846 0.81525,-4.09779 z"
       id="path3293-2-2-2-9-1-1-0"
       inkscape:connector-curvature="0"
       sodipodi:nodetypes="zzzzzzz"
       inkscape:transform-center-x="0.99315114"
       inkscape:transform-center-y="-2.5265877" />
    <path
       sodipodi:type="arc"
       style="fill:#000000;fill-opacity:1;stroke:#000000;stroke-width:3;stroke-miterlimit:4;stroke-opacity:1;stroke-dasharray:none"
       id="path4234-8-5-0-0-4"
       sodipodi:cx="448.76025"
       sodipodi:cy="390.586"
       sodipodi:rx="2.2728431"
       sodipodi:ry="2.6516504"
       d="m 451.0331,390.586 a 2.2728431,2.6516504 0 0 1 -2.27285,2.65165 2.2728431,2.6516504 0 0 1 -2.27284,-2.65165 2.2728431,2.6516504 0 0 1 2.27284,-2.65165 2.2728431,2.6516504 0 0 1 2.27285,2.65165 z"
       transform="matrix(1.1054431,-0.33695497,0.5667427,1.8593042,-670.38711,314.67741)" />
    <path
       style="fill:#000000;fill-opacity:1;stroke:#000000;stroke-width:0.17629795px;stroke-linecap:butt;stroke-linejoin:miter;stroke-opacity:1"
       d="m 33.287009,901.60622 c 0.28276,-1.83707 1.76674,-4.09381 3.38835,-5.01456 1.62163,-0.92074 4.06656,-0.64434 4.23274,0.48607 0.16616,1.13043 0.28834,2.36689 -0.28808,3.5649 -0.57642,1.198 -1.52024,3.03327 -2.50401,3.77176 -0.98374,0.7385 -1.87079,1.41696 -2.9773,0.84008 -1.10653,-0.5769 -2.13444,-1.81115 -1.8517,-3.64825 z"
       id="path3293-2-2-2-9-1-6-9"
       inkscape:connector-curvature="0"
       sodipodi:nodetypes="zzzzzzz"
       inkscape:transform-center-x="2.3205555"
       inkscape:transform-center-y="-1.3109363" />
    <path
       style="fill:#000000;fill-opacity:1;stroke:#000000;stroke-width:0.5842725px;stroke-linecap:butt;stroke-linejoin:miter;stroke-opacity:1"
       d="m 16.706949,943.21311 c 2.54153,-10.35514 7.77988,-22.6744 11.80901,-27.34171 4.02915,-4.66727 8.27801,-2.23062 7.34746,4.26141 -0.93061,6.49211 -2.0594,13.57215 -4.44669,20.18659 -2.3873,6.61439 -6.15764,16.72578 -8.7993,20.58114 -2.64161,3.85543 -5.03736,7.40332 -6.4647,3.72936 -1.42737,-3.67407 -1.9873,-11.06146 0.55422,-21.41679 z"
       id="path3293-2-2-2-9-1-6-9-7"
       inkscape:connector-curvature="0"
       sodipodi:nodetypes="zzzzzzz"
       inkscape:transform-center-x="2.2347733"
       inkscape:transform-center-y="-8.1995455" />
    <path
       sodipodi:type="arc"
       style="fill:#000000;fill-opacity:1;stroke:#000000;stroke-width:3;stroke-miterlimit:4;stroke-opacity:1;stroke-dasharray:none"
       id="path4234-8-5-0-0-6"
       sodipodi:cx="448.76025"
       sodipodi:cy="390.586"
       sodipodi:rx="2.2728431"
       sodipodi:ry="2.6516504"
       d="m 451.0331,390.586 a 2.2728431,2.6516504 0 0 1 -2.27285,2.65165 2.2728431,2.6516504 0 0 1 -2.27284,-2.65165 2.2728431,2.6516504 0 0 1 2.27284,-2.65165 2.2728431,2.6516504 0 0 1 2.27285,2.65165 z"
       transform="matrix(0.66641527,0.13574937,-0.39326295,3.4118342,-104.83269,-458.93929)" />
    <path
       sodipodi:type="arc"
       style="fill:#030303;fill-opacity:1;stroke:#000000;stroke-width:3;stroke-miterlimit:4;stroke-opacity:1;stroke-dasharray:none"
       id="path4234-8-5-0-0-6-6"
       sodipodi:cx="448.76025"
       sodipodi:cy="390.586"
       sodipodi:rx="2.2728431"
       sodipodi:ry="2.6516504"
       d="m 451.0331,390.586 a 2.2728431,2.6516504 0 0 1 -2.27285,2.65165 2.2728431,2.6516504 0 0 1 -2.27284,-2.65165 2.2728431,2.6516504 0 0 1 2.27284,-2.65165 2.2728431,2.6516504 0 0 1 2.27285,2.65165 z"
       transform="matrix(0.73278724,0.07958313,-0.43243018,2.0001895,-128.96247,147.27748)" />
    <path
       style="fill:#000000;fill-opacity:1;stroke:#000000;stroke-width:0.3786661px;stroke-linecap:butt;stroke-linejoin:miter;stroke-opacity:1"
       d="m 54.454699,1004.9626 c -0.0624,-2.213 3.5363,-4.8155 6.68557,-5.14954 3.14927,-0.334 2.82454,4.95114 5.09369,4.40624 2.26914,-0.5448 0.003,-16.34957 5.19153,-16.63427 5.18826,-0.28469 3.0346,8.01441 4.48817,8.83034 1.45357,0.81593 7.79202,-0.63478 7.75864,5.12763 -0.0334,5.7625 -6.25152,2.6595 -9.37542,5.8851 -3.12391,3.2256 -2.69042,6.112 -7.14632,5.9671 -4.4559,-0.1449 -12.63342,-6.2195 -12.69586,-8.4326 z"
       id="path3293-2-2-2-9-1-1-05"
       inkscape:connector-curvature="0"
       sodipodi:nodetypes="zzzzzzzzz"
       inkscape:transform-center-x="4.9816097"
       inkscape:transform-center-y="-2.2126926" />
    <path
       style="fill:#000000;fill-opacity:1;stroke:#000000;stroke-width:0.24706008px;stroke-linecap:butt;stroke-linejoin:miter;stroke-opacity:1"
       d="m 93.831897,1014.9251 c 1.23184,-2.0489 -0.54231,-3.3057 1.64399,-4.3835 2.18631,-1.0778 5.461293,-1.5166 6.212683,1.554 0.75139,3.0705 -0.19181,7.0244 -0.64935,8.8679 -0.45755,1.8434 1.91968,6.7454 -0.8505,6.3776 -2.770183,-0.3678 -4.423963,-3.541 -5.369803,-5.1051 -7.39321,-3.2089 -2.21887,-5.2621 -0.98702,-7.3109 z"
       id="path3293-1-7-2"
       inkscape:connector-curvature="0"
       sodipodi:nodetypes="zzzzzcz" />
    <path
       style="fill:#000000;fill-opacity:1;stroke:#000000;stroke-width:0.1964709px;stroke-linecap:butt;stroke-linejoin:miter;stroke-opacity:1"
       d="m 82.886359,1013.0084 c -0.12346,-1.3294 -0.19238,-4.3996 1.7545,-5.5105 1.94688,-1.1108 3.410038,0.5486 3.773808,2.1541 0.36378,1.6056 0.37145,3.6324 0.1736,4.8943 -0.19785,1.2619 0.28223,3.3473 -1.0774,4.0906 -1.359608,0.7434 -2.459128,-0.07 -3.564398,-0.8816 -1.10526,-0.8112 -0.93665,-3.4176 -1.06011,-4.7469 z"
       id="path3293-1-7-3"
       inkscape:connector-curvature="0"
       sodipodi:nodetypes="zzzzzzz" />
    <path
       style="fill:none;stroke:#000000;stroke-width:3;stroke-linecap:round;stroke-linejoin:miter;stroke-miterlimit:4;stroke-opacity:1;stroke-dasharray:none"
       d="m 107.5,935.93361 c 1.42857,-13.57143 -0.15016,-12.28053 -0.35714,-13.57143 -0.20698,-1.2909 -0.68961,-2.69493 -1.33636,-4.16952 -2.41578,-5.50794 -7.121563,-12.0004 -8.306503,-17.25905 -1.18494,-5.25865 -4.18192,-12.97272 -1.42857,-15.71429 2.75336,-2.74156 3.50852,-2.08779 7.500003,0.71429 3.99148,2.80208 6.64541,14.63382 9.66452,19.51658 3.01911,4.88276 8.74103,11.26269 8.74103,11.26269"
       id="path3332"
       inkscape:connector-curvature="0"
       sodipodi:nodetypes="czszzzzc" />
    <path
       style="fill:none;stroke:#000000;stroke-width:3;stroke-linecap:round;stroke-linejoin:miter;stroke-miterlimit:4;stroke-opacity:1;stroke-dasharray:none"
       d="m 188.12318,931.50579 c 6.44129,-3.44953 6.79091,-3.1471 11.61912,-7.02191 4.82822,-3.8748 9.85826,-10.95237 13.14187,-15.04971 3.28361,-4.09734 4.58237,-11.46081 8.32685,-10.4235 3.74447,1.03733 5.31746,5.21334 4.85592,10.06829 -0.46155,4.85495 -8.96241,15.0995 -11.34799,16.86127 -2.38559,1.76177 -7.31913,9.19241 -10.14106,11.95261 -2.82192,2.76019 -1.25938,9.43622 -1.25938,9.43622"
       id="path3332-2"
       inkscape:connector-curvature="0"
       sodipodi:nodetypes="czzzzzsc" />
    <path
       style="fill:none;stroke:#000000;stroke-width:3;stroke-linecap:butt;stroke-linejoin:miter;stroke-miterlimit:4;stroke-opacity:1;stroke-dasharray:none"
       d="m 61.797828,867.20876 c 1.572961,-0.94394 2.147219,-1.57769 3.603101,-2.53587 1.455882,-0.95818 4.05139,-2.31436 7.00544,-4.13407"
       id="path3332-27"
       inkscape:connector-curvature="0"
       sodipodi:nodetypes="czc" />
    <path
       style="fill:#ffffff;stroke:none"
       d="m 85.494171,20.196044 c -1.338243,1.927122 -0.333864,4.795971 -0.654005,7.04487 -0.199585,4.637671 0.781855,9.481115 -0.341471,14.000518 -0.907891,1.052716 -2.516973,-0.06371 -2.412116,-1.340065 -1.144011,-5.17389 -1.885168,-10.647157 -5.008101,-15.120565 -0.756125,-1.491828 -2.251165,-4.477942 -4.270248,-2.963919 -1.249987,4.618787 1.196916,9.272273 2.067577,13.766923 0.545055,3.043729 2.228805,6.193701 1.56974,9.307705 -1.85228,1.239481 -3.356852,-1.647584 -4.232176,-2.855213 -3.118383,-4.739419 -5.142081,-11.042624 -10.699967,-13.480807 -1.211148,0.867632 0.725332,2.526871 1.019821,3.570518 2.251283,4.428553 5.836664,8.48637 6.522826,13.454678 -0.05015,1.353492 -1.870135,1.593609 -2.422138,0.377682 C 62.701,42.676495 59.411412,38.397697 55.004521,35.830125 c -0.438393,2.968984 1.416674,6.122552 2.488691,8.984811 2.35496,5.960586 6.213005,11.269823 11.331284,15.178974 3.363423,3.048957 7.352475,5.168821 11.156268,7.500016 2.155726,1.455237 3.547208,4.630665 1.608077,6.904521 -4.640634,8.073293 -12.471473,13.786098 -17.595792,21.53408 -3.610097,7.384603 -9.386574,13.427163 -15.280448,18.974143 -1.442665,1.51468 -4.42825,3.47357 -5.896282,0.89338 -1.750589,-4.05866 0.955088,-8.27982 2.705653,-11.84362 0.71374,-1.42309 2.45615,-3.972415 -0.03829,-4.658316 -2.448184,-2.063218 -2.881379,-5.458811 -3.892567,-8.27011 -3.302837,2.567112 -6.127233,6.149319 -9.115805,9.231346 -2.23992,2.82214 -5.399859,5.35424 -6.492752,8.85314 1.135373,4.27123 0.21291,8.67068 -0.472213,12.87738 1.193261,0.8511 1.833665,-1.53131 2.654603,-2.20792 1.428134,-2.20665 5.405446,-3.94364 7.095959,-1.07205 1.777847,3.76605 -0.142904,8.07909 -0.461011,11.98434 -2.056654,11.93564 -6.645047,23.40173 -12.286233,34.02751 -0.802539,2.00003 -3.037673,3.33199 -3.486676,5.40833 1.037915,2.78347 3.504799,5.01779 3.19523,8.24421 0.096,3.49753 -0.91794,8.24478 2.84144,10.24867 5.409899,3.31465 11.404584,5.57353 17.522934,7.0832 2.334546,0.65236 4.22829,2.21681 5.998382,3.73941 1.086935,-2.84561 1.250072,-6.2532 2.514216,-9.18901 3.078669,-8.12058 6.760322,-16.40826 12.647652,-22.81938 1.242878,-1.11737 3.784607,-2.63036 4.849756,-0.45945 1.395317,3.5195 -0.7322,7.31204 -1.536672,10.74588 -2.852334,8.78097 -7.247749,17.00509 -12.336182,24.69563 -1.323075,2.2687 -5.161583,4.18126 -3.611792,7.27463 3.03367,6.7728 7.951447,12.90795 14.281255,16.821 3.306414,1.94896 8.233811,4.00079 11.460739,0.67641 2.194136,-1.96958 4.37078,-4.06098 6.266395,-6.29192 0.333042,-3.02953 -0.688943,-6.55938 0.931664,-9.30387 1.657742,-1.31636 4.328007,-0.16412 4.198867,2.05476 0.706635,2.17336 -0.564965,4.97733 0.880614,6.85347 1.227255,0.85383 2.943403,1.0198 3.586267,-0.67641 1.365172,-1.33478 1.432889,-3.25682 2.02924,-4.90081 1.570254,-1.49996 5.014904,-2.12984 6.521648,-0.12762 0.65653,5.2161 -0.27173,10.62578 0.1021,15.86381 3.9956,4.09691 8.50136,8.38857 14.44717,9.15072 4.36557,0.77319 9.06399,1.74498 13.4134,0.54879 1.78802,-1.2443 -0.40982,-3.33128 -1.91438,-3.49693 -1.90816,-0.37541 -4.3734,-1.34637 -3.93085,-3.77771 -0.18123,-2.25676 0.3903,-6.17341 3.44588,-5.83247 3.8565,0.8179 6.17246,5.02543 10.36316,5.07949 2.87166,0.0311 5.66254,-1.37947 8.58917,-0.59984 2.43694,0.0295 6.06604,1.97924 5.13054,4.86252 -0.8272,0.61974 -0.9711,1.97296 0.38287,1.9399 6.8623,1.23946 13.49422,4.15598 20.49652,4.64096 3.38692,0.0705 7.05552,-0.53769 9.2529,-3.37747 4.43353,-3.87125 7.62626,-10.51763 14.05153,-11.09063 6.27167,-0.76742 12.71693,0.41353 18.91405,-0.86785 4.25133,-1.6553 8.45803,-4.12574 11.20549,-7.82342 -0.14389,-1.25662 -2.21694,-0.68497 -2.97829,-1.54074 -3.03519,-1.40107 -6.13482,-2.85954 -9.22267,-4.10029 -3.20486,-2.31877 -5.28962,-6.42133 -3.75218,-10.32488 0.94242,-3.30661 3.9769,-7.66077 8.04038,-6.13877 2.25083,0.52592 2.89891,3.00074 2.32201,5.01482 -0.45456,4.7544 3.2044,8.64733 6.33098,11.74236 1.73351,2.47775 3.41267,1.34847 4.33925,-1.09757 5.20642,-7.99598 5.98654,-17.81675 7.37674,-27.03101 -0.19288,-1.35584 -2.14878,-0.1964 -2.88433,-1.26349 -2.52387,-1.79504 -5.78683,-4.73758 -5.06672,-8.21906 0.79541,-2.67347 4.45236,-1.67908 5.94733,-0.19144 1.36438,0.62271 1.96892,3.11229 3.61179,2.80776 1.72276,-4.75645 4.09945,-9.59201 4.37754,-14.74071 -0.13809,-4.10589 -4.99149,-5.20104 -7.32568,-7.77237 -1.76216,-1.37923 -3.03321,-3.39464 -4.82423,-4.65832 -0.62698,1.81952 0.55537,4.36778 -0.28078,6.40678 -0.35042,1.97306 -2.81972,3.40694 -4.40306,1.76123 -2.62756,-2.79528 -3.89831,-7.58103 -2.06753,-11.12891 0.7916,-1.42398 4.45631,-1.07838 2.33971,-3.12567 -3.84292,-5.56554 -5.7149,-12.22673 -7.3809,-18.69823 -1.26866,-0.82781 -2.31134,1.45671 -3.1013,2.2462 -1.11276,3.17024 -0.96028,6.83422 -0.38287,10.12067 0.91193,2.36895 1.27649,6.7038 -1.91438,7.37674 -2.52417,0.009 -2.82239,-2.87467 -2.9609,-4.77318 -0.72153,-2.00041 -3.9363,-3.32319 -5.11691,-0.94183 -2.69659,2.37992 -1.81393,6.08029 -1.80038,9.21194 0.0547,1.30881 -1.87126,1.78706 -2.19515,0.38287 -0.67153,-3.01488 -0.95985,-6.63677 0.56155,-9.41873 5.54823,-7.97999 12.80468,-14.61023 18.56946,-22.44927 3.03671,-3.93096 4.92698,-10.1917 1.40388,-14.39612 -1.11705,-1.58035 -3.31338,-0.97654 -4.00743,0.67642 -5.22976,9.16485 -11.61373,18.04362 -19.87124,24.63165 -3.5413,2.24678 -7.09127,4.98781 -11.15444,5.9601 -1.37715,-0.94352 -2.9399,-1.83029 -4.3903,-2.66737 -1.29506,-1.25607 -0.43957,-3.5907 -0.76575,-5.20711 -0.0471,-1.63705 -0.15016,-4.50638 2.23344,-4.36478 2.25639,-0.23163 4.96553,-0.43239 6.34297,1.78676 1.51744,1.4179 3.68794,1.50882 5.46236,2.39935 2.80631,-0.92855 4.71075,-3.72975 6.77689,-5.74313 3.14482,-3.85723 6.673,-7.6694 9.29982,-11.77924 -1.77307,-2.47973 -3.2923,-5.36349 -5.52211,-7.46664 -1.79768,0.79691 -0.45027,4.14069 -2.59079,4.86252 -5.33818,1.78539 -10.31522,-2.79868 -11.69047,-7.68303 -0.7132,-2.193349 -3.13254,-3.444639 -4.1861,-5.21987 0.37579,-1.928876 -1.06419,-5.435215 1.71017,-6.100483 1.28597,-0.763946 4.67191,-0.912187 3.9181,-3.126816 -2.67517,-3.322412 -5.96306,-6.427297 -9.58465,-8.729561 -1.28869,0.695935 0.57274,2.485142 0.59983,3.624555 0.74633,3.218579 -2.97377,5.15022 -5.0029,6.917283 -4.87634,3.65991 -11.44943,0.952378 -15.73618,-2.399353 -2.26003,-2.322945 -5.32887,-3.93538 -8.64023,-3.90533 -2.45862,-0.969391 -4.64159,-4.25548 -2.74394,-6.764133 1.14643,-2.879117 4.40606,-3.511844 6.34297,-5.551694 0.60901,-1.199664 2.00713,-2.753992 1.46769,-4.071242 -4.49492,-1.686739 -8.97375,-3.80664 -13.59208,-4.977381 -1.56161,0.547341 -2.08883,2.608327 -3.68836,3.203391 -7.42296,4.352904 -16.0685,6.524259 -24.46575,8.32116 -5.94279,1.145825 -12.26571,-0.393776 -17.94409,2.054765 -2.738245,0.466475 -5.985062,1.6364 -8.640228,0.4084 -2.495307,-2.126557 -1.512442,-6.171192 0.740225,-8.091434 0.841865,-1.408496 0.295405,-3.214941 1.186914,-4.620031 -0.424728,-1.40339 -2.464982,0.172847 -3.509691,0 -2.235123,-0.06506 -2.063338,3.609721 -4.224393,3.203391 -1.458227,-1.07221 0.206385,-3.332658 0.346111,-4.701172 2.000881,-5.329616 5.012777,-10.534157 4.567457,-16.446316 -0.462779,-7.932623 -0.996656,-16.60994 -5.794182,-23.227778 -0.15921,-0.09523 -0.332356,-0.198866 -0.536025,-0.08934 z m 49.365409,52.913389 c 2.80266,-0.366744 6.25802,1.553559 5.61551,4.747655 -0.18533,3.037634 -2.51479,5.823992 -5.67932,5.806945 -3.72275,0.98556 -7.99237,-0.447284 -9.96753,-3.790467 -1.01613,-2.760636 2.63697,-4.12984 4.53227,-5.274325 1.69841,-0.875227 3.58058,-1.409872 5.49907,-1.489808 z m 15.31502,8.11696 c 2.61168,0.274204 3.8498,3.65246 2.48869,5.794182 -0.42235,1.842453 -1.92842,2.995164 -3.84152,2.820515 -2.78174,0.738442 -5.85948,-1.147495 -6.66203,-3.815992 0.37059,-2.375318 3.19056,-3.431405 5.07948,-4.403067 0.95001,-0.294171 1.94579,-0.361063 2.93538,-0.395638 z m -47.11921,0.45945 c 2.31652,6.09e-4 5.43314,1.745769 5.43683,4.249918 -0.15978,1.727673 -3.36387,2.950391 -2.11857,4.734893 1.30697,0.850584 2.24431,-1.349392 3.71389,-0.842326 3.73994,0.394225 7.13107,-1.16823 10.49079,-2.526978 3.42962,-1.398858 7.89419,-0.204307 10.01857,2.820516 1.08822,3.374997 -1.78212,6.509924 -3.61179,9.061386 -3.06629,3.912758 -7.1905,6.806268 -11.38417,9.367688 -1.09355,1.33374 1.2174,2.72762 1.68466,3.90533 1.74247,2.20313 3.40513,4.63311 5.56445,6.36849 5.28982,-1.59328 11.06984,0.50089 15.09806,3.94362 3.01475,3.29648 2.86496,9.07783 0.24249,12.60937 -3.34045,3.64145 -9.8373,3.50403 -13.03053,-0.26802 -3.0707,-2.37327 -4.80144,-6.14406 -4.49241,-10.06962 0.0609,-2.4591 0.21959,-4.99879 -2.03261,-6.59004 -5.70592,-5.9832 -8.95509,-13.53377 -11.90357,-21.133429 -1.51696,-3.551594 -3.76131,-7.649656 -7.772855,-8.662464 -3.295796,0.902654 -2.583289,5.10289 -2.067528,7.644746 1.133626,7.196677 4.090103,13.841067 7.625393,20.158837 2.78311,5.12182 5.28076,10.6598 4.64717,16.63547 -0.40735,2.4669 0.58138,5.77383 -1.34785,7.65753 -1.75697,0.45995 -1.21493,-2.33938 -1.29796,-3.34376 0.19944,-4.8937 0.46433,-9.95446 -1.75228,-14.48547 -0.11307,-1.33511 -1.36581,-1.54225 -2.06753,-0.43392 -3.514709,2.51123 -6.03735,6.04174 -7.87447,9.86542 -2.705221,4.09381 -5.497916,8.48996 -9.78885,10.98853 -2.368359,1.30662 -4.925567,-0.85636 -4.964618,-3.26721 -0.772294,-6.91216 -0.598785,-14.33557 2.763936,-20.55733 2.299515,-4.19661 3.850416,-8.79848 6.335737,-12.85493 1.682574,-2.40701 5.661207,-3.59123 5.704845,-6.891762 -0.882619,-4.032988 -2.60805,-9.332205 1.059288,-12.520028 1.304068,-0.871323 1.456683,-2.64927 3.088529,-3.011954 1.402963,-0.700006 2.412563,-2.35429 4.032953,-2.552503 z m -17.880282,4.084005 c 2.594082,-0.352927 3.803989,2.473278 3.139579,4.645556 -1.942839,8.523306 -8.775751,14.817696 -14.88412,20.533536 -1.85248,1.82911 -4.231143,3.02992 -6.888732,2.46452 -2.233444,0.13563 -4.762791,-1.49686 -4.096767,-4.0202 0.505992,-7.15495 3.688253,-14.544963 10.133437,-18.173818 3.913947,-2.231361 8.059772,-4.848045 12.596603,-5.449594 z m 76.000782,6.981096 c 5.1537,0.304373 10.40683,2.284102 14.24296,5.78142 2.27474,3.099546 1.82175,7.379216 1.32731,10.988526 -1.45444,5.18586 -7.63044,6.91706 -12.41793,5.79418 -4.75201,-2.06633 -9.16682,-6.39859 -10.00581,-11.71599 0.0898,-3.15695 -1.12009,-7.481695 2.05476,-9.533597 1.38793,-0.992429 3.11352,-1.294768 4.79871,-1.314539 z M 38.796127,99.974528 c 1.460198,-0.339879 2.57226,0.926502 2.054765,2.361062 -0.452386,2.75251 -2.155323,6.55343 -5.347494,6.55994 -3.72024,-1.82229 -1.568933,-7.61779 1.697414,-8.62746 0.49359,-0.18218 1.044627,-0.25953 1.595315,-0.293542 z m 99.688013,1.620842 c 3.60899,0.0107 4.80298,4.58147 3.33101,7.33844 -0.5468,1.87893 -1.74798,3.67957 -3.95638,3.57351 -3.48148,1.18343 -6.74062,-2.68234 -6.24087,-5.94733 1.21474,-2.35884 4.2021,-4.62545 6.86624,-4.96462 z m 12.9029,8.23182 c 3.80538,-0.62908 5.45398,4.21903 4.33925,7.14701 -1.31832,1.99801 -4.34822,1.04847 -6.35573,1.37835 -1.52761,0.17405 -3.75618,-0.23765 -3.50969,-2.2462 -0.40438,-2.49787 0.55762,-5.52451 3.3693,-5.97286 0.69869,-0.19095 1.43253,-0.29238 2.15687,-0.3063 z m 43.04796,2.25896 c 3.31728,-0.41816 4.59677,3.52182 4.4286,6.15154 -0.0493,3.11125 -3.69107,6.3064 -6.5727,4.04571 -3.6162,-2.47338 -2.68346,-9.92584 2.1441,-10.19725 z M 52.592406,118.0973 c 4.791273,-0.0512 5.183042,8.69182 0.523263,9.27835 -4.983059,0.048 -5.426591,-8.75269 -0.523263,-9.27835 z m -10.580125,8.90824 c 2.316698,0.56863 2.386096,3.73735 2.501453,5.69208 -0.183922,5.3071 -0.429627,10.96696 -2.897091,15.67237 -0.955067,1.31917 -3.176746,1.67638 -3.918093,-0.0893 -1.444385,-2.52365 -0.68015,-5.79079 -0.765751,-8.60194 0.510218,-4.15386 0.637593,-8.86558 3.34378,-12.23925 0.520324,-0.31889 1.131826,-0.35598 1.735702,-0.43392 z m 13.017765,4.97738 c 1.821126,0.19801 1.843644,2.87246 2.297253,4.22439 2.048031,11.15905 -0.915889,22.38414 -4.173342,32.95281 -0.637457,2.30005 -2.490507,4.06352 -4.964619,3.84152 -2.271135,0.49259 -4.622862,-0.93384 -4.441355,-3.43312 0.271461,-2.25219 -1.897404,-3.65399 -3.930855,-3.48416 -2.153573,-0.32188 -2.880438,-2.38736 -2.616316,-4.32649 -0.127212,-2.10651 1.719752,-3.75402 3.777705,-3.45865 3.397991,-1.10994 2.294152,-5.57475 3.624554,-8.16801 2.280748,-5.72661 4.359457,-11.62292 7.619222,-16.84652 0.776529,-0.69853 1.784381,-1.20069 2.807753,-1.30177 z m 109.221604,0.0893 c 7.08893,-0.43628 15.11828,2.77091 17.96963,9.61018 3.6888,9.03952 4.38737,19.14483 4.13199,28.86781 0.21002,7.70498 -7.64843,13.40876 -14.92908,12.6997 -7.22386,-0.1936 -12.48628,-6.11507 -16.1689,-11.73092 -3.47098,-5.60994 -5.95269,-11.97628 -5.73158,-18.70768 -0.23372,-7.5565 2.54958,-16.38244 9.92924,-19.66703 1.49128,-0.82824 3.09853,-1.10992 4.7987,-1.07206 z m -94.429848,3.89257 c 1.880725,0.27392 1.735097,3.01264 1.990952,4.42859 0.485756,2.8428 -0.966034,5.6831 -3.617501,6.8409 -1.624303,0.78953 -3.136679,2.76104 -4.882334,2.93519 -1.947474,-1.16934 -4.236975,-3.08167 -3.241679,-5.69208 0.761798,-4.48977 5.059796,-7.6451 9.276107,-8.47877 0.157597,-0.0174 0.316661,-0.019 0.474455,-0.0338 z m 30.846998,5.28368 c 1.40329,-0.273 2.70982,0.55624 2.25897,2.09306 -0.41053,2.81494 -2.08056,7.0068 -5.500647,6.80242 -3.103121,-1.42508 -1.870364,-6.24045 0.45945,-7.92553 0.793171,-0.60834 1.776555,-0.9546 2.782227,-0.96995 z m 23.86591,0 c 3.41961,-0.79338 6.40982,3.78003 4.4924,6.54717 -2.74401,1.59952 -6.37649,0.65618 -9.36769,0.25525 -1.33801,-0.0556 -2.90396,-0.83908 -2.41211,-2.43764 0.24477,-3.67108 4.25527,-4.51165 7.2874,-4.36478 z m 86.03211,8.921 c 4.31897,0.20472 7.90609,3.60904 10.12068,7.0832 1.72655,4.72959 1.27253,10.14017 3.92375,14.61358 2.11455,4.80469 5.63723,10.78884 2.48303,15.9654 -2.41992,2.75159 -7.0389,1.51073 -9.37813,-0.71726 -6.58554,-4.97742 -10.79437,-12.63562 -11.31663,-20.90953 -0.22327,-4.77233 -0.91685,-9.81221 0.50446,-14.44007 0.61256,-1.39633 2.31559,-1.59279 3.66284,-1.59532 z m -132.628058,1.49322 c 2.750704,0.74874 2.0551,4.49991 2.13134,6.67479 0.05771,1.15571 -1.043088,3.04297 -2.322778,2.76947 -2.465824,-1.34322 -1.633704,-4.80702 -1.454927,-7.10872 0.262483,-0.8538 0.551712,-2.17783 1.646365,-2.33554 z m 117.172658,0.6126 c 4.3539,0.009 5.25609,5.7733 3.61179,8.85718 -1.38166,3.18644 -6.37698,2.65652 -7.40226,-0.58707 -1.43499,-3.09066 -0.12457,-8.03256 3.79047,-8.27011 z m -105.507719,2.90985 c 1.788398,0.0354 4.972051,-0.22015 4.875281,2.3483 0.900592,4.66504 -1.677534,8.86628 -4.568981,12.23925 -1.904126,2.17853 -5.449345,4.14064 -7.976572,1.79952 -3.806971,-2.4898 -2.673394,-8.11273 -0.35735,-11.24378 1.93648,-2.62545 4.541372,-5.19253 8.027622,-5.14329 z m 42.703379,0.76575 c 1.67473,-0.39675 2.81929,0.90373 2.52698,2.50145 0.0355,3.98889 -1.9099,8.68703 -5.81971,10.10792 -2.90144,-0.7086 -3.74565,-4.52125 -2.50145,-7.00663 0.93303,-2.51376 2.82498,-5.47943 5.79418,-5.60274 z m -24.00629,2.7567 c 4.65369,-0.35354 8.51296,3.17618 9.75056,7.44055 2.031,4.96672 2.00823,10.73955 -0.79128,15.41712 -3.8335,6.72626 -8.13365,13.29331 -13.59208,18.79918 -3.44236,3.09134 -9.085397,2.26111 -11.613886,-1.58255 -3.35307,-3.58728 -2.372676,-8.84574 -2.003715,-13.3113 1.651302,-7.44418 4.394136,-14.79243 8.691273,-21.12196 2.248808,-3.10843 5.564948,-5.67227 9.559128,-5.64104 z m -76.064596,2.06753 c 2.928848,1.1414 2.70354,5.14694 1.965427,7.67027 -0.762262,2.5486 -1.730359,6.22042 -4.747656,6.63651 -3.123049,-2.22917 -2.020851,-6.87442 -1.059288,-9.95476 0.708921,-1.80179 1.748702,-3.94584 3.841517,-4.35202 z m 108.277176,10.03134 c 2.49139,0.83331 2.95914,4.15501 3.17787,6.44507 0.3936,1.95717 -1.39096,4.42086 -3.48417,3.34378 -3.61908,-1.75055 -4.04987,-8.8041 0.3063,-9.78885 z m -10.98852,1.9399 c 3.23999,0.17717 4.16313,4.15615 4.03295,6.81518 -0.21602,3.17704 -0.36753,7.82655 -3.93085,9.06139 -3.14571,0.48729 -4.39615,-3.53049 -4.5596,-6.00901 -0.039,-3.09153 0.34915,-6.65916 2.5176,-9.01247 0.54219,-0.48237 1.2222,-0.79826 1.9399,-0.85509 z m 69.10902,0.82956 c 2.27542,-0.0967 2.67555,2.81934 3.44588,4.39031 -0.0649,3.95843 -0.48113,8.49408 -3.21615,11.53731 -2.03563,1.92144 -5.33206,0.71895 -6.18982,-1.81227 -1.4357,-3.24063 -0.99593,-7.21214 -0.37012,-10.61842 1.3227,-2.03965 3.93094,-3.27332 6.33021,-3.49693 z m -148.747117,5.51341 c 2.331661,-0.24491 2.081448,2.89872 1.786752,4.41583 -0.490795,1.97905 -1.634244,5.19959 -4.147818,5.0412 -2.283997,-0.53474 -2.759276,-3.07177 -2.105815,-5.00291 0.473579,-2.10296 2.107392,-4.39662 4.466881,-4.45412 z m -13.732467,0.3063 c 1.621539,-0.0933 4.382719,0.76196 4.198868,2.78223 -2.207608,3.51489 -7.159799,4.46142 -10.988526,3.72665 -2.144686,-1.31418 -0.486469,-4.84773 1.697414,-5.37301 1.586804,-0.77238 3.327543,-1.11334 5.092244,-1.13587 z m 110.982834,2.28449 c 3.27607,0.44496 4.57982,4.4696 4.35202,7.36397 0.0659,1.5921 -0.47541,3.59263 -2.42488,3.47141 -5.88476,1.22753 -8.33723,-8.47748 -2.9609,-10.58013 0.32935,-0.12924 0.68103,-0.22207 1.03376,-0.25525 z m -14.05153,7.13425 c 4.31016,-0.0593 6.37987,5.05398 6.10048,8.75508 -0.21932,2.79882 -3.67039,4.41858 -5.84523,2.60356 -3.29059,-2.25508 -4.88777,-7.96878 -1.62084,-10.87367 0.38557,-0.29421 0.88249,-0.43874 1.36559,-0.48497 z m -61.311123,2.38659 c 3.002985,0.21505 3.231481,4.01471 3.509691,6.31744 -0.0039,1.33166 0.377416,2.82713 2.016478,2.71842 2.408003,0.38336 5.788971,0.88473 6.13877,3.86704 0.579104,2.15673 -0.598609,4.73699 -3.024716,4.84976 -3.064286,0.28398 -6.099801,1.50287 -7.697002,4.29686 -1.261651,1.64464 -2.400051,4.00158 -4.874076,3.56485 -4.357813,0.11633 -8.179004,-2.80121 -11.396926,-5.37302 -1.281586,-1.16605 -2.812166,-3.11781 -1.237964,-4.70937 1.746089,-1.92251 4.876881,-3.9377 7.517121,-2.73118 1.482563,0.85962 1.504053,3.84085 3.445879,3.68837 1.487272,-1.73804 0.921519,-4.58072 1.46769,-6.72585 0.597265,-3.09616 0.225135,-6.99558 2.64184,-9.31663 0.447375,-0.2699 0.970879,-0.42095 1.493215,-0.44669 z m 92.400613,6.48336 c 2.19798,0.27564 1.9097,3.49389 1.58255,5.11776 -0.54003,1.43676 -2.74056,1.85032 -3.15234,0.0383 -0.57616,-1.5646 -0.54766,-4.83796 1.56979,-5.15605 z m -13.45169,2.39935 c 3.95778,0.18109 9.37401,0.60068 10.74604,5.07948 2.18514,5.89747 1.01797,12.77335 -2.8971,17.6378 -2.71439,3.73747 -7.41817,8.01824 -12.34135,5.78142 -3.86412,-2.16645 -6.84659,-6.24059 -7.63198,-10.59289 -0.64441,-6.42455 2.16234,-13.48836 7.64474,-17.01243 1.36986,-0.72394 2.95553,-0.85349 4.47965,-0.89338 z m 77.60885,0.43392 c 3.86257,0.22212 4.04316,7.19971 0.11487,7.51713 -3.23393,0.76394 -5.37354,-3.51401 -3.47141,-5.93457 0.59887,-1.40742 1.96999,-1.65221 3.35654,-1.58256 z m -40.53375,1.60808 c 2.28688,0.15795 5.17618,0.29571 6.7769,2.11858 0.63891,1.74894 1.17046,5.55966 3.91809,4.51793 1.06872,-0.40593 3.71865,-1.85441 3.65008,0.38288 0.26929,1.92048 0.29251,5.42176 -2.50145,5.23263 -2.68251,-0.15563 -5.73457,0.83131 -6.4706,3.72665 -0.88032,4.02275 -3.94841,7.98602 -8.35944,8.07867 -3.93541,0.13632 -5.56063,-4.32691 -6.63651,-7.44054 -1.63968,-4.91958 -0.58226,-10.84354 3.5735,-14.15363 1.60297,-1.62578 3.73739,-2.49446 6.04943,-2.46317 z m -70.02792,8.2063 c 3.37609,-0.1725 4.77569,3.6067 3.87981,6.41954 -1.28813,4.90821 -4.13327,9.37404 -7.24911,13.33683 -2.21861,2.2924 -5.54792,0.0687 -6.50888,-2.31001 -2.1045,-3.61894 0.87174,-7.57851 2.25896,-10.87367 1.51045,-3.1256 3.75095,-6.51477 7.61922,-6.57269 z m 89.77154,7.6958 c 2.61939,-0.28882 3.35622,2.91268 2.66736,4.9008 -0.46478,2.36616 -4.38155,2.27121 -4.88804,-0.0893 -0.6717,-1.78036 8e-4,-4.63237 2.22068,-4.81146 z m -46.43004,9.08691 c 2.19441,0.31126 2.29668,3.3223 2.23345,5.07948 0.50243,2.71402 -3.6255,4.34119 -4.35202,1.3273 -0.75705,-1.96628 -0.41058,-5.97942 2.11857,-6.40678 z m 12.5328,0.37011 c 3.41497,0.38826 3.77011,4.87336 3.03747,7.51712 -0.0601,2.57386 -3.37737,4.31645 -5.34749,2.50145 -2.81938,-2.76878 -2.18893,-9.39482 2.31002,-10.01857 z"
       id="path3090"
       inkscape:connector-curvature="0"
       transform="translate(0,796.3622)" />
    <path
       style="fill:#ffffff;stroke:none"
       d="m 22.57497,127.69471 c -1.122634,1.22468 -2.532357,2.23352 -4.311221,1.60791 -2.507055,-0.39218 -1.316291,3.41917 -1.936553,4.98603 -0.362648,4.37851 -1.016305,8.864 -0.541885,13.21349 1.648051,-0.99226 1.454914,-4.31161 2.424878,-6.17706 1.341834,-4.57771 3.544317,-8.95699 4.964619,-13.43893 -0.111975,-0.19978 -0.370603,-0.32458 -0.599838,-0.19144 z"
       id="path3092"
       inkscape:connector-curvature="0"
       transform="translate(0,796.3622)" />
    <path
       style="fill:#ffffff;stroke:none"
       d="m 72.080767,66.281487 c -3.130056,1.068825 -7.861324,4.127939 -10.069625,6.610982 0.515942,1.379948 1.067441,2.708398 1.990953,2.042003 2.50105,-2.347784 6.479836,-5.459199 8.767848,-7.989334 0.112369,-0.42986 -0.290943,-0.756078 -0.689176,-0.663651 z"
       id="path3096"
       inkscape:connector-curvature="0"
       transform="translate(0,796.3622)"
       sodipodi:nodetypes="ccccc" />
    <path
       style="fill:#ffffff;stroke:none"
       d="m 25.423208,121.96664 c -0.409429,1.20586 -0.829206,2.4357 -1.563323,3.50091 -0.497911,0.74782 -1.100665,1.44263 -1.49968,2.2502 0.09435,0.24506 0.334533,-0.059 0.50731,0.0271 0.142891,0.004 0.292172,0.25881 0.398828,0.0574 0.965314,-1.88104 1.907174,-3.77913 3.018335,-5.57243 -0.03876,-0.26144 -0.403711,-0.0936 -0.571122,-0.21696 -0.08957,-0.0352 -0.196554,-0.12903 -0.290348,-0.0463 z"
       id="path3102"
       inkscape:connector-curvature="0"
       transform="translate(0,796.3622)" />
    <path
       style="fill:none;stroke:#000000;stroke-width:3;stroke-linecap:round;stroke-linejoin:round;stroke-miterlimit:4;stroke-opacity:1;stroke-dasharray:none"
       d="m 61.393362,874.82352 c 0,0 0.03298,-8.83676 -0.453706,-12.0899 -0.486689,-3.25315 -1.380595,-6.25964 -2.188311,-8.54878 -0.807716,-2.28914 -4.196144,-8.74907 -5.573392,-10.73377 -1.377249,-1.9847 -9.052774,-11.69286 -12.297514,-10.77112 -3.24474,0.92174 6.02225,16.41245 5.95964,17.95278 -1.83037,-0.60625 -11.147659,-15.36941 -14.262101,-13.02349 -3.114443,2.34593 6.829439,12.24035 9.443431,17.77979 -2.927084,-1.88469 -8.222076,-6.93446 -9.37586,-7.814 -1.153784,-0.87954 -6.648624,-4.0714 -7.525003,-3.05705 -0.876379,1.01435 7.297763,11.67649 9.862781,17.38313 -1.53205,0.28618 -5.468959,-3.76006 -7.872409,-4.84851 -2.40345,-1.08845 -7.649067,-4.89231 -8.28436,-2.76103 -0.635294,2.13127 8.524863,15.36469 12.190843,17.83491 3.66598,2.47022 7.428387,4.48371 11.856837,6.62205 4.42845,2.13834 10.457808,2.4137 10.457808,2.4137"
       id="path4120-0"
       inkscape:connector-curvature="0"
       sodipodi:nodetypes="czzzcczczzczzzzc" />
    <path
       style="fill:#ffffff;stroke:none"
       d="m 42.075135,38.070005 c -0.575036,0.372823 0.09432,1.300553 0.165913,1.831421 1.632495,4.670241 4.218095,8.989596 5.902663,13.617603 0.386431,1.065954 -0.410634,2.615753 -1.697414,2.124959 -1.760482,-0.68153 -2.699444,-2.546392 -3.997606,-3.832611 -2.663772,-3.136212 -5.121094,-6.576609 -8.458609,-9.025623 -0.810328,-0.279956 -0.138274,0.900345 0,1.212439 2.538828,5.065527 6.718113,9.154943 9.240061,14.204679 0.698432,1.004233 -0.21917,2.468853 -1.397496,2.195153 -2.709,-1.116297 -4.726826,-3.466541 -7.014789,-5.257162 -2.158793,-1.792726 -4.268235,-3.94436 -6.992071,-4.761412 0.0599,0.816315 0.996293,1.650561 1.349225,2.46257 2.381077,4.021739 5.252924,7.818246 7.105941,12.093078 0.70858,1.413774 -1.203687,2.562658 -2.380209,1.914377 -2.924751,-1.263954 -5.291484,-3.628916 -8.155571,-5.08995 -1.547177,-0.849669 -3.056359,-1.9214 -4.740951,-2.452696 -0.409878,0.541496 0.474972,1.326044 0.638126,1.895233 2.882235,4.571362 5.782245,9.326246 9.928355,12.884695 4.154334,3.219919 8.996894,5.44231 13.770893,7.570075 2.783298,1.22292 5.900676,1.155295 8.749447,1.981732 0.851495,0.376756 0.8779,1.859266 0.172294,2.367447 -2.321189,0.515979 -4.742671,-0.327202 -7.064052,-0.465832 -0.559872,-0.0051 -0.744271,0.779498 -0.05105,0.746607 2.454027,0.874574 3.747773,3.410344 4.677462,5.685701 0.54443,0.28216 0.791116,-0.963658 1.180532,-1.231583 2.185592,-3.524482 4.899556,-6.724375 6.917284,-10.337637 0.517482,-1.190106 -0.261299,-2.452082 -0.06381,-3.707511 0.0382,-6.494507 -0.263339,-13.19223 -2.973666,-19.201204 -2.399092,-5.749228 -5.632174,-11.193619 -10.108939,-15.564426 -1.4746,-1.330083 -2.837628,-3.121278 -4.70196,-3.860122 z"
       id="path3056"
       inkscape:connector-curvature="0"
       transform="translate(0,796.3622)" />
    <path
       style="fill:none;stroke:#000000;stroke-width:3;stroke-linecap:round;stroke-linejoin:round;stroke-miterlimit:4;stroke-opacity:1;stroke-dasharray:none"
       d="m 47.213101,851.51185 c 2.862263,6.68432 4.885185,10.18479 4.885185,10.18479"
       id="path3055"
       inkscape:connector-curvature="0"
       sodipodi:nodetypes="cc"
       inkscape:transform-center-y="-4.0840049" />
    <path
       style="fill:none;stroke:#000000;stroke-width:3;stroke-linecap:round;stroke-linejoin:round;stroke-miterlimit:4;stroke-opacity:1;stroke-dasharray:none;display:inline"
       d="m 35.816751,862.68384 c 5.233997,5.04757 8.457809,7.48735 8.457809,7.48735"
       id="path3055-3"
       inkscape:connector-curvature="0"
       sodipodi:nodetypes="cc"
       inkscape:transform-center-y="-3.7632949"
       inkscape:transform-center-x="1.58642" />
    <path
       style="fill:none;stroke:#000000;stroke-width:3;stroke-linecap:round;stroke-linejoin:round;stroke-miterlimit:4;stroke-opacity:1;stroke-dasharray:none;display:inline"
       d="m 68.188618,841.83349 c 3.574686,6.332 5.967562,9.59078 5.967562,9.59078"
       id="path3055-4"
       inkscape:connector-curvature="0"
       sodipodi:nodetypes="cc"
       inkscape:transform-center-y="-4.0596099"
       inkscape:transform-center-x="0.4457245" />
    <path
       style="fill:none;stroke:#000000;stroke-width:3;stroke-linecap:round;stroke-linejoin:round;stroke-miterlimit:4;stroke-opacity:1;stroke-dasharray:none;display:inline"
       d="m 83.438422,836.63259 c 0.077,7.27095 0.601174,11.27978 0.601174,11.27978"
       id="path3055-4-2"
       inkscape:connector-curvature="0"
       sodipodi:nodetypes="cc"
       inkscape:transform-center-y="-3.7710999"
       inkscape:transform-center-x="-1.5677645" />
  </g>
</svg>
