<?xml version="1.0" encoding="UTF-8" standalone="no"?>
<!-- Generator: Adobe Illustrator 19.0.0, SVG Export Plug-In . SVG Version: 6.00 Build 0)  -->

<svg
   version="1.1"
   id="Layer_1"
   x="0px"
   y="0px"
   viewBox="0 0 381.174 381.174"
   style="enable-background:new 0 0 381.174 381.174;"
   xml:space="preserve"
   sodipodi:docname="sort-gear-grey.svg"
   inkscape:version="1.1.2 (0a00cf5339, 2022-02-04)"
   inkscape:export-filename="/home/dvojtise/git/gitlab_doris-dev/doris-android/DorisAndroid/src/main/res/drawable-mdpi/gear-grey.png"
   inkscape:export-xdpi="12.088967"
   inkscape:export-ydpi="12.088967"
   xmlns:inkscape="http://www.inkscape.org/namespaces/inkscape"
   xmlns:sodipodi="http://sodipodi.sourceforge.net/DTD/sodipodi-0.dtd"
   xmlns="http://www.w3.org/2000/svg"
   xmlns:svg="http://www.w3.org/2000/svg"><defs
   id="defs49">
	

		
		
		
		
		
	</defs><sodipodi:namedview
   id="namedview47"
   pagecolor="#ffffff"
   bordercolor="#666666"
   borderopacity="1.0"
   inkscape:pageshadow="2"
   inkscape:pageopacity="0.0"
   inkscape:pagecheckerboard="0"
   showgrid="false"
   inkscape:zoom="0.42237927"
   inkscape:cx="465.2217"
   inkscape:cy="246.22421"
   inkscape:window-width="2560"
   inkscape:window-height="1367"
   inkscape:window-x="0"
   inkscape:window-y="0"
   inkscape:window-maximized="1"
   inkscape:current-layer="Layer_1" />

<g
   id="g16"
   transform="matrix(1.8821322,0,0,1.8821322,-9.9393494,-62.172763)">
</g>
<g
   id="g18"
   transform="matrix(1.8821322,0,0,1.8821322,-9.9393494,-62.172763)">
</g>
<g
   id="g20"
   transform="matrix(1.8821322,0,0,1.8821322,-9.9393494,-62.172763)">
</g>
<g
   id="g22"
   transform="matrix(1.8821322,0,0,1.8821322,-9.9393494,-62.172763)">
</g>
<g
   id="g24"
   transform="matrix(1.8821322,0,0,1.8821322,-9.9393494,-62.172763)">
</g>
<g
   id="g26"
   transform="matrix(1.8821322,0,0,1.8821322,-9.9393494,-62.172763)">
</g>
<g
   id="g28"
   transform="matrix(1.8821322,0,0,1.8821322,-9.9393494,-62.172763)">
</g>
<g
   id="g30"
   transform="matrix(1.8821322,0,0,1.8821322,-9.9393494,-62.172763)">
</g>
<g
   id="g32"
   transform="matrix(1.8821322,0,0,1.8821322,-9.9393494,-62.172763)">
</g>
<g
   id="g34"
   transform="matrix(1.8821322,0,0,1.8821322,-9.9393494,-62.172763)">
</g>
<g
   id="g36"
   transform="matrix(1.8821322,0,0,1.8821322,-9.9393494,-62.172763)">
</g>
<g
   id="g38"
   transform="matrix(1.8821322,0,0,1.8821322,-9.9393494,-62.172763)">
</g>
<g
   id="g40"
   transform="matrix(1.8821322,0,0,1.8821322,-9.9393494,-62.172763)">
</g>
<g
   id="g42"
   transform="matrix(1.8821322,0,0,1.8821322,-9.9393494,-62.172763)">
</g>
<g
   id="g44"
   transform="matrix(1.8821322,0,0,1.8821322,-9.9393494,-62.172763)">
</g>
<path
   fill="#000000"
   d="m 132.79829,293.18221 c 0,1.5489 -0.69853,2.95698 -1.81617,4.50588 l -59.654346,60.12532 c -1.257351,1.12647 -2.654408,1.68971 -4.330877,1.68971 -1.536763,0 -2.93382,-0.56324 -4.330877,-1.68971 L 2.5925606,297.54728 c -1.81617437,-1.97132 -2.37499725,-4.22426 -1.2573515,-6.61801 0.9779401,-2.53456 2.7941144,-3.80183 5.5882288,-3.80183 H 42.827807 V 27.476153 c 0,-1.830513 0.558823,-3.238601 1.676469,-4.36507 1.117646,-1.12647 2.514703,-1.689705 4.330877,-1.689705 h 35.90437 c 1.816175,0 3.213232,0.563235 4.330878,1.689705 1.117645,1.126469 1.676468,2.534557 1.676468,4.36507 V 287.12744 h 35.904371 c 1.81617,0 3.21323,0.56323 4.33088,1.6897 1.25735,1.12647 1.81617,2.67537 1.81617,4.36507 z m 197.68359,24.2191 v 36.18784 c 0,1.83051 -0.55882,3.2386 -1.67647,4.36507 -1.11764,1.12647 -2.5147,1.68971 -4.33088,1.68971 H 168.70266 c -1.81618,0 -3.21323,-0.56324 -4.33088,-1.68971 -1.11765,-1.12647 -1.67647,-2.53456 -1.67647,-4.36507 v -36.18784 c 0,-1.83051 0.55882,-3.2386 1.67647,-4.36507 1.11765,-1.12647 2.5147,-1.6897 4.33088,-1.6897 h 155.77187 c 1.81618,0 3.21324,0.56323 4.33088,1.6897 1.11765,1.12647 1.67647,2.53456 1.67647,4.36507 z m -35.90437,-96.59478 v 36.18784 c 0,1.83051 -0.55882,3.2386 -1.67647,4.36507 -1.11764,1.12647 -2.5147,1.6897 -4.33088,1.6897 h -119.8675 c -1.81618,0 -3.21323,-0.56323 -4.33088,-1.6897 -1.11765,-1.12647 -1.67647,-2.53456 -1.67647,-4.36507 v -36.18784 c 0,-1.83052 0.55882,-3.2386 1.67647,-4.36507 1.11765,-1.12647 2.5147,-1.68971 4.33088,-1.68971 h 119.8675 c 1.81618,0 3.21324,0.56324 4.33088,1.68971 0.97794,0.98566 1.67647,2.53455 1.67647,4.36507 z m -36.04408,-96.7356 v 36.18785 c 0,1.83051 -0.55882,3.2386 -1.67646,4.36507 -1.11765,1.12647 -2.51471,1.6897 -4.33088,1.6897 h -83.96314 c -1.81617,0 -3.21323,-0.56323 -4.33088,-1.6897 -1.11764,-1.12647 -1.67647,-2.53456 -1.67647,-4.36507 v -36.18785 c 0,-1.83051 0.55883,-3.2386 1.67647,-4.36507 1.11765,-1.12647 2.51471,-1.6897 4.33088,-1.6897 h 83.82343 c 1.81618,0 3.21323,0.56323 4.33088,1.6897 1.25735,1.12647 1.81617,2.67537 1.81617,4.36507 z M 222.62906,27.476153 v 36.187841 c 0,1.830513 -0.55882,3.238601 -1.67646,4.36507 -1.11765,1.12647 -2.51471,1.689705 -4.33088,1.689705 h -47.91906 c -1.81618,0 -3.21323,-0.563235 -4.33088,-1.689705 -1.11765,-1.126469 -1.67647,-2.534557 -1.67647,-4.36507 V 27.476153 c 0,-1.830513 0.55882,-3.238601 1.67647,-4.36507 1.11765,-1.12647 2.5147,-1.689705 4.33088,-1.689705 h 47.91906 c 1.81617,0 3.21323,0.563235 4.33088,1.689705 1.11764,1.126469 1.67646,2.534557 1.67646,4.36507 z"
   id="path2335"
   style="fill:#929292;fill-opacity:1;stroke-width:1.40256" /><path
   d="m 320.18611,274.66742 c -21.98747,-3.75823 -42.85568,11.02055 -46.61457,33.00471 -3.75824,21.98746 11.02054,42.85633 33.0047,46.61457 21.98747,3.75824 42.85634,-11.02054 46.61458,-33.0047 3.75823,-21.98747 -11.02055,-42.85634 -33.00471,-46.61458 z m 10.29577,42.73389 c -1.61304,9.44458 -10.58038,15.79214 -20.02496,14.1791 -9.44457,-1.61304 -15.79213,-10.58038 -14.1791,-20.02495 1.61304,-9.44457 10.58039,-15.79214 20.02496,-14.1791 9.44457,1.61304 15.79545,10.57972 14.1791,20.02495 z"
   id="path2"
   style="fill:#717171;fill-opacity:1;stroke-width:0.66189" /><path
   d="m 344.38629,364.55798 c 6.35088,-3.9343 11.92867,-9.0481 16.41234,-15.11436 l 6.12385,4.52074 c 4.32415,-5.85578 7.63495,-12.34235 9.83773,-19.28628 l -7.2623,-2.30802 c 0.82009,-2.57875 1.53493,-5.21574 2.00289,-7.96061 0.82008,-4.79873 0.9657,-9.5465 0.63343,-14.193 l 7.6012,-0.5454 c -0.52223,-7.25238 -2.22331,-14.33134 -5.06283,-21.04824 l -7.00483,2.96197 c -2.92491,-6.92011 -7.14383,-13.21009 -12.40986,-18.54429 l 5.41231,-5.34414 c -5.12372,-5.18859 -11.01723,-9.46509 -17.51372,-12.71499 l -3.38559,6.77118 c -5.06946,-2.53506 -10.58039,-4.39167 -16.45338,-5.3951 l 1.27084,-7.44168 c -7.1981,-1.23046 -14.47762,-1.27746 -21.63137,-0.14562 l 1.19273,7.50986 c -7.49992,1.18942 -14.60271,3.79927 -20.98072,7.61178 l -3.89724,-6.51701 c -6.24564,3.73441 -11.80025,8.4279 -16.51758,13.94876 l 5.79489,4.94435 c -4.78483,5.60559 -8.54704,12.15239 -10.98679,19.42197 l -7.22854,-2.42319 c -1.08816,3.24328 -1.93141,6.60835 -2.51123,10.00056 -0.64072,3.745 -0.9624,7.55751 -0.95909,11.32899 l 7.61576,-0.008 c 0.007,7.65878 1.5078,15.06008 4.27319,21.90274 l -7.06241,2.85343 c 2.72105,6.73346 6.50311,12.94865 11.24095,18.4662 l 5.7373,-4.92053 c 4.8358,5.63603 10.75645,10.36659 17.49718,13.87397 l -3.50407,6.72684 c 6.10664,3.17907 12.67131,5.38186 19.51331,6.55077 0.34882,0.0609 0.69499,0.11516 1.04381,0.16944 l 1.16229,-7.50324 c 7.64884,1.18281 15.19246,0.87106 22.31246,-0.78302 l 1.70835,7.36424 c 7.07234,-1.64017 13.79983,-4.41947 19.99119,-8.25846 z m -38.78568,-4.54788 c -25.14537,-4.29701 -42.04949,-28.16823 -37.74917,-53.31427 4.29702,-25.14537 28.16824,-42.04618 53.31428,-37.74916 25.14537,4.29702 42.04949,28.16824 37.74916,53.31427 -4.301,25.14537 -28.16891,42.04618 -53.31427,37.74916 z"
   id="path8"
   style="fill:#717171;fill-opacity:1;stroke-width:0.66189" /></svg>
