<?xml version="1.0" encoding="utf-8"?>
<!-- Svg Vector Icons : http://www.onlinewebfonts.com/icon -->
<!DOCTYPE svg PUBLIC "-//W3C//DTD SVG 1.1//EN" "http://www.w3.org/Graphics/SVG/1.1/DTD/svg11.dtd">
<svg version="1.1" xmlns="http://www.w3.org/2000/svg" xmlns:xlink="http://www.w3.org/1999/xlink" x="0px" y="0px" viewBox="0 0 256 256" enable-background="new 0 0 256 256" xml:space="preserve">
<metadata> Svg Vector Icons : http://www.onlinewebfonts.com/icon </metadata>
<g><g><g><path fill="#000000" d="M104.5,200.9c0,1.1-0.5,2.1-1.3,3.2l-42.7,42.7c-0.9,0.8-1.9,1.2-3.1,1.2c-1.1,0-2.1-0.4-3.1-1.2L11.3,204c-1.3-1.4-1.7-3-0.9-4.7c0.7-1.8,2-2.7,4-2.7h25.7V12.2c0-1.3,0.4-2.3,1.2-3.1c0.8-0.8,1.8-1.2,3.1-1.2h25.7c1.3,0,2.3,0.4,3.1,1.2c0.8,0.8,1.2,1.8,1.2,3.1v184.4h25.7c1.3,0,2.3,0.4,3.1,1.2C104.1,198.6,104.5,199.7,104.5,200.9z M246,218.1v25.7c0,1.3-0.4,2.3-1.2,3.1c-0.8,0.8-1.8,1.2-3.1,1.2H130.2c-1.3,0-2.3-0.4-3.1-1.2c-0.8-0.8-1.2-1.8-1.2-3.1v-25.7c0-1.3,0.4-2.3,1.2-3.1s1.8-1.2,3.1-1.2h111.5c1.3,0,2.3,0.4,3.1,1.2C245.6,215.8,246,216.8,246,218.1z M220.3,149.5v25.7c0,1.3-0.4,2.3-1.2,3.1c-0.8,0.8-1.8,1.2-3.1,1.2h-85.8c-1.3,0-2.3-0.4-3.1-1.2s-1.2-1.8-1.2-3.1v-25.7c0-1.3,0.4-2.3,1.2-3.1c0.8-0.8,1.8-1.2,3.1-1.2H216c1.3,0,2.3,0.4,3.1,1.2C219.8,147.1,220.3,148.2,220.3,149.5z M194.5,80.8v25.7c0,1.3-0.4,2.3-1.2,3.1c-0.8,0.8-1.8,1.2-3.1,1.2h-60.1c-1.3,0-2.3-0.4-3.1-1.2c-0.8-0.8-1.2-1.8-1.2-3.1V80.8c0-1.3,0.4-2.3,1.2-3.1c0.8-0.8,1.8-1.2,3.1-1.2h60c1.3,0,2.3,0.4,3.1,1.2C194.1,78.5,194.5,79.6,194.5,80.8z M168.8,12.2v25.7c0,1.3-0.4,2.3-1.2,3.1c-0.8,0.8-1.8,1.2-3.1,1.2h-34.3c-1.3,0-2.3-0.4-3.1-1.2c-0.8-0.8-1.2-1.8-1.2-3.1V12.2c0-1.3,0.4-2.3,1.2-3.1c0.8-0.8,1.8-1.2,3.1-1.2h34.3c1.3,0,2.3,0.4,3.1,1.2C168.4,9.9,168.8,10.9,168.8,12.2z"/></g></g></g>
</svg>